{"accessors":[{"bufferView":0,"componentType":5126,"count":130,"min":[0.0,0.0,-45.5000114440918],"max":[45.5000114440918,26.200000762939454,0.0],"type":"VEC3","name":"part000_vertices#0_POSITION"},{"bufferView":0,"byteOffset":12,"componentType":5120,"count":130,"type":"VEC4","name":"part000_vertices#0_TANGENT"},{"bufferView":0,"byteOffset":16,"componentType":5120,"count":130,"type":"VEC4","name":"part000_vertices#0_NORMAL"},{"bufferView":0,"byteOffset":20,"componentType":5122,"count":130,"type":"VEC2","name":"part000_vertices#0_TEXCOORD_0"},{"bufferView":0,"byteOffset":24,"componentType":5122,"count":130,"type":"VEC2","name":"part000_vertices#0_TEXCOORD_1"},{"bufferView":0,"byteOffset":28,"componentType":5123,"count":130,"type":"VEC4","name":"part000_vertices#0_COLOR_0"},{"bufferView":1,"componentType":5123,"count":258,"type":"SCALAR","name":"part000_indices#0"},{"bufferView":0,"byteOffset":4680,"componentType":5126,"count":32,"min":[4.625,0.0,-45.5000114440918],"max":[45.5000114440918,24.77128028869629,0.0],"type":"VEC3","name":"part001_vertices#0_POSITION"},{"bufferView":0,"byteOffset":4692,"componentType":5120,"count":32,"type":"VEC4","name":"part001_vertices#0_TANGENT"},{"bufferView":0,"byteOffset":4696,"componentType":5120,"count":32,"type":"VEC4","name":"part001_vertices#0_NORMAL"},{"bufferView":0,"byteOffset":4700,"componentType":5122,"count":32,"type":"VEC2","name":"part001_vertices#0_TEXCOORD_0"},{"bufferView":0,"byteOffset":4704,"componentType":5122,"count":32,"type":"VEC2","name":"part001_vertices#0_TEXCOORD_1"},{"bufferView":0,"byteOffset":4708,"componentType":5123,"count":32,"type":"VEC4","name":"part001_vertices#0_COLOR_0"},{"bufferView":1,"byteOffset":516,"componentType":5123,"count":48,"type":"SCALAR","name":"part001_indices#0"},{"bufferView":0,"byteOffset":5832,"componentType":5126,"count":248,"min":[0.0,0.0,-45.5000114440918],"max":[45.5000114440918,26.200000762939454,0.0],"type":"VEC3","name":"part002_vertices#0_POSITION"},{"bufferView":0,"byteOffset":5844,"componentType":5120,"count":248,"type":"VEC4","name":"part002_vertices#0_TANGENT"},{"bufferView":0,"byteOffset":5848,"componentType":5120,"count":248,"type":"VEC4","name":"part002_vertices#0_NORMAL"},{"bufferView":0,"byteOffset":5852,"componentType":5122,"count":248,"type":"VEC2","name":"part002_vertices#0_TEXCOORD_0"},{"bufferView":0,"byteOffset":5856,"componentType":5122,"count":248,"type":"VEC2","name":"part002_vertices#0_TEXCOORD_1"},{"bufferView":0,"byteOffset":5860,"componentType":5123,"count":248,"type":"VEC4","name":"part002_vertices#0_COLOR_0"},{"bufferView":1,"byteOffset":612,"componentType":5123,"count":462,"type":"SCALAR","name":"part002_indices#0"},{"bufferView":0,"byteOffset":14760,"componentType":5126,"count":4,"min":[9.0,0.0,-2.0],"max":[10.0,25.200000762939454,-2.0],"type":"VEC3","name":"part003_vertices#0_POSITION"},{"bufferView":0,"byteOffset":14772,"componentType":5120,"count":4,"type":"VEC4","name":"part003_vertices#0_TANGENT"},{"bufferView":0,"byteOffset":14776,"componentType":5120,"count":4,"type":"VEC4","name":"part003_vertices#0_NORMAL"},{"bufferView":0,"byteOffset":14780,"componentType":5122,"count":4,"type":"VEC2","name":"part003_vertices#0_TEXCOORD_0"},{"bufferView":0,"byteOffset":14784,"componentType":5122,"count":4,"type":"VEC2","name":"part003_vertices#0_TEXCOORD_1"},{"bufferView":0,"byteOffset":14788,"componentType":5123,"count":4,"type":"VEC4","name":"part003_vertices#0_COLOR_0"},{"bufferView":1,"byteOffset":1536,"componentType":5123,"count":6,"type":"SCALAR","name":"part003_indices#0"},{"bufferView":0,"byteOffset":14904,"componentType":5126,"count":18,"min":[1.0,24.200000762939454,-43.9999885559082],"max":[43.9999885559082,24.200000762939454,-1.0],"type":"VEC3","name":"part004_vertices#0_POSITION"},{"bufferView":0,"byteOffset":14916,"componentType":5120,"count":18,"type":"VEC4","name":"part004_vertices#0_TANGENT"},{"bufferView":0,"byteOffset":14920,"componentType":5120,"count":18,"type":"VEC4","name":"part004_vertices#0_NORMAL"},{"bufferView":0,"byteOffset":14924,"componentType":5122,"count":18,"type":"VEC2","name":"part004_vertices#0_TEXCOORD_0"},{"bufferView":0,"byteOffset":14928,"componentType":5122,"count":18,"type":"VEC2","name":"part004_vertices#0_TEXCOORD_1"},{"bufferView":0,"byteOffset":14932,"componentType":5123,"count":18,"type":"VEC4","name":"part004_vertices#0_COLOR_0"},{"bufferView":1,"byteOffset":1548,"componentType":5123,"count":60,"type":"SCALAR","name":"part004_indices#0"}],"asset":{"generator":"ModelConverterX","version":"2.0","extensions":{"ASOBO_asset_optimized":{"BoundingBoxMax":[45.5000114440918,26.200000762939454,0.0],"BoundingBoxMin":[0.0,0.0,-45.5000114440918],"MajorVersion":4,"MinorVersion":4,"UseCheckerboardMaterialForMissingTextures":true,"UseOnlyFilenameForImageURI":true}}},"bufferViews":[{"buffer":0,"byteLength":15552,"byteStride":36,"target":34962,"name":"BufferViewVertexND"},{"buffer":0,"byteLength":1668,"byteOffset":15552,"target":34963,"name":"BufferViewIndex"}],"extensionsRequired":["MSFT_texture_dds"],"materials":[{"name":"glTF_Material","pbrMetallicRoughness":{"metallicFactor":0.0}},{"name":"glTF_Materialx","pbrMetallicRoughness":{"metallicFactor":0.0,"baseColorTexture":{"index":0}}},{"name":"glTF_Materialxx","pbrMetallicRoughness":{"metallicFactor":0.0,"baseColorTexture":{"index":1}}},{"name":"glTF_Materialxxx","pbrMetallicRoughness":{"metallicFactor":0.0,"baseColorTexture":{"index":2}}},{"name":"glTF_Materialxxxx","pbrMetallicRoughness":{"metallicFactor":0.0,"baseColorTexture":{"index":3}}}],"meshes":[{"primitives":[{"attributes":{"COLOR_0":5,"NORMAL":2,"POSITION":0,"TANGENT":1,"TEXCOORD_0":3,"TEXCOORD_1":4},"indices":6,"material":0,"mode":4,"extras":{"ASOBO_primitive":{"PrimitiveCount":86,"VertexType":"VTX","VertexVersion":2}}}],"name":"part000"},{"primitives":[{"attributes":{"COLOR_0":12,"NORMAL":9,"POSITION":7,"TANGENT":8,"TEXCOORD_0":10,"TEXCOORD_1":11},"indices":13,"material":2,"mode":4,"extras":{"ASOBO_primitive":{"PrimitiveCount":16,"VertexType":"VTX","VertexVersion":2}}}],"name":"part001"},{"primitives":[{"attributes":{"COLOR_0":19,"NORMAL":16,"POSITION":14,"TANGENT":15,"TEXCOORD_0":17,"TEXCOORD_1":18},"indices":20,"material":3,"mode":4,"extras":{"ASOBO_primitive":{"PrimitiveCount":154,"VertexType":"VTX","VertexVersion":2}}}],"name":"part002"},{"primitives":[{"attributes":{"COLOR_0":26,"NORMAL":23,"POSITION":21,"TANGENT":22,"TEXCOORD_0":24,"TEXCOORD_1":25},"indices":27,"material":4,"mode":4,"extras":{"ASOBO_primitive":{"PrimitiveCount":2,"VertexType":"VTX","VertexVersion":2}}}],"name":"part003"},{"primitives":[{"attributes":{"COLOR_0":33,"NORMAL":30,"POSITION":28,"TANGENT":29,"TEXCOORD_0":31,"TEXCOORD_1":32},"indices":34,"material":1,"mode":4,"extras":{"ASOBO_primitive":{"PrimitiveCount":20,"VertexType":"VTX","VertexVersion":2}}}],"name":"part004"}],"nodes":[{"name":"node0","children":[1,2,3,4,5]},{"mesh":0,"name":"node1"},{"mesh":1,"name":"node2"},{"mesh":2,"name":"node3"},{"mesh":3,"name":"node4"},{"mesh":4,"name":"node5"}],"scene":0,"scenes":[{"nodes":[0]}],"textures":[{"extensions":{"MSFT_texture_dds":{"source":0}}},{"extensions":{"MSFT_texture_dds":{"source":1}}},{"extensions":{"MSFT_texture_dds":{"source":2}}},{"extensions":{"MSFT_texture_dds":{"source":3}}}],"extensionsUsed":["MSFT_texture_dds","ASOBO_asset_optimized"],"buffers":[{"byteLength":17220,"uri":"HERZELIAMISRADIM3.bin"}],"images":[{"uri":"MISRADIM3ROOF.PNG.DDS","extras":"ASOBO_image_converted_meta"},{"uri":"MISRADIM3WALL1.PNG.DDS","extras":"ASOBO_image_converted_meta"},{"uri":"MISRADIM3WALL2.PNG.DDS","extras":"ASOBO_image_converted_meta"},{"uri":"MISRADIM3WINDOW.PNG.DDS","extras":"ASOBO_image_converted_meta"}]}
