{"accessors":[{"bufferView":0,"componentType":5126,"count":30,"min":[0.0,0.0,-20.0],"max":[25.0,7.0,0.0],"type":"VEC3","name":"part000_vertices#0_POSITION"},{"bufferView":0,"byteOffset":12,"componentType":5120,"count":30,"type":"VEC4","name":"part000_vertices#0_TANGENT"},{"bufferView":0,"byteOffset":16,"componentType":5120,"count":30,"type":"VEC4","name":"part000_vertices#0_NORMAL"},{"bufferView":0,"byteOffset":20,"componentType":5122,"count":30,"type":"VEC2","name":"part000_vertices#0_TEXCOORD_0"},{"bufferView":0,"byteOffset":24,"componentType":5122,"count":30,"type":"VEC2","name":"part000_vertices#0_TEXCOORD_1"},{"bufferView":0,"byteOffset":28,"componentType":5123,"count":30,"type":"VEC4","name":"part000_vertices#0_COLOR_0"},{"bufferView":1,"componentType":5123,"count":54,"type":"SCALAR","name":"part000_indices#0"},{"bufferView":0,"byteOffset":1080,"componentType":5126,"count":8,"min":[0.0,0.0,0.0],"max":[25.0,4.5,0.0],"type":"VEC3","name":"part001_vertices#0_POSITION"},{"bufferView":0,"byteOffset":1092,"componentType":5120,"count":8,"type":"VEC4","name":"part001_vertices#0_TANGENT"},{"bufferView":0,"byteOffset":1096,"componentType":5120,"count":8,"type":"VEC4","name":"part001_vertices#0_NORMAL"},{"bufferView":0,"byteOffset":1100,"componentType":5122,"count":8,"type":"VEC2","name":"part001_vertices#0_TEXCOORD_0"},{"bufferView":0,"byteOffset":1104,"componentType":5122,"count":8,"type":"VEC2","name":"part001_vertices#0_TEXCOORD_1"},{"bufferView":0,"byteOffset":1108,"componentType":5123,"count":8,"type":"VEC4","name":"part001_vertices#0_COLOR_0"},{"bufferView":1,"byteOffset":108,"componentType":5123,"count":12,"type":"SCALAR","name":"part001_indices#0"},{"bufferView":0,"byteOffset":1368,"componentType":5126,"count":16,"min":[0.30000001192092898,0.0,-10.0],"max":[24.700000762939454,4.5,0.0],"type":"VEC3","name":"part002_vertices#0_POSITION"},{"bufferView":0,"byteOffset":1380,"componentType":5120,"count":16,"type":"VEC4","name":"part002_vertices#0_TANGENT"},{"bufferView":0,"byteOffset":1384,"componentType":5120,"count":16,"type":"VEC4","name":"part002_vertices#0_NORMAL"},{"bufferView":0,"byteOffset":1388,"componentType":5122,"count":16,"type":"VEC2","name":"part002_vertices#0_TEXCOORD_0"},{"bufferView":0,"byteOffset":1392,"componentType":5122,"count":16,"type":"VEC2","name":"part002_vertices#0_TEXCOORD_1"},{"bufferView":0,"byteOffset":1396,"componentType":5123,"count":16,"type":"VEC4","name":"part002_vertices#0_COLOR_0"},{"bufferView":1,"byteOffset":132,"componentType":5123,"count":24,"type":"SCALAR","name":"part002_indices#0"},{"bufferView":0,"byteOffset":1944,"componentType":5126,"count":6,"min":[0.0,4.5,0.0],"max":[25.0,5.0,0.0],"type":"VEC3","name":"part003_vertices#0_POSITION"},{"bufferView":0,"byteOffset":1956,"componentType":5120,"count":6,"type":"VEC4","name":"part003_vertices#0_TANGENT"},{"bufferView":0,"byteOffset":1960,"componentType":5120,"count":6,"type":"VEC4","name":"part003_vertices#0_NORMAL"},{"bufferView":0,"byteOffset":1964,"componentType":5122,"count":6,"type":"VEC2","name":"part003_vertices#0_TEXCOORD_0"},{"bufferView":0,"byteOffset":1968,"componentType":5122,"count":6,"type":"VEC2","name":"part003_vertices#0_TEXCOORD_1"},{"bufferView":0,"byteOffset":1972,"componentType":5123,"count":6,"type":"VEC4","name":"part003_vertices#0_COLOR_0"},{"bufferView":1,"byteOffset":180,"componentType":5123,"count":12,"type":"SCALAR","name":"part003_indices#0"}],"asset":{"generator":"ModelConverterX","version":"2.0","extensions":{"ASOBO_asset_optimized":{"BoundingBoxMax":[25.0,7.0,0.0],"BoundingBoxMin":[0.0,0.0,-20.0],"MajorVersion":4,"MinorVersion":4,"UseCheckerboardMaterialForMissingTextures":true,"UseOnlyFilenameForImageURI":true}}},"bufferViews":[{"buffer":0,"byteLength":2160,"byteStride":36,"target":34962,"name":"BufferViewVertexND"},{"buffer":0,"byteLength":204,"byteOffset":2160,"target":34963,"name":"BufferViewIndex"}],"extensionsRequired":["MSFT_texture_dds"],"materials":[{"name":"glTF_Material","pbrMetallicRoughness":{"metallicFactor":0.0,"baseColorTexture":{"index":0}}},{"name":"glTF_Materialx","pbrMetallicRoughness":{"metallicFactor":0.0,"baseColorTexture":{"index":1}}},{"name":"glTF_Materialxx","pbrMetallicRoughness":{"metallicFactor":0.0,"baseColorTexture":{"index":2}}},{"name":"glTF_Materialxxx","pbrMetallicRoughness":{"metallicFactor":0.0,"baseColorTexture":{"index":3}}}],"meshes":[{"primitives":[{"attributes":{"COLOR_0":5,"NORMAL":2,"POSITION":0,"TANGENT":1,"TEXCOORD_0":3,"TEXCOORD_1":4},"indices":6,"material":0,"mode":4,"extras":{"ASOBO_primitive":{"PrimitiveCount":18,"VertexType":"VTX","VertexVersion":2}}}],"name":"part000"},{"primitives":[{"attributes":{"COLOR_0":12,"NORMAL":9,"POSITION":7,"TANGENT":8,"TEXCOORD_0":10,"TEXCOORD_1":11},"indices":13,"material":3,"mode":4,"extras":{"ASOBO_primitive":{"PrimitiveCount":4,"VertexType":"VTX","VertexVersion":2}}}],"name":"part001"},{"primitives":[{"attributes":{"COLOR_0":19,"NORMAL":16,"POSITION":14,"TANGENT":15,"TEXCOORD_0":17,"TEXCOORD_1":18},"indices":20,"material":2,"mode":4,"extras":{"ASOBO_primitive":{"PrimitiveCount":8,"VertexType":"VTX","VertexVersion":2}}}],"name":"part002"},{"primitives":[{"attributes":{"COLOR_0":26,"NORMAL":23,"POSITION":21,"TANGENT":22,"TEXCOORD_0":24,"TEXCOORD_1":25},"indices":27,"material":1,"mode":4,"extras":{"ASOBO_primitive":{"PrimitiveCount":4,"VertexType":"VTX","VertexVersion":2}}}],"name":"part003"}],"nodes":[{"name":"node0","children":[1,2,3,4]},{"mesh":0,"name":"node1"},{"mesh":1,"name":"node2"},{"mesh":2,"name":"node3"},{"mesh":3,"name":"node4"}],"scene":0,"scenes":[{"nodes":[0]}],"textures":[{"extensions":{"MSFT_texture_dds":{"source":0}}},{"extensions":{"MSFT_texture_dds":{"source":1}}},{"extensions":{"MSFT_texture_dds":{"source":2}}},{"extensions":{"MSFT_texture_dds":{"source":3}}}],"extensionsUsed":["MSFT_texture_dds","ASOBO_asset_optimized"],"buffers":[{"byteLength":2364,"uri":"Maintanence Hangar2.bin"}],"images":[{"uri":"MH2ROOF.PNG.DDS","extras":"ASOBO_image_converted_meta"},{"uri":"MH2WALL1.PNG.DDS","extras":"ASOBO_image_converted_meta"},{"uri":"MH2WALL3.PNG.DDS","extras":"ASOBO_image_converted_meta"},{"uri":"MH2WALL4.PNG.DDS","extras":"ASOBO_image_converted_meta"}]}
