{"accessors":[{"bufferView":0,"componentType":5126,"count":290,"min":[-112.6781005859375,-0.15342000126838685,13.880629539489746],"max":[34.64202880859375,9.85593032836914,58.54866027832031],"type":"VEC3","name":"part000_vertices#0_POSITION"},{"bufferView":0,"byteOffset":12,"componentType":5120,"count":290,"type":"VEC4","name":"part000_vertices#0_TANGENT"},{"bufferView":0,"byteOffset":16,"componentType":5120,"count":290,"type":"VEC4","name":"part000_vertices#0_NORMAL"},{"bufferView":0,"byteOffset":20,"componentType":5122,"count":290,"type":"VEC2","name":"part000_vertices#0_TEXCOORD_0"},{"bufferView":0,"byteOffset":24,"componentType":5122,"count":290,"type":"VEC2","name":"part000_vertices#0_TEXCOORD_1"},{"bufferView":0,"byteOffset":28,"componentType":5123,"count":290,"type":"VEC4","name":"part000_vertices#0_COLOR_0"},{"bufferView":1,"componentType":5123,"count":486,"type":"SCALAR","name":"part000_indices#0"},{"bufferView":0,"byteOffset":10440,"componentType":5126,"count":84,"min":[-26.395339965820314,5.82774019241333,9.892849922180176],"max":[25.391620635986329,7.497779846191406,12.910090446472168],"type":"VEC3","name":"part001_vertices#0_POSITION"},{"bufferView":0,"byteOffset":10452,"componentType":5120,"count":84,"type":"VEC4","name":"part001_vertices#0_TANGENT"},{"bufferView":0,"byteOffset":10456,"componentType":5120,"count":84,"type":"VEC4","name":"part001_vertices#0_NORMAL"},{"bufferView":0,"byteOffset":10460,"componentType":5122,"count":84,"type":"VEC2","name":"part001_vertices#0_TEXCOORD_0"},{"bufferView":0,"byteOffset":10464,"componentType":5122,"count":84,"type":"VEC2","name":"part001_vertices#0_TEXCOORD_1"},{"bufferView":0,"byteOffset":10468,"componentType":5123,"count":84,"type":"VEC4","name":"part001_vertices#0_COLOR_0"},{"bufferView":1,"byteOffset":972,"componentType":5123,"count":180,"type":"SCALAR","name":"part001_indices#0"},{"bufferView":0,"byteOffset":13464,"componentType":5126,"count":947,"min":[-64.38027954101563,-0.029419999569654466,-10.987199783325196],"max":[25.43840980529785,10.022459983825684,53.51750946044922],"type":"VEC3","name":"part002_vertices#0_POSITION"},{"bufferView":0,"byteOffset":13476,"componentType":5120,"count":947,"type":"VEC4","name":"part002_vertices#0_TANGENT"},{"bufferView":0,"byteOffset":13480,"componentType":5120,"count":947,"type":"VEC4","name":"part002_vertices#0_NORMAL"},{"bufferView":0,"byteOffset":13484,"componentType":5122,"count":947,"type":"VEC2","name":"part002_vertices#0_TEXCOORD_0"},{"bufferView":0,"byteOffset":13488,"componentType":5122,"count":947,"type":"VEC2","name":"part002_vertices#0_TEXCOORD_1"},{"bufferView":0,"byteOffset":13492,"componentType":5123,"count":947,"type":"VEC4","name":"part002_vertices#0_COLOR_0"},{"bufferView":1,"byteOffset":1332,"componentType":5123,"count":1866,"type":"SCALAR","name":"part002_indices#0"}],"asset":{"generator":"ModelConverterX","version":"2.0","extensions":{"ASOBO_asset_optimized":{"BoundingBoxMax":[34.64202880859375,10.022459983825684,58.54866027832031],"BoundingBoxMin":[-112.6781005859375,-0.15342000126838685,-10.987199783325196],"MajorVersion":4,"MinorVersion":4,"UseCheckerboardMaterialForMissingTextures":true,"UseOnlyFilenameForImageURI":true}}},"bufferViews":[{"buffer":0,"byteLength":47556,"byteStride":36,"target":34962,"name":"BufferViewVertexND"},{"buffer":0,"byteLength":5064,"byteOffset":47556,"target":34963,"name":"BufferViewIndex"}],"extensionsRequired":["MSFT_texture_dds"],"materials":[{"name":"glTF_Material","emissiveTexture":{"index":1},"pbrMetallicRoughness":{"baseColorFactor":[0.5879999995231628,0.5879999995231628,0.5879999995231628,1.0],"metallicFactor":0.0,"baseColorTexture":{"index":0}}},{"name":"glTF_Materialx","emissiveTexture":{"index":3},"pbrMetallicRoughness":{"baseColorFactor":[0.5879999995231628,0.5879999995231628,0.5879999995231628,1.0],"metallicFactor":0.0,"baseColorTexture":{"index":2}}},{"name":"glTF_Materialxx","emissiveTexture":{"index":4},"pbrMetallicRoughness":{"baseColorFactor":[0.5879999995231628,0.5879999995231628,0.5879999995231628,1.0],"metallicFactor":0.0,"baseColorTexture":{"index":2}}}],"meshes":[{"primitives":[{"attributes":{"COLOR_0":5,"NORMAL":2,"POSITION":0,"TANGENT":1,"TEXCOORD_0":3,"TEXCOORD_1":4},"indices":6,"material":0,"mode":4,"extras":{"ASOBO_primitive":{"PrimitiveCount":162,"VertexType":"VTX","VertexVersion":2}}}],"name":"part000"},{"primitives":[{"attributes":{"COLOR_0":12,"NORMAL":9,"POSITION":7,"TANGENT":8,"TEXCOORD_0":10,"TEXCOORD_1":11},"indices":13,"material":2,"mode":4,"extras":{"ASOBO_primitive":{"PrimitiveCount":60,"VertexType":"VTX","VertexVersion":2}}}],"name":"part001"},{"primitives":[{"attributes":{"COLOR_0":19,"NORMAL":16,"POSITION":14,"TANGENT":15,"TEXCOORD_0":17,"TEXCOORD_1":18},"indices":20,"material":1,"mode":4,"extras":{"ASOBO_primitive":{"PrimitiveCount":622,"VertexType":"VTX","VertexVersion":2}}}],"name":"part002"}],"nodes":[{"name":"node0","children":[1,2,3]},{"mesh":0,"name":"node1"},{"mesh":1,"name":"node2"},{"mesh":2,"name":"node3"}],"scene":0,"scenes":[{"nodes":[0]}],"textures":[{"extensions":{"MSFT_texture_dds":{"source":0}}},{"extensions":{"MSFT_texture_dds":{"source":1}}},{"extensions":{"MSFT_texture_dds":{"source":2}}},{"extensions":{"MSFT_texture_dds":{"source":3}}},{"extensions":{"MSFT_texture_dds":{"source":4}}}],"extensionsUsed":["MSFT_texture_dds","ASOBO_asset_optimized"],"buffers":[{"byteLength":52620,"uri":"Shirgal2a.bin"}],"images":[{"uri":"FNA.PNG.DDS","extras":"ASOBO_image_converted_meta"},{"uri":"FNA_LM.PNG.DDS","extras":"ASOBO_image_converted_meta"},{"uri":"SHIRGAL.PNG.DDS","extras":"ASOBO_image_converted_meta"},{"uri":"SHIRGAL_LM.PNG.DDS","extras":"ASOBO_image_converted_meta"},{"uri":"SHIRGAL_LMA.PNG.DDS","extras":"ASOBO_image_converted_meta"}]}
