{"accessors":[{"bufferView":0,"componentType":5126,"count":12,"min":[-0.014220000244677067,0.25,-10.482020378112793],"max":[4.800000190734863,0.25,0.0],"type":"VEC3","name":"part000_vertices#0_POSITION"},{"bufferView":0,"byteOffset":12,"componentType":5120,"count":12,"type":"VEC4","name":"part000_vertices#0_TANGENT"},{"bufferView":0,"byteOffset":16,"componentType":5120,"count":12,"type":"VEC4","name":"part000_vertices#0_NORMAL"},{"bufferView":0,"byteOffset":20,"componentType":5122,"count":12,"type":"VEC2","name":"part000_vertices#0_TEXCOORD_0"},{"bufferView":0,"byteOffset":24,"componentType":5122,"count":12,"type":"VEC2","name":"part000_vertices#0_TEXCOORD_1"},{"bufferView":0,"byteOffset":28,"componentType":5123,"count":12,"type":"VEC4","name":"part000_vertices#0_COLOR_0"},{"bufferView":1,"componentType":5123,"count":42,"type":"SCALAR","name":"part000_indices#0"},{"bufferView":0,"byteOffset":432,"componentType":5126,"count":32,"min":[-0.014220000244677067,0.0,-10.482020378112793],"max":[4.800000190734863,0.25,0.0],"type":"VEC3","name":"part001_vertices#0_POSITION"},{"bufferView":0,"byteOffset":444,"componentType":5120,"count":32,"type":"VEC4","name":"part001_vertices#0_TANGENT"},{"bufferView":0,"byteOffset":448,"componentType":5120,"count":32,"type":"VEC4","name":"part001_vertices#0_NORMAL"},{"bufferView":0,"byteOffset":452,"componentType":5122,"count":32,"type":"VEC2","name":"part001_vertices#0_TEXCOORD_0"},{"bufferView":0,"byteOffset":456,"componentType":5122,"count":32,"type":"VEC2","name":"part001_vertices#0_TEXCOORD_1"},{"bufferView":0,"byteOffset":460,"componentType":5123,"count":32,"type":"VEC4","name":"part001_vertices#0_COLOR_0"},{"bufferView":1,"byteOffset":84,"componentType":5123,"count":48,"type":"SCALAR","name":"part001_indices#0"},{"bufferView":0,"byteOffset":1584,"componentType":5126,"count":16,"min":[1.4373799562454224,0.25,-5.96491003036499],"max":[2.3273799419403078,0.25,-4.6337199211120609],"type":"VEC3","name":"part002_vertices#0_POSITION"},{"bufferView":0,"byteOffset":1596,"componentType":5120,"count":16,"type":"VEC4","name":"part002_vertices#0_TANGENT"},{"bufferView":0,"byteOffset":1600,"componentType":5120,"count":16,"type":"VEC4","name":"part002_vertices#0_NORMAL"},{"bufferView":0,"byteOffset":1604,"componentType":5122,"count":16,"type":"VEC2","name":"part002_vertices#0_TEXCOORD_0"},{"bufferView":0,"byteOffset":1608,"componentType":5122,"count":16,"type":"VEC2","name":"part002_vertices#0_TEXCOORD_1"},{"bufferView":0,"byteOffset":1612,"componentType":5123,"count":16,"type":"VEC4","name":"part002_vertices#0_COLOR_0"},{"bufferView":1,"byteOffset":180,"componentType":5123,"count":24,"type":"SCALAR","name":"part002_indices#0"}],"asset":{"generator":"ModelConverterX","version":"2.0","extensions":{"ASOBO_asset_optimized":{"BoundingBoxMax":[4.800000190734863,0.25,0.0],"BoundingBoxMin":[-0.014220000244677067,0.0,-10.482020378112793],"MajorVersion":4,"MinorVersion":4,"UseCheckerboardMaterialForMissingTextures":true,"UseOnlyFilenameForImageURI":true}}},"bufferViews":[{"buffer":0,"byteLength":2160,"byteStride":36,"target":34962,"name":"BufferViewVertexND"},{"buffer":0,"byteLength":228,"byteOffset":2160,"target":34963,"name":"BufferViewIndex"}],"extensionsRequired":["MSFT_texture_dds"],"materials":[{"name":"glTF_Material","pbrMetallicRoughness":{"metallicFactor":0.0,"baseColorTexture":{"index":0}}},{"name":"glTF_Materialx","pbrMetallicRoughness":{"metallicFactor":0.0,"baseColorTexture":{"index":1}}},{"name":"glTF_Materialxx","pbrMetallicRoughness":{"metallicFactor":0.0,"baseColorTexture":{"index":2}}}],"meshes":[{"primitives":[{"attributes":{"COLOR_0":5,"NORMAL":2,"POSITION":0,"TANGENT":1,"TEXCOORD_0":3,"TEXCOORD_1":4},"indices":6,"material":2,"mode":4,"extras":{"ASOBO_primitive":{"PrimitiveCount":14,"VertexType":"VTX","VertexVersion":2}}}],"name":"part000"},{"primitives":[{"attributes":{"COLOR_0":12,"NORMAL":9,"POSITION":7,"TANGENT":8,"TEXCOORD_0":10,"TEXCOORD_1":11},"indices":13,"material":1,"mode":4,"extras":{"ASOBO_primitive":{"PrimitiveCount":16,"VertexType":"VTX","VertexVersion":2}}}],"name":"part001"},{"primitives":[{"attributes":{"COLOR_0":19,"NORMAL":16,"POSITION":14,"TANGENT":15,"TEXCOORD_0":17,"TEXCOORD_1":18},"indices":20,"material":0,"mode":4,"extras":{"ASOBO_primitive":{"PrimitiveCount":8,"VertexType":"VTX","VertexVersion":2}}}],"name":"part002"}],"nodes":[{"name":"node0","children":[1,2,3]},{"mesh":0,"name":"node1"},{"mesh":1,"name":"node2"},{"mesh":2,"name":"node3"}],"scene":0,"scenes":[{"nodes":[0]}],"textures":[{"extensions":{"MSFT_texture_dds":{"source":0}}},{"extensions":{"MSFT_texture_dds":{"source":1}}},{"extensions":{"MSFT_texture_dds":{"source":2}}}],"extensionsUsed":["MSFT_texture_dds","ASOBO_asset_optimized"],"buffers":[{"byteLength":2388,"uri":"LLHZSIDEWALK.bin"}],"images":[{"uri":"BLUECONCRETE.PNG.DDS","extras":"ASOBO_image_converted_meta"},{"uri":"POLISHED_CONCRETE_NEW.PNG.DDS","extras":"ASOBO_image_converted_meta"},{"uri":"REDWHITESTRIPES.PNG.DDS","extras":"ASOBO_image_converted_meta"}]}
