{"accessors":[{"bufferView":0,"componentType":5126,"count":1428,"min":[0.0,0.0,-20.200000762939454],"max":[20.0,13.5,0.20000000298023225],"type":"VEC3","name":"part000_vertices#0_POSITION"},{"bufferView":0,"byteOffset":12,"componentType":5120,"count":1428,"type":"VEC4","name":"part000_vertices#0_TANGENT"},{"bufferView":0,"byteOffset":16,"componentType":5120,"count":1428,"type":"VEC4","name":"part000_vertices#0_NORMAL"},{"bufferView":0,"byteOffset":20,"componentType":5122,"count":1428,"type":"VEC2","name":"part000_vertices#0_TEXCOORD_0"},{"bufferView":0,"byteOffset":24,"componentType":5122,"count":1428,"type":"VEC2","name":"part000_vertices#0_TEXCOORD_1"},{"bufferView":0,"byteOffset":28,"componentType":5123,"count":1428,"type":"VEC4","name":"part000_vertices#0_COLOR_0"},{"bufferView":1,"componentType":5123,"count":1428,"type":"SCALAR","name":"part000_indices#0"},{"bufferView":0,"byteOffset":51408,"componentType":5126,"count":92,"min":[-0.5,2.5999999046325685,-20.5],"max":[20.5,8.6564302444458,0.5],"type":"VEC3","name":"part001_vertices#0_POSITION"},{"bufferView":0,"byteOffset":51420,"componentType":5120,"count":92,"type":"VEC4","name":"part001_vertices#0_TANGENT"},{"bufferView":0,"byteOffset":51424,"componentType":5120,"count":92,"type":"VEC4","name":"part001_vertices#0_NORMAL"},{"bufferView":0,"byteOffset":51428,"componentType":5122,"count":92,"type":"VEC2","name":"part001_vertices#0_TEXCOORD_0"},{"bufferView":0,"byteOffset":51432,"componentType":5122,"count":92,"type":"VEC2","name":"part001_vertices#0_TEXCOORD_1"},{"bufferView":0,"byteOffset":51436,"componentType":5123,"count":92,"type":"VEC4","name":"part001_vertices#0_COLOR_0"},{"bufferView":1,"byteOffset":2856,"componentType":5123,"count":138,"type":"SCALAR","name":"part001_indices#0"},{"bufferView":0,"byteOffset":54720,"componentType":5126,"count":305,"min":[-0.5,0.0,-20.5],"max":[20.5,11.399999618530274,0.5],"type":"VEC3","name":"part002_vertices#0_POSITION"},{"bufferView":0,"byteOffset":54732,"componentType":5120,"count":305,"type":"VEC4","name":"part002_vertices#0_TANGENT"},{"bufferView":0,"byteOffset":54736,"componentType":5120,"count":305,"type":"VEC4","name":"part002_vertices#0_NORMAL"},{"bufferView":0,"byteOffset":54740,"componentType":5122,"count":305,"type":"VEC2","name":"part002_vertices#0_TEXCOORD_0"},{"bufferView":0,"byteOffset":54744,"componentType":5122,"count":305,"type":"VEC2","name":"part002_vertices#0_TEXCOORD_1"},{"bufferView":0,"byteOffset":54748,"componentType":5123,"count":305,"type":"VEC4","name":"part002_vertices#0_COLOR_0"},{"bufferView":1,"byteOffset":3132,"componentType":5123,"count":459,"type":"SCALAR","name":"part002_indices#0"},{"bufferView":0,"byteOffset":65700,"componentType":5126,"count":115,"min":[-0.4949199855327606,2.5999999046325685,-20.0],"max":[20.0,10.399999618530274,0.0],"type":"VEC3","name":"part003_vertices#0_POSITION"},{"bufferView":0,"byteOffset":65712,"componentType":5120,"count":115,"type":"VEC4","name":"part003_vertices#0_TANGENT"},{"bufferView":0,"byteOffset":65716,"componentType":5120,"count":115,"type":"VEC4","name":"part003_vertices#0_NORMAL"},{"bufferView":0,"byteOffset":65720,"componentType":5122,"count":115,"type":"VEC2","name":"part003_vertices#0_TEXCOORD_0"},{"bufferView":0,"byteOffset":65724,"componentType":5122,"count":115,"type":"VEC2","name":"part003_vertices#0_TEXCOORD_1"},{"bufferView":0,"byteOffset":65728,"componentType":5123,"count":115,"type":"VEC4","name":"part003_vertices#0_COLOR_0"},{"bufferView":1,"byteOffset":4050,"componentType":5123,"count":321,"type":"SCALAR","name":"part003_indices#0"},{"bufferView":0,"byteOffset":69840,"componentType":5126,"count":494,"min":[0.0,10.399999618530274,-20.0],"max":[20.0,13.5,0.20000000298023225],"type":"VEC3","name":"part004_vertices#0_POSITION"},{"bufferView":0,"byteOffset":69852,"componentType":5120,"count":494,"type":"VEC4","name":"part004_vertices#0_TANGENT"},{"bufferView":0,"byteOffset":69856,"componentType":5120,"count":494,"type":"VEC4","name":"part004_vertices#0_NORMAL"},{"bufferView":0,"byteOffset":69860,"componentType":5122,"count":494,"type":"VEC2","name":"part004_vertices#0_TEXCOORD_0"},{"bufferView":0,"byteOffset":69864,"componentType":5122,"count":494,"type":"VEC2","name":"part004_vertices#0_TEXCOORD_1"},{"bufferView":0,"byteOffset":69868,"componentType":5123,"count":494,"type":"VEC4","name":"part004_vertices#0_COLOR_0"},{"bufferView":1,"byteOffset":4692,"componentType":5123,"count":1305,"type":"SCALAR","name":"part004_indices#0"},{"bufferView":0,"byteOffset":87624,"componentType":5126,"count":624,"min":[0.0,0.0,-20.200000762939454],"max":[20.0,11.399999618530274,0.20000000298023225],"type":"VEC3","name":"part005_vertices#0_POSITION"},{"bufferView":0,"byteOffset":87636,"componentType":5120,"count":624,"type":"VEC4","name":"part005_vertices#0_TANGENT"},{"bufferView":0,"byteOffset":87640,"componentType":5120,"count":624,"type":"VEC4","name":"part005_vertices#0_NORMAL"},{"bufferView":0,"byteOffset":87644,"componentType":5122,"count":624,"type":"VEC2","name":"part005_vertices#0_TEXCOORD_0"},{"bufferView":0,"byteOffset":87648,"componentType":5122,"count":624,"type":"VEC2","name":"part005_vertices#0_TEXCOORD_1"},{"bufferView":0,"byteOffset":87652,"componentType":5123,"count":624,"type":"VEC4","name":"part005_vertices#0_COLOR_0"},{"bufferView":1,"byteOffset":7302,"componentType":5123,"count":1104,"type":"SCALAR","name":"part005_indices#0"},{"bufferView":0,"byteOffset":110088,"componentType":5126,"count":134,"min":[0.0,2.5999999046325685,-20.5],"max":[20.0,10.399999618530274,0.5],"type":"VEC3","name":"part006_vertices#0_POSITION"},{"bufferView":0,"byteOffset":110100,"componentType":5120,"count":134,"type":"VEC4","name":"part006_vertices#0_TANGENT"},{"bufferView":0,"byteOffset":110104,"componentType":5120,"count":134,"type":"VEC4","name":"part006_vertices#0_NORMAL"},{"bufferView":0,"byteOffset":110108,"componentType":5122,"count":134,"type":"VEC2","name":"part006_vertices#0_TEXCOORD_0"},{"bufferView":0,"byteOffset":110112,"componentType":5122,"count":134,"type":"VEC2","name":"part006_vertices#0_TEXCOORD_1"},{"bufferView":0,"byteOffset":110116,"componentType":5123,"count":134,"type":"VEC4","name":"part006_vertices#0_COLOR_0"},{"bufferView":1,"byteOffset":9510,"componentType":5123,"count":354,"type":"SCALAR","name":"part006_indices#0"},{"bufferView":0,"byteOffset":114912,"componentType":5126,"count":10,"min":[0.009999999776482582,11.399999618530274,-20.0],"max":[9.760000228881836,12.149999618530274,-20.0],"type":"VEC3","name":"part007_vertices#0_POSITION"},{"bufferView":0,"byteOffset":114924,"componentType":5120,"count":10,"type":"VEC4","name":"part007_vertices#0_TANGENT"},{"bufferView":0,"byteOffset":114928,"componentType":5120,"count":10,"type":"VEC4","name":"part007_vertices#0_NORMAL"},{"bufferView":0,"byteOffset":114932,"componentType":5122,"count":10,"type":"VEC2","name":"part007_vertices#0_TEXCOORD_0"},{"bufferView":0,"byteOffset":114936,"componentType":5122,"count":10,"type":"VEC2","name":"part007_vertices#0_TEXCOORD_1"},{"bufferView":0,"byteOffset":114940,"componentType":5123,"count":10,"type":"VEC4","name":"part007_vertices#0_COLOR_0"},{"bufferView":1,"byteOffset":10218,"componentType":5123,"count":24,"type":"SCALAR","name":"part007_indices#0"},{"bufferView":0,"byteOffset":115272,"componentType":5126,"count":30,"min":[0.009999999776482582,11.399999618530274,-20.0],"max":[9.760000228881836,12.149999618530274,-13.319999694824219],"type":"VEC3","name":"part008_vertices#0_POSITION"},{"bufferView":0,"byteOffset":115284,"componentType":5120,"count":30,"type":"VEC4","name":"part008_vertices#0_TANGENT"},{"bufferView":0,"byteOffset":115288,"componentType":5120,"count":30,"type":"VEC4","name":"part008_vertices#0_NORMAL"},{"bufferView":0,"byteOffset":115292,"componentType":5122,"count":30,"type":"VEC2","name":"part008_vertices#0_TEXCOORD_0"},{"bufferView":0,"byteOffset":115296,"componentType":5122,"count":30,"type":"VEC2","name":"part008_vertices#0_TEXCOORD_1"},{"bufferView":0,"byteOffset":115300,"componentType":5123,"count":30,"type":"VEC4","name":"part008_vertices#0_COLOR_0"},{"bufferView":1,"byteOffset":10266,"componentType":5123,"count":66,"type":"SCALAR","name":"part008_indices#0"},{"bufferView":0,"byteOffset":116352,"componentType":5126,"count":32,"min":[4.5,2.5999999046325685,-13.319999694824219],"max":[15.5,10.399999618530274,-6.659999847412109],"type":"VEC3","name":"part009_vertices#0_POSITION"},{"bufferView":0,"byteOffset":116364,"componentType":5120,"count":32,"type":"VEC4","name":"part009_vertices#0_TANGENT"},{"bufferView":0,"byteOffset":116368,"componentType":5120,"count":32,"type":"VEC4","name":"part009_vertices#0_NORMAL"},{"bufferView":0,"byteOffset":116372,"componentType":5122,"count":32,"type":"VEC2","name":"part009_vertices#0_TEXCOORD_0"},{"bufferView":0,"byteOffset":116376,"componentType":5122,"count":32,"type":"VEC2","name":"part009_vertices#0_TEXCOORD_1"},{"bufferView":0,"byteOffset":116380,"componentType":5123,"count":32,"type":"VEC4","name":"part009_vertices#0_COLOR_0"},{"bufferView":1,"byteOffset":10398,"componentType":5123,"count":78,"type":"SCALAR","name":"part009_indices#0"},{"bufferView":0,"byteOffset":117504,"componentType":5126,"count":8,"min":[6.146329879760742,2.5999999046325685,-20.200000762939454],"max":[13.887470245361329,10.399999618530274,0.20000000298023225],"type":"VEC3","name":"part010_vertices#0_POSITION"},{"bufferView":0,"byteOffset":117516,"componentType":5120,"count":8,"type":"VEC4","name":"part010_vertices#0_TANGENT"},{"bufferView":0,"byteOffset":117520,"componentType":5120,"count":8,"type":"VEC4","name":"part010_vertices#0_NORMAL"},{"bufferView":0,"byteOffset":117524,"componentType":5122,"count":8,"type":"VEC2","name":"part010_vertices#0_TEXCOORD_0"},{"bufferView":0,"byteOffset":117528,"componentType":5122,"count":8,"type":"VEC2","name":"part010_vertices#0_TEXCOORD_1"},{"bufferView":0,"byteOffset":117532,"componentType":5123,"count":8,"type":"VEC4","name":"part010_vertices#0_COLOR_0"},{"bufferView":1,"byteOffset":10554,"componentType":5123,"count":12,"type":"SCALAR","name":"part010_indices#0"},{"bufferView":0,"byteOffset":117792,"componentType":5126,"count":48,"min":[5.0,0.0,-13.819999694824219],"max":[15.0,2.5999999046325685,-6.159999847412109],"type":"VEC3","name":"part011_vertices#0_POSITION"},{"bufferView":0,"byteOffset":117804,"componentType":5120,"count":48,"type":"VEC4","name":"part011_vertices#0_TANGENT"},{"bufferView":0,"byteOffset":117808,"componentType":5120,"count":48,"type":"VEC4","name":"part011_vertices#0_NORMAL"},{"bufferView":0,"byteOffset":117812,"componentType":5122,"count":48,"type":"VEC2","name":"part011_vertices#0_TEXCOORD_0"},{"bufferView":0,"byteOffset":117816,"componentType":5122,"count":48,"type":"VEC2","name":"part011_vertices#0_TEXCOORD_1"},{"bufferView":0,"byteOffset":117820,"componentType":5123,"count":48,"type":"VEC4","name":"part011_vertices#0_COLOR_0"},{"bufferView":1,"byteOffset":10578,"componentType":5123,"count":102,"type":"SCALAR","name":"part011_indices#0"},{"bufferView":0,"byteOffset":119520,"componentType":5126,"count":169,"min":[0.0,10.399999618530274,-20.200000762939454],"max":[20.0,11.399999618530274,0.0],"type":"VEC3","name":"part012_vertices#0_POSITION"},{"bufferView":0,"byteOffset":119532,"componentType":5120,"count":169,"type":"VEC4","name":"part012_vertices#0_TANGENT"},{"bufferView":0,"byteOffset":119536,"componentType":5120,"count":169,"type":"VEC4","name":"part012_vertices#0_NORMAL"},{"bufferView":0,"byteOffset":119540,"componentType":5122,"count":169,"type":"VEC2","name":"part012_vertices#0_TEXCOORD_0"},{"bufferView":0,"byteOffset":119544,"componentType":5122,"count":169,"type":"VEC2","name":"part012_vertices#0_TEXCOORD_1"},{"bufferView":0,"byteOffset":119548,"componentType":5123,"count":169,"type":"VEC4","name":"part012_vertices#0_COLOR_0"},{"bufferView":1,"byteOffset":10782,"componentType":5123,"count":303,"type":"SCALAR","name":"part012_indices#0"}],"asset":{"generator":"ModelConverterX","version":"2.0","extensions":{"ASOBO_asset_optimized":{"BoundingBoxMax":[20.5,13.5,0.5],"BoundingBoxMin":[-0.5,0.0,-20.5],"MajorVersion":4,"MinorVersion":4,"UseCheckerboardMaterialForMissingTextures":true,"UseOnlyFilenameForImageURI":true}}},"bufferViews":[{"buffer":0,"byteLength":125604,"byteStride":36,"target":34962,"name":"BufferViewVertexND"},{"buffer":0,"byteLength":11388,"byteOffset":125604,"target":34963,"name":"BufferViewIndex"}],"extensionsRequired":["MSFT_texture_dds"],"materials":[{"name":"glTF_Material","pbrMetallicRoughness":{"metallicFactor":0.0,"baseColorTexture":{"index":0}}},{"name":"glTF_Materialx","pbrMetallicRoughness":{"metallicFactor":0.0,"baseColorTexture":{"index":1}}},{"name":"glTF_Materialxx","pbrMetallicRoughness":{"metallicFactor":0.0,"baseColorTexture":{"index":2}}},{"name":"glTF_Materialxxx","alphaMode":"BLEND","pbrMetallicRoughness":{"metallicFactor":0.0,"baseColorTexture":{"index":2}}},{"name":"glTF_Materialxxxx","pbrMetallicRoughness":{"metallicFactor":0.0,"baseColorTexture":{"index":2}}},{"name":"glTF_Materialxxxxx","alphaMode":"BLEND","pbrMetallicRoughness":{"metallicFactor":0.0,"baseColorTexture":{"index":3}}},{"name":"glTF_Materialxxxxxx","pbrMetallicRoughness":{"metallicFactor":0.0,"baseColorTexture":{"index":4}}},{"name":"glTF_Materialxxxxxxx","pbrMetallicRoughness":{"metallicFactor":0.0,"baseColorTexture":{"index":5}}},{"name":"glTF_Materialxxxxxxxx","pbrMetallicRoughness":{"metallicFactor":0.0,"baseColorTexture":{"index":6}}},{"name":"glTF_Materialxxxxxxxxx","pbrMetallicRoughness":{"metallicFactor":0.0,"baseColorTexture":{"index":7}}},{"name":"glTF_Materialxxxxxxxxxx","pbrMetallicRoughness":{"metallicFactor":0.0,"baseColorTexture":{"index":8}}},{"name":"glTF_Materialxxxxxxxxxxx","pbrMetallicRoughness":{"metallicFactor":0.0,"baseColorTexture":{"index":9}}},{"name":"glTF_Materialxxxxxxxxxxxx","pbrMetallicRoughness":{"metallicFactor":0.0,"baseColorTexture":{"index":10}}}],"meshes":[{"primitives":[{"attributes":{"COLOR_0":5,"NORMAL":2,"POSITION":0,"TANGENT":1,"TEXCOORD_0":3,"TEXCOORD_1":4},"indices":6,"material":2,"mode":4,"extras":{"ASOBO_primitive":{"PrimitiveCount":476,"VertexType":"VTX","VertexVersion":2}}}],"name":"part000"},{"primitives":[{"attributes":{"COLOR_0":12,"NORMAL":9,"POSITION":7,"TANGENT":8,"TEXCOORD_0":10,"TEXCOORD_1":11},"indices":13,"material":0,"mode":4,"extras":{"ASOBO_primitive":{"PrimitiveCount":46,"VertexType":"VTX","VertexVersion":2}}}],"name":"part001"},{"primitives":[{"attributes":{"COLOR_0":19,"NORMAL":16,"POSITION":14,"TANGENT":15,"TEXCOORD_0":17,"TEXCOORD_1":18},"indices":20,"material":1,"mode":4,"extras":{"ASOBO_primitive":{"PrimitiveCount":153,"VertexType":"VTX","VertexVersion":2}}}],"name":"part002"},{"primitives":[{"attributes":{"COLOR_0":26,"NORMAL":23,"POSITION":21,"TANGENT":22,"TEXCOORD_0":24,"TEXCOORD_1":25},"indices":27,"material":10,"mode":4,"extras":{"ASOBO_primitive":{"PrimitiveCount":107,"VertexType":"VTX","VertexVersion":2}}}],"name":"part003"},{"primitives":[{"attributes":{"COLOR_0":33,"NORMAL":30,"POSITION":28,"TANGENT":29,"TEXCOORD_0":31,"TEXCOORD_1":32},"indices":34,"material":9,"mode":4,"extras":{"ASOBO_primitive":{"PrimitiveCount":435,"VertexType":"VTX","VertexVersion":2}}}],"name":"part004"},{"primitives":[{"attributes":{"COLOR_0":40,"NORMAL":37,"POSITION":35,"TANGENT":36,"TEXCOORD_0":38,"TEXCOORD_1":39},"indices":41,"material":6,"mode":4,"extras":{"ASOBO_primitive":{"PrimitiveCount":368,"VertexType":"VTX","VertexVersion":2}}}],"name":"part005"},{"primitives":[{"attributes":{"COLOR_0":47,"NORMAL":44,"POSITION":42,"TANGENT":43,"TEXCOORD_0":45,"TEXCOORD_1":46},"indices":48,"material":7,"mode":4,"extras":{"ASOBO_primitive":{"PrimitiveCount":118,"VertexType":"VTX","VertexVersion":2}}}],"name":"part006"},{"primitives":[{"attributes":{"COLOR_0":54,"NORMAL":51,"POSITION":49,"TANGENT":50,"TEXCOORD_0":52,"TEXCOORD_1":53},"indices":55,"material":5,"mode":4,"extras":{"ASOBO_primitive":{"PrimitiveCount":8,"VertexType":"VTX","VertexVersion":2}}}],"name":"part007"},{"primitives":[{"attributes":{"COLOR_0":61,"NORMAL":58,"POSITION":56,"TANGENT":57,"TEXCOORD_0":59,"TEXCOORD_1":60},"indices":62,"material":3,"mode":4,"extras":{"ASOBO_primitive":{"PrimitiveCount":22,"VertexType":"VTX","VertexVersion":2}}}],"name":"part008"},{"primitives":[{"attributes":{"COLOR_0":68,"NORMAL":65,"POSITION":63,"TANGENT":64,"TEXCOORD_0":66,"TEXCOORD_1":67},"indices":69,"material":8,"mode":4,"extras":{"ASOBO_primitive":{"PrimitiveCount":26,"VertexType":"VTX","VertexVersion":2}}}],"name":"part009"},{"primitives":[{"attributes":{"COLOR_0":75,"NORMAL":72,"POSITION":70,"TANGENT":71,"TEXCOORD_0":73,"TEXCOORD_1":74},"indices":76,"material":12,"mode":4,"extras":{"ASOBO_primitive":{"PrimitiveCount":4,"VertexType":"VTX","VertexVersion":2}}}],"name":"part010"},{"primitives":[{"attributes":{"COLOR_0":82,"NORMAL":79,"POSITION":77,"TANGENT":78,"TEXCOORD_0":80,"TEXCOORD_1":81},"indices":83,"material":11,"mode":4,"extras":{"ASOBO_primitive":{"PrimitiveCount":34,"VertexType":"VTX","VertexVersion":2}}}],"name":"part011"},{"primitives":[{"attributes":{"COLOR_0":89,"NORMAL":86,"POSITION":84,"TANGENT":85,"TEXCOORD_0":87,"TEXCOORD_1":88},"indices":90,"material":4,"mode":4,"extras":{"ASOBO_primitive":{"PrimitiveCount":101,"VertexType":"VTX","VertexVersion":2}}}],"name":"part012"}],"nodes":[{"name":"node0","children":[1,2,3,4,5,6,7,8,9,10,11,12,13]},{"mesh":0,"name":"node1"},{"mesh":1,"name":"node2"},{"mesh":2,"name":"node3"},{"mesh":3,"name":"node4"},{"mesh":4,"name":"node5"},{"mesh":5,"name":"node6"},{"mesh":6,"name":"node7"},{"mesh":7,"name":"node8"},{"mesh":8,"name":"node9"},{"mesh":9,"name":"node10"},{"mesh":10,"name":"node11"},{"mesh":11,"name":"node12"},{"mesh":12,"name":"node13"}],"scene":0,"scenes":[{"nodes":[0]}],"textures":[{"extensions":{"MSFT_texture_dds":{"source":0}}},{"extensions":{"MSFT_texture_dds":{"source":1}}},{"extensions":{"MSFT_texture_dds":{"source":2}}},{"extensions":{"MSFT_texture_dds":{"source":3}}},{"extensions":{"MSFT_texture_dds":{"source":4}}},{"extensions":{"MSFT_texture_dds":{"source":5}}},{"extensions":{"MSFT_texture_dds":{"source":6}}},{"extensions":{"MSFT_texture_dds":{"source":7}}},{"extensions":{"MSFT_texture_dds":{"source":8}}},{"extensions":{"MSFT_texture_dds":{"source":9}}},{"extensions":{"MSFT_texture_dds":{"source":10}}}],"extensionsUsed":["MSFT_texture_dds","ASOBO_asset_optimized"],"buffers":[{"byteLength":136992,"uri":"BUILDINGFINALOLD2.bin"}],"images":[{"uri":"AC.PNG.DDS","extras":"ASOBO_image_converted_meta"},{"uri":"AC1.PNG.DDS","extras":"ASOBO_image_converted_meta"},{"uri":"BUILDINGFINALOLD2_0.PNG.DDS","extras":"ASOBO_image_converted_meta"},{"uri":"FENCING_METAL_STRAIGHT.PNG.DDS","extras":"ASOBO_image_converted_meta"},{"uri":"LEG.PNG.DDS","extras":"ASOBO_image_converted_meta"},{"uri":"OLD2WALL.PNG.DDS","extras":"ASOBO_image_converted_meta"},{"uri":"OLD2WALL2.PNG.DDS","extras":"ASOBO_image_converted_meta"},{"uri":"OLD2WALL5.PNG.DDS","extras":"ASOBO_image_converted_meta"},{"uri":"OLD3WALL3.PNG.DDS","extras":"ASOBO_image_converted_meta"},{"uri":"OLDWALL4.PNG.DDS","extras":"ASOBO_image_converted_meta"},{"uri":"SHADOW.PNG.DDS","extras":"ASOBO_image_converted_meta"}]}
