{"accessors":[{"bufferView":0,"componentType":5126,"count":723,"min":[0.0,0.0,-20.200000762939454],"max":[20.0,11.399999618530274,0.20000000298023225],"type":"VEC3","name":"part000_vertices#0_POSITION"},{"bufferView":0,"byteOffset":12,"componentType":5120,"count":723,"type":"VEC4","name":"part000_vertices#0_TANGENT"},{"bufferView":0,"byteOffset":16,"componentType":5120,"count":723,"type":"VEC4","name":"part000_vertices#0_NORMAL"},{"bufferView":0,"byteOffset":20,"componentType":5122,"count":723,"type":"VEC2","name":"part000_vertices#0_TEXCOORD_0"},{"bufferView":0,"byteOffset":24,"componentType":5122,"count":723,"type":"VEC2","name":"part000_vertices#0_TEXCOORD_1"},{"bufferView":0,"byteOffset":28,"componentType":5123,"count":723,"type":"VEC4","name":"part000_vertices#0_COLOR_0"},{"bufferView":1,"componentType":5123,"count":1485,"type":"SCALAR","name":"part000_indices#0"},{"bufferView":0,"byteOffset":26028,"componentType":5126,"count":136,"min":[-0.5,2.8792901039123537,-20.5],"max":[20.5,9.298580169677735,0.5],"type":"VEC3","name":"part001_vertices#0_POSITION"},{"bufferView":0,"byteOffset":26040,"componentType":5120,"count":136,"type":"VEC4","name":"part001_vertices#0_TANGENT"},{"bufferView":0,"byteOffset":26044,"componentType":5120,"count":136,"type":"VEC4","name":"part001_vertices#0_NORMAL"},{"bufferView":0,"byteOffset":26048,"componentType":5122,"count":136,"type":"VEC2","name":"part001_vertices#0_TEXCOORD_0"},{"bufferView":0,"byteOffset":26052,"componentType":5122,"count":136,"type":"VEC2","name":"part001_vertices#0_TEXCOORD_1"},{"bufferView":0,"byteOffset":26056,"componentType":5123,"count":136,"type":"VEC4","name":"part001_vertices#0_COLOR_0"},{"bufferView":1,"byteOffset":2970,"componentType":5123,"count":204,"type":"SCALAR","name":"part001_indices#0"},{"bufferView":0,"byteOffset":30924,"componentType":5126,"count":673,"min":[-0.5,0.0,-20.5],"max":[20.5,11.399999618530274,0.5],"type":"VEC3","name":"part002_vertices#0_POSITION"},{"bufferView":0,"byteOffset":30936,"componentType":5120,"count":673,"type":"VEC4","name":"part002_vertices#0_TANGENT"},{"bufferView":0,"byteOffset":30940,"componentType":5120,"count":673,"type":"VEC4","name":"part002_vertices#0_NORMAL"},{"bufferView":0,"byteOffset":30944,"componentType":5122,"count":673,"type":"VEC2","name":"part002_vertices#0_TEXCOORD_0"},{"bufferView":0,"byteOffset":30948,"componentType":5122,"count":673,"type":"VEC2","name":"part002_vertices#0_TEXCOORD_1"},{"bufferView":0,"byteOffset":30952,"componentType":5123,"count":673,"type":"VEC4","name":"part002_vertices#0_COLOR_0"},{"bufferView":1,"byteOffset":3378,"componentType":5123,"count":1011,"type":"SCALAR","name":"part002_indices#0"},{"bufferView":0,"byteOffset":55152,"componentType":5126,"count":494,"min":[0.0,10.399999618530274,-20.200000762939454],"max":[20.0,11.399999618530274,0.20000000298023225],"type":"VEC3","name":"part003_vertices#0_POSITION"},{"bufferView":0,"byteOffset":55164,"componentType":5120,"count":494,"type":"VEC4","name":"part003_vertices#0_TANGENT"},{"bufferView":0,"byteOffset":55168,"componentType":5120,"count":494,"type":"VEC4","name":"part003_vertices#0_NORMAL"},{"bufferView":0,"byteOffset":55172,"componentType":5122,"count":494,"type":"VEC2","name":"part003_vertices#0_TEXCOORD_0"},{"bufferView":0,"byteOffset":55176,"componentType":5122,"count":494,"type":"VEC2","name":"part003_vertices#0_TEXCOORD_1"},{"bufferView":0,"byteOffset":55180,"componentType":5123,"count":494,"type":"VEC4","name":"part003_vertices#0_COLOR_0"},{"bufferView":1,"byteOffset":5400,"componentType":5123,"count":1266,"type":"SCALAR","name":"part003_indices#0"},{"bufferView":0,"byteOffset":72936,"componentType":5126,"count":71,"min":[5.0,0.0,-13.819999694824219],"max":[15.0,10.399999618530274,-6.159999847412109],"type":"VEC3","name":"part004_vertices#0_POSITION"},{"bufferView":0,"byteOffset":72948,"componentType":5120,"count":71,"type":"VEC4","name":"part004_vertices#0_TANGENT"},{"bufferView":0,"byteOffset":72952,"componentType":5120,"count":71,"type":"VEC4","name":"part004_vertices#0_NORMAL"},{"bufferView":0,"byteOffset":72956,"componentType":5122,"count":71,"type":"VEC2","name":"part004_vertices#0_TEXCOORD_0"},{"bufferView":0,"byteOffset":72960,"componentType":5122,"count":71,"type":"VEC2","name":"part004_vertices#0_TEXCOORD_1"},{"bufferView":0,"byteOffset":72964,"componentType":5123,"count":71,"type":"VEC4","name":"part004_vertices#0_COLOR_0"},{"bufferView":1,"byteOffset":7932,"componentType":5123,"count":147,"type":"SCALAR","name":"part004_indices#0"},{"bufferView":0,"byteOffset":75492,"componentType":5126,"count":59,"min":[0.0,0.0,-20.0],"max":[20.0,10.399999618530274,0.0],"type":"VEC3","name":"part005_vertices#0_POSITION"},{"bufferView":0,"byteOffset":75504,"componentType":5120,"count":59,"type":"VEC4","name":"part005_vertices#0_TANGENT"},{"bufferView":0,"byteOffset":75508,"componentType":5120,"count":59,"type":"VEC4","name":"part005_vertices#0_NORMAL"},{"bufferView":0,"byteOffset":75512,"componentType":5122,"count":59,"type":"VEC2","name":"part005_vertices#0_TEXCOORD_0"},{"bufferView":0,"byteOffset":75516,"componentType":5122,"count":59,"type":"VEC2","name":"part005_vertices#0_TEXCOORD_1"},{"bufferView":0,"byteOffset":75520,"componentType":5123,"count":59,"type":"VEC4","name":"part005_vertices#0_COLOR_0"},{"bufferView":1,"byteOffset":8226,"componentType":5123,"count":153,"type":"SCALAR","name":"part005_indices#0"},{"bufferView":0,"byteOffset":77616,"componentType":5126,"count":624,"min":[0.0,0.0,-20.200000762939454],"max":[20.0,11.399999618530274,0.20000000298023225],"type":"VEC3","name":"part006_vertices#0_POSITION"},{"bufferView":0,"byteOffset":77628,"componentType":5120,"count":624,"type":"VEC4","name":"part006_vertices#0_TANGENT"},{"bufferView":0,"byteOffset":77632,"componentType":5120,"count":624,"type":"VEC4","name":"part006_vertices#0_NORMAL"},{"bufferView":0,"byteOffset":77636,"componentType":5122,"count":624,"type":"VEC2","name":"part006_vertices#0_TEXCOORD_0"},{"bufferView":0,"byteOffset":77640,"componentType":5122,"count":624,"type":"VEC2","name":"part006_vertices#0_TEXCOORD_1"},{"bufferView":0,"byteOffset":77644,"componentType":5123,"count":624,"type":"VEC4","name":"part006_vertices#0_COLOR_0"},{"bufferView":1,"byteOffset":8532,"componentType":5123,"count":1104,"type":"SCALAR","name":"part006_indices#0"},{"bufferView":0,"byteOffset":100080,"componentType":5126,"count":50,"min":[0.0,2.5999999046325685,-20.200000762939454],"max":[20.0,10.399999618530274,0.20000000298023225],"type":"VEC3","name":"part007_vertices#0_POSITION"},{"bufferView":0,"byteOffset":100092,"componentType":5120,"count":50,"type":"VEC4","name":"part007_vertices#0_TANGENT"},{"bufferView":0,"byteOffset":100096,"componentType":5120,"count":50,"type":"VEC4","name":"part007_vertices#0_NORMAL"},{"bufferView":0,"byteOffset":100100,"componentType":5122,"count":50,"type":"VEC2","name":"part007_vertices#0_TEXCOORD_0"},{"bufferView":0,"byteOffset":100104,"componentType":5122,"count":50,"type":"VEC2","name":"part007_vertices#0_TEXCOORD_1"},{"bufferView":0,"byteOffset":100108,"componentType":5123,"count":50,"type":"VEC4","name":"part007_vertices#0_COLOR_0"},{"bufferView":1,"byteOffset":10740,"componentType":5123,"count":102,"type":"SCALAR","name":"part007_indices#0"},{"bufferView":0,"byteOffset":101880,"componentType":5126,"count":8,"min":[6.146329879760742,2.5999999046325685,-20.200000762939454],"max":[13.887470245361329,10.399999618530274,0.20000000298023225],"type":"VEC3","name":"part008_vertices#0_POSITION"},{"bufferView":0,"byteOffset":101892,"componentType":5120,"count":8,"type":"VEC4","name":"part008_vertices#0_TANGENT"},{"bufferView":0,"byteOffset":101896,"componentType":5120,"count":8,"type":"VEC4","name":"part008_vertices#0_NORMAL"},{"bufferView":0,"byteOffset":101900,"componentType":5122,"count":8,"type":"VEC2","name":"part008_vertices#0_TEXCOORD_0"},{"bufferView":0,"byteOffset":101904,"componentType":5122,"count":8,"type":"VEC2","name":"part008_vertices#0_TEXCOORD_1"},{"bufferView":0,"byteOffset":101908,"componentType":5123,"count":8,"type":"VEC4","name":"part008_vertices#0_COLOR_0"},{"bufferView":1,"byteOffset":10944,"componentType":5123,"count":12,"type":"SCALAR","name":"part008_indices#0"},{"bufferView":0,"byteOffset":102168,"componentType":5126,"count":16,"min":[4.5,3.313659906387329,-9.394350051879883],"max":[15.5,9.043129920959473,-7.529139995574951],"type":"VEC3","name":"part009_vertices#0_POSITION"},{"bufferView":0,"byteOffset":102180,"componentType":5120,"count":16,"type":"VEC4","name":"part009_vertices#0_TANGENT"},{"bufferView":0,"byteOffset":102184,"componentType":5120,"count":16,"type":"VEC4","name":"part009_vertices#0_NORMAL"},{"bufferView":0,"byteOffset":102188,"componentType":5122,"count":16,"type":"VEC2","name":"part009_vertices#0_TEXCOORD_0"},{"bufferView":0,"byteOffset":102192,"componentType":5122,"count":16,"type":"VEC2","name":"part009_vertices#0_TEXCOORD_1"},{"bufferView":0,"byteOffset":102196,"componentType":5123,"count":16,"type":"VEC4","name":"part009_vertices#0_COLOR_0"},{"bufferView":1,"byteOffset":10968,"componentType":5123,"count":24,"type":"SCALAR","name":"part009_indices#0"},{"bufferView":0,"byteOffset":102744,"componentType":5126,"count":42,"min":[0.0,2.5999999046325685,-20.0],"max":[20.0,10.399999618530274,0.0],"type":"VEC3","name":"part010_vertices#0_POSITION"},{"bufferView":0,"byteOffset":102756,"componentType":5120,"count":42,"type":"VEC4","name":"part010_vertices#0_TANGENT"},{"bufferView":0,"byteOffset":102760,"componentType":5120,"count":42,"type":"VEC4","name":"part010_vertices#0_NORMAL"},{"bufferView":0,"byteOffset":102764,"componentType":5122,"count":42,"type":"VEC2","name":"part010_vertices#0_TEXCOORD_0"},{"bufferView":0,"byteOffset":102768,"componentType":5122,"count":42,"type":"VEC2","name":"part010_vertices#0_TEXCOORD_1"},{"bufferView":0,"byteOffset":102772,"componentType":5123,"count":42,"type":"VEC4","name":"part010_vertices#0_COLOR_0"},{"bufferView":1,"byteOffset":11016,"componentType":5123,"count":102,"type":"SCALAR","name":"part010_indices#0"}],"asset":{"generator":"ModelConverterX","version":"2.0","extensions":{"ASOBO_asset_optimized":{"BoundingBoxMax":[20.5,11.399999618530274,0.5],"BoundingBoxMin":[-0.5,0.0,-20.5],"MajorVersion":4,"MinorVersion":4,"UseCheckerboardMaterialForMissingTextures":true,"UseOnlyFilenameForImageURI":true}}},"bufferViews":[{"buffer":0,"byteLength":104256,"byteStride":36,"target":34962,"name":"BufferViewVertexND"},{"buffer":0,"byteLength":11220,"byteOffset":104256,"target":34963,"name":"BufferViewIndex"}],"extensionsRequired":["MSFT_texture_dds"],"materials":[{"name":"glTF_Material","pbrMetallicRoughness":{"metallicFactor":0.0,"baseColorTexture":{"index":0}}},{"name":"glTF_Materialx","pbrMetallicRoughness":{"metallicFactor":0.0,"baseColorTexture":{"index":1}}},{"name":"glTF_Materialxx","pbrMetallicRoughness":{"metallicFactor":0.0,"baseColorTexture":{"index":2}}},{"name":"glTF_Materialxxx","pbrMetallicRoughness":{"metallicFactor":0.0}},{"name":"glTF_Materialxxxx","pbrMetallicRoughness":{"metallicFactor":0.0,"baseColorTexture":{"index":3}}},{"name":"glTF_Materialxxxxx","pbrMetallicRoughness":{"metallicFactor":0.0,"baseColorTexture":{"index":4}}},{"name":"glTF_Materialxxxxxx","pbrMetallicRoughness":{"metallicFactor":0.0,"baseColorTexture":{"index":5}}},{"name":"glTF_Materialxxxxxxx","pbrMetallicRoughness":{"metallicFactor":0.0,"baseColorTexture":{"index":6}}},{"name":"glTF_Materialxxxxxxxx","pbrMetallicRoughness":{"metallicFactor":0.0,"baseColorTexture":{"index":7}}},{"name":"glTF_Materialxxxxxxxxx","pbrMetallicRoughness":{"metallicFactor":0.0,"baseColorTexture":{"index":8}}},{"name":"glTF_Materialxxxxxxxxxx","pbrMetallicRoughness":{"metallicFactor":0.0,"baseColorTexture":{"index":9}}}],"meshes":[{"primitives":[{"attributes":{"COLOR_0":5,"NORMAL":2,"POSITION":0,"TANGENT":1,"TEXCOORD_0":3,"TEXCOORD_1":4},"indices":6,"material":3,"mode":4,"extras":{"ASOBO_primitive":{"PrimitiveCount":495,"VertexType":"VTX","VertexVersion":2}}}],"name":"part000"},{"primitives":[{"attributes":{"COLOR_0":12,"NORMAL":9,"POSITION":7,"TANGENT":8,"TEXCOORD_0":10,"TEXCOORD_1":11},"indices":13,"material":0,"mode":4,"extras":{"ASOBO_primitive":{"PrimitiveCount":68,"VertexType":"VTX","VertexVersion":2}}}],"name":"part001"},{"primitives":[{"attributes":{"COLOR_0":19,"NORMAL":16,"POSITION":14,"TANGENT":15,"TEXCOORD_0":17,"TEXCOORD_1":18},"indices":20,"material":1,"mode":4,"extras":{"ASOBO_primitive":{"PrimitiveCount":337,"VertexType":"VTX","VertexVersion":2}}}],"name":"part002"},{"primitives":[{"attributes":{"COLOR_0":26,"NORMAL":23,"POSITION":21,"TANGENT":22,"TEXCOORD_0":24,"TEXCOORD_1":25},"indices":27,"material":5,"mode":4,"extras":{"ASOBO_primitive":{"PrimitiveCount":422,"VertexType":"VTX","VertexVersion":2}}}],"name":"part003"},{"primitives":[{"attributes":{"COLOR_0":33,"NORMAL":30,"POSITION":28,"TANGENT":29,"TEXCOORD_0":31,"TEXCOORD_1":32},"indices":34,"material":9,"mode":4,"extras":{"ASOBO_primitive":{"PrimitiveCount":49,"VertexType":"VTX","VertexVersion":2}}}],"name":"part004"},{"primitives":[{"attributes":{"COLOR_0":40,"NORMAL":37,"POSITION":35,"TANGENT":36,"TEXCOORD_0":38,"TEXCOORD_1":39},"indices":41,"material":8,"mode":4,"extras":{"ASOBO_primitive":{"PrimitiveCount":51,"VertexType":"VTX","VertexVersion":2}}}],"name":"part005"},{"primitives":[{"attributes":{"COLOR_0":47,"NORMAL":44,"POSITION":42,"TANGENT":43,"TEXCOORD_0":45,"TEXCOORD_1":46},"indices":48,"material":4,"mode":4,"extras":{"ASOBO_primitive":{"PrimitiveCount":368,"VertexType":"VTX","VertexVersion":2}}}],"name":"part006"},{"primitives":[{"attributes":{"COLOR_0":54,"NORMAL":51,"POSITION":49,"TANGENT":50,"TEXCOORD_0":52,"TEXCOORD_1":53},"indices":55,"material":6,"mode":4,"extras":{"ASOBO_primitive":{"PrimitiveCount":34,"VertexType":"VTX","VertexVersion":2}}}],"name":"part007"},{"primitives":[{"attributes":{"COLOR_0":61,"NORMAL":58,"POSITION":56,"TANGENT":57,"TEXCOORD_0":59,"TEXCOORD_1":60},"indices":62,"material":10,"mode":4,"extras":{"ASOBO_primitive":{"PrimitiveCount":4,"VertexType":"VTX","VertexVersion":2}}}],"name":"part008"},{"primitives":[{"attributes":{"COLOR_0":68,"NORMAL":65,"POSITION":63,"TANGENT":64,"TEXCOORD_0":66,"TEXCOORD_1":67},"indices":69,"material":2,"mode":4,"extras":{"ASOBO_primitive":{"PrimitiveCount":8,"VertexType":"VTX","VertexVersion":2}}}],"name":"part009"},{"primitives":[{"attributes":{"COLOR_0":75,"NORMAL":72,"POSITION":70,"TANGENT":71,"TEXCOORD_0":73,"TEXCOORD_1":74},"indices":76,"material":7,"mode":4,"extras":{"ASOBO_primitive":{"PrimitiveCount":34,"VertexType":"VTX","VertexVersion":2}}}],"name":"part010"}],"nodes":[{"name":"node0","children":[1,2,3,4,5,6,7,8,9,10,11]},{"mesh":0,"name":"node1"},{"mesh":1,"name":"node2"},{"mesh":2,"name":"node3"},{"mesh":3,"name":"node4"},{"mesh":4,"name":"node5"},{"mesh":5,"name":"node6"},{"mesh":6,"name":"node7"},{"mesh":7,"name":"node8"},{"mesh":8,"name":"node9"},{"mesh":9,"name":"node10"},{"mesh":10,"name":"node11"}],"scene":0,"scenes":[{"nodes":[0]}],"textures":[{"extensions":{"MSFT_texture_dds":{"source":0}}},{"extensions":{"MSFT_texture_dds":{"source":1}}},{"extensions":{"MSFT_texture_dds":{"source":2}}},{"extensions":{"MSFT_texture_dds":{"source":3}}},{"extensions":{"MSFT_texture_dds":{"source":4}}},{"extensions":{"MSFT_texture_dds":{"source":5}}},{"extensions":{"MSFT_texture_dds":{"source":6}}},{"extensions":{"MSFT_texture_dds":{"source":7}}},{"extensions":{"MSFT_texture_dds":{"source":8}}},{"extensions":{"MSFT_texture_dds":{"source":9}}}],"extensionsUsed":["MSFT_texture_dds","ASOBO_asset_optimized"],"buffers":[{"byteLength":115476,"uri":"BUILDINGFINALOLD.bin"}],"images":[{"uri":"AC.PNG.DDS","extras":"ASOBO_image_converted_meta"},{"uri":"AC1.PNG.DDS","extras":"ASOBO_image_converted_meta"},{"uri":"AC2.PNG.DDS","extras":"ASOBO_image_converted_meta"},{"uri":"LEG.PNG.DDS","extras":"ASOBO_image_converted_meta"},{"uri":"OLD2WALL5.PNG.DDS","extras":"ASOBO_image_converted_meta"},{"uri":"OLDWALL.PNG.DDS","extras":"ASOBO_image_converted_meta"},{"uri":"OLDWALL1.PNG.DDS","extras":"ASOBO_image_converted_meta"},{"uri":"OLDWALL3.PNG.DDS","extras":"ASOBO_image_converted_meta"},{"uri":"OLDWALL4.PNG.DDS","extras":"ASOBO_image_converted_meta"},{"uri":"SHADOW.PNG.DDS","extras":"ASOBO_image_converted_meta"}]}
