{
  "asset": {
    "version": "2.0",
    "generator": "ModelConverterX"
  },
  "extensionsUsed": [],
  "scene": 0,
  "scenes": [
    {
      "nodes": [
        0
      ]
    }
  ],
  "nodes": [
    {
      "name": "node0",
      "children": [
        1,
        2,
        3,
        4,
        5,
        6,
        7,
        8,
        9,
        10,
        11,
        12,
        13,
        14,
        15
      ]
    },
    {
      "name": "node1",
      "mesh": 0
    },
    {
      "name": "node2",
      "mesh": 1
    },
    {
      "name": "node3",
      "mesh": 2
    },
    {
      "name": "node4",
      "mesh": 3
    },
    {
      "name": "node5",
      "mesh": 4
    },
    {
      "name": "node6",
      "mesh": 5
    },
    {
      "name": "node7",
      "mesh": 6
    },
    {
      "name": "node8",
      "mesh": 7
    },
    {
      "name": "node9",
      "mesh": 8
    },
    {
      "name": "node10",
      "mesh": 9
    },
    {
      "name": "node11",
      "mesh": 10
    },
    {
      "name": "node12",
      "mesh": 11
    },
    {
      "name": "node13",
      "mesh": 12
    },
    {
      "name": "node14",
      "mesh": 13
    },
    {
      "name": "node15",
      "mesh": 14
    }
  ],
  "meshes": [
    {
      "primitives": [
        {
          "attributes": {
            "POSITION": 0,
            "NORMAL": 1,
            "TEXCOORD_0": 2
          },
          "indices": 3,
          "mode": 4,
          "material": 8
        }
      ],
      "name": "part000"
    },
    {
      "primitives": [
        {
          "attributes": {
            "POSITION": 4,
            "NORMAL": 5,
            "TEXCOORD_0": 6
          },
          "indices": 7,
          "mode": 4,
          "material": 6
        }
      ],
      "name": "part001"
    },
    {
      "primitives": [
        {
          "attributes": {
            "POSITION": 8,
            "NORMAL": 9,
            "TEXCOORD_0": 10
          },
          "indices": 11,
          "mode": 4,
          "material": 7
        }
      ],
      "name": "part002"
    },
    {
      "primitives": [
        {
          "attributes": {
            "POSITION": 12,
            "NORMAL": 13,
            "TEXCOORD_0": 14
          },
          "indices": 15,
          "mode": 4,
          "material": 12
        }
      ],
      "name": "part003"
    },
    {
      "primitives": [
        {
          "attributes": {
            "POSITION": 16,
            "NORMAL": 17,
            "TEXCOORD_0": 18
          },
          "indices": 19,
          "mode": 4,
          "material": 3
        }
      ],
      "name": "part004"
    },
    {
      "primitives": [
        {
          "attributes": {
            "POSITION": 20,
            "NORMAL": 21,
            "TEXCOORD_0": 22
          },
          "indices": 23,
          "mode": 4,
          "material": 9
        }
      ],
      "name": "part005"
    },
    {
      "primitives": [
        {
          "attributes": {
            "POSITION": 24,
            "NORMAL": 25,
            "TEXCOORD_0": 26
          },
          "indices": 27,
          "mode": 4,
          "material": 5
        }
      ],
      "name": "part006"
    },
    {
      "primitives": [
        {
          "attributes": {
            "POSITION": 28,
            "NORMAL": 29,
            "TEXCOORD_0": 30
          },
          "indices": 31,
          "mode": 4,
          "material": 1
        }
      ],
      "name": "part007"
    },
    {
      "primitives": [
        {
          "attributes": {
            "POSITION": 32,
            "NORMAL": 33,
            "TEXCOORD_0": 34
          },
          "indices": 35,
          "mode": 4,
          "material": 14
        }
      ],
      "name": "part008"
    },
    {
      "primitives": [
        {
          "attributes": {
            "POSITION": 36,
            "NORMAL": 37,
            "TEXCOORD_0": 38
          },
          "indices": 39,
          "mode": 4,
          "material": 13
        }
      ],
      "name": "part009"
    },
    {
      "primitives": [
        {
          "attributes": {
            "POSITION": 40,
            "NORMAL": 41,
            "TEXCOORD_0": 42
          },
          "indices": 43,
          "mode": 4,
          "material": 0
        }
      ],
      "name": "part010"
    },
    {
      "primitives": [
        {
          "attributes": {
            "POSITION": 44,
            "NORMAL": 45,
            "TEXCOORD_0": 46
          },
          "indices": 47,
          "mode": 4,
          "material": 10
        }
      ],
      "name": "part011"
    },
    {
      "primitives": [
        {
          "attributes": {
            "POSITION": 48,
            "NORMAL": 49,
            "TEXCOORD_0": 50
          },
          "indices": 51,
          "mode": 4,
          "material": 2
        }
      ],
      "name": "part012"
    },
    {
      "primitives": [
        {
          "attributes": {
            "POSITION": 52,
            "NORMAL": 53,
            "TEXCOORD_0": 54
          },
          "indices": 55,
          "mode": 4,
          "material": 4
        }
      ],
      "name": "part013"
    },
    {
      "primitives": [
        {
          "attributes": {
            "POSITION": 56,
            "NORMAL": 57,
            "TEXCOORD_0": 58
          },
          "indices": 59,
          "mode": 4,
          "material": 11
        }
      ],
      "name": "part014"
    }
  ],
  "accessors": [
    {
      "bufferView": 1,
      "byteOffset": 0,
      "componentType": 5126,
      "count": 292,
      "type": "VEC3",
      "min": [
        0.0,
        0.01,
        -25.0
      ],
      "max": [
        25.0,
        17.61,
        0.0
      ]
    },
    {
      "bufferView": 2,
      "byteOffset": 0,
      "componentType": 5126,
      "count": 292,
      "type": "VEC3"
    },
    {
      "bufferView": 3,
      "byteOffset": 0,
      "componentType": 5126,
      "count": 292,
      "type": "VEC2"
    },
    {
      "bufferView": 0,
      "byteOffset": 0,
      "componentType": 5125,
      "count": 732,
      "type": "SCALAR"
    },
    {
      "bufferView": 1,
      "byteOffset": 3504,
      "componentType": 5126,
      "count": 16,
      "type": "VEC3",
      "min": [
        1.0,
        2.11,
        -20.0
      ],
      "max": [
        24.0,
        17.61,
        -5.0
      ]
    },
    {
      "bufferView": 2,
      "byteOffset": 3504,
      "componentType": 5126,
      "count": 16,
      "type": "VEC3"
    },
    {
      "bufferView": 3,
      "byteOffset": 2336,
      "componentType": 5126,
      "count": 16,
      "type": "VEC2"
    },
    {
      "bufferView": 0,
      "byteOffset": 2928,
      "componentType": 5125,
      "count": 24,
      "type": "SCALAR"
    },
    {
      "bufferView": 1,
      "byteOffset": 3696,
      "componentType": 5126,
      "count": 8,
      "type": "VEC3",
      "min": [
        2.0,
        0.01,
        -14.0
      ],
      "max": [
        23.0,
        17.61,
        -11.0
      ]
    },
    {
      "bufferView": 2,
      "byteOffset": 3696,
      "componentType": 5126,
      "count": 8,
      "type": "VEC3"
    },
    {
      "bufferView": 3,
      "byteOffset": 2464,
      "componentType": 5126,
      "count": 8,
      "type": "VEC2"
    },
    {
      "bufferView": 0,
      "byteOffset": 3024,
      "componentType": 5125,
      "count": 12,
      "type": "SCALAR"
    },
    {
      "bufferView": 1,
      "byteOffset": 3792,
      "componentType": 5126,
      "count": 1729,
      "type": "VEC3",
      "min": [
        7.87265,
        2.48595,
        -25.2
      ],
      "max": [
        17.21265,
        16.36,
        0.2
      ]
    },
    {
      "bufferView": 2,
      "byteOffset": 3792,
      "componentType": 5126,
      "count": 1729,
      "type": "VEC3"
    },
    {
      "bufferView": 3,
      "byteOffset": 2528,
      "componentType": 5126,
      "count": 1729,
      "type": "VEC2"
    },
    {
      "bufferView": 0,
      "byteOffset": 3072,
      "componentType": 5125,
      "count": 4551,
      "type": "SCALAR"
    },
    {
      "bufferView": 1,
      "byteOffset": 24540,
      "componentType": 5126,
      "count": 2229,
      "type": "VEC3",
      "min": [
        8.14832,
        2.48595,
        -25.2
      ],
      "max": [
        16.82426,
        16.36,
        0.2
      ]
    },
    {
      "bufferView": 2,
      "byteOffset": 24540,
      "componentType": 5126,
      "count": 2229,
      "type": "VEC3"
    },
    {
      "bufferView": 3,
      "byteOffset": 16360,
      "componentType": 5126,
      "count": 2229,
      "type": "VEC2"
    },
    {
      "bufferView": 0,
      "byteOffset": 21276,
      "componentType": 5125,
      "count": 4218,
      "type": "SCALAR"
    },
    {
      "bufferView": 1,
      "byteOffset": 51288,
      "componentType": 5126,
      "count": 859,
      "type": "VEC3",
      "min": [
        0.0,
        0.01,
        -25.2
      ],
      "max": [
        25.0,
        17.61,
        0.2
      ]
    },
    {
      "bufferView": 2,
      "byteOffset": 51288,
      "componentType": 5126,
      "count": 859,
      "type": "VEC3"
    },
    {
      "bufferView": 3,
      "byteOffset": 34192,
      "componentType": 5126,
      "count": 859,
      "type": "VEC2"
    },
    {
      "bufferView": 0,
      "byteOffset": 38148,
      "componentType": 5125,
      "count": 2040,
      "type": "SCALAR"
    },
    {
      "bufferView": 1,
      "byteOffset": 61596,
      "componentType": 5126,
      "count": 205,
      "type": "VEC3",
      "min": [
        0.0,
        0.01,
        -25.0
      ],
      "max": [
        25.0,
        17.61,
        0.0
      ]
    },
    {
      "bufferView": 2,
      "byteOffset": 61596,
      "componentType": 5126,
      "count": 205,
      "type": "VEC3"
    },
    {
      "bufferView": 3,
      "byteOffset": 41064,
      "componentType": 5126,
      "count": 205,
      "type": "VEC2"
    },
    {
      "bufferView": 0,
      "byteOffset": 46308,
      "componentType": 5125,
      "count": 435,
      "type": "SCALAR"
    },
    {
      "bufferView": 1,
      "byteOffset": 64056,
      "componentType": 5126,
      "count": 1427,
      "type": "VEC3",
      "min": [
        8.16213,
        2.5804,
        -25.05
      ],
      "max": [
        16.87738,
        14.69925,
        -24.95
      ]
    },
    {
      "bufferView": 2,
      "byteOffset": 64056,
      "componentType": 5126,
      "count": 1427,
      "type": "VEC3"
    },
    {
      "bufferView": 3,
      "byteOffset": 42704,
      "componentType": 5126,
      "count": 1427,
      "type": "VEC2"
    },
    {
      "bufferView": 0,
      "byteOffset": 48048,
      "componentType": 5125,
      "count": 2955,
      "type": "SCALAR"
    },
    {
      "bufferView": 1,
      "byteOffset": 81180,
      "componentType": 5126,
      "count": 64,
      "type": "VEC3",
      "min": [
        2.0,
        3.37227,
        -24.9
      ],
      "max": [
        23.0,
        16.15988,
        -0.1
      ]
    },
    {
      "bufferView": 2,
      "byteOffset": 81180,
      "componentType": 5126,
      "count": 64,
      "type": "VEC3"
    },
    {
      "bufferView": 3,
      "byteOffset": 54120,
      "componentType": 5126,
      "count": 64,
      "type": "VEC2"
    },
    {
      "bufferView": 0,
      "byteOffset": 59868,
      "componentType": 5125,
      "count": 96,
      "type": "SCALAR"
    },
    {
      "bufferView": 1,
      "byteOffset": 81948,
      "componentType": 5126,
      "count": 64,
      "type": "VEC3",
      "min": [
        8.14832,
        2.48595,
        -23.0
      ],
      "max": [
        16.87738,
        16.36,
        -2.0
      ]
    },
    {
      "bufferView": 2,
      "byteOffset": 81948,
      "componentType": 5126,
      "count": 64,
      "type": "VEC3"
    },
    {
      "bufferView": 3,
      "byteOffset": 54632,
      "componentType": 5126,
      "count": 64,
      "type": "VEC2"
    },
    {
      "bufferView": 0,
      "byteOffset": 60252,
      "componentType": 5125,
      "count": 96,
      "type": "SCALAR"
    },
    {
      "bufferView": 1,
      "byteOffset": 82716,
      "componentType": 5126,
      "count": 383,
      "type": "VEC3",
      "min": [
        7.81022,
        2.48595,
        -25.2
      ],
      "max": [
        23.0,
        17.61,
        0.2
      ]
    },
    {
      "bufferView": 2,
      "byteOffset": 82716,
      "componentType": 5126,
      "count": 383,
      "type": "VEC3"
    },
    {
      "bufferView": 3,
      "byteOffset": 55144,
      "componentType": 5126,
      "count": 383,
      "type": "VEC2"
    },
    {
      "bufferView": 0,
      "byteOffset": 60636,
      "componentType": 5125,
      "count": 969,
      "type": "SCALAR"
    },
    {
      "bufferView": 1,
      "byteOffset": 87312,
      "componentType": 5126,
      "count": 117,
      "type": "VEC3",
      "min": [
        1.0,
        0.01,
        -25.2
      ],
      "max": [
        24.0,
        16.61,
        0.0
      ]
    },
    {
      "bufferView": 2,
      "byteOffset": 87312,
      "componentType": 5126,
      "count": 117,
      "type": "VEC3"
    },
    {
      "bufferView": 3,
      "byteOffset": 58208,
      "componentType": 5126,
      "count": 117,
      "type": "VEC2"
    },
    {
      "bufferView": 0,
      "byteOffset": 64512,
      "componentType": 5125,
      "count": 213,
      "type": "SCALAR"
    },
    {
      "bufferView": 1,
      "byteOffset": 88716,
      "componentType": 5126,
      "count": 105,
      "type": "VEC3",
      "min": [
        5.0,
        2.11,
        -25.0
      ],
      "max": [
        20.0,
        17.61,
        -25.0
      ]
    },
    {
      "bufferView": 2,
      "byteOffset": 88716,
      "componentType": 5126,
      "count": 105,
      "type": "VEC3"
    },
    {
      "bufferView": 3,
      "byteOffset": 59144,
      "componentType": 5126,
      "count": 105,
      "type": "VEC2"
    },
    {
      "bufferView": 0,
      "byteOffset": 65364,
      "componentType": 5125,
      "count": 219,
      "type": "SCALAR"
    },
    {
      "bufferView": 1,
      "byteOffset": 89976,
      "componentType": 5126,
      "count": 557,
      "type": "VEC3",
      "min": [
        0.0,
        0.01,
        -25.2
      ],
      "max": [
        25.0,
        17.61,
        0.0
      ]
    },
    {
      "bufferView": 2,
      "byteOffset": 89976,
      "componentType": 5126,
      "count": 557,
      "type": "VEC3"
    },
    {
      "bufferView": 3,
      "byteOffset": 59984,
      "componentType": 5126,
      "count": 557,
      "type": "VEC2"
    },
    {
      "bufferView": 0,
      "byteOffset": 66240,
      "componentType": 5125,
      "count": 1341,
      "type": "SCALAR"
    },
    {
      "bufferView": 1,
      "byteOffset": 96660,
      "componentType": 5126,
      "count": 4,
      "type": "VEC3",
      "min": [
        8.19,
        0.01,
        -22.0
      ],
      "max": [
        16.81,
        2.11,
        -22.0
      ]
    },
    {
      "bufferView": 2,
      "byteOffset": 96660,
      "componentType": 5126,
      "count": 4,
      "type": "VEC3"
    },
    {
      "bufferView": 3,
      "byteOffset": 64440,
      "componentType": 5126,
      "count": 4,
      "type": "VEC2"
    },
    {
      "bufferView": 0,
      "byteOffset": 71604,
      "componentType": 5125,
      "count": 6,
      "type": "SCALAR"
    }
  ],
  "materials": [
    {
      "pbrMetallicRoughness": {
        "baseColorFactor": [
          1.0,
          1.0,
          1.0,
          1.0
        ],
        "roughnessFactor": 1.0,
        "metallicFactor": 0.0
      },
      "emissiveFactor": [
        0.0,
        0.0,
        0.0
      ]
    },
    {
      "pbrMetallicRoughness": {
        "baseColorFactor": [
          1.0,
          1.0,
          1.0,
          1.0
        ],
        "roughnessFactor": 1.0,
        "metallicFactor": 0.0,
        "baseColorTexture": {
          "index": 0
        }
      },
      "emissiveFactor": [
        0.0,
        0.0,
        0.0
      ]
    },
    {
      "pbrMetallicRoughness": {
        "baseColorFactor": [
          1.0,
          1.0,
          1.0,
          1.0
        ],
        "roughnessFactor": 1.0,
        "metallicFactor": 0.0,
        "baseColorTexture": {
          "index": 1
        }
      },
      "emissiveFactor": [
        0.0,
        0.0,
        0.0
      ]
    },
    {
      "pbrMetallicRoughness": {
        "baseColorFactor": [
          1.0,
          1.0,
          1.0,
          1.0
        ],
        "roughnessFactor": 1.0,
        "metallicFactor": 0.0,
        "baseColorTexture": {
          "index": 2
        }
      },
      "emissiveFactor": [
        0.0,
        0.0,
        0.0
      ]
    },
    {
      "pbrMetallicRoughness": {
        "baseColorFactor": [
          1.0,
          1.0,
          1.0,
          1.0
        ],
        "roughnessFactor": 1.0,
        "metallicFactor": 0.0,
        "baseColorTexture": {
          "index": 3
        }
      },
      "emissiveFactor": [
        0.0,
        0.0,
        0.0
      ]
    },
    {
      "pbrMetallicRoughness": {
        "baseColorFactor": [
          1.0,
          1.0,
          1.0,
          1.0
        ],
        "roughnessFactor": 1.0,
        "metallicFactor": 0.0,
        "baseColorTexture": {
          "index": 4
        }
      },
      "emissiveFactor": [
        0.0,
        0.0,
        0.0
      ]
    },
    {
      "pbrMetallicRoughness": {
        "baseColorFactor": [
          1.0,
          1.0,
          1.0,
          1.0
        ],
        "roughnessFactor": 1.0,
        "metallicFactor": 0.0,
        "baseColorTexture": {
          "index": 5
        }
      },
      "emissiveFactor": [
        0.0,
        0.0,
        0.0
      ]
    },
    {
      "pbrMetallicRoughness": {
        "baseColorFactor": [
          1.0,
          1.0,
          1.0,
          1.0
        ],
        "roughnessFactor": 1.0,
        "metallicFactor": 0.0,
        "baseColorTexture": {
          "index": 6
        }
      },
      "emissiveFactor": [
        0.0,
        0.0,
        0.0
      ]
    },
    {
      "pbrMetallicRoughness": {
        "baseColorFactor": [
          1.0,
          1.0,
          1.0,
          1.0
        ],
        "roughnessFactor": 1.0,
        "metallicFactor": 0.0,
        "baseColorTexture": {
          "index": 7
        }
      },
      "emissiveFactor": [
        0.0,
        0.0,
        0.0
      ]
    },
    {
      "pbrMetallicRoughness": {
        "baseColorFactor": [
          1.0,
          1.0,
          1.0,
          1.0
        ],
        "roughnessFactor": 1.0,
        "metallicFactor": 0.0,
        "baseColorTexture": {
          "index": 8
        }
      },
      "emissiveFactor": [
        0.0,
        0.0,
        0.0
      ]
    },
    {
      "pbrMetallicRoughness": {
        "baseColorFactor": [
          1.0,
          1.0,
          1.0,
          1.0
        ],
        "roughnessFactor": 1.0,
        "metallicFactor": 0.0,
        "baseColorTexture": {
          "index": 9
        }
      },
      "emissiveFactor": [
        0.0,
        0.0,
        0.0
      ]
    },
    {
      "pbrMetallicRoughness": {
        "baseColorFactor": [
          1.0,
          1.0,
          1.0,
          1.0
        ],
        "roughnessFactor": 1.0,
        "metallicFactor": 0.0,
        "baseColorTexture": {
          "index": 10
        }
      },
      "emissiveFactor": [
        0.0,
        0.0,
        0.0
      ]
    },
    {
      "pbrMetallicRoughness": {
        "baseColorFactor": [
          1.0,
          1.0,
          1.0,
          1.0
        ],
        "roughnessFactor": 1.0,
        "metallicFactor": 0.0,
        "baseColorTexture": {
          "index": 11
        }
      },
      "emissiveFactor": [
        0.0,
        0.0,
        0.0
      ]
    },
    {
      "pbrMetallicRoughness": {
        "baseColorFactor": [
          1.0,
          1.0,
          1.0,
          1.0
        ],
        "roughnessFactor": 1.0,
        "metallicFactor": 0.0,
        "baseColorTexture": {
          "index": 12
        }
      },
      "emissiveFactor": [
        0.0,
        0.0,
        0.0
      ]
    },
    {
      "pbrMetallicRoughness": {
        "baseColorFactor": [
          1.0,
          1.0,
          1.0,
          1.0
        ],
        "roughnessFactor": 1.0,
        "metallicFactor": 0.0,
        "baseColorTexture": {
          "index": 13
        }
      },
      "emissiveFactor": [
        0.0,
        0.0,
        0.0
      ]
    }
  ],
  "textures": [
    {
      "source": 0,
      "name": "metal_aluminum_anodized"
    },
    {
      "source": 1,
      "name": "newall10"
    },
    {
      "source": 2,
      "name": "newall11"
    },
    {
      "source": 3,
      "name": "newwall"
    },
    {
      "source": 4,
      "name": "newwall2"
    },
    {
      "source": 5,
      "name": "newwall3"
    },
    {
      "source": 6,
      "name": "newwall4"
    },
    {
      "source": 7,
      "name": "newwall5"
    },
    {
      "source": 8,
      "name": "newwall8"
    },
    {
      "source": 9,
      "name": "newwall9"
    },
    {
      "source": 10,
      "name": "newwindow"
    },
    {
      "source": 11,
      "name": "tile_travertine_2inch"
    },
    {
      "source": 12,
      "name": "window"
    },
    {
      "source": 13,
      "name": "window3"
    }
  ],
  "images": [
    {
      "uri": "metal_aluminum_anodized.png"
    },
    {
      "uri": "newall10.png"
    },
    {
      "uri": "newall11.png"
    },
    {
      "uri": "newwall.png"
    },
    {
      "uri": "newwall2.png"
    },
    {
      "uri": "newwall3.png"
    },
    {
      "uri": "newwall4.png"
    },
    {
      "uri": "newwall5.png"
    },
    {
      "uri": "newwall8.png"
    },
    {
      "uri": "newwall9.png"
    },
    {
      "uri": "newwindow.png"
    },
    {
      "uri": "tile_travertine_2inch.png"
    },
    {
      "uri": "window.png"
    },
    {
      "uri": "window3.png"
    }
  ],
  "bufferViews": [
    {
      "buffer": 0,
      "byteOffset": 0,
      "byteLength": 71628
    },
    {
      "buffer": 0,
      "byteOffset": 71628,
      "byteLength": 96708
    },
    {
      "buffer": 0,
      "byteOffset": 168336,
      "byteLength": 96708
    },
    {
      "buffer": 0,
      "byteOffset": 265044,
      "byteLength": 64472
    }
  ],
  "buffers": [
    {
      "byteLength": 329516,
      "uri": "BUILDINGFINALNEW.bin"
    }
  ]
}