{"accessors":[{"bufferView":0,"componentType":5126,"count":324,"min":[0.0,28.0,-40.0],"max":[89.99999237060547,29.999990463256837,1.0409154854523154e-14],"type":"VEC3","name":"part000_vertices#0_POSITION"},{"bufferView":0,"byteOffset":12,"componentType":5120,"count":324,"type":"VEC4","name":"part000_vertices#0_TANGENT"},{"bufferView":0,"byteOffset":16,"componentType":5120,"count":324,"type":"VEC4","name":"part000_vertices#0_NORMAL"},{"bufferView":0,"byteOffset":20,"componentType":5122,"count":324,"type":"VEC2","name":"part000_vertices#0_TEXCOORD_0"},{"bufferView":0,"byteOffset":24,"componentType":5122,"count":324,"type":"VEC2","name":"part000_vertices#0_TEXCOORD_1"},{"bufferView":0,"byteOffset":28,"componentType":5123,"count":324,"type":"VEC4","name":"part000_vertices#0_COLOR_0"},{"bufferView":1,"componentType":5123,"count":741,"type":"SCALAR","name":"part000_indices#0"},{"bufferView":0,"byteOffset":11664,"componentType":5126,"count":2978,"min":[0.0,0.0,-40.0],"max":[54.9999885559082,29.999990463256837,6.735333675473654e-15],"type":"VEC3","name":"part001_vertices#0_POSITION"},{"bufferView":0,"byteOffset":11676,"componentType":5120,"count":2978,"type":"VEC4","name":"part001_vertices#0_TANGENT"},{"bufferView":0,"byteOffset":11680,"componentType":5120,"count":2978,"type":"VEC4","name":"part001_vertices#0_NORMAL"},{"bufferView":0,"byteOffset":11684,"componentType":5122,"count":2978,"type":"VEC2","name":"part001_vertices#0_TEXCOORD_0"},{"bufferView":0,"byteOffset":11688,"componentType":5122,"count":2978,"type":"VEC2","name":"part001_vertices#0_TEXCOORD_1"},{"bufferView":0,"byteOffset":11692,"componentType":5123,"count":2978,"type":"VEC4","name":"part001_vertices#0_COLOR_0"},{"bufferView":1,"byteOffset":1482,"componentType":5123,"count":5658,"type":"SCALAR","name":"part001_indices#0"},{"bufferView":0,"byteOffset":118872,"componentType":5126,"count":5611,"min":[0.0,0.0,-40.0],"max":[88.5,29.999990463256837,6.735333675473654e-15],"type":"VEC3","name":"part002_vertices#0_POSITION"},{"bufferView":0,"byteOffset":118884,"componentType":5120,"count":5611,"type":"VEC4","name":"part002_vertices#0_TANGENT"},{"bufferView":0,"byteOffset":118888,"componentType":5120,"count":5611,"type":"VEC4","name":"part002_vertices#0_NORMAL"},{"bufferView":0,"byteOffset":118892,"componentType":5122,"count":5611,"type":"VEC2","name":"part002_vertices#0_TEXCOORD_0"},{"bufferView":0,"byteOffset":118896,"componentType":5122,"count":5611,"type":"VEC2","name":"part002_vertices#0_TEXCOORD_1"},{"bufferView":0,"byteOffset":118900,"componentType":5123,"count":5611,"type":"VEC4","name":"part002_vertices#0_COLOR_0"},{"bufferView":1,"byteOffset":12798,"componentType":5123,"count":11238,"type":"SCALAR","name":"part002_indices#0"},{"bufferView":0,"byteOffset":320868,"componentType":5126,"count":1301,"min":[62.0684814453125,0.0,-40.0],"max":[89.99999237060547,28.699989318847658,1.0409154854523154e-14],"type":"VEC3","name":"part003_vertices#0_POSITION"},{"bufferView":0,"byteOffset":320880,"componentType":5120,"count":1301,"type":"VEC4","name":"part003_vertices#0_TANGENT"},{"bufferView":0,"byteOffset":320884,"componentType":5120,"count":1301,"type":"VEC4","name":"part003_vertices#0_NORMAL"},{"bufferView":0,"byteOffset":320888,"componentType":5122,"count":1301,"type":"VEC2","name":"part003_vertices#0_TEXCOORD_0"},{"bufferView":0,"byteOffset":320892,"componentType":5122,"count":1301,"type":"VEC2","name":"part003_vertices#0_TEXCOORD_1"},{"bufferView":0,"byteOffset":320896,"componentType":5123,"count":1301,"type":"VEC4","name":"part003_vertices#0_COLOR_0"},{"bufferView":1,"byteOffset":35274,"componentType":5123,"count":2013,"type":"SCALAR","name":"part003_indices#0"},{"bufferView":0,"byteOffset":367704,"componentType":5126,"count":1678,"min":[61.2499885559082,0.0,-40.0],"max":[89.99999237060547,28.999990463256837,1.0409154854523154e-14],"type":"VEC3","name":"part004_vertices#0_POSITION"},{"bufferView":0,"byteOffset":367716,"componentType":5120,"count":1678,"type":"VEC4","name":"part004_vertices#0_TANGENT"},{"bufferView":0,"byteOffset":367720,"componentType":5120,"count":1678,"type":"VEC4","name":"part004_vertices#0_NORMAL"},{"bufferView":0,"byteOffset":367724,"componentType":5122,"count":1678,"type":"VEC2","name":"part004_vertices#0_TEXCOORD_0"},{"bufferView":0,"byteOffset":367728,"componentType":5122,"count":1678,"type":"VEC2","name":"part004_vertices#0_TEXCOORD_1"},{"bufferView":0,"byteOffset":367732,"componentType":5123,"count":1678,"type":"VEC4","name":"part004_vertices#0_COLOR_0"},{"bufferView":1,"byteOffset":39300,"componentType":5123,"count":2772,"type":"SCALAR","name":"part004_indices#0"},{"bufferView":0,"byteOffset":428112,"componentType":5126,"count":1735,"min":[1.2246063538223773e-16,0.0,-40.0],"max":[53.9999885559082,29.999990463256837,6.612873040091416e-15],"type":"VEC3","name":"part005_vertices#0_POSITION"},{"bufferView":0,"byteOffset":428124,"componentType":5120,"count":1735,"type":"VEC4","name":"part005_vertices#0_TANGENT"},{"bufferView":0,"byteOffset":428128,"componentType":5120,"count":1735,"type":"VEC4","name":"part005_vertices#0_NORMAL"},{"bufferView":0,"byteOffset":428132,"componentType":5122,"count":1735,"type":"VEC2","name":"part005_vertices#0_TEXCOORD_0"},{"bufferView":0,"byteOffset":428136,"componentType":5122,"count":1735,"type":"VEC2","name":"part005_vertices#0_TEXCOORD_1"},{"bufferView":0,"byteOffset":428140,"componentType":5123,"count":1735,"type":"VEC4","name":"part005_vertices#0_COLOR_0"},{"bufferView":1,"byteOffset":44844,"componentType":5123,"count":2727,"type":"SCALAR","name":"part005_indices#0"},{"bufferView":0,"byteOffset":490572,"componentType":5126,"count":1602,"min":[0.0,0.4931899905204773,-40.0],"max":[54.9999885559082,28.999990463256837,6.735333675473654e-15],"type":"VEC3","name":"part006_vertices#0_POSITION"},{"bufferView":0,"byteOffset":490584,"componentType":5120,"count":1602,"type":"VEC4","name":"part006_vertices#0_TANGENT"},{"bufferView":0,"byteOffset":490588,"componentType":5120,"count":1602,"type":"VEC4","name":"part006_vertices#0_NORMAL"},{"bufferView":0,"byteOffset":490592,"componentType":5122,"count":1602,"type":"VEC2","name":"part006_vertices#0_TEXCOORD_0"},{"bufferView":0,"byteOffset":490596,"componentType":5122,"count":1602,"type":"VEC2","name":"part006_vertices#0_TEXCOORD_1"},{"bufferView":0,"byteOffset":490600,"componentType":5123,"count":1602,"type":"VEC4","name":"part006_vertices#0_COLOR_0"},{"bufferView":1,"byteOffset":50298,"componentType":5123,"count":2460,"type":"SCALAR","name":"part006_indices#0"},{"bufferView":0,"byteOffset":548244,"componentType":5126,"count":2684,"min":[61.2499885559082,0.0,-40.0],"max":[89.99999237060547,28.999990463256837,1.0409154854523154e-14],"type":"VEC3","name":"part007_vertices#0_POSITION"},{"bufferView":0,"byteOffset":548256,"componentType":5120,"count":2684,"type":"VEC4","name":"part007_vertices#0_TANGENT"},{"bufferView":0,"byteOffset":548260,"componentType":5120,"count":2684,"type":"VEC4","name":"part007_vertices#0_NORMAL"},{"bufferView":0,"byteOffset":548264,"componentType":5122,"count":2684,"type":"VEC2","name":"part007_vertices#0_TEXCOORD_0"},{"bufferView":0,"byteOffset":548268,"componentType":5122,"count":2684,"type":"VEC2","name":"part007_vertices#0_TEXCOORD_1"},{"bufferView":0,"byteOffset":548272,"componentType":5123,"count":2684,"type":"VEC4","name":"part007_vertices#0_COLOR_0"},{"bufferView":1,"byteOffset":55218,"componentType":5123,"count":5427,"type":"SCALAR","name":"part007_indices#0"},{"bufferView":0,"byteOffset":644868,"componentType":5126,"count":55,"min":[54.9999885559082,0.0,-40.0],"max":[61.7499885559082,28.999990463256837,7.500712223096166e-15],"type":"VEC3","name":"part008_vertices#0_POSITION"},{"bufferView":0,"byteOffset":644880,"componentType":5120,"count":55,"type":"VEC4","name":"part008_vertices#0_TANGENT"},{"bufferView":0,"byteOffset":644884,"componentType":5120,"count":55,"type":"VEC4","name":"part008_vertices#0_NORMAL"},{"bufferView":0,"byteOffset":644888,"componentType":5122,"count":55,"type":"VEC2","name":"part008_vertices#0_TEXCOORD_0"},{"bufferView":0,"byteOffset":644892,"componentType":5122,"count":55,"type":"VEC2","name":"part008_vertices#0_TEXCOORD_1"},{"bufferView":0,"byteOffset":644896,"componentType":5123,"count":55,"type":"VEC4","name":"part008_vertices#0_COLOR_0"},{"bufferView":1,"byteOffset":66072,"componentType":5123,"count":135,"type":"SCALAR","name":"part008_indices#0"},{"bufferView":0,"byteOffset":646848,"componentType":5126,"count":4,"min":[1.250749945640564,28.130319595336915,1.5316763112812525e-16],"max":[7.2507500648498539,28.88031005859375,8.879314566564414e-16],"type":"VEC3","name":"part009_vertices#0_POSITION"},{"bufferView":0,"byteOffset":646860,"componentType":5120,"count":4,"type":"VEC4","name":"part009_vertices#0_TANGENT"},{"bufferView":0,"byteOffset":646864,"componentType":5120,"count":4,"type":"VEC4","name":"part009_vertices#0_NORMAL"},{"bufferView":0,"byteOffset":646868,"componentType":5122,"count":4,"type":"VEC2","name":"part009_vertices#0_TEXCOORD_0"},{"bufferView":0,"byteOffset":646872,"componentType":5122,"count":4,"type":"VEC2","name":"part009_vertices#0_TEXCOORD_1"},{"bufferView":0,"byteOffset":646876,"componentType":5123,"count":4,"type":"VEC4","name":"part009_vertices#0_COLOR_0"},{"bufferView":1,"byteOffset":66342,"componentType":5123,"count":6,"type":"SCALAR","name":"part009_indices#0"},{"bufferView":0,"byteOffset":646992,"componentType":5126,"count":4,"min":[10.218549728393555,28.999990463256837,1.2513700538567714e-15],"max":[18.218549728393556,30.999990463256837,2.231055136914673e-15],"type":"VEC3","name":"part010_vertices#0_POSITION"},{"bufferView":0,"byteOffset":647004,"componentType":5120,"count":4,"type":"VEC4","name":"part010_vertices#0_TANGENT"},{"bufferView":0,"byteOffset":647008,"componentType":5120,"count":4,"type":"VEC4","name":"part010_vertices#0_NORMAL"},{"bufferView":0,"byteOffset":647012,"componentType":5122,"count":4,"type":"VEC2","name":"part010_vertices#0_TEXCOORD_0"},{"bufferView":0,"byteOffset":647016,"componentType":5122,"count":4,"type":"VEC2","name":"part010_vertices#0_TEXCOORD_1"},{"bufferView":0,"byteOffset":647020,"componentType":5123,"count":4,"type":"VEC4","name":"part010_vertices#0_COLOR_0"},{"bufferView":1,"byteOffset":66354,"componentType":5123,"count":6,"type":"SCALAR","name":"part010_indices#0"},{"bufferView":0,"byteOffset":647136,"componentType":5126,"count":4,"min":[20.437089920043947,28.999990463256837,2.5027390489223589e-15],"max":[50.43709182739258,30.999990463256837,6.176558322147727e-15],"type":"VEC3","name":"part011_vertices#0_POSITION"},{"bufferView":0,"byteOffset":647148,"componentType":5120,"count":4,"type":"VEC4","name":"part011_vertices#0_TANGENT"},{"bufferView":0,"byteOffset":647152,"componentType":5120,"count":4,"type":"VEC4","name":"part011_vertices#0_NORMAL"},{"bufferView":0,"byteOffset":647156,"componentType":5122,"count":4,"type":"VEC2","name":"part011_vertices#0_TEXCOORD_0"},{"bufferView":0,"byteOffset":647160,"componentType":5122,"count":4,"type":"VEC2","name":"part011_vertices#0_TEXCOORD_1"},{"bufferView":0,"byteOffset":647164,"componentType":5123,"count":4,"type":"VEC4","name":"part011_vertices#0_COLOR_0"},{"bufferView":1,"byteOffset":66366,"componentType":5123,"count":6,"type":"SCALAR","name":"part011_indices#0"},{"bufferView":0,"byteOffset":647280,"componentType":5126,"count":4,"min":[10.218549728393555,28.999990463256837,1.2513700538567714e-15],"max":[18.218549728393556,30.999990463256837,2.231055136914673e-15],"type":"VEC3","name":"part012_vertices#0_POSITION"},{"bufferView":0,"byteOffset":647292,"componentType":5120,"count":4,"type":"VEC4","name":"part012_vertices#0_TANGENT"},{"bufferView":0,"byteOffset":647296,"componentType":5120,"count":4,"type":"VEC4","name":"part012_vertices#0_NORMAL"},{"bufferView":0,"byteOffset":647300,"componentType":5122,"count":4,"type":"VEC2","name":"part012_vertices#0_TEXCOORD_0"},{"bufferView":0,"byteOffset":647304,"componentType":5122,"count":4,"type":"VEC2","name":"part012_vertices#0_TEXCOORD_1"},{"bufferView":0,"byteOffset":647308,"componentType":5123,"count":4,"type":"VEC4","name":"part012_vertices#0_COLOR_0"},{"bufferView":1,"byteOffset":66378,"componentType":5123,"count":6,"type":"SCALAR","name":"part012_indices#0"},{"bufferView":0,"byteOffset":647424,"componentType":5126,"count":4,"min":[20.437089920043947,28.999990463256837,2.5027390489223589e-15],"max":[50.43709182739258,30.999990463256837,6.176558322147727e-15],"type":"VEC3","name":"part013_vertices#0_POSITION"},{"bufferView":0,"byteOffset":647436,"componentType":5120,"count":4,"type":"VEC4","name":"part013_vertices#0_TANGENT"},{"bufferView":0,"byteOffset":647440,"componentType":5120,"count":4,"type":"VEC4","name":"part013_vertices#0_NORMAL"},{"bufferView":0,"byteOffset":647444,"componentType":5122,"count":4,"type":"VEC2","name":"part013_vertices#0_TEXCOORD_0"},{"bufferView":0,"byteOffset":647448,"componentType":5122,"count":4,"type":"VEC2","name":"part013_vertices#0_TEXCOORD_1"},{"bufferView":0,"byteOffset":647452,"componentType":5123,"count":4,"type":"VEC4","name":"part013_vertices#0_COLOR_0"},{"bufferView":1,"byteOffset":66390,"componentType":5123,"count":6,"type":"SCALAR","name":"part013_indices#0"}],"asset":{"generator":"ModelConverterX","version":"2.0","extensions":{"ASOBO_asset_optimized":{"BoundingBoxMax":[89.99999237060547,30.999990463256837,1.0409154854523154e-14],"BoundingBoxMin":[0.0,0.0,-40.0],"MajorVersion":4,"MinorVersion":4,"UseCheckerboardMaterialForMissingTextures":true,"UseOnlyFilenameForImageURI":true}}},"bufferViews":[{"buffer":0,"byteLength":647568,"byteStride":36,"target":34962,"name":"BufferViewVertexND"},{"buffer":0,"byteLength":66402,"byteOffset":647568,"target":34963,"name":"BufferViewIndex"}],"extensionsRequired":["MSFT_texture_dds"],"materials":[{"name":"material00","pbrMetallicRoughness":{"metallicFactor":0.0},"extensions":{"ASOBO_material_day_night_switch":{}}},{"name":"material01","alphaMode":"BLEND","pbrMetallicRoughness":{"metallicFactor":0.0,"baseColorTexture":{"index":0}},"extensions":{"ASOBO_material_day_night_switch":{}}},{"name":"material02","alphaMode":"BLEND","pbrMetallicRoughness":{"metallicFactor":0.0,"baseColorTexture":{"index":1}},"extensions":{"ASOBO_material_day_night_switch":{}}},{"name":"material03","pbrMetallicRoughness":{"metallicFactor":0.0,"baseColorTexture":{"index":2}},"extensions":{"ASOBO_material_day_night_switch":{}}},{"name":"material04","pbrMetallicRoughness":{"metallicFactor":0.0,"baseColorTexture":{"index":3}},"extensions":{"ASOBO_material_day_night_switch":{}}},{"name":"material05","pbrMetallicRoughness":{"metallicFactor":0.0,"baseColorTexture":{"index":4}},"extensions":{"ASOBO_material_day_night_switch":{}}},{"name":"material06","pbrMetallicRoughness":{"metallicFactor":0.0,"baseColorTexture":{"index":5}},"extensions":{"ASOBO_material_day_night_switch":{}}},{"name":"material07","pbrMetallicRoughness":{"metallicFactor":0.0,"baseColorTexture":{"index":6}},"extensions":{"ASOBO_material_day_night_switch":{}}},{"name":"material08","pbrMetallicRoughness":{"metallicFactor":0.0,"baseColorTexture":{"index":7}},"extensions":{"ASOBO_material_day_night_switch":{}}},{"name":"material09","pbrMetallicRoughness":{"metallicFactor":0.0,"baseColorTexture":{"index":8}},"extensions":{"ASOBO_material_day_night_switch":{}}},{"name":"material10","pbrMetallicRoughness":{"metallicFactor":0.0,"baseColorTexture":{"index":9}},"extensions":{"ASOBO_material_day_night_switch":{}}},{"name":"material11","alphaMode":"BLEND","pbrMetallicRoughness":{"metallicFactor":0.0,"baseColorTexture":{"index":10}},"extensions":{"ASOBO_material_day_night_switch":{}}},{"name":"material12","alphaMode":"BLEND","pbrMetallicRoughness":{"metallicFactor":0.0,"baseColorTexture":{"index":11}},"extensions":{"ASOBO_material_day_night_switch":{}}},{"name":"material13","pbrMetallicRoughness":{"metallicFactor":0.0,"baseColorTexture":{"index":12}},"extensions":{"ASOBO_material_day_night_switch":{}}}],"meshes":[{"primitives":[{"attributes":{"COLOR_0":5,"NORMAL":2,"POSITION":0,"TANGENT":1,"TEXCOORD_0":3,"TEXCOORD_1":4},"indices":6,"material":3,"mode":4,"extras":{"ASOBO_primitive":{"PrimitiveCount":247,"VertexType":"VTX","VertexVersion":2}}}],"name":"part000"},{"primitives":[{"attributes":{"COLOR_0":12,"NORMAL":9,"POSITION":7,"TANGENT":8,"TEXCOORD_0":10,"TEXCOORD_1":11},"indices":13,"material":8,"mode":4,"extras":{"ASOBO_primitive":{"PrimitiveCount":1886,"VertexType":"VTX","VertexVersion":2}}}],"name":"part001"},{"primitives":[{"attributes":{"COLOR_0":19,"NORMAL":16,"POSITION":14,"TANGENT":15,"TEXCOORD_0":17,"TEXCOORD_1":18},"indices":20,"material":0,"mode":4,"extras":{"ASOBO_primitive":{"PrimitiveCount":3746,"VertexType":"VTX","VertexVersion":2}}}],"name":"part002"},{"primitives":[{"attributes":{"COLOR_0":26,"NORMAL":23,"POSITION":21,"TANGENT":22,"TEXCOORD_0":24,"TEXCOORD_1":25},"indices":27,"material":5,"mode":4,"extras":{"ASOBO_primitive":{"PrimitiveCount":671,"VertexType":"VTX","VertexVersion":2}}}],"name":"part003"},{"primitives":[{"attributes":{"COLOR_0":33,"NORMAL":30,"POSITION":28,"TANGENT":29,"TEXCOORD_0":31,"TEXCOORD_1":32},"indices":34,"material":9,"mode":4,"extras":{"ASOBO_primitive":{"PrimitiveCount":924,"VertexType":"VTX","VertexVersion":2}}}],"name":"part004"},{"primitives":[{"attributes":{"COLOR_0":40,"NORMAL":37,"POSITION":35,"TANGENT":36,"TEXCOORD_0":38,"TEXCOORD_1":39},"indices":41,"material":4,"mode":4,"extras":{"ASOBO_primitive":{"PrimitiveCount":909,"VertexType":"VTX","VertexVersion":2}}}],"name":"part005"},{"primitives":[{"attributes":{"COLOR_0":47,"NORMAL":44,"POSITION":42,"TANGENT":43,"TEXCOORD_0":45,"TEXCOORD_1":46},"indices":48,"material":7,"mode":4,"extras":{"ASOBO_primitive":{"PrimitiveCount":820,"VertexType":"VTX","VertexVersion":2}}}],"name":"part006"},{"primitives":[{"attributes":{"COLOR_0":54,"NORMAL":51,"POSITION":49,"TANGENT":50,"TEXCOORD_0":52,"TEXCOORD_1":53},"indices":55,"material":10,"mode":4,"extras":{"ASOBO_primitive":{"PrimitiveCount":1809,"VertexType":"VTX","VertexVersion":2}}}],"name":"part007"},{"primitives":[{"attributes":{"COLOR_0":61,"NORMAL":58,"POSITION":56,"TANGENT":57,"TEXCOORD_0":59,"TEXCOORD_1":60},"indices":62,"material":6,"mode":4,"extras":{"ASOBO_primitive":{"PrimitiveCount":45,"VertexType":"VTX","VertexVersion":2}}}],"name":"part008"},{"primitives":[{"attributes":{"COLOR_0":68,"NORMAL":65,"POSITION":63,"TANGENT":64,"TEXCOORD_0":66,"TEXCOORD_1":67},"indices":69,"material":13,"mode":4,"extras":{"ASOBO_primitive":{"PrimitiveCount":2,"VertexType":"VTX","VertexVersion":2}}}],"name":"part009"},{"primitives":[{"attributes":{"COLOR_0":75,"NORMAL":72,"POSITION":70,"TANGENT":71,"TEXCOORD_0":73,"TEXCOORD_1":74},"indices":76,"material":1,"mode":4,"extras":{"ASOBO_primitive":{"PrimitiveCount":2,"VertexType":"VTX","VertexVersion":2}}}],"name":"part010"},{"primitives":[{"attributes":{"COLOR_0":82,"NORMAL":79,"POSITION":77,"TANGENT":78,"TEXCOORD_0":80,"TEXCOORD_1":81},"indices":83,"material":11,"mode":4,"extras":{"ASOBO_primitive":{"PrimitiveCount":2,"VertexType":"VTX","VertexVersion":2}}}],"name":"part011"},{"primitives":[{"attributes":{"COLOR_0":89,"NORMAL":86,"POSITION":84,"TANGENT":85,"TEXCOORD_0":87,"TEXCOORD_1":88},"indices":90,"material":2,"mode":4,"extras":{"ASOBO_primitive":{"PrimitiveCount":2,"VertexType":"VTX","VertexVersion":2}}}],"name":"part012"},{"primitives":[{"attributes":{"COLOR_0":96,"NORMAL":93,"POSITION":91,"TANGENT":92,"TEXCOORD_0":94,"TEXCOORD_1":95},"indices":97,"material":12,"mode":4,"extras":{"ASOBO_primitive":{"PrimitiveCount":2,"VertexType":"VTX","VertexVersion":2}}}],"name":"part013"}],"nodes":[{"name":"node0","children":[1,2,3,4,5,6,7,8,9,10,11,12,13,14]},{"mesh":0,"name":"node1"},{"mesh":1,"name":"node2"},{"mesh":2,"name":"node3"},{"mesh":3,"name":"node4"},{"mesh":4,"name":"node5"},{"mesh":5,"name":"node6"},{"mesh":6,"name":"node7"},{"mesh":7,"name":"node8"},{"mesh":8,"name":"node9"},{"mesh":9,"name":"node10"},{"mesh":10,"name":"node11"},{"mesh":11,"name":"node12"},{"mesh":12,"name":"node13"},{"mesh":13,"name":"node14"}],"scene":0,"scenes":[{"nodes":[0]}],"textures":[{"extensions":{"MSFT_texture_dds":{"source":0}}},{"extensions":{"MSFT_texture_dds":{"source":1}}},{"extensions":{"MSFT_texture_dds":{"source":2}}},{"extensions":{"MSFT_texture_dds":{"source":3}}},{"extensions":{"MSFT_texture_dds":{"source":4}}},{"extensions":{"MSFT_texture_dds":{"source":5}}},{"extensions":{"MSFT_texture_dds":{"source":6}}},{"extensions":{"MSFT_texture_dds":{"source":7}}},{"extensions":{"MSFT_texture_dds":{"source":8}}},{"extensions":{"MSFT_texture_dds":{"source":9}}},{"extensions":{"MSFT_texture_dds":{"source":10}}},{"extensions":{"MSFT_texture_dds":{"source":11}}},{"extensions":{"MSFT_texture_dds":{"source":12}}}],"extensionsUsed":["ASOBO_material_day_night_switch","MSFT_texture_dds","ASOBO_asset_optimized"],"buffers":[{"byteLength":713970,"uri":"BET LEVINSTAIN.bin"}],"images":[{"uri":"KLALIT.PNG.DDS","extras":"ASOBO_image_converted_meta"},{"uri":"KLALITFLIP.PNG.DDS","extras":"ASOBO_image_converted_meta"},{"uri":"LEVIROOF.PNG.DDS","extras":"ASOBO_image_converted_meta"},{"uri":"LEVIWALL.PNG.DDS","extras":"ASOBO_image_converted_meta"},{"uri":"LEVIWALL2.PNG.DDS","extras":"ASOBO_image_converted_meta"},{"uri":"LEVIWALL3.PNG.DDS","extras":"ASOBO_image_converted_meta"},{"uri":"LEVIWALL4.PNG.DDS","extras":"ASOBO_image_converted_meta"},{"uri":"LEVIWALL5.PNG.DDS","extras":"ASOBO_image_converted_meta"},{"uri":"LEVIWALL6.PNG.DDS","extras":"ASOBO_image_converted_meta"},{"uri":"LEVIWALL7.PNG.DDS","extras":"ASOBO_image_converted_meta"},{"uri":"LOGO.PNG.DDS","extras":"ASOBO_image_converted_meta"},{"uri":"LOGOFLIP.PNG.DDS","extras":"ASOBO_image_converted_meta"},{"uri":"MERKAZ_SHIKUM.PNG.DDS","extras":"ASOBO_image_converted_meta"}]}
