{"accessors":[{"bufferView":0,"componentType":5126,"count":215,"min":[-6.622834205627441,0.036159947514534,5.230627059936523],"max":[24.521825790405275,7.029650688171387,45.708213806152347],"type":"VEC3","name":"part000_vertices#0_POSITION"},{"bufferView":0,"byteOffset":12,"componentType":5120,"count":215,"type":"VEC4","name":"part000_vertices#0_TANGENT"},{"bufferView":0,"byteOffset":16,"componentType":5120,"count":215,"type":"VEC4","name":"part000_vertices#0_NORMAL"},{"bufferView":0,"byteOffset":20,"componentType":5122,"count":215,"type":"VEC2","name":"part000_vertices#0_TEXCOORD_0"},{"bufferView":0,"byteOffset":24,"componentType":5122,"count":215,"type":"VEC2","name":"part000_vertices#0_TEXCOORD_1"},{"bufferView":0,"byteOffset":28,"componentType":5123,"count":215,"type":"VEC4","name":"part000_vertices#0_COLOR_0"},{"bufferView":1,"componentType":5123,"count":345,"type":"SCALAR","name":"part000_indices#0"},{"bufferView":0,"byteOffset":7740,"componentType":5126,"count":14,"min":[-6.622834205627441,5.932210922241211,5.230627059936523],"max":[24.521825790405275,7.029650688171387,45.69114685058594],"type":"VEC3","name":"part001_vertices#0_POSITION"},{"bufferView":0,"byteOffset":7752,"componentType":5120,"count":14,"type":"VEC4","name":"part001_vertices#0_TANGENT"},{"bufferView":0,"byteOffset":7756,"componentType":5120,"count":14,"type":"VEC4","name":"part001_vertices#0_NORMAL"},{"bufferView":0,"byteOffset":7760,"componentType":5122,"count":14,"type":"VEC2","name":"part001_vertices#0_TEXCOORD_0"},{"bufferView":0,"byteOffset":7764,"componentType":5122,"count":14,"type":"VEC2","name":"part001_vertices#0_TEXCOORD_1"},{"bufferView":0,"byteOffset":7768,"componentType":5123,"count":14,"type":"VEC4","name":"part001_vertices#0_COLOR_0"},{"bufferView":1,"byteOffset":690,"componentType":5123,"count":18,"type":"SCALAR","name":"part001_indices#0"}],"asset":{"generator":"ModelConverterX","version":"2.0","extensions":{"ASOBO_asset_optimized":{"BoundingBoxMax":[24.521825790405275,7.029650688171387,45.708213806152347],"BoundingBoxMin":[-6.622834205627441,0.036159947514534,5.230627059936523],"MajorVersion":4,"MinorVersion":4,"UseCheckerboardMaterialForMissingTextures":true,"UseOnlyFilenameForImageURI":true}}},"bufferViews":[{"buffer":0,"byteLength":8244,"byteStride":36,"target":34962,"name":"BufferViewVertexND"},{"buffer":0,"byteLength":726,"byteOffset":8244,"target":34963,"name":"BufferViewIndex"}],"extensionsRequired":["MSFT_texture_dds"],"materials":[{"name":"__","pbrMetallicRoughness":{"baseColorTexture":{"index":0}},"extensions":{"ASOBO_material_day_night_switch":{}}},{"name":"FNA3","pbrMetallicRoughness":{"baseColorTexture":{"index":1}},"extensions":{"ASOBO_material_day_night_switch":{}}}],"meshes":[{"primitives":[{"attributes":{"COLOR_0":5,"NORMAL":2,"POSITION":0,"TANGENT":1,"TEXCOORD_0":3,"TEXCOORD_1":4},"indices":6,"material":1,"mode":4,"extras":{"ASOBO_primitive":{"PrimitiveCount":115,"VertexType":"VTX","VertexVersion":2}}}],"name":"part000"},{"primitives":[{"attributes":{"COLOR_0":12,"NORMAL":9,"POSITION":7,"TANGENT":8,"TEXCOORD_0":10,"TEXCOORD_1":11},"indices":13,"material":0,"mode":4,"extras":{"ASOBO_primitive":{"PrimitiveCount":6,"VertexType":"VTX","VertexVersion":2}}}],"name":"part001"}],"nodes":[{"name":"node0","children":[1,2]},{"mesh":0,"name":"node1"},{"mesh":1,"name":"node2"}],"scene":0,"scenes":[{"nodes":[0]}],"textures":[{"extensions":{"MSFT_texture_dds":{"source":0}}},{"extensions":{"MSFT_texture_dds":{"source":1}}}],"extensionsUsed":["ASOBO_material_day_night_switch","MSFT_texture_dds","ASOBO_asset_optimized"],"buffers":[{"byteLength":8970,"uri":"fna3.bin"}],"images":[{"uri":"VERTICAL_SQUARE_IRON.PNG.DDS","extras":"ASOBO_image_converted_meta"},{"uri":"FNA3.PNG.DDS","extras":"ASOBO_image_converted_meta"}]}
