{"accessors":[{"bufferView":0,"componentType":5126,"count":32,"min":[-56.81346130371094,-0.7188699841499329,3.202660083770752],"max":[-23.116249084472658,0.5934200286865234,6.992469787597656],"type":"VEC3","name":"part000_vertices#0_POSITION"},{"bufferView":0,"byteOffset":12,"componentType":5120,"count":32,"type":"VEC4","name":"part000_vertices#0_TANGENT"},{"bufferView":0,"byteOffset":16,"componentType":5120,"count":32,"type":"VEC4","name":"part000_vertices#0_NORMAL"},{"bufferView":0,"byteOffset":20,"componentType":5122,"count":32,"type":"VEC2","name":"part000_vertices#0_TEXCOORD_0"},{"bufferView":0,"byteOffset":24,"componentType":5122,"count":32,"type":"VEC2","name":"part000_vertices#0_TEXCOORD_1"},{"bufferView":0,"byteOffset":28,"componentType":5123,"count":32,"type":"VEC4","name":"part000_vertices#0_COLOR_0"},{"bufferView":1,"componentType":5123,"count":48,"type":"SCALAR","name":"part000_indices#0"},{"bufferView":0,"byteOffset":1152,"componentType":5126,"count":168,"min":[18.350160598754884,-0.0709099993109703,-7.441629886627197],"max":[37.88420104980469,7.625909805297852,5.510089874267578],"type":"VEC3","name":"part001_vertices#0_POSITION"},{"bufferView":0,"byteOffset":1164,"componentType":5120,"count":168,"type":"VEC4","name":"part001_vertices#0_TANGENT"},{"bufferView":0,"byteOffset":1168,"componentType":5120,"count":168,"type":"VEC4","name":"part001_vertices#0_NORMAL"},{"bufferView":0,"byteOffset":1172,"componentType":5122,"count":168,"type":"VEC2","name":"part001_vertices#0_TEXCOORD_0"},{"bufferView":0,"byteOffset":1176,"componentType":5122,"count":168,"type":"VEC2","name":"part001_vertices#0_TEXCOORD_1"},{"bufferView":0,"byteOffset":1180,"componentType":5123,"count":168,"type":"VEC4","name":"part001_vertices#0_COLOR_0"},{"bufferView":1,"byteOffset":96,"componentType":5123,"count":240,"type":"SCALAR","name":"part001_indices#0"},{"bufferView":0,"byteOffset":7200,"componentType":5126,"count":144,"min":[1.5448700189590455,0.0,-7.738900184631348],"max":[17.148029327392579,6.316860198974609,3.762209892272949],"type":"VEC3","name":"part002_vertices#0_POSITION"},{"bufferView":0,"byteOffset":7212,"componentType":5120,"count":144,"type":"VEC4","name":"part002_vertices#0_TANGENT"},{"bufferView":0,"byteOffset":7216,"componentType":5120,"count":144,"type":"VEC4","name":"part002_vertices#0_NORMAL"},{"bufferView":0,"byteOffset":7220,"componentType":5122,"count":144,"type":"VEC2","name":"part002_vertices#0_TEXCOORD_0"},{"bufferView":0,"byteOffset":7224,"componentType":5122,"count":144,"type":"VEC2","name":"part002_vertices#0_TEXCOORD_1"},{"bufferView":0,"byteOffset":7228,"componentType":5123,"count":144,"type":"VEC4","name":"part002_vertices#0_COLOR_0"},{"bufferView":1,"byteOffset":576,"componentType":5123,"count":228,"type":"SCALAR","name":"part002_indices#0"},{"bufferView":0,"byteOffset":12384,"componentType":5126,"count":454,"min":[-59.232059478759769,-0.07046999782323837,-7.71422004699707],"max":[53.16796112060547,5.775000095367432,3.9407799243927],"type":"VEC3","name":"part003_vertices#0_POSITION"},{"bufferView":0,"byteOffset":12396,"componentType":5120,"count":454,"type":"VEC4","name":"part003_vertices#0_TANGENT"},{"bufferView":0,"byteOffset":12400,"componentType":5120,"count":454,"type":"VEC4","name":"part003_vertices#0_NORMAL"},{"bufferView":0,"byteOffset":12404,"componentType":5122,"count":454,"type":"VEC2","name":"part003_vertices#0_TEXCOORD_0"},{"bufferView":0,"byteOffset":12408,"componentType":5122,"count":454,"type":"VEC2","name":"part003_vertices#0_TEXCOORD_1"},{"bufferView":0,"byteOffset":12412,"componentType":5123,"count":454,"type":"VEC4","name":"part003_vertices#0_COLOR_0"},{"bufferView":1,"byteOffset":1032,"componentType":5123,"count":756,"type":"SCALAR","name":"part003_indices#0"}],"asset":{"generator":"ModelConverterX","version":"2.0","extensions":{"ASOBO_asset_optimized":{"BoundingBoxMax":[53.16796112060547,7.625909805297852,6.992469787597656],"BoundingBoxMin":[-59.232059478759769,-0.7188699841499329,-7.738900184631348],"MajorVersion":4,"MinorVersion":4,"UseCheckerboardMaterialForMissingTextures":true,"UseOnlyFilenameForImageURI":true}}},"bufferViews":[{"buffer":0,"byteLength":28728,"byteStride":36,"target":34962,"name":"BufferViewVertexND"},{"buffer":0,"byteLength":2544,"byteOffset":28728,"target":34963,"name":"BufferViewIndex"}],"extensionsRequired":["MSFT_texture_dds"],"materials":[{"name":"material00","emissiveTexture":{"index":1},"emissiveFactor":[1.0,1.0,1.0],"pbrMetallicRoughness":{"baseColorFactor":[0.5879999995231628,0.5879999995231628,0.5879999995231628,1.0],"metallicFactor":0.0,"baseColorTexture":{"index":0}},"extensions":{"ASOBO_material_day_night_switch":{}}},{"name":"material01","emissiveTexture":{"index":3},"emissiveFactor":[1.0,1.0,1.0],"pbrMetallicRoughness":{"baseColorFactor":[0.5879999995231628,0.5879999995231628,0.5879999995231628,1.0],"metallicFactor":0.0,"baseColorTexture":{"index":2}},"extensions":{"ASOBO_material_day_night_switch":{}}},{"name":"material02","emissiveTexture":{"index":5},"emissiveFactor":[1.0,1.0,1.0],"pbrMetallicRoughness":{"baseColorFactor":[0.5879999995231628,0.5879999995231628,0.5879999995231628,1.0],"metallicFactor":0.0,"baseColorTexture":{"index":4}},"extensions":{"ASOBO_material_day_night_switch":{}}},{"name":"material03","emissiveTexture":{"index":7},"emissiveFactor":[1.0,1.0,1.0],"pbrMetallicRoughness":{"baseColorFactor":[0.5879999995231628,0.5879999995231628,0.5879999995231628,1.0],"metallicFactor":0.0,"baseColorTexture":{"index":6}},"extensions":{"ASOBO_material_day_night_switch":{}}}],"meshes":[{"primitives":[{"attributes":{"COLOR_0":5,"NORMAL":2,"POSITION":0,"TANGENT":1,"TEXCOORD_0":3,"TEXCOORD_1":4},"indices":6,"material":0,"mode":4,"extras":{"ASOBO_primitive":{"PrimitiveCount":16,"VertexType":"VTX","VertexVersion":2}}}],"name":"part000"},{"primitives":[{"attributes":{"COLOR_0":12,"NORMAL":9,"POSITION":7,"TANGENT":8,"TEXCOORD_0":10,"TEXCOORD_1":11},"indices":13,"material":1,"mode":4,"extras":{"ASOBO_primitive":{"PrimitiveCount":80,"VertexType":"VTX","VertexVersion":2}}}],"name":"part001"},{"primitives":[{"attributes":{"COLOR_0":19,"NORMAL":16,"POSITION":14,"TANGENT":15,"TEXCOORD_0":17,"TEXCOORD_1":18},"indices":20,"material":2,"mode":4,"extras":{"ASOBO_primitive":{"PrimitiveCount":76,"VertexType":"VTX","VertexVersion":2}}}],"name":"part002"},{"primitives":[{"attributes":{"COLOR_0":26,"NORMAL":23,"POSITION":21,"TANGENT":22,"TEXCOORD_0":24,"TEXCOORD_1":25},"indices":27,"material":3,"mode":4,"extras":{"ASOBO_primitive":{"PrimitiveCount":252,"VertexType":"VTX","VertexVersion":2}}}],"name":"part003"}],"nodes":[{"name":"node0","children":[1,2,3,4]},{"mesh":0,"name":"node1"},{"mesh":1,"name":"node2"},{"mesh":2,"name":"node3"},{"mesh":3,"name":"node4"}],"scene":0,"scenes":[{"nodes":[0]}],"textures":[{"extensions":{"MSFT_texture_dds":{"source":0}}},{"extensions":{"MSFT_texture_dds":{"source":1}}},{"extensions":{"MSFT_texture_dds":{"source":2}}},{"extensions":{"MSFT_texture_dds":{"source":3}}},{"extensions":{"MSFT_texture_dds":{"source":4}}},{"extensions":{"MSFT_texture_dds":{"source":5}}},{"extensions":{"MSFT_texture_dds":{"source":6}}},{"extensions":{"MSFT_texture_dds":{"source":7}}}],"extensionsUsed":["ASOBO_material_day_night_switch","MSFT_texture_dds","ASOBO_asset_optimized"],"buffers":[{"byteLength":31272,"uri":"Nesher.bin"}],"images":[{"uri":"AVIA_MOONAIR.PNG.DDS","extras":"ASOBO_image_converted_meta"},{"uri":"AVIA_MOONAIR_LM.PNG.DDS","extras":"ASOBO_image_converted_meta"},{"uri":"HANGER_3.PNG.DDS","extras":"ASOBO_image_converted_meta"},{"uri":"HANGER_3_LM.PNG.DDS","extras":"ASOBO_image_converted_meta"},{"uri":"HANGER_IN.PNG.DDS","extras":"ASOBO_image_converted_meta"},{"uri":"HANGER_IN_LM.PNG.DDS","extras":"ASOBO_image_converted_meta"},{"uri":"NESHER.PNG.DDS","extras":"ASOBO_image_converted_meta"},{"uri":"NESHER_LM.PNG.DDS","extras":"ASOBO_image_converted_meta"}]}
