{"accessors":[{"bufferView":0,"componentType":5126,"count":21,"min":[0.0,0.0,-40.0],"max":[36.407039642333987,22.0,7.980519771575928],"type":"VEC3","name":"part000_vertices#0_POSITION"},{"bufferView":0,"byteOffset":12,"componentType":5120,"count":21,"type":"VEC4","name":"part000_vertices#0_TANGENT"},{"bufferView":0,"byteOffset":16,"componentType":5120,"count":21,"type":"VEC4","name":"part000_vertices#0_NORMAL"},{"bufferView":0,"byteOffset":20,"componentType":5122,"count":21,"type":"VEC2","name":"part000_vertices#0_TEXCOORD_0"},{"bufferView":0,"byteOffset":24,"componentType":5122,"count":21,"type":"VEC2","name":"part000_vertices#0_TEXCOORD_1"},{"bufferView":0,"byteOffset":28,"componentType":5123,"count":21,"type":"VEC4","name":"part000_vertices#0_COLOR_0"},{"bufferView":1,"componentType":5123,"count":51,"type":"SCALAR","name":"part000_indices#0"},{"bufferView":0,"byteOffset":756,"componentType":5126,"count":22,"min":[0.0,0.0,-40.0],"max":[36.02703094482422,22.5,7.980519771575928],"type":"VEC3","name":"part001_vertices#0_POSITION"},{"bufferView":0,"byteOffset":768,"componentType":5120,"count":22,"type":"VEC4","name":"part001_vertices#0_TANGENT"},{"bufferView":0,"byteOffset":772,"componentType":5120,"count":22,"type":"VEC4","name":"part001_vertices#0_NORMAL"},{"bufferView":0,"byteOffset":776,"componentType":5122,"count":22,"type":"VEC2","name":"part001_vertices#0_TEXCOORD_0"},{"bufferView":0,"byteOffset":780,"componentType":5122,"count":22,"type":"VEC2","name":"part001_vertices#0_TEXCOORD_1"},{"bufferView":0,"byteOffset":784,"componentType":5123,"count":22,"type":"VEC4","name":"part001_vertices#0_COLOR_0"},{"bufferView":1,"byteOffset":102,"componentType":5123,"count":42,"type":"SCALAR","name":"part001_indices#0"},{"bufferView":0,"byteOffset":1548,"componentType":5126,"count":111,"min":[12.70083999633789,0.0,-26.208959579467775],"max":[36.407039642333987,22.5,7.980519771575928],"type":"VEC3","name":"part002_vertices#0_POSITION"},{"bufferView":0,"byteOffset":1560,"componentType":5120,"count":111,"type":"VEC4","name":"part002_vertices#0_TANGENT"},{"bufferView":0,"byteOffset":1564,"componentType":5120,"count":111,"type":"VEC4","name":"part002_vertices#0_NORMAL"},{"bufferView":0,"byteOffset":1568,"componentType":5122,"count":111,"type":"VEC2","name":"part002_vertices#0_TEXCOORD_0"},{"bufferView":0,"byteOffset":1572,"componentType":5122,"count":111,"type":"VEC2","name":"part002_vertices#0_TEXCOORD_1"},{"bufferView":0,"byteOffset":1576,"componentType":5123,"count":111,"type":"VEC4","name":"part002_vertices#0_COLOR_0"},{"bufferView":1,"byteOffset":186,"componentType":5123,"count":279,"type":"SCALAR","name":"part002_indices#0"},{"bufferView":0,"byteOffset":5544,"componentType":5126,"count":12,"min":[12.70083999633789,17.979999542236329,6.6780900955200199],"max":[16.937480926513673,19.991689682006837,7.980519771575928],"type":"VEC3","name":"part003_vertices#0_POSITION"},{"bufferView":0,"byteOffset":5556,"componentType":5120,"count":12,"type":"VEC4","name":"part003_vertices#0_TANGENT"},{"bufferView":0,"byteOffset":5560,"componentType":5120,"count":12,"type":"VEC4","name":"part003_vertices#0_NORMAL"},{"bufferView":0,"byteOffset":5564,"componentType":5122,"count":12,"type":"VEC2","name":"part003_vertices#0_TEXCOORD_0"},{"bufferView":0,"byteOffset":5568,"componentType":5122,"count":12,"type":"VEC2","name":"part003_vertices#0_TEXCOORD_1"},{"bufferView":0,"byteOffset":5572,"componentType":5123,"count":12,"type":"VEC4","name":"part003_vertices#0_COLOR_0"},{"bufferView":1,"byteOffset":744,"componentType":5123,"count":30,"type":"SCALAR","name":"part003_indices#0"},{"bufferView":0,"byteOffset":5976,"componentType":5126,"count":197,"min":[0.0,20.5,-40.0],"max":[36.407039642333987,22.5,7.980519771575928],"type":"VEC3","name":"part004_vertices#0_POSITION"},{"bufferView":0,"byteOffset":5988,"componentType":5120,"count":197,"type":"VEC4","name":"part004_vertices#0_TANGENT"},{"bufferView":0,"byteOffset":5992,"componentType":5120,"count":197,"type":"VEC4","name":"part004_vertices#0_NORMAL"},{"bufferView":0,"byteOffset":5996,"componentType":5122,"count":197,"type":"VEC2","name":"part004_vertices#0_TEXCOORD_0"},{"bufferView":0,"byteOffset":6000,"componentType":5122,"count":197,"type":"VEC2","name":"part004_vertices#0_TEXCOORD_1"},{"bufferView":0,"byteOffset":6004,"componentType":5123,"count":197,"type":"VEC4","name":"part004_vertices#0_COLOR_0"},{"bufferView":1,"byteOffset":804,"componentType":5123,"count":417,"type":"SCALAR","name":"part004_indices#0"},{"bufferView":0,"byteOffset":13068,"componentType":5126,"count":55,"min":[22.06485939025879,17.950000762939454,1.3121800422668458],"max":[26.001190185546876,19.991689682006837,4.2134599685668949],"type":"VEC3","name":"part005_vertices#0_POSITION"},{"bufferView":0,"byteOffset":13080,"componentType":5120,"count":55,"type":"VEC4","name":"part005_vertices#0_TANGENT"},{"bufferView":0,"byteOffset":13084,"componentType":5120,"count":55,"type":"VEC4","name":"part005_vertices#0_NORMAL"},{"bufferView":0,"byteOffset":13088,"componentType":5122,"count":55,"type":"VEC2","name":"part005_vertices#0_TEXCOORD_0"},{"bufferView":0,"byteOffset":13092,"componentType":5122,"count":55,"type":"VEC2","name":"part005_vertices#0_TEXCOORD_1"},{"bufferView":0,"byteOffset":13096,"componentType":5123,"count":55,"type":"VEC4","name":"part005_vertices#0_COLOR_0"},{"bufferView":1,"byteOffset":1638,"componentType":5123,"count":159,"type":"SCALAR","name":"part005_indices#0"}],"asset":{"generator":"ModelConverterX","version":"2.0","extensions":{"ASOBO_asset_optimized":{"BoundingBoxMax":[36.407039642333987,22.5,7.980519771575928],"BoundingBoxMin":[0.0,0.0,-40.0],"MajorVersion":4,"MinorVersion":4,"UseCheckerboardMaterialForMissingTextures":true,"UseOnlyFilenameForImageURI":true}}},"bufferViews":[{"buffer":0,"byteLength":15048,"byteStride":36,"target":34962,"name":"BufferViewVertexND"},{"buffer":0,"byteLength":1956,"byteOffset":15048,"target":34963,"name":"BufferViewIndex"}],"extensionsRequired":["MSFT_texture_dds"],"materials":[{"name":"glTF_Material","pbrMetallicRoughness":{"metallicFactor":0.0}},{"name":"glTF_Materialx","pbrMetallicRoughness":{"metallicFactor":0.0,"baseColorTexture":{"index":0}}},{"name":"glTF_Materialxx","pbrMetallicRoughness":{"metallicFactor":0.0,"baseColorTexture":{"index":1}}},{"name":"glTF_Materialxxx","pbrMetallicRoughness":{"metallicFactor":0.0,"baseColorTexture":{"index":2}}},{"name":"glTF_Materialxxxx","pbrMetallicRoughness":{"metallicFactor":0.0,"baseColorTexture":{"index":3}}},{"name":"glTF_Materialxxxxx","pbrMetallicRoughness":{"metallicFactor":0.0,"baseColorTexture":{"index":4}}}],"meshes":[{"primitives":[{"attributes":{"COLOR_0":5,"NORMAL":2,"POSITION":0,"TANGENT":1,"TEXCOORD_0":3,"TEXCOORD_1":4},"indices":6,"material":0,"mode":4,"extras":{"ASOBO_primitive":{"PrimitiveCount":17,"VertexType":"VTX","VertexVersion":2}}}],"name":"part000"},{"primitives":[{"attributes":{"COLOR_0":12,"NORMAL":9,"POSITION":7,"TANGENT":8,"TEXCOORD_0":10,"TEXCOORD_1":11},"indices":13,"material":4,"mode":4,"extras":{"ASOBO_primitive":{"PrimitiveCount":14,"VertexType":"VTX","VertexVersion":2}}}],"name":"part001"},{"primitives":[{"attributes":{"COLOR_0":19,"NORMAL":16,"POSITION":14,"TANGENT":15,"TEXCOORD_0":17,"TEXCOORD_1":18},"indices":20,"material":3,"mode":4,"extras":{"ASOBO_primitive":{"PrimitiveCount":93,"VertexType":"VTX","VertexVersion":2}}}],"name":"part002"},{"primitives":[{"attributes":{"COLOR_0":26,"NORMAL":23,"POSITION":21,"TANGENT":22,"TEXCOORD_0":24,"TEXCOORD_1":25},"indices":27,"material":1,"mode":4,"extras":{"ASOBO_primitive":{"PrimitiveCount":10,"VertexType":"VTX","VertexVersion":2}}}],"name":"part003"},{"primitives":[{"attributes":{"COLOR_0":33,"NORMAL":30,"POSITION":28,"TANGENT":29,"TEXCOORD_0":31,"TEXCOORD_1":32},"indices":34,"material":2,"mode":4,"extras":{"ASOBO_primitive":{"PrimitiveCount":139,"VertexType":"VTX","VertexVersion":2}}}],"name":"part004"},{"primitives":[{"attributes":{"COLOR_0":40,"NORMAL":37,"POSITION":35,"TANGENT":36,"TEXCOORD_0":38,"TEXCOORD_1":39},"indices":41,"material":5,"mode":4,"extras":{"ASOBO_primitive":{"PrimitiveCount":53,"VertexType":"VTX","VertexVersion":2}}}],"name":"part005"}],"nodes":[{"name":"node0","children":[1,2,3,4,5,6]},{"mesh":0,"name":"node1"},{"mesh":1,"name":"node2"},{"mesh":2,"name":"node3"},{"mesh":3,"name":"node4"},{"mesh":4,"name":"node5"},{"mesh":5,"name":"node6"}],"scene":0,"scenes":[{"nodes":[0]}],"textures":[{"extensions":{"MSFT_texture_dds":{"source":0}}},{"extensions":{"MSFT_texture_dds":{"source":1}}},{"extensions":{"MSFT_texture_dds":{"source":2}}},{"extensions":{"MSFT_texture_dds":{"source":3}}},{"extensions":{"MSFT_texture_dds":{"source":4}}}],"extensionsUsed":["MSFT_texture_dds","ASOBO_asset_optimized"],"buffers":[{"byteLength":17004,"uri":"BUILDINGOFFICE2.bin"}],"images":[{"uri":"LEUMI.PNG.DDS","extras":"ASOBO_image_converted_meta"},{"uri":"OFFICEROOF.PNG.DDS","extras":"ASOBO_image_converted_meta"},{"uri":"OFFICEWALL.PNG.DDS","extras":"ASOBO_image_converted_meta"},{"uri":"OFFICEWALL2.PNG.DDS","extras":"ASOBO_image_converted_meta"},{"uri":"REDHAT.PNG.DDS","extras":"ASOBO_image_converted_meta"}]}
