{"accessors":[{"bufferView":0,"componentType":5126,"count":60,"min":[0.0,0.0,-35.10000991821289],"max":[25.0,5.0,0.10000000149011612],"type":"VEC3","name":"part000_vertices#0_POSITION"},{"bufferView":0,"byteOffset":12,"componentType":5120,"count":60,"type":"VEC4","name":"part000_vertices#0_TANGENT"},{"bufferView":0,"byteOffset":16,"componentType":5120,"count":60,"type":"VEC4","name":"part000_vertices#0_NORMAL"},{"bufferView":0,"byteOffset":20,"componentType":5122,"count":60,"type":"VEC2","name":"part000_vertices#0_TEXCOORD_0"},{"bufferView":0,"byteOffset":24,"componentType":5122,"count":60,"type":"VEC2","name":"part000_vertices#0_TEXCOORD_1"},{"bufferView":0,"byteOffset":28,"componentType":5123,"count":60,"type":"VEC4","name":"part000_vertices#0_COLOR_0"},{"bufferView":1,"componentType":5123,"count":114,"type":"SCALAR","name":"part000_indices#0"},{"bufferView":0,"byteOffset":2160,"componentType":5126,"count":72,"min":[0.0,0.0,-35.10000991821289],"max":[25.0,5.0,0.10000000149011612],"type":"VEC3","name":"part001_vertices#0_POSITION"},{"bufferView":0,"byteOffset":2172,"componentType":5120,"count":72,"type":"VEC4","name":"part001_vertices#0_TANGENT"},{"bufferView":0,"byteOffset":2176,"componentType":5120,"count":72,"type":"VEC4","name":"part001_vertices#0_NORMAL"},{"bufferView":0,"byteOffset":2180,"componentType":5122,"count":72,"type":"VEC2","name":"part001_vertices#0_TEXCOORD_0"},{"bufferView":0,"byteOffset":2184,"componentType":5122,"count":72,"type":"VEC2","name":"part001_vertices#0_TEXCOORD_1"},{"bufferView":0,"byteOffset":2188,"componentType":5123,"count":72,"type":"VEC4","name":"part001_vertices#0_COLOR_0"},{"bufferView":1,"byteOffset":228,"componentType":5123,"count":132,"type":"SCALAR","name":"part001_indices#0"},{"bufferView":0,"byteOffset":4752,"componentType":5126,"count":36,"min":[0.0,0.0,-35.0000114440918],"max":[0.5,3.5,0.0],"type":"VEC3","name":"part002_vertices#0_POSITION"},{"bufferView":0,"byteOffset":4764,"componentType":5120,"count":36,"type":"VEC4","name":"part002_vertices#0_TANGENT"},{"bufferView":0,"byteOffset":4768,"componentType":5120,"count":36,"type":"VEC4","name":"part002_vertices#0_NORMAL"},{"bufferView":0,"byteOffset":4772,"componentType":5122,"count":36,"type":"VEC2","name":"part002_vertices#0_TEXCOORD_0"},{"bufferView":0,"byteOffset":4776,"componentType":5122,"count":36,"type":"VEC2","name":"part002_vertices#0_TEXCOORD_1"},{"bufferView":0,"byteOffset":4780,"componentType":5123,"count":36,"type":"VEC4","name":"part002_vertices#0_COLOR_0"},{"bufferView":1,"byteOffset":492,"componentType":5123,"count":54,"type":"SCALAR","name":"part002_indices#0"},{"bufferView":0,"byteOffset":6048,"componentType":5126,"count":36,"min":[0.0,0.0,-35.10000991821289],"max":[25.0,5.0,0.10000000149011612],"type":"VEC3","name":"part003_vertices#0_POSITION"},{"bufferView":0,"byteOffset":6060,"componentType":5120,"count":36,"type":"VEC4","name":"part003_vertices#0_TANGENT"},{"bufferView":0,"byteOffset":6064,"componentType":5120,"count":36,"type":"VEC4","name":"part003_vertices#0_NORMAL"},{"bufferView":0,"byteOffset":6068,"componentType":5122,"count":36,"type":"VEC2","name":"part003_vertices#0_TEXCOORD_0"},{"bufferView":0,"byteOffset":6072,"componentType":5122,"count":36,"type":"VEC2","name":"part003_vertices#0_TEXCOORD_1"},{"bufferView":0,"byteOffset":6076,"componentType":5123,"count":36,"type":"VEC4","name":"part003_vertices#0_COLOR_0"},{"bufferView":1,"byteOffset":600,"componentType":5123,"count":60,"type":"SCALAR","name":"part003_indices#0"}],"asset":{"generator":"ModelConverterX","version":"2.0","extensions":{"ASOBO_asset_optimized":{"BoundingBoxMax":[25.0,5.0,0.10000000149011612],"BoundingBoxMin":[0.0,0.0,-35.10000991821289],"MajorVersion":4,"MinorVersion":4,"UseCheckerboardMaterialForMissingTextures":true,"UseOnlyFilenameForImageURI":true}}},"bufferViews":[{"buffer":0,"byteLength":7344,"byteStride":36,"target":34962,"name":"BufferViewVertexND"},{"buffer":0,"byteLength":720,"byteOffset":7344,"target":34963,"name":"BufferViewIndex"}],"extensionsRequired":["MSFT_texture_dds"],"materials":[{"name":"glTF_Material","pbrMetallicRoughness":{"metallicFactor":0.0}},{"name":"glTF_Materialx","pbrMetallicRoughness":{"metallicFactor":0.0,"baseColorTexture":{"index":0}}},{"name":"glTF_Materialxx","pbrMetallicRoughness":{"metallicFactor":0.0,"baseColorTexture":{"index":1}}},{"name":"glTF_Materialxxx","pbrMetallicRoughness":{"metallicFactor":0.0,"baseColorTexture":{"index":2}}}],"meshes":[{"primitives":[{"attributes":{"COLOR_0":5,"NORMAL":2,"POSITION":0,"TANGENT":1,"TEXCOORD_0":3,"TEXCOORD_1":4},"indices":6,"material":3,"mode":4,"extras":{"ASOBO_primitive":{"PrimitiveCount":38,"VertexType":"VTX","VertexVersion":2}}}],"name":"part000"},{"primitives":[{"attributes":{"COLOR_0":12,"NORMAL":9,"POSITION":7,"TANGENT":8,"TEXCOORD_0":10,"TEXCOORD_1":11},"indices":13,"material":1,"mode":4,"extras":{"ASOBO_primitive":{"PrimitiveCount":44,"VertexType":"VTX","VertexVersion":2}}}],"name":"part001"},{"primitives":[{"attributes":{"COLOR_0":19,"NORMAL":16,"POSITION":14,"TANGENT":15,"TEXCOORD_0":17,"TEXCOORD_1":18},"indices":20,"material":0,"mode":4,"extras":{"ASOBO_primitive":{"PrimitiveCount":18,"VertexType":"VTX","VertexVersion":2}}}],"name":"part002"},{"primitives":[{"attributes":{"COLOR_0":26,"NORMAL":23,"POSITION":21,"TANGENT":22,"TEXCOORD_0":24,"TEXCOORD_1":25},"indices":27,"material":2,"mode":4,"extras":{"ASOBO_primitive":{"PrimitiveCount":20,"VertexType":"VTX","VertexVersion":2}}}],"name":"part003"}],"nodes":[{"name":"node0","children":[1,2,3,4]},{"mesh":0,"name":"node1"},{"mesh":1,"name":"node2"},{"mesh":2,"name":"node3"},{"mesh":3,"name":"node4"}],"scene":0,"scenes":[{"nodes":[0]}],"textures":[{"extensions":{"MSFT_texture_dds":{"source":0}}},{"extensions":{"MSFT_texture_dds":{"source":1}}},{"extensions":{"MSFT_texture_dds":{"source":2}}}],"extensionsUsed":["MSFT_texture_dds","ASOBO_asset_optimized"],"buffers":[{"byteLength":8064,"uri":"HERZELIAHANGAR2.bin"}],"images":[{"uri":"HANGAR2INSIDE.PNG.DDS","extras":"ASOBO_image_converted_meta"},{"uri":"HANGAR2WALL1.PNG.DDS","extras":"ASOBO_image_converted_meta"},{"uri":"HANGAR2WALL2.PNG.DDS","extras":"ASOBO_image_converted_meta"}]}
