{"accessors":[{"bufferView":0,"componentType":5126,"count":1597,"min":[0.0,0.0,-20.200000762939454],"max":[20.0,13.5,0.20000000298023225],"type":"VEC3","name":"part000_vertices#0_POSITION"},{"bufferView":0,"byteOffset":12,"componentType":5120,"count":1597,"type":"VEC4","name":"part000_vertices#0_TANGENT"},{"bufferView":0,"byteOffset":16,"componentType":5120,"count":1597,"type":"VEC4","name":"part000_vertices#0_NORMAL"},{"bufferView":0,"byteOffset":20,"componentType":5122,"count":1597,"type":"VEC2","name":"part000_vertices#0_TEXCOORD_0"},{"bufferView":0,"byteOffset":24,"componentType":5122,"count":1597,"type":"VEC2","name":"part000_vertices#0_TEXCOORD_1"},{"bufferView":0,"byteOffset":28,"componentType":5123,"count":1597,"type":"VEC4","name":"part000_vertices#0_COLOR_0"},{"bufferView":1,"componentType":5123,"count":1731,"type":"SCALAR","name":"part000_indices#0"},{"bufferView":0,"byteOffset":57492,"componentType":5126,"count":92,"min":[-0.5,2.5999999046325685,-20.5],"max":[20.5,8.6564302444458,0.5],"type":"VEC3","name":"part001_vertices#0_POSITION"},{"bufferView":0,"byteOffset":57504,"componentType":5120,"count":92,"type":"VEC4","name":"part001_vertices#0_TANGENT"},{"bufferView":0,"byteOffset":57508,"componentType":5120,"count":92,"type":"VEC4","name":"part001_vertices#0_NORMAL"},{"bufferView":0,"byteOffset":57512,"componentType":5122,"count":92,"type":"VEC2","name":"part001_vertices#0_TEXCOORD_0"},{"bufferView":0,"byteOffset":57516,"componentType":5122,"count":92,"type":"VEC2","name":"part001_vertices#0_TEXCOORD_1"},{"bufferView":0,"byteOffset":57520,"componentType":5123,"count":92,"type":"VEC4","name":"part001_vertices#0_COLOR_0"},{"bufferView":1,"byteOffset":3462,"componentType":5123,"count":138,"type":"SCALAR","name":"part001_indices#0"},{"bufferView":0,"byteOffset":60804,"componentType":5126,"count":305,"min":[-0.5,0.0,-20.5],"max":[20.5,11.399999618530274,0.5],"type":"VEC3","name":"part002_vertices#0_POSITION"},{"bufferView":0,"byteOffset":60816,"componentType":5120,"count":305,"type":"VEC4","name":"part002_vertices#0_TANGENT"},{"bufferView":0,"byteOffset":60820,"componentType":5120,"count":305,"type":"VEC4","name":"part002_vertices#0_NORMAL"},{"bufferView":0,"byteOffset":60824,"componentType":5122,"count":305,"type":"VEC2","name":"part002_vertices#0_TEXCOORD_0"},{"bufferView":0,"byteOffset":60828,"componentType":5122,"count":305,"type":"VEC2","name":"part002_vertices#0_TEXCOORD_1"},{"bufferView":0,"byteOffset":60832,"componentType":5123,"count":305,"type":"VEC4","name":"part002_vertices#0_COLOR_0"},{"bufferView":1,"byteOffset":3738,"componentType":5123,"count":459,"type":"SCALAR","name":"part002_indices#0"},{"bufferView":0,"byteOffset":71784,"componentType":5126,"count":115,"min":[-0.4949199855327606,2.5999999046325685,-20.0],"max":[20.0,10.399999618530274,2.4492127076447547e-15],"type":"VEC3","name":"part003_vertices#0_POSITION"},{"bufferView":0,"byteOffset":71796,"componentType":5120,"count":115,"type":"VEC4","name":"part003_vertices#0_TANGENT"},{"bufferView":0,"byteOffset":71800,"componentType":5120,"count":115,"type":"VEC4","name":"part003_vertices#0_NORMAL"},{"bufferView":0,"byteOffset":71804,"componentType":5122,"count":115,"type":"VEC2","name":"part003_vertices#0_TEXCOORD_0"},{"bufferView":0,"byteOffset":71808,"componentType":5122,"count":115,"type":"VEC2","name":"part003_vertices#0_TEXCOORD_1"},{"bufferView":0,"byteOffset":71812,"componentType":5123,"count":115,"type":"VEC4","name":"part003_vertices#0_COLOR_0"},{"bufferView":1,"byteOffset":4656,"componentType":5123,"count":321,"type":"SCALAR","name":"part003_indices#0"},{"bufferView":0,"byteOffset":75924,"componentType":5126,"count":494,"min":[0.0,10.399999618530274,-20.0],"max":[20.0,13.5,0.20000000298023225],"type":"VEC3","name":"part004_vertices#0_POSITION"},{"bufferView":0,"byteOffset":75936,"componentType":5120,"count":494,"type":"VEC4","name":"part004_vertices#0_TANGENT"},{"bufferView":0,"byteOffset":75940,"componentType":5120,"count":494,"type":"VEC4","name":"part004_vertices#0_NORMAL"},{"bufferView":0,"byteOffset":75944,"componentType":5122,"count":494,"type":"VEC2","name":"part004_vertices#0_TEXCOORD_0"},{"bufferView":0,"byteOffset":75948,"componentType":5122,"count":494,"type":"VEC2","name":"part004_vertices#0_TEXCOORD_1"},{"bufferView":0,"byteOffset":75952,"componentType":5123,"count":494,"type":"VEC4","name":"part004_vertices#0_COLOR_0"},{"bufferView":1,"byteOffset":5298,"componentType":5123,"count":1305,"type":"SCALAR","name":"part004_indices#0"},{"bufferView":0,"byteOffset":93708,"componentType":5126,"count":624,"min":[0.0,0.0,-20.200000762939454],"max":[20.0,11.399999618530274,0.20000000298023225],"type":"VEC3","name":"part005_vertices#0_POSITION"},{"bufferView":0,"byteOffset":93720,"componentType":5120,"count":624,"type":"VEC4","name":"part005_vertices#0_TANGENT"},{"bufferView":0,"byteOffset":93724,"componentType":5120,"count":624,"type":"VEC4","name":"part005_vertices#0_NORMAL"},{"bufferView":0,"byteOffset":93728,"componentType":5122,"count":624,"type":"VEC2","name":"part005_vertices#0_TEXCOORD_0"},{"bufferView":0,"byteOffset":93732,"componentType":5122,"count":624,"type":"VEC2","name":"part005_vertices#0_TEXCOORD_1"},{"bufferView":0,"byteOffset":93736,"componentType":5123,"count":624,"type":"VEC4","name":"part005_vertices#0_COLOR_0"},{"bufferView":1,"byteOffset":7908,"componentType":5123,"count":1104,"type":"SCALAR","name":"part005_indices#0"},{"bufferView":0,"byteOffset":116172,"componentType":5126,"count":134,"min":[0.0,2.5999999046325685,-20.5],"max":[20.0,10.399999618530274,0.5],"type":"VEC3","name":"part006_vertices#0_POSITION"},{"bufferView":0,"byteOffset":116184,"componentType":5120,"count":134,"type":"VEC4","name":"part006_vertices#0_TANGENT"},{"bufferView":0,"byteOffset":116188,"componentType":5120,"count":134,"type":"VEC4","name":"part006_vertices#0_NORMAL"},{"bufferView":0,"byteOffset":116192,"componentType":5122,"count":134,"type":"VEC2","name":"part006_vertices#0_TEXCOORD_0"},{"bufferView":0,"byteOffset":116196,"componentType":5122,"count":134,"type":"VEC2","name":"part006_vertices#0_TEXCOORD_1"},{"bufferView":0,"byteOffset":116200,"componentType":5123,"count":134,"type":"VEC4","name":"part006_vertices#0_COLOR_0"},{"bufferView":1,"byteOffset":10116,"componentType":5123,"count":354,"type":"SCALAR","name":"part006_indices#0"},{"bufferView":0,"byteOffset":120996,"componentType":5126,"count":10,"min":[0.009999999776482582,11.399999618530274,-20.0],"max":[9.760000228881836,12.149999618530274,-20.0],"type":"VEC3","name":"part007_vertices#0_POSITION"},{"bufferView":0,"byteOffset":121008,"componentType":5120,"count":10,"type":"VEC4","name":"part007_vertices#0_TANGENT"},{"bufferView":0,"byteOffset":121012,"componentType":5120,"count":10,"type":"VEC4","name":"part007_vertices#0_NORMAL"},{"bufferView":0,"byteOffset":121016,"componentType":5122,"count":10,"type":"VEC2","name":"part007_vertices#0_TEXCOORD_0"},{"bufferView":0,"byteOffset":121020,"componentType":5122,"count":10,"type":"VEC2","name":"part007_vertices#0_TEXCOORD_1"},{"bufferView":0,"byteOffset":121024,"componentType":5123,"count":10,"type":"VEC4","name":"part007_vertices#0_COLOR_0"},{"bufferView":1,"byteOffset":10824,"componentType":5123,"count":24,"type":"SCALAR","name":"part007_indices#0"},{"bufferView":0,"byteOffset":121356,"componentType":5126,"count":30,"min":[0.009999999776482582,11.399999618530274,-20.0],"max":[9.760000228881836,12.149999618530274,-13.319999694824219],"type":"VEC3","name":"part008_vertices#0_POSITION"},{"bufferView":0,"byteOffset":121368,"componentType":5120,"count":30,"type":"VEC4","name":"part008_vertices#0_TANGENT"},{"bufferView":0,"byteOffset":121372,"componentType":5120,"count":30,"type":"VEC4","name":"part008_vertices#0_NORMAL"},{"bufferView":0,"byteOffset":121376,"componentType":5122,"count":30,"type":"VEC2","name":"part008_vertices#0_TEXCOORD_0"},{"bufferView":0,"byteOffset":121380,"componentType":5122,"count":30,"type":"VEC2","name":"part008_vertices#0_TEXCOORD_1"},{"bufferView":0,"byteOffset":121384,"componentType":5123,"count":30,"type":"VEC4","name":"part008_vertices#0_COLOR_0"},{"bufferView":1,"byteOffset":10872,"componentType":5123,"count":66,"type":"SCALAR","name":"part008_indices#0"},{"bufferView":0,"byteOffset":122436,"componentType":5126,"count":32,"min":[4.5,2.5999999046325685,-13.319999694824219],"max":[15.5,10.399999618530274,-6.659999847412109],"type":"VEC3","name":"part009_vertices#0_POSITION"},{"bufferView":0,"byteOffset":122448,"componentType":5120,"count":32,"type":"VEC4","name":"part009_vertices#0_TANGENT"},{"bufferView":0,"byteOffset":122452,"componentType":5120,"count":32,"type":"VEC4","name":"part009_vertices#0_NORMAL"},{"bufferView":0,"byteOffset":122456,"componentType":5122,"count":32,"type":"VEC2","name":"part009_vertices#0_TEXCOORD_0"},{"bufferView":0,"byteOffset":122460,"componentType":5122,"count":32,"type":"VEC2","name":"part009_vertices#0_TEXCOORD_1"},{"bufferView":0,"byteOffset":122464,"componentType":5123,"count":32,"type":"VEC4","name":"part009_vertices#0_COLOR_0"},{"bufferView":1,"byteOffset":11004,"componentType":5123,"count":78,"type":"SCALAR","name":"part009_indices#0"},{"bufferView":0,"byteOffset":123588,"componentType":5126,"count":8,"min":[6.146329879760742,2.5999999046325685,-20.200000762939454],"max":[13.887470245361329,10.399999618530274,0.20000000298023225],"type":"VEC3","name":"part010_vertices#0_POSITION"},{"bufferView":0,"byteOffset":123600,"componentType":5120,"count":8,"type":"VEC4","name":"part010_vertices#0_TANGENT"},{"bufferView":0,"byteOffset":123604,"componentType":5120,"count":8,"type":"VEC4","name":"part010_vertices#0_NORMAL"},{"bufferView":0,"byteOffset":123608,"componentType":5122,"count":8,"type":"VEC2","name":"part010_vertices#0_TEXCOORD_0"},{"bufferView":0,"byteOffset":123612,"componentType":5122,"count":8,"type":"VEC2","name":"part010_vertices#0_TEXCOORD_1"},{"bufferView":0,"byteOffset":123616,"componentType":5123,"count":8,"type":"VEC4","name":"part010_vertices#0_COLOR_0"},{"bufferView":1,"byteOffset":11160,"componentType":5123,"count":12,"type":"SCALAR","name":"part010_indices#0"},{"bufferView":0,"byteOffset":123876,"componentType":5126,"count":48,"min":[5.0,0.0,-13.819999694824219],"max":[15.0,2.5999999046325685,-6.159999847412109],"type":"VEC3","name":"part011_vertices#0_POSITION"},{"bufferView":0,"byteOffset":123888,"componentType":5120,"count":48,"type":"VEC4","name":"part011_vertices#0_TANGENT"},{"bufferView":0,"byteOffset":123892,"componentType":5120,"count":48,"type":"VEC4","name":"part011_vertices#0_NORMAL"},{"bufferView":0,"byteOffset":123896,"componentType":5122,"count":48,"type":"VEC2","name":"part011_vertices#0_TEXCOORD_0"},{"bufferView":0,"byteOffset":123900,"componentType":5122,"count":48,"type":"VEC2","name":"part011_vertices#0_TEXCOORD_1"},{"bufferView":0,"byteOffset":123904,"componentType":5123,"count":48,"type":"VEC4","name":"part011_vertices#0_COLOR_0"},{"bufferView":1,"byteOffset":11184,"componentType":5123,"count":102,"type":"SCALAR","name":"part011_indices#0"}],"asset":{"generator":"ModelConverterX","version":"2.0","extensions":{"ASOBO_asset_optimized":{"BoundingBoxMax":[20.5,13.5,0.5],"BoundingBoxMin":[-0.5,0.0,-20.5],"MajorVersion":4,"MinorVersion":4,"UseCheckerboardMaterialForMissingTextures":true,"UseOnlyFilenameForImageURI":true}}},"bufferViews":[{"buffer":0,"byteLength":125604,"byteStride":36,"target":34962,"name":"BufferViewVertexND"},{"buffer":0,"byteLength":11388,"byteOffset":125604,"target":34963,"name":"BufferViewIndex"}],"extensionsRequired":["MSFT_texture_dds"],"materials":[{"name":"material00","pbrMetallicRoughness":{"metallicFactor":0.0,"baseColorTexture":{"index":0}},"extensions":{"ASOBO_material_day_night_switch":{}}},{"name":"material01","pbrMetallicRoughness":{"metallicFactor":0.0,"baseColorTexture":{"index":1}},"extensions":{"ASOBO_material_day_night_switch":{}}},{"name":"material02","pbrMetallicRoughness":{"metallicFactor":0.0,"baseColorTexture":{"index":2}},"extensions":{"ASOBO_material_day_night_switch":{}}},{"name":"material03","alphaMode":"BLEND","pbrMetallicRoughness":{"metallicFactor":0.0,"baseColorTexture":{"index":2}},"extensions":{"ASOBO_material_day_night_switch":{}}},{"name":"material04","alphaMode":"BLEND","pbrMetallicRoughness":{"metallicFactor":0.0,"baseColorTexture":{"index":3}},"extensions":{"ASOBO_material_day_night_switch":{}}},{"name":"material05","pbrMetallicRoughness":{"metallicFactor":0.0,"baseColorTexture":{"index":4}},"extensions":{"ASOBO_material_day_night_switch":{}}},{"name":"material06","pbrMetallicRoughness":{"metallicFactor":0.0,"baseColorTexture":{"index":5}},"extensions":{"ASOBO_material_day_night_switch":{}}},{"name":"material07","pbrMetallicRoughness":{"metallicFactor":0.0,"baseColorTexture":{"index":6}},"extensions":{"ASOBO_material_day_night_switch":{}}},{"name":"material08","pbrMetallicRoughness":{"metallicFactor":0.0,"baseColorTexture":{"index":7}},"extensions":{"ASOBO_material_day_night_switch":{}}},{"name":"material09","pbrMetallicRoughness":{"metallicFactor":0.0,"baseColorTexture":{"index":8}},"extensions":{"ASOBO_material_day_night_switch":{}}},{"name":"material10","pbrMetallicRoughness":{"metallicFactor":0.0,"baseColorTexture":{"index":9}},"extensions":{"ASOBO_material_day_night_switch":{}}},{"name":"material11","pbrMetallicRoughness":{"metallicFactor":0.0,"baseColorTexture":{"index":10}},"extensions":{"ASOBO_material_day_night_switch":{}}}],"meshes":[{"primitives":[{"attributes":{"COLOR_0":5,"NORMAL":2,"POSITION":0,"TANGENT":1,"TEXCOORD_0":3,"TEXCOORD_1":4},"indices":6,"material":2,"mode":4,"extras":{"ASOBO_primitive":{"PrimitiveCount":577,"VertexType":"VTX","VertexVersion":2}}}],"name":"part000"},{"primitives":[{"attributes":{"COLOR_0":12,"NORMAL":9,"POSITION":7,"TANGENT":8,"TEXCOORD_0":10,"TEXCOORD_1":11},"indices":13,"material":0,"mode":4,"extras":{"ASOBO_primitive":{"PrimitiveCount":46,"VertexType":"VTX","VertexVersion":2}}}],"name":"part001"},{"primitives":[{"attributes":{"COLOR_0":19,"NORMAL":16,"POSITION":14,"TANGENT":15,"TEXCOORD_0":17,"TEXCOORD_1":18},"indices":20,"material":1,"mode":4,"extras":{"ASOBO_primitive":{"PrimitiveCount":153,"VertexType":"VTX","VertexVersion":2}}}],"name":"part002"},{"primitives":[{"attributes":{"COLOR_0":26,"NORMAL":23,"POSITION":21,"TANGENT":22,"TEXCOORD_0":24,"TEXCOORD_1":25},"indices":27,"material":9,"mode":4,"extras":{"ASOBO_primitive":{"PrimitiveCount":107,"VertexType":"VTX","VertexVersion":2}}}],"name":"part003"},{"primitives":[{"attributes":{"COLOR_0":33,"NORMAL":30,"POSITION":28,"TANGENT":29,"TEXCOORD_0":31,"TEXCOORD_1":32},"indices":34,"material":8,"mode":4,"extras":{"ASOBO_primitive":{"PrimitiveCount":435,"VertexType":"VTX","VertexVersion":2}}}],"name":"part004"},{"primitives":[{"attributes":{"COLOR_0":40,"NORMAL":37,"POSITION":35,"TANGENT":36,"TEXCOORD_0":38,"TEXCOORD_1":39},"indices":41,"material":5,"mode":4,"extras":{"ASOBO_primitive":{"PrimitiveCount":368,"VertexType":"VTX","VertexVersion":2}}}],"name":"part005"},{"primitives":[{"attributes":{"COLOR_0":47,"NORMAL":44,"POSITION":42,"TANGENT":43,"TEXCOORD_0":45,"TEXCOORD_1":46},"indices":48,"material":6,"mode":4,"extras":{"ASOBO_primitive":{"PrimitiveCount":118,"VertexType":"VTX","VertexVersion":2}}}],"name":"part006"},{"primitives":[{"attributes":{"COLOR_0":54,"NORMAL":51,"POSITION":49,"TANGENT":50,"TEXCOORD_0":52,"TEXCOORD_1":53},"indices":55,"material":4,"mode":4,"extras":{"ASOBO_primitive":{"PrimitiveCount":8,"VertexType":"VTX","VertexVersion":2}}}],"name":"part007"},{"primitives":[{"attributes":{"COLOR_0":61,"NORMAL":58,"POSITION":56,"TANGENT":57,"TEXCOORD_0":59,"TEXCOORD_1":60},"indices":62,"material":3,"mode":4,"extras":{"ASOBO_primitive":{"PrimitiveCount":22,"VertexType":"VTX","VertexVersion":2}}}],"name":"part008"},{"primitives":[{"attributes":{"COLOR_0":68,"NORMAL":65,"POSITION":63,"TANGENT":64,"TEXCOORD_0":66,"TEXCOORD_1":67},"indices":69,"material":7,"mode":4,"extras":{"ASOBO_primitive":{"PrimitiveCount":26,"VertexType":"VTX","VertexVersion":2}}}],"name":"part009"},{"primitives":[{"attributes":{"COLOR_0":75,"NORMAL":72,"POSITION":70,"TANGENT":71,"TEXCOORD_0":73,"TEXCOORD_1":74},"indices":76,"material":11,"mode":4,"extras":{"ASOBO_primitive":{"PrimitiveCount":4,"VertexType":"VTX","VertexVersion":2}}}],"name":"part010"},{"primitives":[{"attributes":{"COLOR_0":82,"NORMAL":79,"POSITION":77,"TANGENT":78,"TEXCOORD_0":80,"TEXCOORD_1":81},"indices":83,"material":10,"mode":4,"extras":{"ASOBO_primitive":{"PrimitiveCount":34,"VertexType":"VTX","VertexVersion":2}}}],"name":"part011"}],"nodes":[{"name":"node0","children":[1,2,3,4,5,6,7,8,9,10,11,12]},{"mesh":0,"name":"node1"},{"mesh":1,"name":"node2"},{"mesh":2,"name":"node3"},{"mesh":3,"name":"node4"},{"mesh":4,"name":"node5"},{"mesh":5,"name":"node6"},{"mesh":6,"name":"node7"},{"mesh":7,"name":"node8"},{"mesh":8,"name":"node9"},{"mesh":9,"name":"node10"},{"mesh":10,"name":"node11"},{"mesh":11,"name":"node12"}],"scene":0,"scenes":[{"nodes":[0]}],"textures":[{"extensions":{"MSFT_texture_dds":{"source":0}}},{"extensions":{"MSFT_texture_dds":{"source":1}}},{"extensions":{"MSFT_texture_dds":{"source":2}}},{"extensions":{"MSFT_texture_dds":{"source":3}}},{"extensions":{"MSFT_texture_dds":{"source":4}}},{"extensions":{"MSFT_texture_dds":{"source":5}}},{"extensions":{"MSFT_texture_dds":{"source":6}}},{"extensions":{"MSFT_texture_dds":{"source":7}}},{"extensions":{"MSFT_texture_dds":{"source":8}}},{"extensions":{"MSFT_texture_dds":{"source":9}}},{"extensions":{"MSFT_texture_dds":{"source":10}}}],"extensionsUsed":["ASOBO_material_day_night_switch","MSFT_texture_dds","ASOBO_asset_optimized"],"buffers":[{"byteLength":136992,"uri":"BUILDINGFINALOLD2.bin"}],"images":[{"uri":"AC.PNG.DDS","extras":"ASOBO_image_converted_meta"},{"uri":"AC1.PNG.DDS","extras":"ASOBO_image_converted_meta"},{"uri":"BUILDINGFINALOLD2_0.PNG.DDS","extras":"ASOBO_image_converted_meta"},{"uri":"FENCING_METAL_STRAIGHT.PNG.DDS","extras":"ASOBO_image_converted_meta"},{"uri":"LEG.PNG.DDS","extras":"ASOBO_image_converted_meta"},{"uri":"OLD2WALL.PNG.DDS","extras":"ASOBO_image_converted_meta"},{"uri":"OLD2WALL2.PNG.DDS","extras":"ASOBO_image_converted_meta"},{"uri":"OLD2WALL5.PNG.DDS","extras":"ASOBO_image_converted_meta"},{"uri":"OLD3WALL3.PNG.DDS","extras":"ASOBO_image_converted_meta"},{"uri":"OLDWALL4.PNG.DDS","extras":"ASOBO_image_converted_meta"},{"uri":"SHADOW.PNG.DDS","extras":"ASOBO_image_converted_meta"}]}
