{"accessors":[{"bufferView":0,"componentType":5126,"count":294,"min":[6.123031769111886e-16,0.009999999776482582,-25.0],"max":[25.0,17.610000610351564,2.0660224138451977e-15],"type":"VEC3","name":"part000_vertices#0_POSITION"},{"bufferView":0,"byteOffset":12,"componentType":5120,"count":294,"type":"VEC4","name":"part000_vertices#0_TANGENT"},{"bufferView":0,"byteOffset":16,"componentType":5120,"count":294,"type":"VEC4","name":"part000_vertices#0_NORMAL"},{"bufferView":0,"byteOffset":20,"componentType":5122,"count":294,"type":"VEC2","name":"part000_vertices#0_TEXCOORD_0"},{"bufferView":0,"byteOffset":24,"componentType":5122,"count":294,"type":"VEC2","name":"part000_vertices#0_TEXCOORD_1"},{"bufferView":0,"byteOffset":28,"componentType":5123,"count":294,"type":"VEC4","name":"part000_vertices#0_COLOR_0"},{"bufferView":1,"componentType":5123,"count":732,"type":"SCALAR","name":"part000_indices#0"},{"bufferView":0,"byteOffset":10584,"componentType":5126,"count":16,"min":[1.0,2.109999895095825,-20.0],"max":[24.0,17.610000610351564,-5.0],"type":"VEC3","name":"part001_vertices#0_POSITION"},{"bufferView":0,"byteOffset":10596,"componentType":5120,"count":16,"type":"VEC4","name":"part001_vertices#0_TANGENT"},{"bufferView":0,"byteOffset":10600,"componentType":5120,"count":16,"type":"VEC4","name":"part001_vertices#0_NORMAL"},{"bufferView":0,"byteOffset":10604,"componentType":5122,"count":16,"type":"VEC2","name":"part001_vertices#0_TEXCOORD_0"},{"bufferView":0,"byteOffset":10608,"componentType":5122,"count":16,"type":"VEC2","name":"part001_vertices#0_TEXCOORD_1"},{"bufferView":0,"byteOffset":10612,"componentType":5123,"count":16,"type":"VEC4","name":"part001_vertices#0_COLOR_0"},{"bufferView":1,"byteOffset":1464,"componentType":5123,"count":24,"type":"SCALAR","name":"part001_indices#0"},{"bufferView":0,"byteOffset":11160,"componentType":5126,"count":8,"min":[2.0,0.009999999776482582,-14.0],"max":[23.0,17.610000610351564,-11.0],"type":"VEC3","name":"part002_vertices#0_POSITION"},{"bufferView":0,"byteOffset":11172,"componentType":5120,"count":8,"type":"VEC4","name":"part002_vertices#0_TANGENT"},{"bufferView":0,"byteOffset":11176,"componentType":5120,"count":8,"type":"VEC4","name":"part002_vertices#0_NORMAL"},{"bufferView":0,"byteOffset":11180,"componentType":5122,"count":8,"type":"VEC2","name":"part002_vertices#0_TEXCOORD_0"},{"bufferView":0,"byteOffset":11184,"componentType":5122,"count":8,"type":"VEC2","name":"part002_vertices#0_TEXCOORD_1"},{"bufferView":0,"byteOffset":11188,"componentType":5123,"count":8,"type":"VEC4","name":"part002_vertices#0_COLOR_0"},{"bufferView":1,"byteOffset":1512,"componentType":5123,"count":12,"type":"SCALAR","name":"part002_indices#0"},{"bufferView":0,"byteOffset":11448,"componentType":5126,"count":1729,"min":[7.872650146484375,2.485949993133545,-25.200000762939454],"max":[17.212650299072267,16.360000610351564,0.20000000298023225],"type":"VEC3","name":"part003_vertices#0_POSITION"},{"bufferView":0,"byteOffset":11460,"componentType":5120,"count":1729,"type":"VEC4","name":"part003_vertices#0_TANGENT"},{"bufferView":0,"byteOffset":11464,"componentType":5120,"count":1729,"type":"VEC4","name":"part003_vertices#0_NORMAL"},{"bufferView":0,"byteOffset":11468,"componentType":5122,"count":1729,"type":"VEC2","name":"part003_vertices#0_TEXCOORD_0"},{"bufferView":0,"byteOffset":11472,"componentType":5122,"count":1729,"type":"VEC2","name":"part003_vertices#0_TEXCOORD_1"},{"bufferView":0,"byteOffset":11476,"componentType":5123,"count":1729,"type":"VEC4","name":"part003_vertices#0_COLOR_0"},{"bufferView":1,"byteOffset":1536,"componentType":5123,"count":4551,"type":"SCALAR","name":"part003_indices#0"},{"bufferView":0,"byteOffset":73692,"componentType":5126,"count":2235,"min":[8.148320198059082,2.485949993133545,-25.200000762939454],"max":[16.824260711669923,16.360000610351564,0.20000000298023225],"type":"VEC3","name":"part004_vertices#0_POSITION"},{"bufferView":0,"byteOffset":73704,"componentType":5120,"count":2235,"type":"VEC4","name":"part004_vertices#0_TANGENT"},{"bufferView":0,"byteOffset":73708,"componentType":5120,"count":2235,"type":"VEC4","name":"part004_vertices#0_NORMAL"},{"bufferView":0,"byteOffset":73712,"componentType":5122,"count":2235,"type":"VEC2","name":"part004_vertices#0_TEXCOORD_0"},{"bufferView":0,"byteOffset":73716,"componentType":5122,"count":2235,"type":"VEC2","name":"part004_vertices#0_TEXCOORD_1"},{"bufferView":0,"byteOffset":73720,"componentType":5123,"count":2235,"type":"VEC4","name":"part004_vertices#0_COLOR_0"},{"bufferView":1,"byteOffset":10638,"componentType":5123,"count":4218,"type":"SCALAR","name":"part004_indices#0"},{"bufferView":0,"byteOffset":154152,"componentType":5126,"count":872,"min":[0.0,0.009999999776482582,-25.200000762939454],"max":[25.0,17.610000610351564,0.20000000298023225],"type":"VEC3","name":"part005_vertices#0_POSITION"},{"bufferView":0,"byteOffset":154164,"componentType":5120,"count":872,"type":"VEC4","name":"part005_vertices#0_TANGENT"},{"bufferView":0,"byteOffset":154168,"componentType":5120,"count":872,"type":"VEC4","name":"part005_vertices#0_NORMAL"},{"bufferView":0,"byteOffset":154172,"componentType":5122,"count":872,"type":"VEC2","name":"part005_vertices#0_TEXCOORD_0"},{"bufferView":0,"byteOffset":154176,"componentType":5122,"count":872,"type":"VEC2","name":"part005_vertices#0_TEXCOORD_1"},{"bufferView":0,"byteOffset":154180,"componentType":5123,"count":872,"type":"VEC4","name":"part005_vertices#0_COLOR_0"},{"bufferView":1,"byteOffset":19074,"componentType":5123,"count":2040,"type":"SCALAR","name":"part005_indices#0"},{"bufferView":0,"byteOffset":185544,"componentType":5126,"count":205,"min":[0.0,0.009999999776482582,-25.0],"max":[25.0,17.610000610351564,3.061515884555943e-15],"type":"VEC3","name":"part006_vertices#0_POSITION"},{"bufferView":0,"byteOffset":185556,"componentType":5120,"count":205,"type":"VEC4","name":"part006_vertices#0_TANGENT"},{"bufferView":0,"byteOffset":185560,"componentType":5120,"count":205,"type":"VEC4","name":"part006_vertices#0_NORMAL"},{"bufferView":0,"byteOffset":185564,"componentType":5122,"count":205,"type":"VEC2","name":"part006_vertices#0_TEXCOORD_0"},{"bufferView":0,"byteOffset":185568,"componentType":5122,"count":205,"type":"VEC2","name":"part006_vertices#0_TEXCOORD_1"},{"bufferView":0,"byteOffset":185572,"componentType":5123,"count":205,"type":"VEC4","name":"part006_vertices#0_COLOR_0"},{"bufferView":1,"byteOffset":23154,"componentType":5123,"count":435,"type":"SCALAR","name":"part006_indices#0"},{"bufferView":0,"byteOffset":192924,"componentType":5126,"count":1433,"min":[8.162130355834961,2.580399990081787,-25.049999237060548],"max":[16.87738037109375,14.699250221252442,-24.950000762939454],"type":"VEC3","name":"part007_vertices#0_POSITION"},{"bufferView":0,"byteOffset":192936,"componentType":5120,"count":1433,"type":"VEC4","name":"part007_vertices#0_TANGENT"},{"bufferView":0,"byteOffset":192940,"componentType":5120,"count":1433,"type":"VEC4","name":"part007_vertices#0_NORMAL"},{"bufferView":0,"byteOffset":192944,"componentType":5122,"count":1433,"type":"VEC2","name":"part007_vertices#0_TEXCOORD_0"},{"bufferView":0,"byteOffset":192948,"componentType":5122,"count":1433,"type":"VEC2","name":"part007_vertices#0_TEXCOORD_1"},{"bufferView":0,"byteOffset":192952,"componentType":5123,"count":1433,"type":"VEC4","name":"part007_vertices#0_COLOR_0"},{"bufferView":1,"byteOffset":24024,"componentType":5123,"count":2955,"type":"SCALAR","name":"part007_indices#0"},{"bufferView":0,"byteOffset":244512,"componentType":5126,"count":64,"min":[2.0,3.372270107269287,-24.899999618530275],"max":[23.0,16.159879684448243,-0.10000000149011612],"type":"VEC3","name":"part008_vertices#0_POSITION"},{"bufferView":0,"byteOffset":244524,"componentType":5120,"count":64,"type":"VEC4","name":"part008_vertices#0_TANGENT"},{"bufferView":0,"byteOffset":244528,"componentType":5120,"count":64,"type":"VEC4","name":"part008_vertices#0_NORMAL"},{"bufferView":0,"byteOffset":244532,"componentType":5122,"count":64,"type":"VEC2","name":"part008_vertices#0_TEXCOORD_0"},{"bufferView":0,"byteOffset":244536,"componentType":5122,"count":64,"type":"VEC2","name":"part008_vertices#0_TEXCOORD_1"},{"bufferView":0,"byteOffset":244540,"componentType":5123,"count":64,"type":"VEC4","name":"part008_vertices#0_COLOR_0"},{"bufferView":1,"byteOffset":29934,"componentType":5123,"count":96,"type":"SCALAR","name":"part008_indices#0"},{"bufferView":0,"byteOffset":246816,"componentType":5126,"count":64,"min":[8.148320198059082,2.485949993133545,-23.0],"max":[16.87738037109375,16.360000610351564,-2.0],"type":"VEC3","name":"part009_vertices#0_POSITION"},{"bufferView":0,"byteOffset":246828,"componentType":5120,"count":64,"type":"VEC4","name":"part009_vertices#0_TANGENT"},{"bufferView":0,"byteOffset":246832,"componentType":5120,"count":64,"type":"VEC4","name":"part009_vertices#0_NORMAL"},{"bufferView":0,"byteOffset":246836,"componentType":5122,"count":64,"type":"VEC2","name":"part009_vertices#0_TEXCOORD_0"},{"bufferView":0,"byteOffset":246840,"componentType":5122,"count":64,"type":"VEC2","name":"part009_vertices#0_TEXCOORD_1"},{"bufferView":0,"byteOffset":246844,"componentType":5123,"count":64,"type":"VEC4","name":"part009_vertices#0_COLOR_0"},{"bufferView":1,"byteOffset":30126,"componentType":5123,"count":96,"type":"SCALAR","name":"part009_indices#0"},{"bufferView":0,"byteOffset":249120,"componentType":5126,"count":385,"min":[7.810219764709473,2.485949993133545,-25.200000762939454],"max":[23.0,17.610000610351564,0.20000000298023225],"type":"VEC3","name":"part010_vertices#0_POSITION"},{"bufferView":0,"byteOffset":249132,"componentType":5120,"count":385,"type":"VEC4","name":"part010_vertices#0_TANGENT"},{"bufferView":0,"byteOffset":249136,"componentType":5120,"count":385,"type":"VEC4","name":"part010_vertices#0_NORMAL"},{"bufferView":0,"byteOffset":249140,"componentType":5122,"count":385,"type":"VEC2","name":"part010_vertices#0_TEXCOORD_0"},{"bufferView":0,"byteOffset":249144,"componentType":5122,"count":385,"type":"VEC2","name":"part010_vertices#0_TEXCOORD_1"},{"bufferView":0,"byteOffset":249148,"componentType":5123,"count":385,"type":"VEC4","name":"part010_vertices#0_COLOR_0"},{"bufferView":1,"byteOffset":30318,"componentType":5123,"count":969,"type":"SCALAR","name":"part010_indices#0"},{"bufferView":0,"byteOffset":262980,"componentType":5126,"count":117,"min":[1.0,0.009999999776482582,-25.200000762939454],"max":[24.0,16.610000610351564,2.0660224138451977e-15],"type":"VEC3","name":"part011_vertices#0_POSITION"},{"bufferView":0,"byteOffset":262992,"componentType":5120,"count":117,"type":"VEC4","name":"part011_vertices#0_TANGENT"},{"bufferView":0,"byteOffset":262996,"componentType":5120,"count":117,"type":"VEC4","name":"part011_vertices#0_NORMAL"},{"bufferView":0,"byteOffset":263000,"componentType":5122,"count":117,"type":"VEC2","name":"part011_vertices#0_TEXCOORD_0"},{"bufferView":0,"byteOffset":263004,"componentType":5122,"count":117,"type":"VEC2","name":"part011_vertices#0_TEXCOORD_1"},{"bufferView":0,"byteOffset":263008,"componentType":5123,"count":117,"type":"VEC4","name":"part011_vertices#0_COLOR_0"},{"bufferView":1,"byteOffset":32256,"componentType":5123,"count":213,"type":"SCALAR","name":"part011_indices#0"},{"bufferView":0,"byteOffset":267192,"componentType":5126,"count":105,"min":[5.0,2.109999895095825,-25.0],"max":[20.0,17.610000610351564,-25.0],"type":"VEC3","name":"part012_vertices#0_POSITION"},{"bufferView":0,"byteOffset":267204,"componentType":5120,"count":105,"type":"VEC4","name":"part012_vertices#0_TANGENT"},{"bufferView":0,"byteOffset":267208,"componentType":5120,"count":105,"type":"VEC4","name":"part012_vertices#0_NORMAL"},{"bufferView":0,"byteOffset":267212,"componentType":5122,"count":105,"type":"VEC2","name":"part012_vertices#0_TEXCOORD_0"},{"bufferView":0,"byteOffset":267216,"componentType":5122,"count":105,"type":"VEC2","name":"part012_vertices#0_TEXCOORD_1"},{"bufferView":0,"byteOffset":267220,"componentType":5123,"count":105,"type":"VEC4","name":"part012_vertices#0_COLOR_0"},{"bufferView":1,"byteOffset":32682,"componentType":5123,"count":219,"type":"SCALAR","name":"part012_indices#0"},{"bufferView":0,"byteOffset":270972,"componentType":5126,"count":557,"min":[0.0,0.009999999776482582,-25.200000762939454],"max":[25.0,17.610000610351564,3.061515884555943e-15],"type":"VEC3","name":"part013_vertices#0_POSITION"},{"bufferView":0,"byteOffset":270984,"componentType":5120,"count":557,"type":"VEC4","name":"part013_vertices#0_TANGENT"},{"bufferView":0,"byteOffset":270988,"componentType":5120,"count":557,"type":"VEC4","name":"part013_vertices#0_NORMAL"},{"bufferView":0,"byteOffset":270992,"componentType":5122,"count":557,"type":"VEC2","name":"part013_vertices#0_TEXCOORD_0"},{"bufferView":0,"byteOffset":270996,"componentType":5122,"count":557,"type":"VEC2","name":"part013_vertices#0_TEXCOORD_1"},{"bufferView":0,"byteOffset":271000,"componentType":5123,"count":557,"type":"VEC4","name":"part013_vertices#0_COLOR_0"},{"bufferView":1,"byteOffset":33120,"componentType":5123,"count":1341,"type":"SCALAR","name":"part013_indices#0"},{"bufferView":0,"byteOffset":291024,"componentType":5126,"count":4,"min":[8.1899995803833,0.009999999776482582,-22.0],"max":[16.809999465942384,2.109999895095825,-22.0],"type":"VEC3","name":"part014_vertices#0_POSITION"},{"bufferView":0,"byteOffset":291036,"componentType":5120,"count":4,"type":"VEC4","name":"part014_vertices#0_TANGENT"},{"bufferView":0,"byteOffset":291040,"componentType":5120,"count":4,"type":"VEC4","name":"part014_vertices#0_NORMAL"},{"bufferView":0,"byteOffset":291044,"componentType":5122,"count":4,"type":"VEC2","name":"part014_vertices#0_TEXCOORD_0"},{"bufferView":0,"byteOffset":291048,"componentType":5122,"count":4,"type":"VEC2","name":"part014_vertices#0_TEXCOORD_1"},{"bufferView":0,"byteOffset":291052,"componentType":5123,"count":4,"type":"VEC4","name":"part014_vertices#0_COLOR_0"},{"bufferView":1,"byteOffset":35802,"componentType":5123,"count":6,"type":"SCALAR","name":"part014_indices#0"}],"asset":{"generator":"ModelConverterX","version":"2.0","extensions":{"ASOBO_asset_optimized":{"BoundingBoxMax":[25.0,17.610000610351564,0.20000000298023225],"BoundingBoxMin":[0.0,0.009999999776482582,-25.200000762939454],"MajorVersion":4,"MinorVersion":4,"UseCheckerboardMaterialForMissingTextures":true,"UseOnlyFilenameForImageURI":true}}},"bufferViews":[{"buffer":0,"byteLength":291168,"byteStride":36,"target":34962,"name":"BufferViewVertexND"},{"buffer":0,"byteLength":35814,"byteOffset":291168,"target":34963,"name":"BufferViewIndex"}],"extensionsRequired":["MSFT_texture_dds"],"materials":[{"name":"material00","pbrMetallicRoughness":{"metallicFactor":0.0},"extensions":{"ASOBO_material_day_night_switch":{}}},{"name":"material01","pbrMetallicRoughness":{"metallicFactor":0.0,"baseColorTexture":{"index":0}},"extensions":{"ASOBO_material_day_night_switch":{}}},{"name":"material02","pbrMetallicRoughness":{"metallicFactor":0.0,"baseColorTexture":{"index":1}},"extensions":{"ASOBO_material_day_night_switch":{}}},{"name":"material03","pbrMetallicRoughness":{"metallicFactor":0.0,"baseColorTexture":{"index":2}},"extensions":{"ASOBO_material_day_night_switch":{}}},{"name":"material04","pbrMetallicRoughness":{"metallicFactor":0.0,"baseColorTexture":{"index":3}},"extensions":{"ASOBO_material_day_night_switch":{}}},{"name":"material05","pbrMetallicRoughness":{"metallicFactor":0.0,"baseColorTexture":{"index":4}},"extensions":{"ASOBO_material_day_night_switch":{}}},{"name":"material06","pbrMetallicRoughness":{"metallicFactor":0.0,"baseColorTexture":{"index":5}},"extensions":{"ASOBO_material_day_night_switch":{}}},{"name":"material07","pbrMetallicRoughness":{"metallicFactor":0.0,"baseColorTexture":{"index":6}},"extensions":{"ASOBO_material_day_night_switch":{}}},{"name":"material08","pbrMetallicRoughness":{"metallicFactor":0.0,"baseColorTexture":{"index":7}},"extensions":{"ASOBO_material_day_night_switch":{}}},{"name":"material09","pbrMetallicRoughness":{"metallicFactor":0.0,"baseColorTexture":{"index":8}},"extensions":{"ASOBO_material_day_night_switch":{}}},{"name":"material10","pbrMetallicRoughness":{"metallicFactor":0.0,"baseColorTexture":{"index":9}},"extensions":{"ASOBO_material_day_night_switch":{}}},{"name":"material11","pbrMetallicRoughness":{"metallicFactor":0.0,"baseColorTexture":{"index":10}},"extensions":{"ASOBO_material_day_night_switch":{}}},{"name":"material12","pbrMetallicRoughness":{"metallicFactor":0.0,"baseColorTexture":{"index":11}},"extensions":{"ASOBO_material_day_night_switch":{}}},{"name":"material13","pbrMetallicRoughness":{"metallicFactor":0.0,"baseColorTexture":{"index":12}},"extensions":{"ASOBO_material_day_night_switch":{}}},{"name":"material14","pbrMetallicRoughness":{"metallicFactor":0.0,"baseColorTexture":{"index":13}},"extensions":{"ASOBO_material_day_night_switch":{}}}],"meshes":[{"primitives":[{"attributes":{"COLOR_0":5,"NORMAL":2,"POSITION":0,"TANGENT":1,"TEXCOORD_0":3,"TEXCOORD_1":4},"indices":6,"material":8,"mode":4,"extras":{"ASOBO_primitive":{"PrimitiveCount":244,"VertexType":"VTX","VertexVersion":2}}}],"name":"part000"},{"primitives":[{"attributes":{"COLOR_0":12,"NORMAL":9,"POSITION":7,"TANGENT":8,"TEXCOORD_0":10,"TEXCOORD_1":11},"indices":13,"material":6,"mode":4,"extras":{"ASOBO_primitive":{"PrimitiveCount":8,"VertexType":"VTX","VertexVersion":2}}}],"name":"part001"},{"primitives":[{"attributes":{"COLOR_0":19,"NORMAL":16,"POSITION":14,"TANGENT":15,"TEXCOORD_0":17,"TEXCOORD_1":18},"indices":20,"material":7,"mode":4,"extras":{"ASOBO_primitive":{"PrimitiveCount":4,"VertexType":"VTX","VertexVersion":2}}}],"name":"part002"},{"primitives":[{"attributes":{"COLOR_0":26,"NORMAL":23,"POSITION":21,"TANGENT":22,"TEXCOORD_0":24,"TEXCOORD_1":25},"indices":27,"material":12,"mode":4,"extras":{"ASOBO_primitive":{"PrimitiveCount":1517,"VertexType":"VTX","VertexVersion":2}}}],"name":"part003"},{"primitives":[{"attributes":{"COLOR_0":33,"NORMAL":30,"POSITION":28,"TANGENT":29,"TEXCOORD_0":31,"TEXCOORD_1":32},"indices":34,"material":3,"mode":4,"extras":{"ASOBO_primitive":{"PrimitiveCount":1406,"VertexType":"VTX","VertexVersion":2}}}],"name":"part004"},{"primitives":[{"attributes":{"COLOR_0":40,"NORMAL":37,"POSITION":35,"TANGENT":36,"TEXCOORD_0":38,"TEXCOORD_1":39},"indices":41,"material":9,"mode":4,"extras":{"ASOBO_primitive":{"PrimitiveCount":680,"VertexType":"VTX","VertexVersion":2}}}],"name":"part005"},{"primitives":[{"attributes":{"COLOR_0":47,"NORMAL":44,"POSITION":42,"TANGENT":43,"TEXCOORD_0":45,"TEXCOORD_1":46},"indices":48,"material":5,"mode":4,"extras":{"ASOBO_primitive":{"PrimitiveCount":145,"VertexType":"VTX","VertexVersion":2}}}],"name":"part006"},{"primitives":[{"attributes":{"COLOR_0":54,"NORMAL":51,"POSITION":49,"TANGENT":50,"TEXCOORD_0":52,"TEXCOORD_1":53},"indices":55,"material":1,"mode":4,"extras":{"ASOBO_primitive":{"PrimitiveCount":985,"VertexType":"VTX","VertexVersion":2}}}],"name":"part007"},{"primitives":[{"attributes":{"COLOR_0":61,"NORMAL":58,"POSITION":56,"TANGENT":57,"TEXCOORD_0":59,"TEXCOORD_1":60},"indices":62,"material":14,"mode":4,"extras":{"ASOBO_primitive":{"PrimitiveCount":32,"VertexType":"VTX","VertexVersion":2}}}],"name":"part008"},{"primitives":[{"attributes":{"COLOR_0":68,"NORMAL":65,"POSITION":63,"TANGENT":64,"TEXCOORD_0":66,"TEXCOORD_1":67},"indices":69,"material":13,"mode":4,"extras":{"ASOBO_primitive":{"PrimitiveCount":32,"VertexType":"VTX","VertexVersion":2}}}],"name":"part009"},{"primitives":[{"attributes":{"COLOR_0":75,"NORMAL":72,"POSITION":70,"TANGENT":71,"TEXCOORD_0":73,"TEXCOORD_1":74},"indices":76,"material":0,"mode":4,"extras":{"ASOBO_primitive":{"PrimitiveCount":323,"VertexType":"VTX","VertexVersion":2}}}],"name":"part010"},{"primitives":[{"attributes":{"COLOR_0":82,"NORMAL":79,"POSITION":77,"TANGENT":78,"TEXCOORD_0":80,"TEXCOORD_1":81},"indices":83,"material":10,"mode":4,"extras":{"ASOBO_primitive":{"PrimitiveCount":71,"VertexType":"VTX","VertexVersion":2}}}],"name":"part011"},{"primitives":[{"attributes":{"COLOR_0":89,"NORMAL":86,"POSITION":84,"TANGENT":85,"TEXCOORD_0":87,"TEXCOORD_1":88},"indices":90,"material":2,"mode":4,"extras":{"ASOBO_primitive":{"PrimitiveCount":73,"VertexType":"VTX","VertexVersion":2}}}],"name":"part012"},{"primitives":[{"attributes":{"COLOR_0":96,"NORMAL":93,"POSITION":91,"TANGENT":92,"TEXCOORD_0":94,"TEXCOORD_1":95},"indices":97,"material":4,"mode":4,"extras":{"ASOBO_primitive":{"PrimitiveCount":447,"VertexType":"VTX","VertexVersion":2}}}],"name":"part013"},{"primitives":[{"attributes":{"COLOR_0":103,"NORMAL":100,"POSITION":98,"TANGENT":99,"TEXCOORD_0":101,"TEXCOORD_1":102},"indices":104,"material":11,"mode":4,"extras":{"ASOBO_primitive":{"PrimitiveCount":2,"VertexType":"VTX","VertexVersion":2}}}],"name":"part014"}],"nodes":[{"name":"node0","children":[1,2,3,4,5,6,7,8,9,10,11,12,13,14,15]},{"mesh":0,"name":"node1"},{"mesh":1,"name":"node2"},{"mesh":2,"name":"node3"},{"mesh":3,"name":"node4"},{"mesh":4,"name":"node5"},{"mesh":5,"name":"node6"},{"mesh":6,"name":"node7"},{"mesh":7,"name":"node8"},{"mesh":8,"name":"node9"},{"mesh":9,"name":"node10"},{"mesh":10,"name":"node11"},{"mesh":11,"name":"node12"},{"mesh":12,"name":"node13"},{"mesh":13,"name":"node14"},{"mesh":14,"name":"node15"}],"scene":0,"scenes":[{"nodes":[0]}],"textures":[{"extensions":{"MSFT_texture_dds":{"source":0}}},{"extensions":{"MSFT_texture_dds":{"source":1}}},{"extensions":{"MSFT_texture_dds":{"source":2}}},{"extensions":{"MSFT_texture_dds":{"source":3}}},{"extensions":{"MSFT_texture_dds":{"source":4}}},{"extensions":{"MSFT_texture_dds":{"source":5}}},{"extensions":{"MSFT_texture_dds":{"source":6}}},{"extensions":{"MSFT_texture_dds":{"source":7}}},{"extensions":{"MSFT_texture_dds":{"source":8}}},{"extensions":{"MSFT_texture_dds":{"source":9}}},{"extensions":{"MSFT_texture_dds":{"source":10}}},{"extensions":{"MSFT_texture_dds":{"source":11}}},{"extensions":{"MSFT_texture_dds":{"source":12}}},{"extensions":{"MSFT_texture_dds":{"source":13}}}],"extensionsUsed":["ASOBO_material_day_night_switch","MSFT_texture_dds","ASOBO_asset_optimized"],"buffers":[{"byteLength":326982,"uri":"BUILDINGFINALNEW.bin"}],"images":[{"uri":"METAL_ALUMINUM_ANODIZED.PNG.DDS","extras":"ASOBO_image_converted_meta"},{"uri":"NEWALL10.PNG.DDS","extras":"ASOBO_image_converted_meta"},{"uri":"NEWALL11.PNG.DDS","extras":"ASOBO_image_converted_meta"},{"uri":"NEWWALL.PNG.DDS","extras":"ASOBO_image_converted_meta"},{"uri":"NEWWALL2.PNG.DDS","extras":"ASOBO_image_converted_meta"},{"uri":"NEWWALL3.PNG.DDS","extras":"ASOBO_image_converted_meta"},{"uri":"NEWWALL4.PNG.DDS","extras":"ASOBO_image_converted_meta"},{"uri":"NEWWALL5.PNG.DDS","extras":"ASOBO_image_converted_meta"},{"uri":"NEWWALL8.PNG.DDS","extras":"ASOBO_image_converted_meta"},{"uri":"NEWWALL9.PNG.DDS","extras":"ASOBO_image_converted_meta"},{"uri":"NEWWINDOW.PNG.DDS","extras":"ASOBO_image_converted_meta"},{"uri":"TILE_TRAVERTINE_2INCH.PNG.DDS","extras":"ASOBO_image_converted_meta"},{"uri":"WINDOW.PNG.DDS","extras":"ASOBO_image_converted_meta"},{"uri":"WINDOW3.PNG.DDS","extras":"ASOBO_image_converted_meta"}]}
