{"accessors":[{"bufferView":0,"componentType":5126,"count":64,"min":[-56.03125,-0.5156199932098389,-16.75],"max":[-24.8593807220459,3.59375,-8.8125],"type":"VEC3","name":"part000_vertices#0_POSITION"},{"bufferView":0,"byteOffset":12,"componentType":5120,"count":64,"type":"VEC4","name":"part000_vertices#0_TANGENT"},{"bufferView":0,"byteOffset":16,"componentType":5120,"count":64,"type":"VEC4","name":"part000_vertices#0_NORMAL"},{"bufferView":0,"byteOffset":20,"componentType":5122,"count":64,"type":"VEC2","name":"part000_vertices#0_TEXCOORD_0"},{"bufferView":0,"byteOffset":24,"componentType":5122,"count":64,"type":"VEC2","name":"part000_vertices#0_TEXCOORD_1"},{"bufferView":0,"byteOffset":28,"componentType":5123,"count":64,"type":"VEC4","name":"part000_vertices#0_COLOR_0"},{"bufferView":1,"componentType":5123,"count":132,"type":"SCALAR","name":"part000_indices#0"},{"bufferView":0,"byteOffset":2304,"componentType":5126,"count":32,"min":[0.25,0.01561999972909689,-12.859379768371582],"max":[8.296879768371582,4.359379768371582,-4.84375],"type":"VEC3","name":"part001_vertices#0_POSITION"},{"bufferView":0,"byteOffset":2316,"componentType":5120,"count":32,"type":"VEC4","name":"part001_vertices#0_TANGENT"},{"bufferView":0,"byteOffset":2320,"componentType":5120,"count":32,"type":"VEC4","name":"part001_vertices#0_NORMAL"},{"bufferView":0,"byteOffset":2324,"componentType":5122,"count":32,"type":"VEC2","name":"part001_vertices#0_TEXCOORD_0"},{"bufferView":0,"byteOffset":2328,"componentType":5122,"count":32,"type":"VEC2","name":"part001_vertices#0_TEXCOORD_1"},{"bufferView":0,"byteOffset":2332,"componentType":5123,"count":32,"type":"VEC4","name":"part001_vertices#0_COLOR_0"},{"bufferView":1,"byteOffset":264,"componentType":5123,"count":48,"type":"SCALAR","name":"part001_indices#0"},{"bufferView":0,"byteOffset":3456,"componentType":5126,"count":14,"min":[16.1093807220459,10.140629768371582,-14.921879768371582],"max":[24.3593807220459,10.265629768371582,-6.734379768371582],"type":"VEC3","name":"part002_vertices#0_POSITION"},{"bufferView":0,"byteOffset":3468,"componentType":5120,"count":14,"type":"VEC4","name":"part002_vertices#0_TANGENT"},{"bufferView":0,"byteOffset":3472,"componentType":5120,"count":14,"type":"VEC4","name":"part002_vertices#0_NORMAL"},{"bufferView":0,"byteOffset":3476,"componentType":5122,"count":14,"type":"VEC2","name":"part002_vertices#0_TEXCOORD_0"},{"bufferView":0,"byteOffset":3480,"componentType":5122,"count":14,"type":"VEC2","name":"part002_vertices#0_TEXCOORD_1"},{"bufferView":0,"byteOffset":3484,"componentType":5123,"count":14,"type":"VEC4","name":"part002_vertices#0_COLOR_0"},{"bufferView":1,"byteOffset":360,"componentType":5123,"count":33,"type":"SCALAR","name":"part002_indices#0"},{"bufferView":0,"byteOffset":3960,"componentType":5126,"count":138,"min":[16.8281307220459,7.078120231628418,-14.0625],"max":[23.5625,8.265620231628418,-7.328120231628418],"type":"VEC3","name":"part003_vertices#0_POSITION"},{"bufferView":0,"byteOffset":3972,"componentType":5120,"count":138,"type":"VEC4","name":"part003_vertices#0_TANGENT"},{"bufferView":0,"byteOffset":3976,"componentType":5120,"count":138,"type":"VEC4","name":"part003_vertices#0_NORMAL"},{"bufferView":0,"byteOffset":3980,"componentType":5122,"count":138,"type":"VEC2","name":"part003_vertices#0_TEXCOORD_0"},{"bufferView":0,"byteOffset":3984,"componentType":5122,"count":138,"type":"VEC2","name":"part003_vertices#0_TEXCOORD_1"},{"bufferView":0,"byteOffset":3988,"componentType":5123,"count":138,"type":"VEC4","name":"part003_vertices#0_COLOR_0"},{"bufferView":1,"byteOffset":426,"componentType":5123,"count":210,"type":"SCALAR","name":"part003_indices#0"},{"bufferView":0,"byteOffset":8928,"componentType":5126,"count":148,"min":[-55.5625,-0.5156199932098389,-15.25],"max":[24.6093807220459,12.8125,-6.28125],"type":"VEC3","name":"part004_vertices#0_POSITION"},{"bufferView":0,"byteOffset":8940,"componentType":5120,"count":148,"type":"VEC4","name":"part004_vertices#0_TANGENT"},{"bufferView":0,"byteOffset":8944,"componentType":5120,"count":148,"type":"VEC4","name":"part004_vertices#0_NORMAL"},{"bufferView":0,"byteOffset":8948,"componentType":5122,"count":148,"type":"VEC2","name":"part004_vertices#0_TEXCOORD_0"},{"bufferView":0,"byteOffset":8952,"componentType":5122,"count":148,"type":"VEC2","name":"part004_vertices#0_TEXCOORD_1"},{"bufferView":0,"byteOffset":8956,"componentType":5123,"count":148,"type":"VEC4","name":"part004_vertices#0_COLOR_0"},{"bufferView":1,"byteOffset":846,"componentType":5123,"count":540,"type":"SCALAR","name":"part004_indices#0"},{"bufferView":0,"byteOffset":14256,"componentType":5126,"count":300,"min":[15.59375,7.5625,-15.28125],"max":[24.5781307220459,16.34375,-6.296879768371582],"type":"VEC3","name":"part005_vertices#0_POSITION"},{"bufferView":0,"byteOffset":14268,"componentType":5120,"count":300,"type":"VEC4","name":"part005_vertices#0_TANGENT"},{"bufferView":0,"byteOffset":14272,"componentType":5120,"count":300,"type":"VEC4","name":"part005_vertices#0_NORMAL"},{"bufferView":0,"byteOffset":14276,"componentType":5122,"count":300,"type":"VEC2","name":"part005_vertices#0_TEXCOORD_0"},{"bufferView":0,"byteOffset":14280,"componentType":5122,"count":300,"type":"VEC2","name":"part005_vertices#0_TEXCOORD_1"},{"bufferView":0,"byteOffset":14284,"componentType":5123,"count":300,"type":"VEC4","name":"part005_vertices#0_COLOR_0"},{"bufferView":1,"byteOffset":1926,"componentType":5123,"count":792,"type":"SCALAR","name":"part005_indices#0"},{"bufferView":0,"byteOffset":25056,"componentType":5126,"count":250,"min":[15.609379768371582,0.17188000679016114,-15.265629768371582],"max":[36.140628814697269,8.171879768371582,0.75],"type":"VEC3","name":"part006_vertices#0_POSITION"},{"bufferView":0,"byteOffset":25068,"componentType":5120,"count":250,"type":"VEC4","name":"part006_vertices#0_TANGENT"},{"bufferView":0,"byteOffset":25072,"componentType":5120,"count":250,"type":"VEC4","name":"part006_vertices#0_NORMAL"},{"bufferView":0,"byteOffset":25076,"componentType":5122,"count":250,"type":"VEC2","name":"part006_vertices#0_TEXCOORD_0"},{"bufferView":0,"byteOffset":25080,"componentType":5122,"count":250,"type":"VEC2","name":"part006_vertices#0_TEXCOORD_1"},{"bufferView":0,"byteOffset":25084,"componentType":5123,"count":250,"type":"VEC4","name":"part006_vertices#0_COLOR_0"},{"bufferView":1,"byteOffset":3510,"componentType":5123,"count":396,"type":"SCALAR","name":"part006_indices#0"},{"bufferView":0,"byteOffset":34056,"componentType":5126,"count":329,"min":[-66.51563262939453,-0.21875,-17.0],"max":[36.21875,12.9375,1.28125],"type":"VEC3","name":"part007_vertices#0_POSITION"},{"bufferView":0,"byteOffset":34068,"componentType":5120,"count":329,"type":"VEC4","name":"part007_vertices#0_TANGENT"},{"bufferView":0,"byteOffset":34072,"componentType":5120,"count":329,"type":"VEC4","name":"part007_vertices#0_NORMAL"},{"bufferView":0,"byteOffset":34076,"componentType":5122,"count":329,"type":"VEC2","name":"part007_vertices#0_TEXCOORD_0"},{"bufferView":0,"byteOffset":34080,"componentType":5122,"count":329,"type":"VEC2","name":"part007_vertices#0_TEXCOORD_1"},{"bufferView":0,"byteOffset":34084,"componentType":5123,"count":329,"type":"VEC4","name":"part007_vertices#0_COLOR_0"},{"bufferView":1,"byteOffset":4302,"componentType":5123,"count":492,"type":"SCALAR","name":"part007_indices#0"},{"bufferView":0,"byteOffset":45900,"componentType":5126,"count":219,"min":[8.46875,-0.01561999972909689,-18.625],"max":[32.6875,1.34375,-12.59375],"type":"VEC3","name":"part008_vertices#0_POSITION"},{"bufferView":0,"byteOffset":45912,"componentType":5120,"count":219,"type":"VEC4","name":"part008_vertices#0_TANGENT"},{"bufferView":0,"byteOffset":45916,"componentType":5120,"count":219,"type":"VEC4","name":"part008_vertices#0_NORMAL"},{"bufferView":0,"byteOffset":45920,"componentType":5122,"count":219,"type":"VEC2","name":"part008_vertices#0_TEXCOORD_0"},{"bufferView":0,"byteOffset":45924,"componentType":5122,"count":219,"type":"VEC2","name":"part008_vertices#0_TEXCOORD_1"},{"bufferView":0,"byteOffset":45928,"componentType":5123,"count":219,"type":"VEC4","name":"part008_vertices#0_COLOR_0"},{"bufferView":1,"byteOffset":5286,"componentType":5123,"count":360,"type":"SCALAR","name":"part008_indices#0"}],"asset":{"generator":"ModelConverterX","version":"2.0","extensions":{"ASOBO_asset_optimized":{"BoundingBoxMax":[36.21875,16.34375,1.28125],"BoundingBoxMin":[-66.51563262939453,-0.5156199932098389,-18.625],"MajorVersion":4,"MinorVersion":4,"UseCheckerboardMaterialForMissingTextures":true,"UseOnlyFilenameForImageURI":true}}},"bufferViews":[{"buffer":0,"byteLength":53784,"byteStride":36,"target":34962,"name":"BufferViewVertexND"},{"buffer":0,"byteLength":6006,"byteOffset":53784,"target":34963,"name":"BufferViewIndex"}],"extensionsRequired":["MSFT_texture_dds"],"materials":[{"name":"material00","pbrMetallicRoughness":{"baseColorFactor":[0.7529410123825073,0.7529410123825073,0.7529410123825073,1.0],"metallicFactor":0.0,"baseColorTexture":{"index":0}},"extensions":{"ASOBO_material_day_night_switch":{}}},{"name":"material01","emissiveTexture":{"index":2},"emissiveFactor":[1.0,1.0,1.0],"pbrMetallicRoughness":{"baseColorFactor":[0.5879999995231628,0.5879999995231628,0.5879999995231628,1.0],"metallicFactor":0.0,"baseColorTexture":{"index":1}},"extensions":{"ASOBO_material_day_night_switch":{}}},{"name":"material02","pbrMetallicRoughness":{"baseColorFactor":[0.7529410123825073,0.7529410123825073,0.7529410123825073,1.0],"metallicFactor":0.0},"extensions":{"ASOBO_material_day_night_switch":{}}},{"name":"material03","pbrMetallicRoughness":{"baseColorFactor":[0.7529410123825073,0.7529410123825073,0.7529410123825073,1.0],"metallicFactor":0.0,"baseColorTexture":{"index":3}},"extensions":{"ASOBO_material_day_night_switch":{}}},{"name":"material04","pbrMetallicRoughness":{"baseColorFactor":[0.7529410123825073,0.7529410123825073,0.7529410123825073,1.0],"metallicFactor":0.0,"baseColorTexture":{"index":4}},"extensions":{"ASOBO_material_day_night_switch":{}}},{"name":"material05","emissiveTexture":{"index":6},"emissiveFactor":[1.0,1.0,1.0],"pbrMetallicRoughness":{"baseColorFactor":[0.5879999995231628,0.5879999995231628,0.5879999995231628,1.0],"metallicFactor":0.0,"baseColorTexture":{"index":5}},"extensions":{"ASOBO_material_day_night_switch":{}}},{"name":"material06","emissiveTexture":{"index":8},"emissiveFactor":[1.0,1.0,1.0],"pbrMetallicRoughness":{"baseColorFactor":[0.5879999995231628,0.5879999995231628,0.5879999995231628,1.0],"metallicFactor":0.0,"baseColorTexture":{"index":7}},"extensions":{"ASOBO_material_day_night_switch":{}}},{"name":"material07","emissiveTexture":{"index":10},"emissiveFactor":[1.0,1.0,1.0],"pbrMetallicRoughness":{"baseColorFactor":[0.5879999995231628,0.5879999995231628,0.5879999995231628,1.0],"metallicFactor":0.0,"baseColorTexture":{"index":9}},"extensions":{"ASOBO_material_day_night_switch":{}}},{"name":"material08","emissiveTexture":{"index":12},"emissiveFactor":[1.0,1.0,1.0],"pbrMetallicRoughness":{"baseColorFactor":[0.5879999995231628,0.5879999995231628,0.5879999995231628,1.0],"metallicFactor":0.0,"baseColorTexture":{"index":11}},"extensions":{"ASOBO_material_day_night_switch":{}}}],"meshes":[{"primitives":[{"attributes":{"COLOR_0":5,"NORMAL":2,"POSITION":0,"TANGENT":1,"TEXCOORD_0":3,"TEXCOORD_1":4},"indices":6,"material":7,"mode":4,"extras":{"ASOBO_primitive":{"PrimitiveCount":44,"VertexType":"VTX","VertexVersion":2}}}],"name":"part000"},{"primitives":[{"attributes":{"COLOR_0":12,"NORMAL":9,"POSITION":7,"TANGENT":8,"TEXCOORD_0":10,"TEXCOORD_1":11},"indices":13,"material":6,"mode":4,"extras":{"ASOBO_primitive":{"PrimitiveCount":16,"VertexType":"VTX","VertexVersion":2}}}],"name":"part001"},{"primitives":[{"attributes":{"COLOR_0":19,"NORMAL":16,"POSITION":14,"TANGENT":15,"TEXCOORD_0":17,"TEXCOORD_1":18},"indices":20,"material":0,"mode":4,"extras":{"ASOBO_primitive":{"PrimitiveCount":11,"VertexType":"VTX","VertexVersion":2}}}],"name":"part002"},{"primitives":[{"attributes":{"COLOR_0":26,"NORMAL":23,"POSITION":21,"TANGENT":22,"TEXCOORD_0":24,"TEXCOORD_1":25},"indices":27,"material":3,"mode":4,"extras":{"ASOBO_primitive":{"PrimitiveCount":70,"VertexType":"VTX","VertexVersion":2}}}],"name":"part003"},{"primitives":[{"attributes":{"COLOR_0":33,"NORMAL":30,"POSITION":28,"TANGENT":29,"TEXCOORD_0":31,"TEXCOORD_1":32},"indices":34,"material":2,"mode":4,"extras":{"ASOBO_primitive":{"PrimitiveCount":180,"VertexType":"VTX","VertexVersion":2}}}],"name":"part004"},{"primitives":[{"attributes":{"COLOR_0":40,"NORMAL":37,"POSITION":35,"TANGENT":36,"TEXCOORD_0":38,"TEXCOORD_1":39},"indices":41,"material":1,"mode":4,"extras":{"ASOBO_primitive":{"PrimitiveCount":264,"VertexType":"VTX","VertexVersion":2}}}],"name":"part005"},{"primitives":[{"attributes":{"COLOR_0":47,"NORMAL":44,"POSITION":42,"TANGENT":43,"TEXCOORD_0":45,"TEXCOORD_1":46},"indices":48,"material":4,"mode":4,"extras":{"ASOBO_primitive":{"PrimitiveCount":132,"VertexType":"VTX","VertexVersion":2}}}],"name":"part006"},{"primitives":[{"attributes":{"COLOR_0":54,"NORMAL":51,"POSITION":49,"TANGENT":50,"TEXCOORD_0":52,"TEXCOORD_1":53},"indices":55,"material":5,"mode":4,"extras":{"ASOBO_primitive":{"PrimitiveCount":164,"VertexType":"VTX","VertexVersion":2}}}],"name":"part007"},{"primitives":[{"attributes":{"COLOR_0":61,"NORMAL":58,"POSITION":56,"TANGENT":57,"TEXCOORD_0":59,"TEXCOORD_1":60},"indices":62,"material":8,"mode":4,"extras":{"ASOBO_primitive":{"PrimitiveCount":120,"VertexType":"VTX","VertexVersion":2}}}],"name":"part008"}],"nodes":[{"name":"node0","children":[1,2,3,4,5,6,7,8,9]},{"mesh":0,"name":"node1"},{"mesh":1,"name":"node2"},{"mesh":2,"name":"node3"},{"mesh":3,"name":"node4"},{"mesh":4,"name":"node5"},{"mesh":5,"name":"node6"},{"mesh":6,"name":"node7"},{"mesh":7,"name":"node8"},{"mesh":8,"name":"node9"}],"scene":0,"scenes":[{"nodes":[0]}],"textures":[{"extensions":{"MSFT_texture_dds":{"source":0}}},{"extensions":{"MSFT_texture_dds":{"source":1}}},{"extensions":{"MSFT_texture_dds":{"source":2}}},{"extensions":{"MSFT_texture_dds":{"source":3}}},{"extensions":{"MSFT_texture_dds":{"source":4}}},{"extensions":{"MSFT_texture_dds":{"source":5}}},{"extensions":{"MSFT_texture_dds":{"source":6}}},{"extensions":{"MSFT_texture_dds":{"source":7}}},{"extensions":{"MSFT_texture_dds":{"source":8}}},{"extensions":{"MSFT_texture_dds":{"source":9}}},{"extensions":{"MSFT_texture_dds":{"source":10}}},{"extensions":{"MSFT_texture_dds":{"source":11}}},{"extensions":{"MSFT_texture_dds":{"source":12}}}],"extensionsUsed":["ASOBO_material_day_night_switch","MSFT_texture_dds","ASOBO_asset_optimized"],"buffers":[{"byteLength":59790,"uri":"ct-llhz.bin"}],"images":[{"uri":"CT-LLHZ_AVIA_M~1.PNG.DDS","extras":"ASOBO_image_converted_meta"},{"uri":"CT-LLHZ_AVIA_MOONAIR.PNG.DDS","extras":"ASOBO_image_converted_meta"},{"uri":"CT-LLHZ_AVIA_MOONAIR_LM.PNG.DDS","extras":"ASOBO_image_converted_meta"},{"uri":"CT-LLHZ_CONTRO~1.PNG.DDS","extras":"ASOBO_image_converted_meta"},{"uri":"CT-LLHZ_CONTRO~2.PNG.DDS","extras":"ASOBO_image_converted_meta"},{"uri":"CT-LLHZ_CONTROL_TOWER.PNG.DDS","extras":"ASOBO_image_converted_meta"},{"uri":"CT-LLHZ_CONTROL_TOWER_LM.PNG.DDS","extras":"ASOBO_image_converted_meta"},{"uri":"CT-LLHZ_HANGER_3.PNG.DDS","extras":"ASOBO_image_converted_meta"},{"uri":"CT-LLHZ_HANGER_3_LM.PNG.DDS","extras":"ASOBO_image_converted_meta"},{"uri":"CT-LLHZ_NESHER.PNG.DDS","extras":"ASOBO_image_converted_meta"},{"uri":"CT-LLHZ_NESHER_LM.PNG.DDS","extras":"ASOBO_image_converted_meta"},{"uri":"CT-LLHZ_SVACH.PNG.DDS","extras":"ASOBO_image_converted_meta"},{"uri":"CT-LLHZ_SVACH_LM.PNG.DDS","extras":"ASOBO_image_converted_meta"}]}
