{"accessors":[{"bufferView":0,"componentType":5126,"count":387,"min":[-0.49320000410079958,0.0,-79.99999237060547],"max":[29.999990463256837,13.199999809265137,2.4492127076447547e-15],"type":"VEC3","name":"part000_vertices#0_POSITION"},{"bufferView":0,"byteOffset":12,"componentType":5120,"count":387,"type":"VEC4","name":"part000_vertices#0_TANGENT"},{"bufferView":0,"byteOffset":16,"componentType":5120,"count":387,"type":"VEC4","name":"part000_vertices#0_NORMAL"},{"bufferView":0,"byteOffset":20,"componentType":5122,"count":387,"type":"VEC2","name":"part000_vertices#0_TEXCOORD_0"},{"bufferView":0,"byteOffset":24,"componentType":5122,"count":387,"type":"VEC2","name":"part000_vertices#0_TEXCOORD_1"},{"bufferView":0,"byteOffset":28,"componentType":5123,"count":387,"type":"VEC4","name":"part000_vertices#0_COLOR_0"},{"bufferView":1,"componentType":5123,"count":753,"type":"SCALAR","name":"part000_indices#0"},{"bufferView":0,"byteOffset":13932,"componentType":5126,"count":16,"min":[1.1341899633407593,11.199999809265137,-78.76746368408203],"max":[24.0,11.199999809265137,-1.232550024986267],"type":"VEC3","name":"part001_vertices#0_POSITION"},{"bufferView":0,"byteOffset":13944,"componentType":5120,"count":16,"type":"VEC4","name":"part001_vertices#0_TANGENT"},{"bufferView":0,"byteOffset":13948,"componentType":5120,"count":16,"type":"VEC4","name":"part001_vertices#0_NORMAL"},{"bufferView":0,"byteOffset":13952,"componentType":5122,"count":16,"type":"VEC2","name":"part001_vertices#0_TEXCOORD_0"},{"bufferView":0,"byteOffset":13956,"componentType":5122,"count":16,"type":"VEC2","name":"part001_vertices#0_TEXCOORD_1"},{"bufferView":0,"byteOffset":13960,"componentType":5123,"count":16,"type":"VEC4","name":"part001_vertices#0_COLOR_0"},{"bufferView":1,"byteOffset":1506,"componentType":5123,"count":54,"type":"SCALAR","name":"part001_indices#0"},{"bufferView":0,"byteOffset":14508,"componentType":5126,"count":44,"min":[6.123031769111886e-16,12.199999809265137,-79.99999237060547],"max":[25.0,13.199999809265137,2.4492127076447547e-15],"type":"VEC3","name":"part002_vertices#0_POSITION"},{"bufferView":0,"byteOffset":14520,"componentType":5120,"count":44,"type":"VEC4","name":"part002_vertices#0_TANGENT"},{"bufferView":0,"byteOffset":14524,"componentType":5120,"count":44,"type":"VEC4","name":"part002_vertices#0_NORMAL"},{"bufferView":0,"byteOffset":14528,"componentType":5122,"count":44,"type":"VEC2","name":"part002_vertices#0_TEXCOORD_0"},{"bufferView":0,"byteOffset":14532,"componentType":5122,"count":44,"type":"VEC2","name":"part002_vertices#0_TEXCOORD_1"},{"bufferView":0,"byteOffset":14536,"componentType":5123,"count":44,"type":"VEC4","name":"part002_vertices#0_COLOR_0"},{"bufferView":1,"byteOffset":1614,"componentType":5123,"count":66,"type":"SCALAR","name":"part002_indices#0"},{"bufferView":0,"byteOffset":16092,"componentType":5126,"count":146,"min":[6.123031769111886e-16,2.799999952316284,-79.99999237060547],"max":[29.999990463256837,11.199999809265137,2.4492127076447547e-15],"type":"VEC3","name":"part003_vertices#0_POSITION"},{"bufferView":0,"byteOffset":16104,"componentType":5120,"count":146,"type":"VEC4","name":"part003_vertices#0_TANGENT"},{"bufferView":0,"byteOffset":16108,"componentType":5120,"count":146,"type":"VEC4","name":"part003_vertices#0_NORMAL"},{"bufferView":0,"byteOffset":16112,"componentType":5122,"count":146,"type":"VEC2","name":"part003_vertices#0_TEXCOORD_0"},{"bufferView":0,"byteOffset":16116,"componentType":5122,"count":146,"type":"VEC2","name":"part003_vertices#0_TEXCOORD_1"},{"bufferView":0,"byteOffset":16120,"componentType":5123,"count":146,"type":"VEC4","name":"part003_vertices#0_COLOR_0"},{"bufferView":1,"byteOffset":1746,"componentType":5123,"count":354,"type":"SCALAR","name":"part003_indices#0"},{"bufferView":0,"byteOffset":21348,"componentType":5126,"count":64,"min":[0.3968299925327301,2.799999952316284,-72.53401947021485],"max":[4.603169918060303,11.199999809265137,-7.380970001220703],"type":"VEC3","name":"part004_vertices#0_POSITION"},{"bufferView":0,"byteOffset":21360,"componentType":5120,"count":64,"type":"VEC4","name":"part004_vertices#0_TANGENT"},{"bufferView":0,"byteOffset":21364,"componentType":5120,"count":64,"type":"VEC4","name":"part004_vertices#0_NORMAL"},{"bufferView":0,"byteOffset":21368,"componentType":5122,"count":64,"type":"VEC2","name":"part004_vertices#0_TEXCOORD_0"},{"bufferView":0,"byteOffset":21372,"componentType":5122,"count":64,"type":"VEC2","name":"part004_vertices#0_TEXCOORD_1"},{"bufferView":0,"byteOffset":21376,"componentType":5123,"count":64,"type":"VEC4","name":"part004_vertices#0_COLOR_0"},{"bufferView":1,"byteOffset":2454,"componentType":5123,"count":96,"type":"SCALAR","name":"part004_indices#0"},{"bufferView":0,"byteOffset":23652,"componentType":5126,"count":74,"min":[-0.49320000410079958,2.799999952316284,-74.91780853271485],"max":[4.506800174713135,11.199999809265137,-5.082200050354004],"type":"VEC3","name":"part005_vertices#0_POSITION"},{"bufferView":0,"byteOffset":23664,"componentType":5120,"count":74,"type":"VEC4","name":"part005_vertices#0_TANGENT"},{"bufferView":0,"byteOffset":23668,"componentType":5120,"count":74,"type":"VEC4","name":"part005_vertices#0_NORMAL"},{"bufferView":0,"byteOffset":23672,"componentType":5122,"count":74,"type":"VEC2","name":"part005_vertices#0_TEXCOORD_0"},{"bufferView":0,"byteOffset":23676,"componentType":5122,"count":74,"type":"VEC2","name":"part005_vertices#0_TEXCOORD_1"},{"bufferView":0,"byteOffset":23680,"componentType":5123,"count":74,"type":"VEC4","name":"part005_vertices#0_COLOR_0"},{"bufferView":1,"byteOffset":2646,"componentType":5123,"count":114,"type":"SCALAR","name":"part005_indices#0"},{"bufferView":0,"byteOffset":26316,"componentType":5126,"count":12,"min":[4.0,2.799999952316284,-44.917789459228519],"max":[4.506800174713135,11.199999809265137,-35.08219909667969],"type":"VEC3","name":"part006_vertices#0_POSITION"},{"bufferView":0,"byteOffset":26328,"componentType":5120,"count":12,"type":"VEC4","name":"part006_vertices#0_TANGENT"},{"bufferView":0,"byteOffset":26332,"componentType":5120,"count":12,"type":"VEC4","name":"part006_vertices#0_NORMAL"},{"bufferView":0,"byteOffset":26336,"componentType":5122,"count":12,"type":"VEC2","name":"part006_vertices#0_TEXCOORD_0"},{"bufferView":0,"byteOffset":26340,"componentType":5122,"count":12,"type":"VEC2","name":"part006_vertices#0_TEXCOORD_1"},{"bufferView":0,"byteOffset":26344,"componentType":5123,"count":12,"type":"VEC4","name":"part006_vertices#0_COLOR_0"},{"bufferView":1,"byteOffset":2874,"componentType":5123,"count":18,"type":"SCALAR","name":"part006_indices#0"},{"bufferView":0,"byteOffset":26748,"componentType":5126,"count":136,"min":[-0.49320000410079958,2.799999952316284,-75.0],"max":[4.603169918060303,11.199999809265137,-5.0],"type":"VEC3","name":"part007_vertices#0_POSITION"},{"bufferView":0,"byteOffset":26760,"componentType":5120,"count":136,"type":"VEC4","name":"part007_vertices#0_TANGENT"},{"bufferView":0,"byteOffset":26764,"componentType":5120,"count":136,"type":"VEC4","name":"part007_vertices#0_NORMAL"},{"bufferView":0,"byteOffset":26768,"componentType":5122,"count":136,"type":"VEC2","name":"part007_vertices#0_TEXCOORD_0"},{"bufferView":0,"byteOffset":26772,"componentType":5122,"count":136,"type":"VEC2","name":"part007_vertices#0_TEXCOORD_1"},{"bufferView":0,"byteOffset":26776,"componentType":5123,"count":136,"type":"VEC4","name":"part007_vertices#0_COLOR_0"},{"bufferView":1,"byteOffset":2910,"componentType":5123,"count":204,"type":"SCALAR","name":"part007_indices#0"},{"bufferView":0,"byteOffset":31644,"componentType":5126,"count":16,"min":[9.18454765366783e-15,12.199999809265137,-79.99999237060547],"max":[25.0,13.199999809265137,2.4492127076447547e-15],"type":"VEC3","name":"part008_vertices#0_POSITION"},{"bufferView":0,"byteOffset":31656,"componentType":5120,"count":16,"type":"VEC4","name":"part008_vertices#0_TANGENT"},{"bufferView":0,"byteOffset":31660,"componentType":5120,"count":16,"type":"VEC4","name":"part008_vertices#0_NORMAL"},{"bufferView":0,"byteOffset":31664,"componentType":5122,"count":16,"type":"VEC2","name":"part008_vertices#0_TEXCOORD_0"},{"bufferView":0,"byteOffset":31668,"componentType":5122,"count":16,"type":"VEC2","name":"part008_vertices#0_TEXCOORD_1"},{"bufferView":0,"byteOffset":31672,"componentType":5123,"count":16,"type":"VEC4","name":"part008_vertices#0_COLOR_0"},{"bufferView":1,"byteOffset":3318,"componentType":5123,"count":24,"type":"SCALAR","name":"part008_indices#0"},{"bufferView":0,"byteOffset":32220,"componentType":5126,"count":4,"min":[6.123031769111886e-16,12.199999809265137,-5.0],"max":[20.0,13.199999809265137,2.4492127076447547e-15],"type":"VEC3","name":"part009_vertices#0_POSITION"},{"bufferView":0,"byteOffset":32232,"componentType":5120,"count":4,"type":"VEC4","name":"part009_vertices#0_TANGENT"},{"bufferView":0,"byteOffset":32236,"componentType":5120,"count":4,"type":"VEC4","name":"part009_vertices#0_NORMAL"},{"bufferView":0,"byteOffset":32240,"componentType":5122,"count":4,"type":"VEC2","name":"part009_vertices#0_TEXCOORD_0"},{"bufferView":0,"byteOffset":32244,"componentType":5122,"count":4,"type":"VEC2","name":"part009_vertices#0_TEXCOORD_1"},{"bufferView":0,"byteOffset":32248,"componentType":5123,"count":4,"type":"VEC4","name":"part009_vertices#0_COLOR_0"},{"bufferView":1,"byteOffset":3366,"componentType":5123,"count":6,"type":"SCALAR","name":"part009_indices#0"}],"asset":{"generator":"ModelConverterX","version":"2.0","extensions":{"ASOBO_asset_optimized":{"BoundingBoxMax":[29.999990463256837,13.199999809265137,2.4492127076447547e-15],"BoundingBoxMin":[-0.49320000410079958,0.0,-79.99999237060547],"MajorVersion":4,"MinorVersion":4,"UseCheckerboardMaterialForMissingTextures":true,"UseOnlyFilenameForImageURI":true}}},"bufferViews":[{"buffer":0,"byteLength":32364,"byteStride":36,"target":34962,"name":"BufferViewVertexND"},{"buffer":0,"byteLength":3378,"byteOffset":32364,"target":34963,"name":"BufferViewIndex"}],"extensionsRequired":["MSFT_texture_dds"],"materials":[{"name":"material00","pbrMetallicRoughness":{"metallicFactor":0.0},"extensions":{"ASOBO_material_day_night_switch":{}}},{"name":"material01","alphaMode":"BLEND","pbrMetallicRoughness":{"metallicFactor":0.0,"baseColorTexture":{"index":0}},"extensions":{"ASOBO_material_day_night_switch":{}}},{"name":"material02","alphaMode":"BLEND","pbrMetallicRoughness":{"metallicFactor":0.0,"baseColorTexture":{"index":1}},"extensions":{"ASOBO_material_day_night_switch":{}}},{"name":"material03","alphaMode":"BLEND","pbrMetallicRoughness":{"metallicFactor":0.0,"baseColorTexture":{"index":2}},"extensions":{"ASOBO_material_day_night_switch":{}}},{"name":"material04","pbrMetallicRoughness":{"metallicFactor":0.0,"baseColorTexture":{"index":3}},"extensions":{"ASOBO_material_day_night_switch":{}}},{"name":"material05","pbrMetallicRoughness":{"metallicFactor":0.0,"baseColorTexture":{"index":4}},"extensions":{"ASOBO_material_day_night_switch":{}}},{"name":"material06","pbrMetallicRoughness":{"metallicFactor":0.0,"baseColorTexture":{"index":5}},"extensions":{"ASOBO_material_day_night_switch":{}}},{"name":"material07","pbrMetallicRoughness":{"metallicFactor":0.0,"baseColorTexture":{"index":6}},"extensions":{"ASOBO_material_day_night_switch":{}}},{"name":"material08","pbrMetallicRoughness":{"metallicFactor":0.0,"baseColorTexture":{"index":7}},"extensions":{"ASOBO_material_day_night_switch":{}}},{"name":"material09","pbrMetallicRoughness":{"metallicFactor":0.0,"baseColorTexture":{"index":8}},"extensions":{"ASOBO_material_day_night_switch":{}}}],"meshes":[{"primitives":[{"attributes":{"COLOR_0":5,"NORMAL":2,"POSITION":0,"TANGENT":1,"TEXCOORD_0":3,"TEXCOORD_1":4},"indices":6,"material":4,"mode":4,"extras":{"ASOBO_primitive":{"PrimitiveCount":251,"VertexType":"VTX","VertexVersion":2}}}],"name":"part000"},{"primitives":[{"attributes":{"COLOR_0":12,"NORMAL":9,"POSITION":7,"TANGENT":8,"TEXCOORD_0":10,"TEXCOORD_1":11},"indices":13,"material":5,"mode":4,"extras":{"ASOBO_primitive":{"PrimitiveCount":18,"VertexType":"VTX","VertexVersion":2}}}],"name":"part001"},{"primitives":[{"attributes":{"COLOR_0":19,"NORMAL":16,"POSITION":14,"TANGENT":15,"TEXCOORD_0":17,"TEXCOORD_1":18},"indices":20,"material":2,"mode":4,"extras":{"ASOBO_primitive":{"PrimitiveCount":22,"VertexType":"VTX","VertexVersion":2}}}],"name":"part002"},{"primitives":[{"attributes":{"COLOR_0":26,"NORMAL":23,"POSITION":21,"TANGENT":22,"TEXCOORD_0":24,"TEXCOORD_1":25},"indices":27,"material":0,"mode":4,"extras":{"ASOBO_primitive":{"PrimitiveCount":118,"VertexType":"VTX","VertexVersion":2}}}],"name":"part003"},{"primitives":[{"attributes":{"COLOR_0":33,"NORMAL":30,"POSITION":28,"TANGENT":29,"TEXCOORD_0":31,"TEXCOORD_1":32},"indices":34,"material":7,"mode":4,"extras":{"ASOBO_primitive":{"PrimitiveCount":32,"VertexType":"VTX","VertexVersion":2}}}],"name":"part004"},{"primitives":[{"attributes":{"COLOR_0":40,"NORMAL":37,"POSITION":35,"TANGENT":36,"TEXCOORD_0":38,"TEXCOORD_1":39},"indices":41,"material":6,"mode":4,"extras":{"ASOBO_primitive":{"PrimitiveCount":38,"VertexType":"VTX","VertexVersion":2}}}],"name":"part005"},{"primitives":[{"attributes":{"COLOR_0":47,"NORMAL":44,"POSITION":42,"TANGENT":43,"TEXCOORD_0":45,"TEXCOORD_1":46},"indices":48,"material":8,"mode":4,"extras":{"ASOBO_primitive":{"PrimitiveCount":6,"VertexType":"VTX","VertexVersion":2}}}],"name":"part006"},{"primitives":[{"attributes":{"COLOR_0":54,"NORMAL":51,"POSITION":49,"TANGENT":50,"TEXCOORD_0":52,"TEXCOORD_1":53},"indices":55,"material":9,"mode":4,"extras":{"ASOBO_primitive":{"PrimitiveCount":68,"VertexType":"VTX","VertexVersion":2}}}],"name":"part007"},{"primitives":[{"attributes":{"COLOR_0":61,"NORMAL":58,"POSITION":56,"TANGENT":57,"TEXCOORD_0":59,"TEXCOORD_1":60},"indices":62,"material":1,"mode":4,"extras":{"ASOBO_primitive":{"PrimitiveCount":8,"VertexType":"VTX","VertexVersion":2}}}],"name":"part008"},{"primitives":[{"attributes":{"COLOR_0":68,"NORMAL":65,"POSITION":63,"TANGENT":64,"TEXCOORD_0":66,"TEXCOORD_1":67},"indices":69,"material":3,"mode":4,"extras":{"ASOBO_primitive":{"PrimitiveCount":2,"VertexType":"VTX","VertexVersion":2}}}],"name":"part009"}],"nodes":[{"name":"node0","children":[1,2,3,4,5,6,7,8,9,10]},{"mesh":0,"name":"node1"},{"mesh":1,"name":"node2"},{"mesh":2,"name":"node3"},{"mesh":3,"name":"node4"},{"mesh":4,"name":"node5"},{"mesh":5,"name":"node6"},{"mesh":6,"name":"node7"},{"mesh":7,"name":"node8"},{"mesh":8,"name":"node9"},{"mesh":9,"name":"node10"}],"scene":0,"scenes":[{"nodes":[0]}],"textures":[{"extensions":{"MSFT_texture_dds":{"source":0}}},{"extensions":{"MSFT_texture_dds":{"source":1}}},{"extensions":{"MSFT_texture_dds":{"source":2}}},{"extensions":{"MSFT_texture_dds":{"source":3}}},{"extensions":{"MSFT_texture_dds":{"source":4}}},{"extensions":{"MSFT_texture_dds":{"source":5}}},{"extensions":{"MSFT_texture_dds":{"source":6}}},{"extensions":{"MSFT_texture_dds":{"source":7}}},{"extensions":{"MSFT_texture_dds":{"source":8}}}],"extensionsUsed":["ASOBO_material_day_night_switch","MSFT_texture_dds","ASOBO_asset_optimized"],"buffers":[{"byteLength":35742,"uri":"HERZELIAMISRADIM.bin"}],"images":[{"uri":"FENCING_CHAIN_LINK.PNG.DDS","extras":"ASOBO_image_converted_meta"},{"uri":"FENCING_METAL_STRAIGHT.PNG.DDS","extras":"ASOBO_image_converted_meta"},{"uri":"FENCING_RAILING_METAL2.PNG.DDS","extras":"ASOBO_image_converted_meta"},{"uri":"MISRADIMROOF1.PNG.DDS","extras":"ASOBO_image_converted_meta"},{"uri":"MISRADIMROOF2.PNG.DDS","extras":"ASOBO_image_converted_meta"},{"uri":"MISRADIMWALL1.PNG.DDS","extras":"ASOBO_image_converted_meta"},{"uri":"MISRADIMWALL2.PNG.DDS","extras":"ASOBO_image_converted_meta"},{"uri":"MISRADIMWALL3.PNG.DDS","extras":"ASOBO_image_converted_meta"},{"uri":"MISRADIMWALL6.PNG.DDS","extras":"ASOBO_image_converted_meta"}]}
