{"accessors":[{"bufferView":0,"componentType":5126,"count":576,"min":[320.9812316894531,0.0,-393.7180480957031],"max":[720.1273803710938,6.039299964904785,-259.5432434082031],"type":"VEC3","name":"part000_vertices#0_POSITION"},{"bufferView":0,"byteOffset":12,"componentType":5120,"count":576,"type":"VEC4","name":"part000_vertices#0_TANGENT"},{"bufferView":0,"byteOffset":16,"componentType":5120,"count":576,"type":"VEC4","name":"part000_vertices#0_NORMAL"},{"bufferView":0,"byteOffset":20,"componentType":5122,"count":576,"type":"VEC2","name":"part000_vertices#0_TEXCOORD_0"},{"bufferView":0,"byteOffset":24,"componentType":5122,"count":576,"type":"VEC2","name":"part000_vertices#0_TEXCOORD_1"},{"bufferView":0,"byteOffset":28,"componentType":5123,"count":576,"type":"VEC4","name":"part000_vertices#0_COLOR_0"},{"bufferView":1,"componentType":5123,"count":864,"type":"SCALAR","name":"part000_indices#0"},{"bufferView":0,"byteOffset":20736,"componentType":5126,"count":605,"min":[97.07755279541016,-0.02469000034034252,-390.9659729003906],"max":[752.6797485351563,7.7606401443481449,-242.5897674560547],"type":"VEC3","name":"part001_vertices#0_POSITION"},{"bufferView":0,"byteOffset":20748,"componentType":5120,"count":605,"type":"VEC4","name":"part001_vertices#0_TANGENT"},{"bufferView":0,"byteOffset":20752,"componentType":5120,"count":605,"type":"VEC4","name":"part001_vertices#0_NORMAL"},{"bufferView":0,"byteOffset":20756,"componentType":5122,"count":605,"type":"VEC2","name":"part001_vertices#0_TEXCOORD_0"},{"bufferView":0,"byteOffset":20760,"componentType":5122,"count":605,"type":"VEC2","name":"part001_vertices#0_TEXCOORD_1"},{"bufferView":0,"byteOffset":20764,"componentType":5123,"count":605,"type":"VEC4","name":"part001_vertices#0_COLOR_0"},{"bufferView":1,"byteOffset":1728,"componentType":5123,"count":933,"type":"SCALAR","name":"part001_indices#0"},{"bufferView":0,"byteOffset":42516,"componentType":5126,"count":365,"min":[677.7269287109375,0.29686999320983889,-278.2331848144531],"max":[769.146728515625,13.453120231628418,-227.74844360351563],"type":"VEC3","name":"part002_vertices#0_POSITION"},{"bufferView":0,"byteOffset":42528,"componentType":5120,"count":365,"type":"VEC4","name":"part002_vertices#0_TANGENT"},{"bufferView":0,"byteOffset":42532,"componentType":5120,"count":365,"type":"VEC4","name":"part002_vertices#0_NORMAL"},{"bufferView":0,"byteOffset":42536,"componentType":5122,"count":365,"type":"VEC2","name":"part002_vertices#0_TEXCOORD_0"},{"bufferView":0,"byteOffset":42540,"componentType":5122,"count":365,"type":"VEC2","name":"part002_vertices#0_TEXCOORD_1"},{"bufferView":0,"byteOffset":42544,"componentType":5123,"count":365,"type":"VEC4","name":"part002_vertices#0_COLOR_0"},{"bufferView":1,"byteOffset":3594,"componentType":5123,"count":525,"type":"SCALAR","name":"part002_indices#0"},{"bufferView":0,"byteOffset":55656,"componentType":5126,"count":240,"min":[752.2817993164063,7.484370231628418,-247.1493682861328],"max":[761.4021606445313,8.6875,-238.03602600097657],"type":"VEC3","name":"part003_vertices#0_POSITION"},{"bufferView":0,"byteOffset":55668,"componentType":5120,"count":240,"type":"VEC4","name":"part003_vertices#0_TANGENT"},{"bufferView":0,"byteOffset":55672,"componentType":5120,"count":240,"type":"VEC4","name":"part003_vertices#0_NORMAL"},{"bufferView":0,"byteOffset":55676,"componentType":5122,"count":240,"type":"VEC2","name":"part003_vertices#0_TEXCOORD_0"},{"bufferView":0,"byteOffset":55680,"componentType":5122,"count":240,"type":"VEC2","name":"part003_vertices#0_TEXCOORD_1"},{"bufferView":0,"byteOffset":55684,"componentType":5123,"count":240,"type":"VEC4","name":"part003_vertices#0_COLOR_0"},{"bufferView":1,"byteOffset":4644,"componentType":5123,"count":372,"type":"SCALAR","name":"part003_indices#0"},{"bufferView":0,"byteOffset":64296,"componentType":5126,"count":728,"min":[391.8685302734375,-0.7188699841499329,-373.87298583984377],"max":[862.41845703125,16.8593692779541,-195.34910583496095],"type":"VEC3","name":"part004_vertices#0_POSITION"},{"bufferView":0,"byteOffset":64308,"componentType":5120,"count":728,"type":"VEC4","name":"part004_vertices#0_TANGENT"},{"bufferView":0,"byteOffset":64312,"componentType":5120,"count":728,"type":"VEC4","name":"part004_vertices#0_NORMAL"},{"bufferView":0,"byteOffset":64316,"componentType":5122,"count":728,"type":"VEC2","name":"part004_vertices#0_TEXCOORD_0"},{"bufferView":0,"byteOffset":64320,"componentType":5122,"count":728,"type":"VEC2","name":"part004_vertices#0_TEXCOORD_1"},{"bufferView":0,"byteOffset":64324,"componentType":5123,"count":728,"type":"VEC4","name":"part004_vertices#0_COLOR_0"},{"bufferView":1,"byteOffset":5388,"componentType":5123,"count":1116,"type":"SCALAR","name":"part004_indices#0"},{"bufferView":0,"byteOffset":90504,"componentType":5126,"count":360,"min":[689.9163818359375,0.0,-273.1263427734375],"max":[761.4021606445313,13.328120231628418,-238.0522003173828],"type":"VEC3","name":"part005_vertices#0_POSITION"},{"bufferView":0,"byteOffset":90516,"componentType":5120,"count":360,"type":"VEC4","name":"part005_vertices#0_TANGENT"},{"bufferView":0,"byteOffset":90520,"componentType":5120,"count":360,"type":"VEC4","name":"part005_vertices#0_NORMAL"},{"bufferView":0,"byteOffset":90524,"componentType":5122,"count":360,"type":"VEC2","name":"part005_vertices#0_TEXCOORD_0"},{"bufferView":0,"byteOffset":90528,"componentType":5122,"count":360,"type":"VEC2","name":"part005_vertices#0_TEXCOORD_1"},{"bufferView":0,"byteOffset":90532,"componentType":5123,"count":360,"type":"VEC4","name":"part005_vertices#0_COLOR_0"},{"bufferView":1,"byteOffset":7620,"componentType":5123,"count":540,"type":"SCALAR","name":"part005_indices#0"},{"bufferView":0,"byteOffset":103464,"componentType":5126,"count":27,"min":[752.8323974609375,10.65625,-246.72352600097657],"max":[761.0701293945313,10.78125,-238.5009307861328],"type":"VEC3","name":"part006_vertices#0_POSITION"},{"bufferView":0,"byteOffset":103476,"componentType":5120,"count":27,"type":"VEC4","name":"part006_vertices#0_TANGENT"},{"bufferView":0,"byteOffset":103480,"componentType":5120,"count":27,"type":"VEC4","name":"part006_vertices#0_NORMAL"},{"bufferView":0,"byteOffset":103484,"componentType":5122,"count":27,"type":"VEC2","name":"part006_vertices#0_TEXCOORD_0"},{"bufferView":0,"byteOffset":103488,"componentType":5122,"count":27,"type":"VEC2","name":"part006_vertices#0_TEXCOORD_1"},{"bufferView":0,"byteOffset":103492,"componentType":5123,"count":27,"type":"VEC4","name":"part006_vertices#0_COLOR_0"},{"bufferView":1,"byteOffset":8700,"componentType":5123,"count":33,"type":"SCALAR","name":"part006_indices#0"},{"bufferView":0,"byteOffset":104436,"componentType":5126,"count":178,"min":[753.4978637695313,7.593739986419678,-245.90902709960938],"max":[760.3248901367188,8.781240463256836,-239.07798767089845],"type":"VEC3","name":"part007_vertices#0_POSITION"},{"bufferView":0,"byteOffset":104448,"componentType":5120,"count":178,"type":"VEC4","name":"part007_vertices#0_TANGENT"},{"bufferView":0,"byteOffset":104452,"componentType":5120,"count":178,"type":"VEC4","name":"part007_vertices#0_NORMAL"},{"bufferView":0,"byteOffset":104456,"componentType":5122,"count":178,"type":"VEC2","name":"part007_vertices#0_TEXCOORD_0"},{"bufferView":0,"byteOffset":104460,"componentType":5122,"count":178,"type":"VEC2","name":"part007_vertices#0_TEXCOORD_1"},{"bufferView":0,"byteOffset":104464,"componentType":5123,"count":178,"type":"VEC4","name":"part007_vertices#0_COLOR_0"},{"bufferView":1,"byteOffset":8766,"componentType":5123,"count":210,"type":"SCALAR","name":"part007_indices#0"},{"bufferView":0,"byteOffset":110844,"componentType":5126,"count":322,"min":[139.24639892578126,-0.11973000317811966,-424.0439147949219],"max":[223.86558532714845,8.258549690246582,-303.29656982421877],"type":"VEC3","name":"part008_vertices#0_POSITION"},{"bufferView":0,"byteOffset":110856,"componentType":5120,"count":322,"type":"VEC4","name":"part008_vertices#0_TANGENT"},{"bufferView":0,"byteOffset":110860,"componentType":5120,"count":322,"type":"VEC4","name":"part008_vertices#0_NORMAL"},{"bufferView":0,"byteOffset":110864,"componentType":5122,"count":322,"type":"VEC2","name":"part008_vertices#0_TEXCOORD_0"},{"bufferView":0,"byteOffset":110868,"componentType":5122,"count":322,"type":"VEC2","name":"part008_vertices#0_TEXCOORD_1"},{"bufferView":0,"byteOffset":110872,"componentType":5123,"count":322,"type":"VEC4","name":"part008_vertices#0_COLOR_0"},{"bufferView":1,"byteOffset":9186,"componentType":5123,"count":492,"type":"SCALAR","name":"part008_indices#0"},{"bufferView":0,"byteOffset":122436,"componentType":5126,"count":1344,"min":[162.1363525390625,-0.015939999371767045,-421.8105773925781],"max":[223.4588623046875,8.388389587402344,-343.08734130859377],"type":"VEC3","name":"part009_vertices#0_POSITION"},{"bufferView":0,"byteOffset":122448,"componentType":5120,"count":1344,"type":"VEC4","name":"part009_vertices#0_TANGENT"},{"bufferView":0,"byteOffset":122452,"componentType":5120,"count":1344,"type":"VEC4","name":"part009_vertices#0_NORMAL"},{"bufferView":0,"byteOffset":122456,"componentType":5122,"count":1344,"type":"VEC2","name":"part009_vertices#0_TEXCOORD_0"},{"bufferView":0,"byteOffset":122460,"componentType":5122,"count":1344,"type":"VEC2","name":"part009_vertices#0_TEXCOORD_1"},{"bufferView":0,"byteOffset":122464,"componentType":5123,"count":1344,"type":"VEC4","name":"part009_vertices#0_COLOR_0"},{"bufferView":1,"byteOffset":10170,"componentType":5123,"count":2022,"type":"SCALAR","name":"part009_indices#0"},{"bufferView":0,"byteOffset":170820,"componentType":5126,"count":144,"min":[352.3016052246094,0.6685500144958496,-383.5079040527344],"max":[369.4175109863281,6.543230056762695,-368.83477783203127],"type":"VEC3","name":"part010_vertices#0_POSITION"},{"bufferView":0,"byteOffset":170832,"componentType":5120,"count":144,"type":"VEC4","name":"part010_vertices#0_TANGENT"},{"bufferView":0,"byteOffset":170836,"componentType":5120,"count":144,"type":"VEC4","name":"part010_vertices#0_NORMAL"},{"bufferView":0,"byteOffset":170840,"componentType":5122,"count":144,"type":"VEC2","name":"part010_vertices#0_TEXCOORD_0"},{"bufferView":0,"byteOffset":170844,"componentType":5122,"count":144,"type":"VEC2","name":"part010_vertices#0_TEXCOORD_1"},{"bufferView":0,"byteOffset":170848,"componentType":5123,"count":144,"type":"VEC4","name":"part010_vertices#0_COLOR_0"},{"bufferView":1,"byteOffset":14214,"componentType":5123,"count":228,"type":"SCALAR","name":"part010_indices#0"},{"bufferView":0,"byteOffset":176004,"componentType":5126,"count":46,"min":[97.08748626708985,5.212029933929443,-336.383544921875],"max":[138.1474151611328,6.179769992828369,-301.1724548339844],"type":"VEC3","name":"part011_vertices#0_POSITION"},{"bufferView":0,"byteOffset":176016,"componentType":5120,"count":46,"type":"VEC4","name":"part011_vertices#0_TANGENT"},{"bufferView":0,"byteOffset":176020,"componentType":5120,"count":46,"type":"VEC4","name":"part011_vertices#0_NORMAL"},{"bufferView":0,"byteOffset":176024,"componentType":5122,"count":46,"type":"VEC2","name":"part011_vertices#0_TEXCOORD_0"},{"bufferView":0,"byteOffset":176028,"componentType":5122,"count":46,"type":"VEC2","name":"part011_vertices#0_TEXCOORD_1"},{"bufferView":0,"byteOffset":176032,"componentType":5123,"count":46,"type":"VEC4","name":"part011_vertices#0_COLOR_0"},{"bufferView":1,"byteOffset":14670,"componentType":5123,"count":60,"type":"SCALAR","name":"part011_indices#0"},{"bufferView":0,"byteOffset":177660,"componentType":5126,"count":434,"min":[918.0958251953125,-0.06701000034809113,-291.2460632324219],"max":[1176.1136474609376,12.425999641418457,-132.4488983154297],"type":"VEC3","name":"part012_vertices#0_POSITION"},{"bufferView":0,"byteOffset":177672,"componentType":5120,"count":434,"type":"VEC4","name":"part012_vertices#0_TANGENT"},{"bufferView":0,"byteOffset":177676,"componentType":5120,"count":434,"type":"VEC4","name":"part012_vertices#0_NORMAL"},{"bufferView":0,"byteOffset":177680,"componentType":5122,"count":434,"type":"VEC2","name":"part012_vertices#0_TEXCOORD_0"},{"bufferView":0,"byteOffset":177684,"componentType":5122,"count":434,"type":"VEC2","name":"part012_vertices#0_TEXCOORD_1"},{"bufferView":0,"byteOffset":177688,"componentType":5123,"count":434,"type":"VEC4","name":"part012_vertices#0_COLOR_0"},{"bufferView":1,"byteOffset":14790,"componentType":5123,"count":648,"type":"SCALAR","name":"part012_indices#0"}],"asset":{"generator":"ModelConverterX","version":"2.0","extensions":{"ASOBO_asset_optimized":{"BoundingBoxMax":[1176.1136474609376,16.8593692779541,-132.4488983154297],"BoundingBoxMin":[97.07755279541016,-0.7188699841499329,-424.0439147949219],"MajorVersion":4,"MinorVersion":4,"UseCheckerboardMaterialForMissingTextures":true,"UseOnlyFilenameForImageURI":true}}},"bufferViews":[{"buffer":0,"byteLength":193284,"byteStride":36,"target":34962,"name":"BufferViewVertexND"},{"buffer":0,"byteLength":16086,"byteOffset":193284,"target":34963,"name":"BufferViewIndex"}],"extensionsRequired":["MSFT_texture_dds"],"materials":[{"name":"material00","pbrMetallicRoughness":{"baseColorFactor":[0.7490196228027344,0.7490196228027344,0.7490196228027344,1.0],"metallicFactor":0.0},"extensions":{"ASOBO_material_day_night_switch":{}}},{"name":"material01","pbrMetallicRoughness":{"metallicFactor":0.0,"baseColorTexture":{"index":0}},"extensions":{"ASOBO_material_day_night_switch":{}}},{"name":"material02","pbrMetallicRoughness":{"metallicFactor":0.0,"baseColorTexture":{"index":1}},"extensions":{"ASOBO_material_day_night_switch":{}}},{"name":"material03","pbrMetallicRoughness":{"metallicFactor":0.0,"baseColorTexture":{"index":2}},"extensions":{"ASOBO_material_day_night_switch":{}}},{"name":"material04","pbrMetallicRoughness":{"metallicFactor":0.0,"baseColorTexture":{"index":3}},"extensions":{"ASOBO_material_day_night_switch":{}}},{"name":"material05","pbrMetallicRoughness":{"metallicFactor":0.0,"baseColorTexture":{"index":4}},"extensions":{"ASOBO_material_day_night_switch":{}}},{"name":"material06","alphaMode":"BLEND","pbrMetallicRoughness":{"metallicFactor":0.0,"baseColorTexture":{"index":5}},"extensions":{"ASOBO_material_day_night_switch":{}}},{"name":"material07","alphaMode":"BLEND","pbrMetallicRoughness":{"metallicFactor":0.0,"baseColorTexture":{"index":6}},"extensions":{"ASOBO_material_day_night_switch":{}}},{"name":"material08","alphaMode":"BLEND","pbrMetallicRoughness":{"metallicFactor":0.0,"baseColorTexture":{"index":7}},"extensions":{"ASOBO_material_day_night_switch":{}}},{"name":"material09","alphaMode":"BLEND","pbrMetallicRoughness":{"metallicFactor":0.0,"baseColorTexture":{"index":8}},"extensions":{"ASOBO_material_day_night_switch":{}}},{"name":"material10","pbrMetallicRoughness":{"metallicFactor":0.0,"baseColorTexture":{"index":9}},"extensions":{"ASOBO_material_day_night_switch":{}}},{"name":"material11","pbrMetallicRoughness":{"metallicFactor":0.0,"baseColorTexture":{"index":10}},"extensions":{"ASOBO_material_day_night_switch":{}}},{"name":"material12","pbrMetallicRoughness":{"metallicFactor":0.0,"baseColorTexture":{"index":11}},"extensions":{"ASOBO_material_day_night_switch":{}}}],"meshes":[{"primitives":[{"attributes":{"COLOR_0":5,"NORMAL":2,"POSITION":0,"TANGENT":1,"TEXCOORD_0":3,"TEXCOORD_1":4},"indices":6,"material":11,"mode":4,"extras":{"ASOBO_primitive":{"PrimitiveCount":288,"VertexType":"VTX","VertexVersion":2}}}],"name":"part000"},{"primitives":[{"attributes":{"COLOR_0":12,"NORMAL":9,"POSITION":7,"TANGENT":8,"TEXCOORD_0":10,"TEXCOORD_1":11},"indices":13,"material":10,"mode":4,"extras":{"ASOBO_primitive":{"PrimitiveCount":311,"VertexType":"VTX","VertexVersion":2}}}],"name":"part001"},{"primitives":[{"attributes":{"COLOR_0":19,"NORMAL":16,"POSITION":14,"TANGENT":15,"TEXCOORD_0":17,"TEXCOORD_1":18},"indices":20,"material":9,"mode":4,"extras":{"ASOBO_primitive":{"PrimitiveCount":175,"VertexType":"VTX","VertexVersion":2}}}],"name":"part002"},{"primitives":[{"attributes":{"COLOR_0":26,"NORMAL":23,"POSITION":21,"TANGENT":22,"TEXCOORD_0":24,"TEXCOORD_1":25},"indices":27,"material":8,"mode":4,"extras":{"ASOBO_primitive":{"PrimitiveCount":124,"VertexType":"VTX","VertexVersion":2}}}],"name":"part003"},{"primitives":[{"attributes":{"COLOR_0":33,"NORMAL":30,"POSITION":28,"TANGENT":29,"TEXCOORD_0":31,"TEXCOORD_1":32},"indices":34,"material":2,"mode":4,"extras":{"ASOBO_primitive":{"PrimitiveCount":372,"VertexType":"VTX","VertexVersion":2}}}],"name":"part004"},{"primitives":[{"attributes":{"COLOR_0":40,"NORMAL":37,"POSITION":35,"TANGENT":36,"TEXCOORD_0":38,"TEXCOORD_1":39},"indices":41,"material":0,"mode":4,"extras":{"ASOBO_primitive":{"PrimitiveCount":180,"VertexType":"VTX","VertexVersion":2}}}],"name":"part005"},{"primitives":[{"attributes":{"COLOR_0":47,"NORMAL":44,"POSITION":42,"TANGENT":43,"TEXCOORD_0":45,"TEXCOORD_1":46},"indices":48,"material":1,"mode":4,"extras":{"ASOBO_primitive":{"PrimitiveCount":11,"VertexType":"VTX","VertexVersion":2}}}],"name":"part006"},{"primitives":[{"attributes":{"COLOR_0":54,"NORMAL":51,"POSITION":49,"TANGENT":50,"TEXCOORD_0":52,"TEXCOORD_1":53},"indices":55,"material":7,"mode":4,"extras":{"ASOBO_primitive":{"PrimitiveCount":70,"VertexType":"VTX","VertexVersion":2}}}],"name":"part007"},{"primitives":[{"attributes":{"COLOR_0":61,"NORMAL":58,"POSITION":56,"TANGENT":57,"TEXCOORD_0":59,"TEXCOORD_1":60},"indices":62,"material":12,"mode":4,"extras":{"ASOBO_primitive":{"PrimitiveCount":164,"VertexType":"VTX","VertexVersion":2}}}],"name":"part008"},{"primitives":[{"attributes":{"COLOR_0":68,"NORMAL":65,"POSITION":63,"TANGENT":64,"TEXCOORD_0":66,"TEXCOORD_1":67},"indices":69,"material":3,"mode":4,"extras":{"ASOBO_primitive":{"PrimitiveCount":674,"VertexType":"VTX","VertexVersion":2}}}],"name":"part009"},{"primitives":[{"attributes":{"COLOR_0":75,"NORMAL":72,"POSITION":70,"TANGENT":71,"TEXCOORD_0":73,"TEXCOORD_1":74},"indices":76,"material":4,"mode":4,"extras":{"ASOBO_primitive":{"PrimitiveCount":76,"VertexType":"VTX","VertexVersion":2}}}],"name":"part010"},{"primitives":[{"attributes":{"COLOR_0":82,"NORMAL":79,"POSITION":77,"TANGENT":78,"TEXCOORD_0":80,"TEXCOORD_1":81},"indices":83,"material":5,"mode":4,"extras":{"ASOBO_primitive":{"PrimitiveCount":20,"VertexType":"VTX","VertexVersion":2}}}],"name":"part011"},{"primitives":[{"attributes":{"COLOR_0":89,"NORMAL":86,"POSITION":84,"TANGENT":85,"TEXCOORD_0":87,"TEXCOORD_1":88},"indices":90,"material":6,"mode":4,"extras":{"ASOBO_primitive":{"PrimitiveCount":216,"VertexType":"VTX","VertexVersion":2}}}],"name":"part012"}],"nodes":[{"name":"node0","children":[1,2,3,4,5,6,7,8,9,10,11,12,13]},{"mesh":0,"name":"node1"},{"mesh":1,"name":"node2"},{"mesh":2,"name":"node3"},{"mesh":3,"name":"node4"},{"mesh":4,"name":"node5"},{"mesh":5,"name":"node6"},{"mesh":6,"name":"node7"},{"mesh":7,"name":"node8"},{"mesh":8,"name":"node9"},{"mesh":9,"name":"node10"},{"mesh":10,"name":"node11"},{"mesh":11,"name":"node12"},{"mesh":12,"name":"node13"}],"scene":0,"scenes":[{"nodes":[0]}],"textures":[{"extensions":{"MSFT_texture_dds":{"source":0}}},{"extensions":{"MSFT_texture_dds":{"source":1}}},{"extensions":{"MSFT_texture_dds":{"source":2}}},{"extensions":{"MSFT_texture_dds":{"source":3}}},{"extensions":{"MSFT_texture_dds":{"source":4}}},{"extensions":{"MSFT_texture_dds":{"source":5}}},{"extensions":{"MSFT_texture_dds":{"source":6}}},{"extensions":{"MSFT_texture_dds":{"source":7}}},{"extensions":{"MSFT_texture_dds":{"source":8}}},{"extensions":{"MSFT_texture_dds":{"source":9}}},{"extensions":{"MSFT_texture_dds":{"source":10}}},{"extensions":{"MSFT_texture_dds":{"source":11}}}],"extensionsUsed":["ASOBO_material_day_night_switch","MSFT_texture_dds","ASOBO_asset_optimized"],"buffers":[{"byteLength":209370,"uri":"LLHZ_Combined.bin"}],"images":[{"uri":"LLHZ_OBJECTS___AUTO_.PNG.DDS","extras":"ASOBO_image_converted_meta"},{"uri":"LLHZ_OBJECTS___AUTO_1.PNG.DDS","extras":"ASOBO_image_converted_meta"},{"uri":"LLHZ_OBJECTS___AUTO_10.PNG.DDS","extras":"ASOBO_image_converted_meta"},{"uri":"LLHZ_OBJECTS___AUTO_11.PNG.DDS","extras":"ASOBO_image_converted_meta"},{"uri":"LLHZ_OBJECTS___AUTO_12.PNG.DDS","extras":"ASOBO_image_converted_meta"},{"uri":"LLHZ_OBJECTS___AUTO_14.PNG.DDS","extras":"ASOBO_image_converted_meta"},{"uri":"LLHZ_OBJECTS___AUTO_3.PNG.DDS","extras":"ASOBO_image_converted_meta"},{"uri":"LLHZ_OBJECTS___AUTO_4.PNG.DDS","extras":"ASOBO_image_converted_meta"},{"uri":"LLHZ_OBJECTS___AUTO_5.PNG.DDS","extras":"ASOBO_image_converted_meta"},{"uri":"LLHZ_OBJECTS___AUTO_6.PNG.DDS","extras":"ASOBO_image_converted_meta"},{"uri":"LLHZ_OBJECTS___AUTO_7.PNG.DDS","extras":"ASOBO_image_converted_meta"},{"uri":"LLHZ_OBJECTS___AUTO_9.PNG.DDS","extras":"ASOBO_image_converted_meta"}]}
