{"accessors":[{"bufferView":0,"componentType":5126,"count":615,"min":[0.0,0.0,-20.200000762939454],"max":[20.0,13.5,0.20000000298023225],"type":"VEC3","name":"part000_vertices#0_POSITION"},{"bufferView":0,"byteOffset":12,"componentType":5120,"count":615,"type":"VEC4","name":"part000_vertices#0_TANGENT"},{"bufferView":0,"byteOffset":16,"componentType":5120,"count":615,"type":"VEC4","name":"part000_vertices#0_NORMAL"},{"bufferView":0,"byteOffset":20,"componentType":5122,"count":615,"type":"VEC2","name":"part000_vertices#0_TEXCOORD_0"},{"bufferView":0,"byteOffset":24,"componentType":5122,"count":615,"type":"VEC2","name":"part000_vertices#0_TEXCOORD_1"},{"bufferView":0,"byteOffset":28,"componentType":5123,"count":615,"type":"VEC4","name":"part000_vertices#0_COLOR_0"},{"bufferView":1,"componentType":5123,"count":1236,"type":"SCALAR","name":"part000_indices#0"},{"bufferView":0,"byteOffset":22140,"componentType":5126,"count":67,"min":[0.0,2.5999999046325685,-20.0],"max":[20.0,11.399999618530274,0.0],"type":"VEC3","name":"part001_vertices#0_POSITION"},{"bufferView":0,"byteOffset":22152,"componentType":5120,"count":67,"type":"VEC4","name":"part001_vertices#0_TANGENT"},{"bufferView":0,"byteOffset":22156,"componentType":5120,"count":67,"type":"VEC4","name":"part001_vertices#0_NORMAL"},{"bufferView":0,"byteOffset":22160,"componentType":5122,"count":67,"type":"VEC2","name":"part001_vertices#0_TEXCOORD_0"},{"bufferView":0,"byteOffset":22164,"componentType":5122,"count":67,"type":"VEC2","name":"part001_vertices#0_TEXCOORD_1"},{"bufferView":0,"byteOffset":22168,"componentType":5123,"count":67,"type":"VEC4","name":"part001_vertices#0_COLOR_0"},{"bufferView":1,"byteOffset":2472,"componentType":5123,"count":153,"type":"SCALAR","name":"part001_indices#0"},{"bufferView":0,"byteOffset":24552,"componentType":5126,"count":634,"min":[0.0,10.399999618530274,-20.200000762939454],"max":[20.0,13.5,0.20000000298023225],"type":"VEC3","name":"part002_vertices#0_POSITION"},{"bufferView":0,"byteOffset":24564,"componentType":5120,"count":634,"type":"VEC4","name":"part002_vertices#0_TANGENT"},{"bufferView":0,"byteOffset":24568,"componentType":5120,"count":634,"type":"VEC4","name":"part002_vertices#0_NORMAL"},{"bufferView":0,"byteOffset":24572,"componentType":5122,"count":634,"type":"VEC2","name":"part002_vertices#0_TEXCOORD_0"},{"bufferView":0,"byteOffset":24576,"componentType":5122,"count":634,"type":"VEC2","name":"part002_vertices#0_TEXCOORD_1"},{"bufferView":0,"byteOffset":24580,"componentType":5123,"count":634,"type":"VEC4","name":"part002_vertices#0_COLOR_0"},{"bufferView":1,"byteOffset":2778,"componentType":5123,"count":1632,"type":"SCALAR","name":"part002_indices#0"},{"bufferView":0,"byteOffset":47376,"componentType":5126,"count":225,"min":[3.5693399906158449,0.0,-20.700000762939454],"max":[19.5,11.399999618530274,0.699999988079071],"type":"VEC3","name":"part003_vertices#0_POSITION"},{"bufferView":0,"byteOffset":47388,"componentType":5120,"count":225,"type":"VEC4","name":"part003_vertices#0_TANGENT"},{"bufferView":0,"byteOffset":47392,"componentType":5120,"count":225,"type":"VEC4","name":"part003_vertices#0_NORMAL"},{"bufferView":0,"byteOffset":47396,"componentType":5122,"count":225,"type":"VEC2","name":"part003_vertices#0_TEXCOORD_0"},{"bufferView":0,"byteOffset":47400,"componentType":5122,"count":225,"type":"VEC2","name":"part003_vertices#0_TEXCOORD_1"},{"bufferView":0,"byteOffset":47404,"componentType":5123,"count":225,"type":"VEC4","name":"part003_vertices#0_COLOR_0"},{"bufferView":1,"byteOffset":6042,"componentType":5123,"count":339,"type":"SCALAR","name":"part003_indices#0"},{"bufferView":0,"byteOffset":55476,"componentType":5126,"count":28,"min":[0.009999999776482582,11.399999618530274,-20.0],"max":[9.760000228881836,12.149999618530274,-13.319999694824219],"type":"VEC3","name":"part004_vertices#0_POSITION"},{"bufferView":0,"byteOffset":55488,"componentType":5120,"count":28,"type":"VEC4","name":"part004_vertices#0_TANGENT"},{"bufferView":0,"byteOffset":55492,"componentType":5120,"count":28,"type":"VEC4","name":"part004_vertices#0_NORMAL"},{"bufferView":0,"byteOffset":55496,"componentType":5122,"count":28,"type":"VEC2","name":"part004_vertices#0_TEXCOORD_0"},{"bufferView":0,"byteOffset":55500,"componentType":5122,"count":28,"type":"VEC2","name":"part004_vertices#0_TEXCOORD_1"},{"bufferView":0,"byteOffset":55504,"componentType":5123,"count":28,"type":"VEC4","name":"part004_vertices#0_COLOR_0"},{"bufferView":1,"byteOffset":6720,"componentType":5123,"count":66,"type":"SCALAR","name":"part004_indices#0"},{"bufferView":0,"byteOffset":56484,"componentType":5126,"count":27,"min":[0.009999999776482582,10.399999618530274,-20.0],"max":[0.5099999904632568,11.399999618530274,-13.319999694824219],"type":"VEC3","name":"part005_vertices#0_POSITION"},{"bufferView":0,"byteOffset":56496,"componentType":5120,"count":27,"type":"VEC4","name":"part005_vertices#0_TANGENT"},{"bufferView":0,"byteOffset":56500,"componentType":5120,"count":27,"type":"VEC4","name":"part005_vertices#0_NORMAL"},{"bufferView":0,"byteOffset":56504,"componentType":5122,"count":27,"type":"VEC2","name":"part005_vertices#0_TEXCOORD_0"},{"bufferView":0,"byteOffset":56508,"componentType":5122,"count":27,"type":"VEC2","name":"part005_vertices#0_TEXCOORD_1"},{"bufferView":0,"byteOffset":56512,"componentType":5123,"count":27,"type":"VEC4","name":"part005_vertices#0_COLOR_0"},{"bufferView":1,"byteOffset":6852,"componentType":5123,"count":72,"type":"SCALAR","name":"part005_indices#0"},{"bufferView":0,"byteOffset":57456,"componentType":5126,"count":56,"min":[3.5693399906158449,2.6879799365997316,-20.700000762939454],"max":[16.407150268554689,8.965439796447754,0.699999988079071],"type":"VEC3","name":"part006_vertices#0_POSITION"},{"bufferView":0,"byteOffset":57468,"componentType":5120,"count":56,"type":"VEC4","name":"part006_vertices#0_TANGENT"},{"bufferView":0,"byteOffset":57472,"componentType":5120,"count":56,"type":"VEC4","name":"part006_vertices#0_NORMAL"},{"bufferView":0,"byteOffset":57476,"componentType":5122,"count":56,"type":"VEC2","name":"part006_vertices#0_TEXCOORD_0"},{"bufferView":0,"byteOffset":57480,"componentType":5122,"count":56,"type":"VEC2","name":"part006_vertices#0_TEXCOORD_1"},{"bufferView":0,"byteOffset":57484,"componentType":5123,"count":56,"type":"VEC4","name":"part006_vertices#0_COLOR_0"},{"bufferView":1,"byteOffset":6996,"componentType":5123,"count":84,"type":"SCALAR","name":"part006_indices#0"},{"bufferView":0,"byteOffset":59472,"componentType":5126,"count":110,"min":[0.0,2.5999999046325685,-20.200000762939454],"max":[20.0,10.399999618530274,0.20000000298023225],"type":"VEC3","name":"part007_vertices#0_POSITION"},{"bufferView":0,"byteOffset":59484,"componentType":5120,"count":110,"type":"VEC4","name":"part007_vertices#0_TANGENT"},{"bufferView":0,"byteOffset":59488,"componentType":5120,"count":110,"type":"VEC4","name":"part007_vertices#0_NORMAL"},{"bufferView":0,"byteOffset":59492,"componentType":5122,"count":110,"type":"VEC2","name":"part007_vertices#0_TEXCOORD_0"},{"bufferView":0,"byteOffset":59496,"componentType":5122,"count":110,"type":"VEC2","name":"part007_vertices#0_TEXCOORD_1"},{"bufferView":0,"byteOffset":59500,"componentType":5123,"count":110,"type":"VEC4","name":"part007_vertices#0_COLOR_0"},{"bufferView":1,"byteOffset":7164,"componentType":5123,"count":348,"type":"SCALAR","name":"part007_indices#0"},{"bufferView":0,"byteOffset":63432,"componentType":5126,"count":612,"min":[0.0,0.0,-20.200000762939454],"max":[20.0,2.5999999046325685,0.20000000298023225],"type":"VEC3","name":"part008_vertices#0_POSITION"},{"bufferView":0,"byteOffset":63444,"componentType":5120,"count":612,"type":"VEC4","name":"part008_vertices#0_TANGENT"},{"bufferView":0,"byteOffset":63448,"componentType":5120,"count":612,"type":"VEC4","name":"part008_vertices#0_NORMAL"},{"bufferView":0,"byteOffset":63452,"componentType":5122,"count":612,"type":"VEC2","name":"part008_vertices#0_TEXCOORD_0"},{"bufferView":0,"byteOffset":63456,"componentType":5122,"count":612,"type":"VEC2","name":"part008_vertices#0_TEXCOORD_1"},{"bufferView":0,"byteOffset":63460,"componentType":5123,"count":612,"type":"VEC4","name":"part008_vertices#0_COLOR_0"},{"bufferView":1,"byteOffset":7860,"componentType":5123,"count":1080,"type":"SCALAR","name":"part008_indices#0"},{"bufferView":0,"byteOffset":85464,"componentType":5126,"count":12,"min":[5.0,2.5999999046325685,-13.319999694824219],"max":[15.0,10.399999618530274,-6.659999847412109],"type":"VEC3","name":"part009_vertices#0_POSITION"},{"bufferView":0,"byteOffset":85476,"componentType":5120,"count":12,"type":"VEC4","name":"part009_vertices#0_TANGENT"},{"bufferView":0,"byteOffset":85480,"componentType":5120,"count":12,"type":"VEC4","name":"part009_vertices#0_NORMAL"},{"bufferView":0,"byteOffset":85484,"componentType":5122,"count":12,"type":"VEC2","name":"part009_vertices#0_TEXCOORD_0"},{"bufferView":0,"byteOffset":85488,"componentType":5122,"count":12,"type":"VEC2","name":"part009_vertices#0_TEXCOORD_1"},{"bufferView":0,"byteOffset":85492,"componentType":5123,"count":12,"type":"VEC4","name":"part009_vertices#0_COLOR_0"},{"bufferView":1,"byteOffset":10020,"componentType":5123,"count":24,"type":"SCALAR","name":"part009_indices#0"},{"bufferView":0,"byteOffset":85896,"componentType":5126,"count":48,"min":[5.0,0.0,-13.819999694824219],"max":[15.0,2.5999999046325685,-6.159999847412109],"type":"VEC3","name":"part010_vertices#0_POSITION"},{"bufferView":0,"byteOffset":85908,"componentType":5120,"count":48,"type":"VEC4","name":"part010_vertices#0_TANGENT"},{"bufferView":0,"byteOffset":85912,"componentType":5120,"count":48,"type":"VEC4","name":"part010_vertices#0_NORMAL"},{"bufferView":0,"byteOffset":85916,"componentType":5122,"count":48,"type":"VEC2","name":"part010_vertices#0_TEXCOORD_0"},{"bufferView":0,"byteOffset":85920,"componentType":5122,"count":48,"type":"VEC2","name":"part010_vertices#0_TEXCOORD_1"},{"bufferView":0,"byteOffset":85924,"componentType":5123,"count":48,"type":"VEC4","name":"part010_vertices#0_COLOR_0"},{"bufferView":1,"byteOffset":10068,"componentType":5123,"count":102,"type":"SCALAR","name":"part010_indices#0"},{"bufferView":0,"byteOffset":87624,"componentType":5126,"count":10,"min":[0.009999999776482582,11.399999618530274,-20.0],"max":[9.760000228881836,12.149999618530274,-20.0],"type":"VEC3","name":"part011_vertices#0_POSITION"},{"bufferView":0,"byteOffset":87636,"componentType":5120,"count":10,"type":"VEC4","name":"part011_vertices#0_TANGENT"},{"bufferView":0,"byteOffset":87640,"componentType":5120,"count":10,"type":"VEC4","name":"part011_vertices#0_NORMAL"},{"bufferView":0,"byteOffset":87644,"componentType":5122,"count":10,"type":"VEC2","name":"part011_vertices#0_TEXCOORD_0"},{"bufferView":0,"byteOffset":87648,"componentType":5122,"count":10,"type":"VEC2","name":"part011_vertices#0_TEXCOORD_1"},{"bufferView":0,"byteOffset":87652,"componentType":5123,"count":10,"type":"VEC4","name":"part011_vertices#0_COLOR_0"},{"bufferView":1,"byteOffset":10272,"componentType":5123,"count":24,"type":"SCALAR","name":"part011_indices#0"}],"asset":{"generator":"ModelConverterX","version":"2.0","extensions":{"ASOBO_asset_optimized":{"BoundingBoxMax":[20.0,13.5,0.699999988079071],"BoundingBoxMin":[0.0,0.0,-20.700000762939454],"MajorVersion":4,"MinorVersion":4,"UseCheckerboardMaterialForMissingTextures":true,"UseOnlyFilenameForImageURI":true}}},"bufferViews":[{"buffer":0,"byteLength":87984,"byteStride":36,"target":34962,"name":"BufferViewVertexND"},{"buffer":0,"byteLength":10320,"byteOffset":87984,"target":34963,"name":"BufferViewIndex"}],"extensionsRequired":["MSFT_texture_dds"],"materials":[{"name":"glTF_Material","pbrMetallicRoughness":{"metallicFactor":0.0,"baseColorTexture":{"index":0}}},{"name":"glTF_Materialx","pbrMetallicRoughness":{"metallicFactor":0.0,"baseColorTexture":{"index":1}}},{"name":"glTF_Materialxx","pbrMetallicRoughness":{"metallicFactor":0.0}},{"name":"glTF_Materialxxx","alphaMode":"BLEND","pbrMetallicRoughness":{"metallicFactor":0.0,"baseColorTexture":{"index":2}}},{"name":"glTF_Materialxxxx","alphaMode":"BLEND","pbrMetallicRoughness":{"metallicFactor":0.0,"baseColorTexture":{"index":3}}},{"name":"glTF_Materialxxxxx","pbrMetallicRoughness":{"metallicFactor":0.0,"baseColorTexture":{"index":4}}},{"name":"glTF_Materialxxxxxx","pbrMetallicRoughness":{"metallicFactor":0.0,"baseColorTexture":{"index":5}}},{"name":"glTF_Materialxxxxxxx","pbrMetallicRoughness":{"metallicFactor":0.0,"baseColorTexture":{"index":6}}},{"name":"glTF_Materialxxxxxxxx","pbrMetallicRoughness":{"metallicFactor":0.0,"baseColorTexture":{"index":7}}},{"name":"glTF_Materialxxxxxxxxx","pbrMetallicRoughness":{"metallicFactor":0.0,"baseColorTexture":{"index":8}}},{"name":"glTF_Materialxxxxxxxxxx","pbrMetallicRoughness":{"metallicFactor":0.0,"baseColorTexture":{"index":9}}},{"name":"glTF_Materialxxxxxxxxxxx","pbrMetallicRoughness":{"metallicFactor":0.0,"baseColorTexture":{"index":10}}}],"meshes":[{"primitives":[{"attributes":{"COLOR_0":5,"NORMAL":2,"POSITION":0,"TANGENT":1,"TEXCOORD_0":3,"TEXCOORD_1":4},"indices":6,"material":2,"mode":4,"extras":{"ASOBO_primitive":{"PrimitiveCount":412,"VertexType":"VTX","VertexVersion":2}}}],"name":"part000"},{"primitives":[{"attributes":{"COLOR_0":12,"NORMAL":9,"POSITION":7,"TANGENT":8,"TEXCOORD_0":10,"TEXCOORD_1":11},"indices":13,"material":9,"mode":4,"extras":{"ASOBO_primitive":{"PrimitiveCount":51,"VertexType":"VTX","VertexVersion":2}}}],"name":"part001"},{"primitives":[{"attributes":{"COLOR_0":19,"NORMAL":16,"POSITION":14,"TANGENT":15,"TEXCOORD_0":17,"TEXCOORD_1":18},"indices":20,"material":6,"mode":4,"extras":{"ASOBO_primitive":{"PrimitiveCount":544,"VertexType":"VTX","VertexVersion":2}}}],"name":"part002"},{"primitives":[{"attributes":{"COLOR_0":26,"NORMAL":23,"POSITION":21,"TANGENT":22,"TEXCOORD_0":24,"TEXCOORD_1":25},"indices":27,"material":1,"mode":4,"extras":{"ASOBO_primitive":{"PrimitiveCount":113,"VertexType":"VTX","VertexVersion":2}}}],"name":"part003"},{"primitives":[{"attributes":{"COLOR_0":33,"NORMAL":30,"POSITION":28,"TANGENT":29,"TEXCOORD_0":31,"TEXCOORD_1":32},"indices":34,"material":4,"mode":4,"extras":{"ASOBO_primitive":{"PrimitiveCount":22,"VertexType":"VTX","VertexVersion":2}}}],"name":"part004"},{"primitives":[{"attributes":{"COLOR_0":40,"NORMAL":37,"POSITION":35,"TANGENT":36,"TEXCOORD_0":38,"TEXCOORD_1":39},"indices":41,"material":10,"mode":4,"extras":{"ASOBO_primitive":{"PrimitiveCount":24,"VertexType":"VTX","VertexVersion":2}}}],"name":"part005"},{"primitives":[{"attributes":{"COLOR_0":47,"NORMAL":44,"POSITION":42,"TANGENT":43,"TEXCOORD_0":45,"TEXCOORD_1":46},"indices":48,"material":0,"mode":4,"extras":{"ASOBO_primitive":{"PrimitiveCount":28,"VertexType":"VTX","VertexVersion":2}}}],"name":"part006"},{"primitives":[{"attributes":{"COLOR_0":54,"NORMAL":51,"POSITION":49,"TANGENT":50,"TEXCOORD_0":52,"TEXCOORD_1":53},"indices":55,"material":7,"mode":4,"extras":{"ASOBO_primitive":{"PrimitiveCount":116,"VertexType":"VTX","VertexVersion":2}}}],"name":"part007"},{"primitives":[{"attributes":{"COLOR_0":61,"NORMAL":58,"POSITION":56,"TANGENT":57,"TEXCOORD_0":59,"TEXCOORD_1":60},"indices":62,"material":5,"mode":4,"extras":{"ASOBO_primitive":{"PrimitiveCount":360,"VertexType":"VTX","VertexVersion":2}}}],"name":"part008"},{"primitives":[{"attributes":{"COLOR_0":68,"NORMAL":65,"POSITION":63,"TANGENT":64,"TEXCOORD_0":66,"TEXCOORD_1":67},"indices":69,"material":8,"mode":4,"extras":{"ASOBO_primitive":{"PrimitiveCount":8,"VertexType":"VTX","VertexVersion":2}}}],"name":"part009"},{"primitives":[{"attributes":{"COLOR_0":75,"NORMAL":72,"POSITION":70,"TANGENT":71,"TEXCOORD_0":73,"TEXCOORD_1":74},"indices":76,"material":11,"mode":4,"extras":{"ASOBO_primitive":{"PrimitiveCount":34,"VertexType":"VTX","VertexVersion":2}}}],"name":"part010"},{"primitives":[{"attributes":{"COLOR_0":82,"NORMAL":79,"POSITION":77,"TANGENT":78,"TEXCOORD_0":80,"TEXCOORD_1":81},"indices":83,"material":3,"mode":4,"extras":{"ASOBO_primitive":{"PrimitiveCount":8,"VertexType":"VTX","VertexVersion":2}}}],"name":"part011"}],"nodes":[{"name":"node0","children":[1,2,3,4,5,6,7,8,9,10,11,12]},{"mesh":0,"name":"node1"},{"mesh":1,"name":"node2"},{"mesh":2,"name":"node3"},{"mesh":3,"name":"node4"},{"mesh":4,"name":"node5"},{"mesh":5,"name":"node6"},{"mesh":6,"name":"node7"},{"mesh":7,"name":"node8"},{"mesh":8,"name":"node9"},{"mesh":9,"name":"node10"},{"mesh":10,"name":"node11"},{"mesh":11,"name":"node12"}],"scene":0,"scenes":[{"nodes":[0]}],"textures":[{"extensions":{"MSFT_texture_dds":{"source":0}}},{"extensions":{"MSFT_texture_dds":{"source":1}}},{"extensions":{"MSFT_texture_dds":{"source":2}}},{"extensions":{"MSFT_texture_dds":{"source":3}}},{"extensions":{"MSFT_texture_dds":{"source":4}}},{"extensions":{"MSFT_texture_dds":{"source":5}}},{"extensions":{"MSFT_texture_dds":{"source":6}}},{"extensions":{"MSFT_texture_dds":{"source":7}}},{"extensions":{"MSFT_texture_dds":{"source":8}}},{"extensions":{"MSFT_texture_dds":{"source":9}}},{"extensions":{"MSFT_texture_dds":{"source":10}}}],"extensionsUsed":["MSFT_texture_dds","ASOBO_asset_optimized"],"buffers":[{"byteLength":98304,"uri":"BUILDINGFINALOLD3.bin"}],"images":[{"uri":"AC.PNG.DDS","extras":"ASOBO_image_converted_meta"},{"uri":"AC1.PNG.DDS","extras":"ASOBO_image_converted_meta"},{"uri":"FENCING_METAL_STRAIGHT.PNG.DDS","extras":"ASOBO_image_converted_meta"},{"uri":"FENCING_RAILING_METAL2.PNG.DDS","extras":"ASOBO_image_converted_meta"},{"uri":"LEG.PNG.DDS","extras":"ASOBO_image_converted_meta"},{"uri":"OLD2WALL5.PNG.DDS","extras":"ASOBO_image_converted_meta"},{"uri":"OLD3WALL.PNG.DDS","extras":"ASOBO_image_converted_meta"},{"uri":"OLD3WALL2.PNG.DDS","extras":"ASOBO_image_converted_meta"},{"uri":"OLD3WALL3.PNG.DDS","extras":"ASOBO_image_converted_meta"},{"uri":"OLD3WALL7.PNG.DDS","extras":"ASOBO_image_converted_meta"},{"uri":"OLDWALL4.PNG.DDS","extras":"ASOBO_image_converted_meta"}]}
