{
  "asset": {
    "version": "2.0",
    "generator": "ModelConverterX"
  },
  "extensionsUsed": [
    "ASOBO_material_day_night_switch"
  ],
  "scene": 0,
  "scenes": [
    {
      "nodes": [
        0
      ]
    }
  ],
  "nodes": [
    {
      "name": "node0",
      "children": [
        1
      ]
    },
    {
      "name": "node1",
      "mesh": 0
    }
  ],
  "meshes": [
    {
      "primitives": [
        {
          "attributes": {
            "POSITION": 0,
            "NORMAL": 1,
            "TEXCOORD_0": 2
          },
          "indices": 3,
          "mode": 4,
          "material": 0
        }
      ],
      "name": "part000"
    }
  ],
  "accessors": [
    {
      "bufferView": 1,
      "byteOffset": 0,
      "componentType": 5126,
      "count": 734,
      "type": "VEC3",
      "min": [
        -3.8372800350189209,
        -0.0030400000978261232,
        -1.5521899461746216
      ],
      "max": [
        3.8372800350189209,
        2.7886700630187988,
        1.5586899518966675
      ]
    },
    {
      "bufferView": 2,
      "byteOffset": 0,
      "componentType": 5126,
      "count": 734,
      "type": "VEC3"
    },
    {
      "bufferView": 3,
      "byteOffset": 0,
      "componentType": 5126,
      "count": 734,
      "type": "VEC2"
    },
    {
      "bufferView": 0,
      "byteOffset": 0,
      "componentType": 5125,
      "count": 2814,
      "type": "SCALAR"
    }
  ],
  "materials": [
    {
      "name": "material00",
      "pbrMetallicRoughness": {
        "baseColorFactor": [
          0.58799999952316284,
          0.58799999952316284,
          0.58799999952316284,
          1.0
        ],
        "roughnessFactor": 1.0,
        "metallicFactor": 0.0,
        "baseColorTexture": {
          "index": 0
        }
      },
      "emissiveFactor": [
        1.0,
        1.0,
        1.0
      ],
      "emissiveTexture": {
        "index": 1
      },
      "extensions": {
        "ASOBO_material_day_night_switch": {
          "enabled": true
        }
      }
    }
  ],
  "textures": [
    {
      "source": 0,
      "name": "ambulance"
    },
    {
      "source": 1,
      "name": "ambulance_lm"
    }
  ],
  "images": [
    {
      "uri": "ambulance.png"
    },
    {
      "uri": "ambulance_lm.png"
    }
  ],
  "bufferViews": [
    {
      "buffer": 0,
      "byteOffset": 0,
      "byteLength": 11256
    },
    {
      "buffer": 0,
      "byteOffset": 11256,
      "byteLength": 8808,
      "byteStride": 12
    },
    {
      "buffer": 0,
      "byteOffset": 20064,
      "byteLength": 8808,
      "byteStride": 12
    },
    {
      "buffer": 0,
      "byteOffset": 28872,
      "byteLength": 5872,
      "byteStride": 8
    }
  ],
  "buffers": [
    {
      "byteLength": 34744,
      "uri": "Ambulanceherz.bin"
    }
  ]
}