{
  "asset": {
    "version": "2.0",
    "generator": "ModelConverterX"
  },
  "extensionsUsed": [
    "ASOBO_material_day_night_switch"
  ],
  "scene": 0,
  "scenes": [
    {
      "nodes": [
        0
      ]
    }
  ],
  "nodes": [
    {
      "name": "node0",
      "children": [
        1
      ]
    },
    {
      "name": "node1",
      "mesh": 0
    }
  ],
  "meshes": [
    {
      "primitives": [
        {
          "attributes": {
            "POSITION": 0,
            "NORMAL": 1,
            "TEXCOORD_0": 2
          },
          "indices": 3,
          "mode": 4,
          "material": 0
        }
      ],
      "name": "part000"
    }
  ],
  "accessors": [
    {
      "bufferView": 1,
      "byteOffset": 0,
      "componentType": 5126,
      "count": 326,
      "type": "VEC3",
      "min": [
        -124.01979827880859,
        -0.71886998414993286,
        -4.081510066986084
      ],
      "max": [
        -42.951271057128906,
        6.0515198707580566,
        20.012229919433594
      ]
    },
    {
      "bufferView": 2,
      "byteOffset": 0,
      "componentType": 5126,
      "count": 326,
      "type": "VEC3"
    },
    {
      "bufferView": 3,
      "byteOffset": 0,
      "componentType": 5126,
      "count": 326,
      "type": "VEC2"
    },
    {
      "bufferView": 0,
      "byteOffset": 0,
      "componentType": 5125,
      "count": 516,
      "type": "SCALAR"
    }
  ],
  "materials": [
    {
      "name": "material00",
      "pbrMetallicRoughness": {
        "baseColorFactor": [
          0.58799999952316284,
          0.58799999952316284,
          0.58799999952316284,
          1.0
        ],
        "roughnessFactor": 1.0,
        "metallicFactor": 0.0,
        "baseColorTexture": {
          "index": 0
        }
      },
      "emissiveFactor": [
        1.0,
        1.0,
        1.0
      ],
      "emissiveTexture": {
        "index": 1
      },
      "extensions": {
        "ASOBO_material_day_night_switch": {
          "enabled": true
        }
      }
    }
  ],
  "textures": [
    {
      "source": 0,
      "name": "avia_moonair"
    },
    {
      "source": 1,
      "name": "avia_moonair_lm"
    }
  ],
  "images": [
    {
      "uri": "avia_moonair.png"
    },
    {
      "uri": "avia_moonair_lm.png"
    }
  ],
  "bufferViews": [
    {
      "buffer": 0,
      "byteOffset": 0,
      "byteLength": 2064
    },
    {
      "buffer": 0,
      "byteOffset": 2064,
      "byteLength": 3912,
      "byteStride": 12
    },
    {
      "buffer": 0,
      "byteOffset": 5976,
      "byteLength": 3912,
      "byteStride": 12
    },
    {
      "buffer": 0,
      "byteOffset": 9888,
      "byteLength": 2608,
      "byteStride": 8
    }
  ],
  "buffers": [
    {
      "byteLength": 12496,
      "uri": "Avia_Moonair.bin"
    }
  ]
}