{
  "asset": {
    "version": "2.0",
    "generator": "ModelConverterX"
  },
  "extensionsUsed": [
    "ASOBO_material_day_night_switch"
  ],
  "scene": 0,
  "scenes": [
    {
      "nodes": [
        0
      ]
    }
  ],
  "nodes": [
    {
      "name": "node0",
      "children": [
        1,
        2,
        3,
        4,
        5,
        6,
        7,
        8,
        9,
        10,
        11
      ]
    },
    {
      "name": "node1",
      "mesh": 0
    },
    {
      "name": "node2",
      "mesh": 1
    },
    {
      "name": "node3",
      "mesh": 2
    },
    {
      "name": "node4",
      "mesh": 3
    },
    {
      "name": "node5",
      "mesh": 4
    },
    {
      "name": "node6",
      "mesh": 5
    },
    {
      "name": "node7",
      "mesh": 6
    },
    {
      "name": "node8",
      "mesh": 7
    },
    {
      "name": "node9",
      "mesh": 8
    },
    {
      "name": "node10",
      "mesh": 9
    },
    {
      "name": "node11",
      "mesh": 10
    }
  ],
  "meshes": [
    {
      "primitives": [
        {
          "attributes": {
            "POSITION": 0,
            "NORMAL": 1,
            "TEXCOORD_0": 2
          },
          "indices": 3,
          "mode": 4,
          "material": 3
        }
      ],
      "name": "part000"
    },
    {
      "primitives": [
        {
          "attributes": {
            "POSITION": 4,
            "NORMAL": 5,
            "TEXCOORD_0": 6
          },
          "indices": 7,
          "mode": 4,
          "material": 0
        }
      ],
      "name": "part001"
    },
    {
      "primitives": [
        {
          "attributes": {
            "POSITION": 8,
            "NORMAL": 9,
            "TEXCOORD_0": 10
          },
          "indices": 11,
          "mode": 4,
          "material": 1
        }
      ],
      "name": "part002"
    },
    {
      "primitives": [
        {
          "attributes": {
            "POSITION": 12,
            "NORMAL": 13,
            "TEXCOORD_0": 14
          },
          "indices": 15,
          "mode": 4,
          "material": 5
        }
      ],
      "name": "part003"
    },
    {
      "primitives": [
        {
          "attributes": {
            "POSITION": 16,
            "NORMAL": 17,
            "TEXCOORD_0": 18
          },
          "indices": 19,
          "mode": 4,
          "material": 9
        }
      ],
      "name": "part004"
    },
    {
      "primitives": [
        {
          "attributes": {
            "POSITION": 20,
            "NORMAL": 21,
            "TEXCOORD_0": 22
          },
          "indices": 23,
          "mode": 4,
          "material": 8
        }
      ],
      "name": "part005"
    },
    {
      "primitives": [
        {
          "attributes": {
            "POSITION": 24,
            "NORMAL": 25,
            "TEXCOORD_0": 26
          },
          "indices": 27,
          "mode": 4,
          "material": 4
        }
      ],
      "name": "part006"
    },
    {
      "primitives": [
        {
          "attributes": {
            "POSITION": 28,
            "NORMAL": 29,
            "TEXCOORD_0": 30
          },
          "indices": 31,
          "mode": 4,
          "material": 6
        }
      ],
      "name": "part007"
    },
    {
      "primitives": [
        {
          "attributes": {
            "POSITION": 32,
            "NORMAL": 33,
            "TEXCOORD_0": 34
          },
          "indices": 35,
          "mode": 4,
          "material": 10
        }
      ],
      "name": "part008"
    },
    {
      "primitives": [
        {
          "attributes": {
            "POSITION": 36,
            "NORMAL": 37,
            "TEXCOORD_0": 38
          },
          "indices": 39,
          "mode": 4,
          "material": 2
        }
      ],
      "name": "part009"
    },
    {
      "primitives": [
        {
          "attributes": {
            "POSITION": 40,
            "NORMAL": 41,
            "TEXCOORD_0": 42
          },
          "indices": 43,
          "mode": 4,
          "material": 7
        }
      ],
      "name": "part010"
    }
  ],
  "accessors": [
    {
      "bufferView": 1,
      "byteOffset": 0,
      "componentType": 5126,
      "count": 711,
      "type": "VEC3",
      "min": [
        0.0,
        0.0,
        -20.200000762939453
      ],
      "max": [
        20.0,
        11.399999618530273,
        0.20000000298023224
      ]
    },
    {
      "bufferView": 2,
      "byteOffset": 0,
      "componentType": 5126,
      "count": 711,
      "type": "VEC3"
    },
    {
      "bufferView": 3,
      "byteOffset": 0,
      "componentType": 5126,
      "count": 711,
      "type": "VEC2"
    },
    {
      "bufferView": 0,
      "byteOffset": 0,
      "componentType": 5125,
      "count": 1485,
      "type": "SCALAR"
    },
    {
      "bufferView": 1,
      "byteOffset": 8532,
      "componentType": 5126,
      "count": 136,
      "type": "VEC3",
      "min": [
        -0.5,
        2.8792901039123535,
        -20.5
      ],
      "max": [
        20.5,
        9.2985801696777344,
        0.5
      ]
    },
    {
      "bufferView": 2,
      "byteOffset": 8532,
      "componentType": 5126,
      "count": 136,
      "type": "VEC3"
    },
    {
      "bufferView": 3,
      "byteOffset": 5688,
      "componentType": 5126,
      "count": 136,
      "type": "VEC2"
    },
    {
      "bufferView": 0,
      "byteOffset": 5940,
      "componentType": 5125,
      "count": 204,
      "type": "SCALAR"
    },
    {
      "bufferView": 1,
      "byteOffset": 10164,
      "componentType": 5126,
      "count": 673,
      "type": "VEC3",
      "min": [
        -0.5,
        0.0,
        -20.5
      ],
      "max": [
        20.5,
        11.399999618530273,
        0.5
      ]
    },
    {
      "bufferView": 2,
      "byteOffset": 10164,
      "componentType": 5126,
      "count": 673,
      "type": "VEC3"
    },
    {
      "bufferView": 3,
      "byteOffset": 6776,
      "componentType": 5126,
      "count": 673,
      "type": "VEC2"
    },
    {
      "bufferView": 0,
      "byteOffset": 6756,
      "componentType": 5125,
      "count": 1011,
      "type": "SCALAR"
    },
    {
      "bufferView": 1,
      "byteOffset": 18240,
      "componentType": 5126,
      "count": 492,
      "type": "VEC3",
      "min": [
        0.0,
        10.399999618530273,
        -20.200000762939453
      ],
      "max": [
        20.0,
        11.399999618530273,
        0.20000000298023224
      ]
    },
    {
      "bufferView": 2,
      "byteOffset": 18240,
      "componentType": 5126,
      "count": 492,
      "type": "VEC3"
    },
    {
      "bufferView": 3,
      "byteOffset": 12160,
      "componentType": 5126,
      "count": 492,
      "type": "VEC2"
    },
    {
      "bufferView": 0,
      "byteOffset": 10800,
      "componentType": 5125,
      "count": 1266,
      "type": "SCALAR"
    },
    {
      "bufferView": 1,
      "byteOffset": 24144,
      "componentType": 5126,
      "count": 70,
      "type": "VEC3",
      "min": [
        5.0,
        0.0,
        -13.819999694824219
      ],
      "max": [
        15.0,
        10.399999618530273,
        -6.1599998474121094
      ]
    },
    {
      "bufferView": 2,
      "byteOffset": 24144,
      "componentType": 5126,
      "count": 70,
      "type": "VEC3"
    },
    {
      "bufferView": 3,
      "byteOffset": 16096,
      "componentType": 5126,
      "count": 70,
      "type": "VEC2"
    },
    {
      "bufferView": 0,
      "byteOffset": 15864,
      "componentType": 5125,
      "count": 147,
      "type": "SCALAR"
    },
    {
      "bufferView": 1,
      "byteOffset": 24984,
      "componentType": 5126,
      "count": 59,
      "type": "VEC3",
      "min": [
        0.0,
        0.0,
        -20.0
      ],
      "max": [
        20.0,
        10.399999618530273,
        0.0
      ]
    },
    {
      "bufferView": 2,
      "byteOffset": 24984,
      "componentType": 5126,
      "count": 59,
      "type": "VEC3"
    },
    {
      "bufferView": 3,
      "byteOffset": 16656,
      "componentType": 5126,
      "count": 59,
      "type": "VEC2"
    },
    {
      "bufferView": 0,
      "byteOffset": 16452,
      "componentType": 5125,
      "count": 153,
      "type": "SCALAR"
    },
    {
      "bufferView": 1,
      "byteOffset": 25692,
      "componentType": 5126,
      "count": 624,
      "type": "VEC3",
      "min": [
        0.0,
        0.0,
        -20.200000762939453
      ],
      "max": [
        20.0,
        11.399999618530273,
        0.20000000298023224
      ]
    },
    {
      "bufferView": 2,
      "byteOffset": 25692,
      "componentType": 5126,
      "count": 624,
      "type": "VEC3"
    },
    {
      "bufferView": 3,
      "byteOffset": 17128,
      "componentType": 5126,
      "count": 624,
      "type": "VEC2"
    },
    {
      "bufferView": 0,
      "byteOffset": 17064,
      "componentType": 5125,
      "count": 1104,
      "type": "SCALAR"
    },
    {
      "bufferView": 1,
      "byteOffset": 33180,
      "componentType": 5126,
      "count": 50,
      "type": "VEC3",
      "min": [
        0.0,
        2.5999999046325684,
        -20.200000762939453
      ],
      "max": [
        20.0,
        10.399999618530273,
        0.20000000298023224
      ]
    },
    {
      "bufferView": 2,
      "byteOffset": 33180,
      "componentType": 5126,
      "count": 50,
      "type": "VEC3"
    },
    {
      "bufferView": 3,
      "byteOffset": 22120,
      "componentType": 5126,
      "count": 50,
      "type": "VEC2"
    },
    {
      "bufferView": 0,
      "byteOffset": 21480,
      "componentType": 5125,
      "count": 102,
      "type": "SCALAR"
    },
    {
      "bufferView": 1,
      "byteOffset": 33780,
      "componentType": 5126,
      "count": 8,
      "type": "VEC3",
      "min": [
        6.1463298797607422,
        2.5999999046325684,
        -20.200000762939453
      ],
      "max": [
        13.887470245361328,
        10.399999618530273,
        0.20000000298023224
      ]
    },
    {
      "bufferView": 2,
      "byteOffset": 33780,
      "componentType": 5126,
      "count": 8,
      "type": "VEC3"
    },
    {
      "bufferView": 3,
      "byteOffset": 22520,
      "componentType": 5126,
      "count": 8,
      "type": "VEC2"
    },
    {
      "bufferView": 0,
      "byteOffset": 21888,
      "componentType": 5125,
      "count": 12,
      "type": "SCALAR"
    },
    {
      "bufferView": 1,
      "byteOffset": 33876,
      "componentType": 5126,
      "count": 16,
      "type": "VEC3",
      "min": [
        4.5,
        3.3136599063873291,
        -9.3943500518798828
      ],
      "max": [
        15.5,
        9.0431299209594727,
        -7.5291399955749512
      ]
    },
    {
      "bufferView": 2,
      "byteOffset": 33876,
      "componentType": 5126,
      "count": 16,
      "type": "VEC3"
    },
    {
      "bufferView": 3,
      "byteOffset": 22584,
      "componentType": 5126,
      "count": 16,
      "type": "VEC2"
    },
    {
      "bufferView": 0,
      "byteOffset": 21936,
      "componentType": 5125,
      "count": 24,
      "type": "SCALAR"
    },
    {
      "bufferView": 1,
      "byteOffset": 34068,
      "componentType": 5126,
      "count": 42,
      "type": "VEC3",
      "min": [
        8.155878019995501E-16,
        2.5999999046325684,
        -20.0
      ],
      "max": [
        20.0,
        10.399999618530273,
        2.4492127076447545E-15
      ]
    },
    {
      "bufferView": 2,
      "byteOffset": 34068,
      "componentType": 5126,
      "count": 42,
      "type": "VEC3"
    },
    {
      "bufferView": 3,
      "byteOffset": 22712,
      "componentType": 5126,
      "count": 42,
      "type": "VEC2"
    },
    {
      "bufferView": 0,
      "byteOffset": 22032,
      "componentType": 5125,
      "count": 102,
      "type": "SCALAR"
    }
  ],
  "materials": [
    {
      "name": "material00",
      "pbrMetallicRoughness": {
        "baseColorFactor": [
          1.0,
          1.0,
          1.0,
          1.0
        ],
        "roughnessFactor": 1.0,
        "metallicFactor": 0.0,
        "baseColorTexture": {
          "index": 0
        }
      },
      "emissiveFactor": [
        0.0,
        0.0,
        0.0
      ],
      "extensions": {
        "ASOBO_material_day_night_switch": {
          "enabled": true
        }
      }
    },
    {
      "name": "material01",
      "pbrMetallicRoughness": {
        "baseColorFactor": [
          1.0,
          1.0,
          1.0,
          1.0
        ],
        "roughnessFactor": 1.0,
        "metallicFactor": 0.0,
        "baseColorTexture": {
          "index": 1
        }
      },
      "emissiveFactor": [
        0.0,
        0.0,
        0.0
      ],
      "extensions": {
        "ASOBO_material_day_night_switch": {
          "enabled": true
        }
      }
    },
    {
      "name": "material02",
      "pbrMetallicRoughness": {
        "baseColorFactor": [
          1.0,
          1.0,
          1.0,
          1.0
        ],
        "roughnessFactor": 1.0,
        "metallicFactor": 0.0,
        "baseColorTexture": {
          "index": 2
        }
      },
      "emissiveFactor": [
        0.0,
        0.0,
        0.0
      ],
      "extensions": {
        "ASOBO_material_day_night_switch": {
          "enabled": true
        }
      }
    },
    {
      "name": "material03",
      "pbrMetallicRoughness": {
        "baseColorFactor": [
          1.0,
          1.0,
          1.0,
          1.0
        ],
        "roughnessFactor": 1.0,
        "metallicFactor": 0.0
      },
      "emissiveFactor": [
        0.0,
        0.0,
        0.0
      ],
      "extensions": {
        "ASOBO_material_day_night_switch": {
          "enabled": true
        }
      }
    },
    {
      "name": "material04",
      "pbrMetallicRoughness": {
        "baseColorFactor": [
          1.0,
          1.0,
          1.0,
          1.0
        ],
        "roughnessFactor": 1.0,
        "metallicFactor": 0.0,
        "baseColorTexture": {
          "index": 3
        }
      },
      "emissiveFactor": [
        0.0,
        0.0,
        0.0
      ],
      "extensions": {
        "ASOBO_material_day_night_switch": {
          "enabled": true
        }
      }
    },
    {
      "name": "material05",
      "pbrMetallicRoughness": {
        "baseColorFactor": [
          1.0,
          1.0,
          1.0,
          1.0
        ],
        "roughnessFactor": 1.0,
        "metallicFactor": 0.0,
        "baseColorTexture": {
          "index": 4
        }
      },
      "emissiveFactor": [
        0.0,
        0.0,
        0.0
      ],
      "extensions": {
        "ASOBO_material_day_night_switch": {
          "enabled": true
        }
      }
    },
    {
      "name": "material06",
      "pbrMetallicRoughness": {
        "baseColorFactor": [
          1.0,
          1.0,
          1.0,
          1.0
        ],
        "roughnessFactor": 1.0,
        "metallicFactor": 0.0,
        "baseColorTexture": {
          "index": 5
        }
      },
      "emissiveFactor": [
        0.0,
        0.0,
        0.0
      ],
      "extensions": {
        "ASOBO_material_day_night_switch": {
          "enabled": true
        }
      }
    },
    {
      "name": "material07",
      "pbrMetallicRoughness": {
        "baseColorFactor": [
          1.0,
          1.0,
          1.0,
          1.0
        ],
        "roughnessFactor": 1.0,
        "metallicFactor": 0.0,
        "baseColorTexture": {
          "index": 6
        }
      },
      "emissiveFactor": [
        0.0,
        0.0,
        0.0
      ],
      "extensions": {
        "ASOBO_material_day_night_switch": {
          "enabled": true
        }
      }
    },
    {
      "name": "material08",
      "pbrMetallicRoughness": {
        "baseColorFactor": [
          1.0,
          1.0,
          1.0,
          1.0
        ],
        "roughnessFactor": 1.0,
        "metallicFactor": 0.0,
        "baseColorTexture": {
          "index": 7
        }
      },
      "emissiveFactor": [
        0.0,
        0.0,
        0.0
      ],
      "extensions": {
        "ASOBO_material_day_night_switch": {
          "enabled": true
        }
      }
    },
    {
      "name": "material09",
      "pbrMetallicRoughness": {
        "baseColorFactor": [
          1.0,
          1.0,
          1.0,
          1.0
        ],
        "roughnessFactor": 1.0,
        "metallicFactor": 0.0,
        "baseColorTexture": {
          "index": 8
        }
      },
      "emissiveFactor": [
        0.0,
        0.0,
        0.0
      ],
      "extensions": {
        "ASOBO_material_day_night_switch": {
          "enabled": true
        }
      }
    },
    {
      "name": "material10",
      "pbrMetallicRoughness": {
        "baseColorFactor": [
          1.0,
          1.0,
          1.0,
          1.0
        ],
        "roughnessFactor": 1.0,
        "metallicFactor": 0.0,
        "baseColorTexture": {
          "index": 9
        }
      },
      "emissiveFactor": [
        0.0,
        0.0,
        0.0
      ],
      "extensions": {
        "ASOBO_material_day_night_switch": {
          "enabled": true
        }
      }
    }
  ],
  "textures": [
    {
      "source": 0,
      "name": "ac"
    },
    {
      "source": 1,
      "name": "ac1"
    },
    {
      "source": 2,
      "name": "ac2"
    },
    {
      "source": 3,
      "name": "leg"
    },
    {
      "source": 4,
      "name": "old2wall5"
    },
    {
      "source": 5,
      "name": "oldwall"
    },
    {
      "source": 6,
      "name": "oldwall1"
    },
    {
      "source": 7,
      "name": "oldwall3"
    },
    {
      "source": 8,
      "name": "oldwall4"
    },
    {
      "source": 9,
      "name": "shadow"
    }
  ],
  "images": [
    {
      "uri": "ac.png"
    },
    {
      "uri": "ac1.png"
    },
    {
      "uri": "ac2.png"
    },
    {
      "uri": "leg.png"
    },
    {
      "uri": "old2wall5.png"
    },
    {
      "uri": "oldwall.png"
    },
    {
      "uri": "oldwall1.png"
    },
    {
      "uri": "oldwall3.png"
    },
    {
      "uri": "oldwall4.png"
    },
    {
      "uri": "shadow.png"
    }
  ],
  "bufferViews": [
    {
      "buffer": 0,
      "byteOffset": 0,
      "byteLength": 22440
    },
    {
      "buffer": 0,
      "byteOffset": 22440,
      "byteLength": 34572,
      "byteStride": 12
    },
    {
      "buffer": 0,
      "byteOffset": 57012,
      "byteLength": 34572,
      "byteStride": 12
    },
    {
      "buffer": 0,
      "byteOffset": 91584,
      "byteLength": 23048,
      "byteStride": 8
    }
  ],
  "buffers": [
    {
      "byteLength": 114632,
      "uri": "BUILDINGFINALOLD.bin"
    }
  ]
}