{
  "asset": {
    "version": "2.0",
    "generator": "ModelConverterX"
  },
  "extensionsUsed": [
    "ASOBO_material_day_night_switch"
  ],
  "scene": 0,
  "scenes": [
    {
      "nodes": [
        0
      ]
    }
  ],
  "nodes": [
    {
      "name": "node0",
      "children": [
        1
      ]
    },
    {
      "name": "node1",
      "mesh": 0
    }
  ],
  "meshes": [
    {
      "primitives": [
        {
          "attributes": {
            "POSITION": 0,
            "NORMAL": 1,
            "TEXCOORD_0": 2
          },
          "indices": 3,
          "mode": 4,
          "material": 0
        }
      ],
      "name": "part000"
    }
  ],
  "accessors": [
    {
      "bufferView": 1,
      "byteOffset": 0,
      "componentType": 5126,
      "count": 1220,
      "type": "VEC3",
      "min": [
        -3.136970043182373,
        0.0081900004297494888,
        -1.8112599849700928
      ],
      "max": [
        3.136970043182373,
        3.8502199649810791,
        1.8112599849700928
      ]
    },
    {
      "bufferView": 2,
      "byteOffset": 0,
      "componentType": 5126,
      "count": 1220,
      "type": "VEC3"
    },
    {
      "bufferView": 3,
      "byteOffset": 0,
      "componentType": 5126,
      "count": 1220,
      "type": "VEC2"
    },
    {
      "bufferView": 0,
      "byteOffset": 0,
      "componentType": 5125,
      "count": 2676,
      "type": "SCALAR"
    }
  ],
  "materials": [
    {
      "name": "material00",
      "pbrMetallicRoughness": {
        "baseColorFactor": [
          0.58799999952316284,
          0.58799999952316284,
          0.58799999952316284,
          1.0
        ],
        "roughnessFactor": 1.0,
        "metallicFactor": 0.0,
        "baseColorTexture": {
          "index": 0
        }
      },
      "emissiveFactor": [
        1.0,
        1.0,
        1.0
      ],
      "emissiveTexture": {
        "index": 1
      },
      "extensions": {
        "ASOBO_material_day_night_switch": {
          "enabled": true
        }
      }
    }
  ],
  "textures": [
    {
      "source": 0,
      "name": "fire_truck2"
    },
    {
      "source": 1,
      "name": "fire_truck2_lm"
    }
  ],
  "images": [
    {
      "uri": "fire_truck2.png"
    },
    {
      "uri": "fire_truck2_lm.png"
    }
  ],
  "bufferViews": [
    {
      "buffer": 0,
      "byteOffset": 0,
      "byteLength": 10704
    },
    {
      "buffer": 0,
      "byteOffset": 10704,
      "byteLength": 14640,
      "byteStride": 12
    },
    {
      "buffer": 0,
      "byteOffset": 25344,
      "byteLength": 14640,
      "byteStride": 12
    },
    {
      "buffer": 0,
      "byteOffset": 39984,
      "byteLength": 9760,
      "byteStride": 8
    }
  ],
  "buffers": [
    {
      "byteLength": 49744,
      "uri": "Fire_truck2.bin"
    }
  ]
}