{
  "asset": {
    "version": "2.0",
    "generator": "ModelConverterX"
  },
  "extensionsUsed": [
    "ASOBO_material_day_night_switch"
  ],
  "scene": 0,
  "scenes": [
    {
      "nodes": [
        0
      ]
    }
  ],
  "nodes": [
    {
      "name": "node0",
      "children": [
        1,
        2
      ]
    },
    {
      "name": "node1",
      "mesh": 0
    },
    {
      "name": "node2",
      "mesh": 1
    }
  ],
  "meshes": [
    {
      "primitives": [
        {
          "attributes": {
            "POSITION": 0,
            "NORMAL": 1,
            "TEXCOORD_0": 2
          },
          "indices": 3,
          "mode": 4,
          "material": 1
        }
      ],
      "name": "part000"
    },
    {
      "primitives": [
        {
          "attributes": {
            "POSITION": 4,
            "NORMAL": 5,
            "TEXCOORD_0": 6
          },
          "indices": 7,
          "mode": 4,
          "material": 0
        }
      ],
      "name": "part001"
    }
  ],
  "accessors": [
    {
      "bufferView": 1,
      "byteOffset": 0,
      "componentType": 5126,
      "count": 215,
      "type": "VEC3",
      "min": [
        -6.6228342056274414,
        0.036159947514534,
        5.2306270599365234
      ],
      "max": [
        24.521825790405273,
        7.0296506881713867,
        45.708213806152344
      ]
    },
    {
      "bufferView": 2,
      "byteOffset": 0,
      "componentType": 5126,
      "count": 215,
      "type": "VEC3"
    },
    {
      "bufferView": 3,
      "byteOffset": 0,
      "componentType": 5126,
      "count": 215,
      "type": "VEC2"
    },
    {
      "bufferView": 0,
      "byteOffset": 0,
      "componentType": 5125,
      "count": 345,
      "type": "SCALAR"
    },
    {
      "bufferView": 1,
      "byteOffset": 2580,
      "componentType": 5126,
      "count": 14,
      "type": "VEC3",
      "min": [
        -6.6228342056274414,
        5.9322109222412109,
        5.2306270599365234
      ],
      "max": [
        24.521825790405273,
        7.0296506881713867,
        45.691146850585938
      ]
    },
    {
      "bufferView": 2,
      "byteOffset": 2580,
      "componentType": 5126,
      "count": 14,
      "type": "VEC3"
    },
    {
      "bufferView": 3,
      "byteOffset": 1720,
      "componentType": 5126,
      "count": 14,
      "type": "VEC2"
    },
    {
      "bufferView": 0,
      "byteOffset": 1380,
      "componentType": 5125,
      "count": 18,
      "type": "SCALAR"
    }
  ],
  "materials": [
    {
      "name": "__",
      "pbrMetallicRoughness": {
        "baseColorFactor": [
          1.0,
          1.0,
          1.0,
          1.0
        ],
        "roughnessFactor": 1.0,
        "metallicFactor": 1.0,
        "baseColorTexture": {
          "index": 0
        }
      },
      "emissiveFactor": [
        0.0,
        0.0,
        0.0
      ],
      "extensions": {
        "ASOBO_material_day_night_switch": {
          "enabled": true
        }
      }
    },
    {
      "name": "FNA3",
      "pbrMetallicRoughness": {
        "baseColorFactor": [
          1.0,
          1.0,
          1.0,
          1.0
        ],
        "roughnessFactor": 1.0,
        "metallicFactor": 1.0,
        "baseColorTexture": {
          "index": 1
        }
      },
      "emissiveFactor": [
        0.0,
        0.0,
        0.0
      ],
      "extensions": {
        "ASOBO_material_day_night_switch": {
          "enabled": true
        }
      }
    }
  ],
  "textures": [
    {
      "source": 0,
      "name": "vertical_square_iron"
    },
    {
      "source": 1,
      "name": "fna3"
    }
  ],
  "images": [
    {
      "uri": "vertical_square_iron.png"
    },
    {
      "uri": "fna3.png"
    }
  ],
  "bufferViews": [
    {
      "buffer": 0,
      "byteOffset": 0,
      "byteLength": 1452
    },
    {
      "buffer": 0,
      "byteOffset": 1452,
      "byteLength": 2748,
      "byteStride": 12
    },
    {
      "buffer": 0,
      "byteOffset": 4200,
      "byteLength": 2748,
      "byteStride": 12
    },
    {
      "buffer": 0,
      "byteOffset": 6948,
      "byteLength": 1832,
      "byteStride": 8
    }
  ],
  "buffers": [
    {
      "byteLength": 8780,
      "uri": "fna3.bin"
    }
  ]
}