{
  "asset": {
    "version": "2.0",
    "generator": "ModelConverterX"
  },
  "extensionsUsed": [
    "ASOBO_material_day_night_switch"
  ],
  "scene": 0,
  "scenes": [
    {
      "nodes": [
        0
      ]
    }
  ],
  "nodes": [
    {
      "name": "node0",
      "children": [
        1,
        2
      ]
    },
    {
      "name": "node1",
      "mesh": 0
    },
    {
      "name": "node2",
      "mesh": 1
    }
  ],
  "meshes": [
    {
      "primitives": [
        {
          "attributes": {
            "POSITION": 0,
            "NORMAL": 1,
            "TEXCOORD_0": 2
          },
          "indices": 3,
          "mode": 4,
          "material": 0
        }
      ],
      "name": "part000"
    },
    {
      "primitives": [
        {
          "attributes": {
            "POSITION": 4,
            "NORMAL": 5,
            "TEXCOORD_0": 6
          },
          "indices": 7,
          "mode": 4,
          "material": 1
        }
      ],
      "name": "part001"
    }
  ],
  "accessors": [
    {
      "bufferView": 1,
      "byteOffset": 0,
      "componentType": 5126,
      "count": 60,
      "type": "VEC3",
      "min": [
        -26.032760620117188,
        0.0,
        -60.017288208007813
      ],
      "max": [
        -18.190240859985352,
        2.5,
        2.9727699756622314
      ]
    },
    {
      "bufferView": 2,
      "byteOffset": 0,
      "componentType": 5126,
      "count": 60,
      "type": "VEC3"
    },
    {
      "bufferView": 3,
      "byteOffset": 0,
      "componentType": 5126,
      "count": 60,
      "type": "VEC2"
    },
    {
      "bufferView": 0,
      "byteOffset": 0,
      "componentType": 5125,
      "count": 90,
      "type": "SCALAR"
    },
    {
      "bufferView": 1,
      "byteOffset": 720,
      "componentType": 5126,
      "count": 314,
      "type": "VEC3",
      "min": [
        -26.002370834350586,
        0.0,
        -78.626876831054688
      ],
      "max": [
        3.5302000045776367,
        4.2916698455810547,
        7.2989501953125
      ]
    },
    {
      "bufferView": 2,
      "byteOffset": 720,
      "componentType": 5126,
      "count": 314,
      "type": "VEC3"
    },
    {
      "bufferView": 3,
      "byteOffset": 480,
      "componentType": 5126,
      "count": 314,
      "type": "VEC2"
    },
    {
      "bufferView": 0,
      "byteOffset": 360,
      "componentType": 5125,
      "count": 552,
      "type": "SCALAR"
    }
  ],
  "materials": [
    {
      "name": "material00",
      "pbrMetallicRoughness": {
        "baseColorFactor": [
          0.58799999952316284,
          0.58799999952316284,
          0.58799999952316284,
          1.0
        ],
        "roughnessFactor": 1.0,
        "metallicFactor": 0.0,
        "baseColorTexture": {
          "index": 0
        }
      },
      "emissiveFactor": [
        1.0,
        1.0,
        1.0
      ],
      "emissiveTexture": {
        "index": 1
      },
      "extensions": {
        "ASOBO_material_day_night_switch": {
          "enabled": true
        }
      }
    },
    {
      "name": "material01",
      "pbrMetallicRoughness": {
        "baseColorFactor": [
          0.58799999952316284,
          0.58799999952316284,
          0.58799999952316284,
          1.0
        ],
        "roughnessFactor": 1.0,
        "metallicFactor": 0.0,
        "baseColorTexture": {
          "index": 2
        }
      },
      "emissiveFactor": [
        1.0,
        1.0,
        1.0
      ],
      "emissiveTexture": {
        "index": 3
      },
      "extensions": {
        "ASOBO_material_day_night_switch": {
          "enabled": true
        }
      }
    }
  ],
  "textures": [
    {
      "source": 0,
      "name": "control_tower"
    },
    {
      "source": 1,
      "name": "control_tower_lm"
    },
    {
      "source": 2,
      "name": "long_hangar"
    },
    {
      "source": 3,
      "name": "long_hangar_lm"
    }
  ],
  "images": [
    {
      "uri": "control_tower.png"
    },
    {
      "uri": "control_tower_lm.png"
    },
    {
      "uri": "long_hangar.png"
    },
    {
      "uri": "long_hangar_lm.png"
    }
  ],
  "bufferViews": [
    {
      "buffer": 0,
      "byteOffset": 0,
      "byteLength": 2568
    },
    {
      "buffer": 0,
      "byteOffset": 2568,
      "byteLength": 4488,
      "byteStride": 12
    },
    {
      "buffer": 0,
      "byteOffset": 7056,
      "byteLength": 4488,
      "byteStride": 12
    },
    {
      "buffer": 0,
      "byteOffset": 11544,
      "byteLength": 2992,
      "byteStride": 8
    }
  ],
  "buffers": [
    {
      "byteLength": 14536,
      "uri": "small_hangar.bin"
    }
  ]
}