{
  "asset": {
    "version": "2.0",
    "generator": "ModelConverterX"
  },
  "extensionsUsed": [
    "ASOBO_material_day_night_switch"
  ],
  "scene": 0,
  "scenes": [
    {
      "nodes": [
        0
      ]
    }
  ],
  "nodes": [
    {
      "name": "node0",
      "children": [
        1
      ]
    },
    {
      "name": "node1",
      "mesh": 0
    }
  ],
  "meshes": [
    {
      "primitives": [
        {
          "attributes": {
            "POSITION": 0,
            "NORMAL": 1,
            "TEXCOORD_0": 2
          },
          "indices": 3,
          "mode": 4,
          "material": 0
        }
      ],
      "name": "part000"
    }
  ],
  "accessors": [
    {
      "bufferView": 1,
      "byteOffset": 0,
      "componentType": 5126,
      "count": 98,
      "type": "VEC3",
      "min": [
        -48.754531860351563,
        0.0,
        -19.105890274047852
      ],
      "max": [
        13.265600204467773,
        8.0,
        9.9308595657348633
      ]
    },
    {
      "bufferView": 2,
      "byteOffset": 0,
      "componentType": 5126,
      "count": 98,
      "type": "VEC3"
    },
    {
      "bufferView": 3,
      "byteOffset": 0,
      "componentType": 5126,
      "count": 98,
      "type": "VEC2"
    },
    {
      "bufferView": 0,
      "byteOffset": 0,
      "componentType": 5125,
      "count": 144,
      "type": "SCALAR"
    }
  ],
  "materials": [
    {
      "name": "material00",
      "pbrMetallicRoughness": {
        "baseColorFactor": [
          0.58799999952316284,
          0.58799999952316284,
          0.58799999952316284,
          1.0
        ],
        "roughnessFactor": 1.0,
        "metallicFactor": 0.0,
        "baseColorTexture": {
          "index": 0
        }
      },
      "emissiveFactor": [
        1.0,
        1.0,
        1.0
      ],
      "emissiveTexture": {
        "index": 1
      },
      "extensions": {
        "ASOBO_material_day_night_switch": {
          "enabled": true
        }
      }
    }
  ],
  "textures": [
    {
      "source": 0,
      "name": "west_hangars"
    },
    {
      "source": 1,
      "name": "west_hangars_lm"
    }
  ],
  "images": [
    {
      "uri": "west_hangars.png"
    },
    {
      "uri": "west_hangars_lm.png"
    }
  ],
  "bufferViews": [
    {
      "buffer": 0,
      "byteOffset": 0,
      "byteLength": 576
    },
    {
      "buffer": 0,
      "byteOffset": 576,
      "byteLength": 1176,
      "byteStride": 12
    },
    {
      "buffer": 0,
      "byteOffset": 1752,
      "byteLength": 1176,
      "byteStride": 12
    },
    {
      "buffer": 0,
      "byteOffset": 2928,
      "byteLength": 784,
      "byteStride": 8
    }
  ],
  "buffers": [
    {
      "byteLength": 3712,
      "uri": "south_hangar2.bin"
    }
  ]
}