{"accessors":[{"bufferView":0,"componentType":5126,"count":40,"min":[-17.816280364990236,0.0,-6.535950183868408],"max":[17.816280364990236,16.193119049072267,6.535950183868408],"type":"VEC3","name":"part000_vertices#0_POSITION"},{"bufferView":0,"byteOffset":12,"componentType":5120,"count":40,"type":"VEC4","name":"part000_vertices#0_TANGENT"},{"bufferView":0,"byteOffset":16,"componentType":5120,"count":40,"type":"VEC4","name":"part000_vertices#0_NORMAL"},{"bufferView":0,"byteOffset":20,"componentType":5122,"count":40,"type":"VEC2","name":"part000_vertices#0_TEXCOORD_0"},{"bufferView":0,"byteOffset":24,"componentType":5122,"count":40,"type":"VEC2","name":"part000_vertices#0_TEXCOORD_1"},{"bufferView":0,"byteOffset":28,"componentType":5123,"count":40,"type":"VEC4","name":"part000_vertices#0_COLOR_0"},{"bufferView":1,"componentType":5123,"count":60,"type":"SCALAR","name":"part000_indices#0"},{"bufferView":0,"byteOffset":1440,"componentType":5126,"count":196,"min":[-13.450679779052735,14.379409790039063,-1.9591100215911866],"max":[14.444279670715332,17.456439971923829,2.6370999813079836],"type":"VEC3","name":"part001_vertices#0_POSITION"},{"bufferView":0,"byteOffset":1452,"componentType":5120,"count":196,"type":"VEC4","name":"part001_vertices#0_TANGENT"},{"bufferView":0,"byteOffset":1456,"componentType":5120,"count":196,"type":"VEC4","name":"part001_vertices#0_NORMAL"},{"bufferView":0,"byteOffset":1460,"componentType":5122,"count":196,"type":"VEC2","name":"part001_vertices#0_TEXCOORD_0"},{"bufferView":0,"byteOffset":1464,"componentType":5122,"count":196,"type":"VEC2","name":"part001_vertices#0_TEXCOORD_1"},{"bufferView":0,"byteOffset":1468,"componentType":5123,"count":196,"type":"VEC4","name":"part001_vertices#0_COLOR_0"},{"bufferView":1,"byteOffset":120,"componentType":5123,"count":342,"type":"SCALAR","name":"part001_indices#0"}],"asset":{"generator":"ModelConverterX","version":"2.0","extensions":{"ASOBO_asset_optimized":{"BoundingBoxMax":[17.816280364990236,17.456439971923829,6.535950183868408],"BoundingBoxMin":[-17.816280364990236,0.0,-6.535950183868408],"MajorVersion":4,"MinorVersion":4,"UseCheckerboardMaterialForMissingTextures":true,"UseOnlyFilenameForImageURI":true}}},"bufferViews":[{"buffer":0,"byteLength":8496,"byteStride":36,"target":34962,"name":"BufferViewVertexND"},{"buffer":0,"byteLength":804,"byteOffset":8496,"target":34963,"name":"BufferViewIndex"}],"extensionsRequired":["MSFT_texture_dds"],"materials":[{"name":"glTF_Material","emissiveTexture":{"index":1},"pbrMetallicRoughness":{"baseColorFactor":[0.5879999995231628,0.5879999995231628,0.5879999995231628,1.0],"metallicFactor":0.0,"baseColorTexture":{"index":0}}},{"name":"glTF_Materialx","emissiveTexture":{"index":3},"pbrMetallicRoughness":{"baseColorFactor":[0.5879999995231628,0.5879999995231628,0.5879999995231628,1.0],"metallicFactor":0.0,"baseColorTexture":{"index":2}}}],"meshes":[{"primitives":[{"attributes":{"COLOR_0":5,"NORMAL":2,"POSITION":0,"TANGENT":1,"TEXCOORD_0":3,"TEXCOORD_1":4},"indices":6,"material":0,"mode":4,"extras":{"ASOBO_primitive":{"PrimitiveCount":20,"VertexType":"VTX","VertexVersion":2}}}],"name":"part000"},{"primitives":[{"attributes":{"COLOR_0":12,"NORMAL":9,"POSITION":7,"TANGENT":8,"TEXCOORD_0":10,"TEXCOORD_1":11},"indices":13,"material":1,"mode":4,"extras":{"ASOBO_primitive":{"PrimitiveCount":114,"VertexType":"VTX","VertexVersion":2}}}],"name":"part001"}],"nodes":[{"name":"node0","children":[1,2]},{"mesh":0,"name":"node1"},{"mesh":1,"name":"node2"}],"scene":0,"scenes":[{"nodes":[0]}],"textures":[{"extensions":{"MSFT_texture_dds":{"source":0}}},{"extensions":{"MSFT_texture_dds":{"source":1}}},{"extensions":{"MSFT_texture_dds":{"source":2}}},{"extensions":{"MSFT_texture_dds":{"source":3}}}],"extensionsUsed":["MSFT_texture_dds","ASOBO_asset_optimized"],"buffers":[{"byteLength":9300,"uri":"4b_floor.bin"}],"images":[{"uri":"BUILDCOLECTION04.PNG.DDS","extras":"ASOBO_image_converted_meta"},{"uri":"BUILDCOLECTION04_LM.PNG.DDS","extras":"ASOBO_image_converted_meta"},{"uri":"BUILDING COLLECTION06.PNG.DDS","extras":"ASOBO_image_converted_meta"},{"uri":"BUILDING COLLECTION06_LM.PNG.DDS","extras":"ASOBO_image_converted_meta"}]}
