{"accessors":[{"bufferView":0,"componentType":5126,"count":100,"min":[0.0,0.0,-15.0],"max":[70.00000762939453,5.300000190734863,-7.050000190734863],"type":"VEC3","name":"part000_vertices#0_POSITION"},{"bufferView":0,"byteOffset":12,"componentType":5120,"count":100,"type":"VEC4","name":"part000_vertices#0_TANGENT"},{"bufferView":0,"byteOffset":16,"componentType":5120,"count":100,"type":"VEC4","name":"part000_vertices#0_NORMAL"},{"bufferView":0,"byteOffset":20,"componentType":5122,"count":100,"type":"VEC2","name":"part000_vertices#0_TEXCOORD_0"},{"bufferView":0,"byteOffset":24,"componentType":5122,"count":100,"type":"VEC2","name":"part000_vertices#0_TEXCOORD_1"},{"bufferView":0,"byteOffset":28,"componentType":5123,"count":100,"type":"VEC4","name":"part000_vertices#0_COLOR_0"},{"bufferView":1,"componentType":5123,"count":156,"type":"SCALAR","name":"part000_indices#0"},{"bufferView":0,"byteOffset":3600,"componentType":5126,"count":24,"min":[0.0,4.699999809265137,-15.0],"max":[70.00000762939453,5.300000190734863,0.0],"type":"VEC3","name":"part001_vertices#0_POSITION"},{"bufferView":0,"byteOffset":3612,"componentType":5120,"count":24,"type":"VEC4","name":"part001_vertices#0_TANGENT"},{"bufferView":0,"byteOffset":3616,"componentType":5120,"count":24,"type":"VEC4","name":"part001_vertices#0_NORMAL"},{"bufferView":0,"byteOffset":3620,"componentType":5122,"count":24,"type":"VEC2","name":"part001_vertices#0_TEXCOORD_0"},{"bufferView":0,"byteOffset":3624,"componentType":5122,"count":24,"type":"VEC2","name":"part001_vertices#0_TEXCOORD_1"},{"bufferView":0,"byteOffset":3628,"componentType":5123,"count":24,"type":"VEC4","name":"part001_vertices#0_COLOR_0"},{"bufferView":1,"byteOffset":312,"componentType":5123,"count":54,"type":"SCALAR","name":"part001_indices#0"},{"bufferView":0,"byteOffset":4464,"componentType":5126,"count":107,"min":[0.0,3.200000047683716,-14.699999809265137],"max":[70.00000762939453,4.699999809265137,0.0],"type":"VEC3","name":"part002_vertices#0_POSITION"},{"bufferView":0,"byteOffset":4476,"componentType":5120,"count":107,"type":"VEC4","name":"part002_vertices#0_TANGENT"},{"bufferView":0,"byteOffset":4480,"componentType":5120,"count":107,"type":"VEC4","name":"part002_vertices#0_NORMAL"},{"bufferView":0,"byteOffset":4484,"componentType":5122,"count":107,"type":"VEC2","name":"part002_vertices#0_TEXCOORD_0"},{"bufferView":0,"byteOffset":4488,"componentType":5122,"count":107,"type":"VEC2","name":"part002_vertices#0_TEXCOORD_1"},{"bufferView":0,"byteOffset":4492,"componentType":5123,"count":107,"type":"VEC4","name":"part002_vertices#0_COLOR_0"},{"bufferView":1,"byteOffset":420,"componentType":5123,"count":201,"type":"SCALAR","name":"part002_indices#0"},{"bufferView":0,"byteOffset":8316,"componentType":5126,"count":144,"min":[6.900000095367432,0.0,-14.699999809265137],"max":[70.00000762939453,4.699999809265137,0.0],"type":"VEC3","name":"part003_vertices#0_POSITION"},{"bufferView":0,"byteOffset":8328,"componentType":5120,"count":144,"type":"VEC4","name":"part003_vertices#0_TANGENT"},{"bufferView":0,"byteOffset":8332,"componentType":5120,"count":144,"type":"VEC4","name":"part003_vertices#0_NORMAL"},{"bufferView":0,"byteOffset":8336,"componentType":5122,"count":144,"type":"VEC2","name":"part003_vertices#0_TEXCOORD_0"},{"bufferView":0,"byteOffset":8340,"componentType":5122,"count":144,"type":"VEC2","name":"part003_vertices#0_TEXCOORD_1"},{"bufferView":0,"byteOffset":8344,"componentType":5123,"count":144,"type":"VEC4","name":"part003_vertices#0_COLOR_0"},{"bufferView":1,"byteOffset":822,"componentType":5123,"count":234,"type":"SCALAR","name":"part003_indices#0"},{"bufferView":0,"byteOffset":13500,"componentType":5126,"count":124,"min":[0.0,5.0,-15.0],"max":[70.00000762939453,5.300000190734863,0.0],"type":"VEC3","name":"part004_vertices#0_POSITION"},{"bufferView":0,"byteOffset":13512,"componentType":5120,"count":124,"type":"VEC4","name":"part004_vertices#0_TANGENT"},{"bufferView":0,"byteOffset":13516,"componentType":5120,"count":124,"type":"VEC4","name":"part004_vertices#0_NORMAL"},{"bufferView":0,"byteOffset":13520,"componentType":5122,"count":124,"type":"VEC2","name":"part004_vertices#0_TEXCOORD_0"},{"bufferView":0,"byteOffset":13524,"componentType":5122,"count":124,"type":"VEC2","name":"part004_vertices#0_TEXCOORD_1"},{"bufferView":0,"byteOffset":13528,"componentType":5123,"count":124,"type":"VEC4","name":"part004_vertices#0_COLOR_0"},{"bufferView":1,"byteOffset":1290,"componentType":5123,"count":246,"type":"SCALAR","name":"part004_indices#0"}],"asset":{"generator":"ModelConverterX","version":"2.0","extensions":{"ASOBO_asset_optimized":{"BoundingBoxMax":[70.00000762939453,5.300000190734863,0.0],"BoundingBoxMin":[0.0,0.0,-15.0],"MajorVersion":4,"MinorVersion":4,"UseCheckerboardMaterialForMissingTextures":true,"UseOnlyFilenameForImageURI":true}}},"bufferViews":[{"buffer":0,"byteLength":17964,"byteStride":36,"target":34962,"name":"BufferViewVertexND"},{"buffer":0,"byteLength":1782,"byteOffset":17964,"target":34963,"name":"BufferViewIndex"}],"extensionsRequired":["MSFT_texture_dds"],"materials":[{"name":"glTF_Material","pbrMetallicRoughness":{"metallicFactor":0.0}},{"name":"glTF_Materialx","pbrMetallicRoughness":{"metallicFactor":0.0,"baseColorTexture":{"index":0}}},{"name":"glTF_Materialxx","pbrMetallicRoughness":{"metallicFactor":0.0,"baseColorTexture":{"index":1}}},{"name":"glTF_Materialxxx","pbrMetallicRoughness":{"metallicFactor":0.0,"baseColorTexture":{"index":2}}},{"name":"glTF_Materialxxxx","pbrMetallicRoughness":{"metallicFactor":0.0,"baseColorTexture":{"index":3}}}],"meshes":[{"primitives":[{"attributes":{"COLOR_0":5,"NORMAL":2,"POSITION":0,"TANGENT":1,"TEXCOORD_0":3,"TEXCOORD_1":4},"indices":6,"material":4,"mode":4,"extras":{"ASOBO_primitive":{"PrimitiveCount":52,"VertexType":"VTX","VertexVersion":2}}}],"name":"part000"},{"primitives":[{"attributes":{"COLOR_0":12,"NORMAL":9,"POSITION":7,"TANGENT":8,"TEXCOORD_0":10,"TEXCOORD_1":11},"indices":13,"material":2,"mode":4,"extras":{"ASOBO_primitive":{"PrimitiveCount":18,"VertexType":"VTX","VertexVersion":2}}}],"name":"part001"},{"primitives":[{"attributes":{"COLOR_0":19,"NORMAL":16,"POSITION":14,"TANGENT":15,"TEXCOORD_0":17,"TEXCOORD_1":18},"indices":20,"material":3,"mode":4,"extras":{"ASOBO_primitive":{"PrimitiveCount":67,"VertexType":"VTX","VertexVersion":2}}}],"name":"part002"},{"primitives":[{"attributes":{"COLOR_0":26,"NORMAL":23,"POSITION":21,"TANGENT":22,"TEXCOORD_0":24,"TEXCOORD_1":25},"indices":27,"material":0,"mode":4,"extras":{"ASOBO_primitive":{"PrimitiveCount":78,"VertexType":"VTX","VertexVersion":2}}}],"name":"part003"},{"primitives":[{"attributes":{"COLOR_0":33,"NORMAL":30,"POSITION":28,"TANGENT":29,"TEXCOORD_0":31,"TEXCOORD_1":32},"indices":34,"material":1,"mode":4,"extras":{"ASOBO_primitive":{"PrimitiveCount":82,"VertexType":"VTX","VertexVersion":2}}}],"name":"part004"}],"nodes":[{"name":"node0","children":[1,2,3,4,5]},{"mesh":0,"name":"node1"},{"mesh":1,"name":"node2"},{"mesh":2,"name":"node3"},{"mesh":3,"name":"node4"},{"mesh":4,"name":"node5"}],"scene":0,"scenes":[{"nodes":[0]}],"textures":[{"extensions":{"MSFT_texture_dds":{"source":0}}},{"extensions":{"MSFT_texture_dds":{"source":1}}},{"extensions":{"MSFT_texture_dds":{"source":2}}},{"extensions":{"MSFT_texture_dds":{"source":3}}}],"extensionsUsed":["MSFT_texture_dds","ASOBO_asset_optimized"],"buffers":[{"byteLength":19746,"uri":"Maintanence Hangar.bin"}],"images":[{"uri":"MHROOF.PNG.DDS","extras":"ASOBO_image_converted_meta"},{"uri":"MHWALL1.PNG.DDS","extras":"ASOBO_image_converted_meta"},{"uri":"MHWALL2.PNG.DDS","extras":"ASOBO_image_converted_meta"},{"uri":"MHWALL3.PNG.DDS","extras":"ASOBO_image_converted_meta"}]}
