{
  "asset": {
    "version": "2.0",
    "generator": "ModelConverterX"
  },
  "extensionsUsed": [
    "ASOBO_material_day_night_switch"
  ],
  "scene": 0,
  "scenes": [
    {
      "nodes": [
        0
      ]
    }
  ],
  "nodes": [
    {
      "name": "node0",
      "children": [
        1,
        2,
        3,
        4,
        5,
        6,
        7
      ]
    },
    {
      "name": "node1",
      "mesh": 0
    },
    {
      "name": "node2",
      "mesh": 1
    },
    {
      "name": "node3",
      "mesh": 2
    },
    {
      "name": "node4",
      "mesh": 3
    },
    {
      "name": "node5",
      "mesh": 4
    },
    {
      "name": "node6",
      "mesh": 5
    },
    {
      "name": "node7",
      "mesh": 6
    }
  ],
  "meshes": [
    {
      "primitives": [
        {
          "attributes": {
            "POSITION": 0,
            "NORMAL": 1,
            "TEXCOORD_0": 2
          },
          "indices": 3,
          "mode": 4,
          "material": 3
        }
      ],
      "name": "part000"
    },
    {
      "primitives": [
        {
          "attributes": {
            "POSITION": 4,
            "NORMAL": 5,
            "TEXCOORD_0": 6
          },
          "indices": 7,
          "mode": 4,
          "material": 2
        }
      ],
      "name": "part001"
    },
    {
      "primitives": [
        {
          "attributes": {
            "POSITION": 8,
            "NORMAL": 9,
            "TEXCOORD_0": 10
          },
          "indices": 11,
          "mode": 4,
          "material": 4
        }
      ],
      "name": "part002"
    },
    {
      "primitives": [
        {
          "attributes": {
            "POSITION": 12,
            "NORMAL": 13,
            "TEXCOORD_0": 14
          },
          "indices": 15,
          "mode": 4,
          "material": 6
        }
      ],
      "name": "part003"
    },
    {
      "primitives": [
        {
          "attributes": {
            "POSITION": 16,
            "NORMAL": 17,
            "TEXCOORD_0": 18
          },
          "indices": 19,
          "mode": 4,
          "material": 5
        }
      ],
      "name": "part004"
    },
    {
      "primitives": [
        {
          "attributes": {
            "POSITION": 20,
            "NORMAL": 21,
            "TEXCOORD_0": 22
          },
          "indices": 23,
          "mode": 4,
          "material": 1
        }
      ],
      "name": "part005"
    },
    {
      "primitives": [
        {
          "attributes": {
            "POSITION": 24,
            "NORMAL": 25,
            "TEXCOORD_0": 26
          },
          "indices": 27,
          "mode": 4,
          "material": 0
        }
      ],
      "name": "part006"
    }
  ],
  "accessors": [
    {
      "bufferView": 1,
      "byteOffset": 0,
      "componentType": 5126,
      "count": 8547,
      "type": "VEC3",
      "min": [
        0.48572000861167908,
        -0.45252001285552979,
        -5.7919998168945313
      ],
      "max": [
        3.5923500061035156,
        3.3314700126647949,
        3.7884700298309326
      ]
    },
    {
      "bufferView": 2,
      "byteOffset": 0,
      "componentType": 5126,
      "count": 8547,
      "type": "VEC3"
    },
    {
      "bufferView": 3,
      "byteOffset": 0,
      "componentType": 5126,
      "count": 8547,
      "type": "VEC2"
    },
    {
      "bufferView": 0,
      "byteOffset": 0,
      "componentType": 5125,
      "count": 9918,
      "type": "SCALAR"
    },
    {
      "bufferView": 1,
      "byteOffset": 102564,
      "componentType": 5126,
      "count": 209,
      "type": "VEC3",
      "min": [
        1.9977200031280518,
        3.2594699859619141,
        -4.6919999122619629
      ],
      "max": [
        2.0297200679779053,
        3.2954699993133545,
        -4.6599998474121094
      ]
    },
    {
      "bufferView": 2,
      "byteOffset": 102564,
      "componentType": 5126,
      "count": 209,
      "type": "VEC3"
    },
    {
      "bufferView": 3,
      "byteOffset": 68376,
      "componentType": 5126,
      "count": 209,
      "type": "VEC2"
    },
    {
      "bufferView": 0,
      "byteOffset": 39672,
      "componentType": 5125,
      "count": 237,
      "type": "SCALAR"
    },
    {
      "bufferView": 1,
      "byteOffset": 105072,
      "componentType": 5126,
      "count": 159,
      "type": "VEC3",
      "min": [
        1.4737199544906616,
        1.9881999492645264,
        -0.90799999237060547
      ],
      "max": [
        2.2817199230194092,
        2.3514800071716309,
        -0.1466899961233139
      ]
    },
    {
      "bufferView": 2,
      "byteOffset": 105072,
      "componentType": 5126,
      "count": 159,
      "type": "VEC3"
    },
    {
      "bufferView": 3,
      "byteOffset": 70048,
      "componentType": 5126,
      "count": 159,
      "type": "VEC2"
    },
    {
      "bufferView": 0,
      "byteOffset": 40620,
      "componentType": 5125,
      "count": 183,
      "type": "SCALAR"
    },
    {
      "bufferView": 1,
      "byteOffset": 106980,
      "componentType": 5126,
      "count": 4551,
      "type": "VEC3",
      "min": [
        -5.2182798385620117,
        0.6674799919128418,
        -5.4801998138427734
      ],
      "max": [
        9.2457199096679688,
        1.9754799604415894,
        0.73199999332427979
      ]
    },
    {
      "bufferView": 2,
      "byteOffset": 106980,
      "componentType": 5126,
      "count": 4551,
      "type": "VEC3"
    },
    {
      "bufferView": 3,
      "byteOffset": 71320,
      "componentType": 5126,
      "count": 4551,
      "type": "VEC2"
    },
    {
      "bufferView": 0,
      "byteOffset": 41352,
      "componentType": 5125,
      "count": 6261,
      "type": "SCALAR"
    },
    {
      "bufferView": 1,
      "byteOffset": 161592,
      "componentType": 5126,
      "count": 819,
      "type": "VEC3",
      "min": [
        1.4457199573516846,
        1.3994799852371216,
        -2.7079999446868896
      ],
      "max": [
        2.6217200756073,
        2.8634800910949707,
        -0.18799999356269836
      ]
    },
    {
      "bufferView": 2,
      "byteOffset": 161592,
      "componentType": 5126,
      "count": 819,
      "type": "VEC3"
    },
    {
      "bufferView": 3,
      "byteOffset": 107728,
      "componentType": 5126,
      "count": 819,
      "type": "VEC2"
    },
    {
      "bufferView": 0,
      "byteOffset": 66396,
      "componentType": 5125,
      "count": 858,
      "type": "SCALAR"
    },
    {
      "bufferView": 1,
      "byteOffset": 171420,
      "componentType": 5126,
      "count": 208,
      "type": "VEC3",
      "min": [
        -5.2342801094055176,
        1.4394799470901489,
        0.10000000149011612
      ],
      "max": [
        -5.18228006362915,
        1.4994800090789795,
        0.15600000321865082
      ]
    },
    {
      "bufferView": 2,
      "byteOffset": 171420,
      "componentType": 5126,
      "count": 208,
      "type": "VEC3"
    },
    {
      "bufferView": 3,
      "byteOffset": 114280,
      "componentType": 5126,
      "count": 208,
      "type": "VEC2"
    },
    {
      "bufferView": 0,
      "byteOffset": 69828,
      "componentType": 5125,
      "count": 240,
      "type": "SCALAR"
    },
    {
      "bufferView": 1,
      "byteOffset": 173916,
      "componentType": 5126,
      "count": 204,
      "type": "VEC3",
      "min": [
        9.20971965789795,
        1.4394799470901489,
        0.10000000149011612
      ],
      "max": [
        9.26572036743164,
        1.4994800090789795,
        0.15600000321865082
      ]
    },
    {
      "bufferView": 2,
      "byteOffset": 173916,
      "componentType": 5126,
      "count": 204,
      "type": "VEC3"
    },
    {
      "bufferView": 3,
      "byteOffset": 115944,
      "componentType": 5126,
      "count": 204,
      "type": "VEC2"
    },
    {
      "bufferView": 0,
      "byteOffset": 70788,
      "componentType": 5125,
      "count": 240,
      "type": "SCALAR"
    }
  ],
  "materials": [
    {
      "name": "material00",
      "pbrMetallicRoughness": {
        "baseColorFactor": [
          0.60392159223556519,
          0.0,
          0.0,
          1.0
        ],
        "roughnessFactor": 1.0,
        "metallicFactor": 0.0
      },
      "emissiveFactor": [
        0.0,
        0.0,
        0.0
      ],
      "extensions": {
        "ASOBO_material_day_night_switch": {
          "enabled": true
        }
      }
    },
    {
      "name": "material01",
      "pbrMetallicRoughness": {
        "baseColorFactor": [
          0.0117647098377347,
          0.46666669845581055,
          0.0,
          1.0
        ],
        "roughnessFactor": 1.0,
        "metallicFactor": 0.0
      },
      "emissiveFactor": [
        0.0,
        0.0,
        0.0
      ],
      "extensions": {
        "ASOBO_material_day_night_switch": {
          "enabled": true
        }
      }
    },
    {
      "name": "material02",
      "pbrMetallicRoughness": {
        "baseColorFactor": [
          1.0,
          1.0,
          1.0,
          1.0
        ],
        "roughnessFactor": 1.0,
        "metallicFactor": 0.0
      },
      "emissiveFactor": [
        0.0,
        0.0,
        0.0
      ],
      "extensions": {
        "ASOBO_material_day_night_switch": {
          "enabled": true
        }
      }
    },
    {
      "name": "material03",
      "pbrMetallicRoughness": {
        "baseColorFactor": [
          1.0,
          1.0,
          1.0,
          1.0
        ],
        "roughnessFactor": 0.0,
        "metallicFactor": 0.0,
        "baseColorTexture": {
          "index": 0
        }
      },
      "emissiveFactor": [
        0.0,
        0.0,
        0.0
      ],
      "extensions": {
        "ASOBO_material_day_night_switch": {
          "enabled": true
        }
      }
    },
    {
      "name": "material04",
      "pbrMetallicRoughness": {
        "baseColorFactor": [
          1.0,
          1.0,
          1.0,
          1.0
        ],
        "roughnessFactor": 1.0,
        "metallicFactor": 0.0,
        "baseColorTexture": {
          "index": 1
        }
      },
      "emissiveFactor": [
        0.0,
        0.0,
        0.0
      ],
      "extensions": {
        "ASOBO_material_day_night_switch": {
          "enabled": true
        }
      }
    },
    {
      "name": "material05",
      "pbrMetallicRoughness": {
        "baseColorFactor": [
          1.0,
          1.0,
          1.0,
          1.0
        ],
        "roughnessFactor": 1.0,
        "metallicFactor": 0.0,
        "baseColorTexture": {
          "index": 2
        }
      },
      "emissiveFactor": [
        0.0,
        0.0,
        0.0
      ],
      "extensions": {
        "ASOBO_material_day_night_switch": {
          "enabled": true
        }
      }
    },
    {
      "name": "material06",
      "pbrMetallicRoughness": {
        "baseColorFactor": [
          1.0,
          1.0,
          1.0,
          1.0
        ],
        "roughnessFactor": 1.0,
        "metallicFactor": 0.0,
        "baseColorTexture": {
          "index": 3
        }
      },
      "emissiveFactor": [
        0.0,
        0.0,
        0.0
      ],
      "extensions": {
        "ASOBO_material_day_night_switch": {
          "enabled": true
        }
      }
    }
  ],
  "textures": [
    {
      "source": 0,
      "name": "fuselage_t_chimnir"
    },
    {
      "source": 1,
      "name": "panels_chimnir"
    },
    {
      "source": 2,
      "name": "vc_chimnir"
    },
    {
      "source": 3,
      "name": "wings_t_chimnir"
    }
  ],
  "images": [
    {
      "uri": "fuselage_t_chimnir.png"
    },
    {
      "uri": "panels_chimnir.png"
    },
    {
      "uri": "vc_chimnir.png"
    },
    {
      "uri": "wings_t_chimnir.png"
    }
  ],
  "bufferViews": [
    {
      "buffer": 0,
      "byteOffset": 0,
      "byteLength": 71748
    },
    {
      "buffer": 0,
      "byteOffset": 71748,
      "byteLength": 176364,
      "byteStride": 12
    },
    {
      "buffer": 0,
      "byteOffset": 248112,
      "byteLength": 176364,
      "byteStride": 12
    },
    {
      "buffer": 0,
      "byteOffset": 424476,
      "byteLength": 117576,
      "byteStride": 8
    }
  ],
  "buffers": [
    {
      "byteLength": 542052,
      "uri": "ChimNirThrush_LOD0.bin"
    }
  ]
}