{
  "asset": {
    "version": "2.0",
    "generator": "ModelConverterX"
  },
  "extensionsUsed": [
    "ASOBO_material_day_night_switch"
  ],
  "scene": 0,
  "scenes": [
    {
      "nodes": [
        0
      ]
    }
  ],
  "nodes": [
    {
      "name": "node0",
      "children": [
        1,
        2,
        3,
        4,
        5,
        6,
        7
      ]
    },
    {
      "name": "node15",
      "mesh": 0
    },
    {
      "name": "node16",
      "mesh": 1
    },
    {
      "name": "node17",
      "mesh": 2
    },
    {
      "name": "node18",
      "mesh": 3
    },
    {
      "name": "node19",
      "mesh": 4
    },
    {
      "name": "node20",
      "mesh": 5
    },
    {
      "name": "node21",
      "mesh": 6
    }
  ],
  "meshes": [
    {
      "primitives": [
        {
          "attributes": {
            "POSITION": 0,
            "NORMAL": 1,
            "TEXCOORD_0": 2
          },
          "indices": 3,
          "mode": 4,
          "material": 3
        }
      ],
      "name": "part000"
    },
    {
      "primitives": [
        {
          "attributes": {
            "POSITION": 4,
            "NORMAL": 5,
            "TEXCOORD_0": 6
          },
          "indices": 7,
          "mode": 4,
          "material": 2
        }
      ],
      "name": "part001"
    },
    {
      "primitives": [
        {
          "attributes": {
            "POSITION": 8,
            "NORMAL": 9,
            "TEXCOORD_0": 10
          },
          "indices": 11,
          "mode": 4,
          "material": 4
        }
      ],
      "name": "part002"
    },
    {
      "primitives": [
        {
          "attributes": {
            "POSITION": 12,
            "NORMAL": 13,
            "TEXCOORD_0": 14
          },
          "indices": 15,
          "mode": 4,
          "material": 6
        }
      ],
      "name": "part003"
    },
    {
      "primitives": [
        {
          "attributes": {
            "POSITION": 16,
            "NORMAL": 17,
            "TEXCOORD_0": 18
          },
          "indices": 19,
          "mode": 4,
          "material": 5
        }
      ],
      "name": "part004"
    },
    {
      "primitives": [
        {
          "attributes": {
            "POSITION": 20,
            "NORMAL": 21,
            "TEXCOORD_0": 22
          },
          "indices": 23,
          "mode": 4,
          "material": 1
        }
      ],
      "name": "part005"
    },
    {
      "primitives": [
        {
          "attributes": {
            "POSITION": 24,
            "NORMAL": 25,
            "TEXCOORD_0": 26
          },
          "indices": 27,
          "mode": 4,
          "material": 0
        }
      ],
      "name": "part006"
    }
  ],
  "accessors": [
    {
      "bufferView": 1,
      "byteOffset": 0,
      "componentType": 5126,
      "count": 4485,
      "type": "VEC3",
      "min": [
        0.48572000861167908,
        -0.45252001285552979,
        -5.7880001068115234
      ],
      "max": [
        3.592210054397583,
        3.3268399238586426,
        3.7834699153900146
      ]
    },
    {
      "bufferView": 2,
      "byteOffset": 0,
      "componentType": 5126,
      "count": 4485,
      "type": "VEC3"
    },
    {
      "bufferView": 3,
      "byteOffset": 0,
      "componentType": 5126,
      "count": 4485,
      "type": "VEC2"
    },
    {
      "bufferView": 0,
      "byteOffset": 0,
      "componentType": 5125,
      "count": 4893,
      "type": "SCALAR"
    },
    {
      "bufferView": 1,
      "byteOffset": 53820,
      "componentType": 5126,
      "count": 36,
      "type": "VEC3",
      "min": [
        1.9977200031280518,
        3.2622199058532715,
        -4.6867499351501465
      ],
      "max": [
        2.0297200679779053,
        3.2914700508117676,
        -4.6624398231506348
      ]
    },
    {
      "bufferView": 2,
      "byteOffset": 53820,
      "componentType": 5126,
      "count": 36,
      "type": "VEC3"
    },
    {
      "bufferView": 3,
      "byteOffset": 35880,
      "componentType": 5126,
      "count": 36,
      "type": "VEC2"
    },
    {
      "bufferView": 0,
      "byteOffset": 19572,
      "componentType": 5125,
      "count": 36,
      "type": "SCALAR"
    },
    {
      "bufferView": 1,
      "byteOffset": 54252,
      "componentType": 5126,
      "count": 24,
      "type": "VEC3",
      "min": [
        1.8014800548553467,
        1.9921300411224365,
        -0.16685999929904938
      ],
      "max": [
        1.9025700092315674,
        1.9986399412155151,
        -0.14938999712467194
      ]
    },
    {
      "bufferView": 2,
      "byteOffset": 54252,
      "componentType": 5126,
      "count": 24,
      "type": "VEC3"
    },
    {
      "bufferView": 3,
      "byteOffset": 36168,
      "componentType": 5126,
      "count": 24,
      "type": "VEC2"
    },
    {
      "bufferView": 0,
      "byteOffset": 19716,
      "componentType": 5125,
      "count": 24,
      "type": "SCALAR"
    },
    {
      "bufferView": 1,
      "byteOffset": 54540,
      "componentType": 5126,
      "count": 1586,
      "type": "VEC3",
      "min": [
        -5.2182798385620117,
        0.67148000001907349,
        -5.4762001037597656
      ],
      "max": [
        9.2457199096679688,
        1.9754799604415894,
        0.72399997711181641
      ]
    },
    {
      "bufferView": 2,
      "byteOffset": 54540,
      "componentType": 5126,
      "count": 1586,
      "type": "VEC3"
    },
    {
      "bufferView": 3,
      "byteOffset": 36360,
      "componentType": 5126,
      "count": 1586,
      "type": "VEC2"
    },
    {
      "bufferView": 0,
      "byteOffset": 19812,
      "componentType": 5125,
      "count": 1857,
      "type": "SCALAR"
    },
    {
      "bufferView": 1,
      "byteOffset": 73572,
      "componentType": 5126,
      "count": 246,
      "type": "VEC3",
      "min": [
        1.4637199640274048,
        1.403480052947998,
        -2.7079999446868896
      ],
      "max": [
        2.5927200317382813,
        2.8634800910949707,
        -0.23199999332427979
      ]
    },
    {
      "bufferView": 2,
      "byteOffset": 73572,
      "componentType": 5126,
      "count": 246,
      "type": "VEC3"
    },
    {
      "bufferView": 3,
      "byteOffset": 49048,
      "componentType": 5126,
      "count": 246,
      "type": "VEC2"
    },
    {
      "bufferView": 0,
      "byteOffset": 27240,
      "componentType": 5125,
      "count": 246,
      "type": "SCALAR"
    },
    {
      "bufferView": 1,
      "byteOffset": 76524,
      "componentType": 5126,
      "count": 54,
      "type": "VEC3",
      "min": [
        -5.2287797927856445,
        1.4424799680709839,
        0.10899999737739563
      ],
      "max": [
        -5.1862797737121582,
        1.4960999488830566,
        0.15600000321865082
      ]
    },
    {
      "bufferView": 2,
      "byteOffset": 76524,
      "componentType": 5126,
      "count": 54,
      "type": "VEC3"
    },
    {
      "bufferView": 3,
      "byteOffset": 51016,
      "componentType": 5126,
      "count": 54,
      "type": "VEC2"
    },
    {
      "bufferView": 0,
      "byteOffset": 28224,
      "componentType": 5125,
      "count": 54,
      "type": "SCALAR"
    },
    {
      "bufferView": 1,
      "byteOffset": 77172,
      "componentType": 5126,
      "count": 60,
      "type": "VEC3",
      "min": [
        9.2127199172973633,
        1.4424799680709839,
        0.10249999910593033
      ],
      "max": [
        9.26572036743164,
        1.4963500499725342,
        0.15600000321865082
      ]
    },
    {
      "bufferView": 2,
      "byteOffset": 77172,
      "componentType": 5126,
      "count": 60,
      "type": "VEC3"
    },
    {
      "bufferView": 3,
      "byteOffset": 51448,
      "componentType": 5126,
      "count": 60,
      "type": "VEC2"
    },
    {
      "bufferView": 0,
      "byteOffset": 28440,
      "componentType": 5125,
      "count": 60,
      "type": "SCALAR"
    }
  ],
  "materials": [
    {
      "name": "material00",
      "pbrMetallicRoughness": {
        "baseColorFactor": [
          0.60392159223556519,
          0.0,
          0.0,
          1.0
        ],
        "roughnessFactor": 1.0,
        "metallicFactor": 0.0
      },
      "emissiveFactor": [
        0.0,
        0.0,
        0.0
      ],
      "extensions": {
        "ASOBO_material_day_night_switch": {
          "enabled": true
        }
      }
    },
    {
      "name": "material01",
      "pbrMetallicRoughness": {
        "baseColorFactor": [
          0.0117647098377347,
          0.46666669845581055,
          0.0,
          1.0
        ],
        "roughnessFactor": 1.0,
        "metallicFactor": 0.0
      },
      "emissiveFactor": [
        0.0,
        0.0,
        0.0
      ],
      "extensions": {
        "ASOBO_material_day_night_switch": {
          "enabled": true
        }
      }
    },
    {
      "name": "material02",
      "pbrMetallicRoughness": {
        "baseColorFactor": [
          1.0,
          1.0,
          1.0,
          1.0
        ],
        "roughnessFactor": 1.0,
        "metallicFactor": 0.0
      },
      "emissiveFactor": [
        0.0,
        0.0,
        0.0
      ],
      "extensions": {
        "ASOBO_material_day_night_switch": {
          "enabled": true
        }
      }
    },
    {
      "name": "material03",
      "pbrMetallicRoughness": {
        "baseColorFactor": [
          1.0,
          1.0,
          1.0,
          1.0
        ],
        "roughnessFactor": 0.0,
        "metallicFactor": 0.0,
        "baseColorTexture": {
          "index": 0
        }
      },
      "emissiveFactor": [
        0.0,
        0.0,
        0.0
      ],
      "extensions": {
        "ASOBO_material_day_night_switch": {
          "enabled": true
        }
      }
    },
    {
      "name": "material04",
      "pbrMetallicRoughness": {
        "baseColorFactor": [
          1.0,
          1.0,
          1.0,
          1.0
        ],
        "roughnessFactor": 1.0,
        "metallicFactor": 0.0,
        "baseColorTexture": {
          "index": 1
        }
      },
      "emissiveFactor": [
        0.0,
        0.0,
        0.0
      ],
      "extensions": {
        "ASOBO_material_day_night_switch": {
          "enabled": true
        }
      }
    },
    {
      "name": "material05",
      "pbrMetallicRoughness": {
        "baseColorFactor": [
          1.0,
          1.0,
          1.0,
          1.0
        ],
        "roughnessFactor": 1.0,
        "metallicFactor": 0.0,
        "baseColorTexture": {
          "index": 2
        }
      },
      "emissiveFactor": [
        0.0,
        0.0,
        0.0
      ],
      "extensions": {
        "ASOBO_material_day_night_switch": {
          "enabled": true
        }
      }
    },
    {
      "name": "material06",
      "pbrMetallicRoughness": {
        "baseColorFactor": [
          1.0,
          1.0,
          1.0,
          1.0
        ],
        "roughnessFactor": 1.0,
        "metallicFactor": 0.0,
        "baseColorTexture": {
          "index": 3
        }
      },
      "emissiveFactor": [
        0.0,
        0.0,
        0.0
      ],
      "extensions": {
        "ASOBO_material_day_night_switch": {
          "enabled": true
        }
      }
    }
  ],
  "textures": [
    {
      "source": 0,
      "name": "fuselage_t_chimnir"
    },
    {
      "source": 1,
      "name": "panels_chimnir"
    },
    {
      "source": 2,
      "name": "vc_chimnir"
    },
    {
      "source": 3,
      "name": "wings_t_chimnir"
    }
  ],
  "images": [
    {
      "uri": "fuselage_t_chimnir.png"
    },
    {
      "uri": "panels_chimnir.png"
    },
    {
      "uri": "vc_chimnir.png"
    },
    {
      "uri": "wings_t_chimnir.png"
    }
  ],
  "bufferViews": [
    {
      "buffer": 0,
      "byteOffset": 0,
      "byteLength": 28680
    },
    {
      "buffer": 0,
      "byteOffset": 28680,
      "byteLength": 77892,
      "byteStride": 12
    },
    {
      "buffer": 0,
      "byteOffset": 106572,
      "byteLength": 77892,
      "byteStride": 12
    },
    {
      "buffer": 0,
      "byteOffset": 184464,
      "byteLength": 51928,
      "byteStride": 8
    }
  ],
  "buffers": [
    {
      "byteLength": 236392,
      "uri": "ChimNirThrush_LOD2.bin"
    }
  ]
}