{"accessors":[{"bufferView":0,"componentType":5126,"count":10,"min":[0.0,0.0,-29.999990463256837],"max":[45.0000114440918,7.5,0.0],"type":"VEC3","name":"part000_vertices#0_POSITION"},{"bufferView":0,"byteOffset":12,"componentType":5120,"count":10,"type":"VEC4","name":"part000_vertices#0_TANGENT"},{"bufferView":0,"byteOffset":16,"componentType":5120,"count":10,"type":"VEC4","name":"part000_vertices#0_NORMAL"},{"bufferView":0,"byteOffset":20,"componentType":5122,"count":10,"type":"VEC2","name":"part000_vertices#0_TEXCOORD_0"},{"bufferView":0,"byteOffset":24,"componentType":5122,"count":10,"type":"VEC2","name":"part000_vertices#0_TEXCOORD_1"},{"bufferView":0,"byteOffset":28,"componentType":5123,"count":10,"type":"VEC4","name":"part000_vertices#0_COLOR_0"},{"bufferView":1,"componentType":5123,"count":18,"type":"SCALAR","name":"part000_indices#0"},{"bufferView":0,"byteOffset":360,"componentType":5126,"count":32,"min":[3.6454100608825685,1.6220200061798096,-30.499990463256837],"max":[41.43994903564453,2.346479892730713,0.5],"type":"VEC3","name":"part001_vertices#0_POSITION"},{"bufferView":0,"byteOffset":372,"componentType":5120,"count":32,"type":"VEC4","name":"part001_vertices#0_TANGENT"},{"bufferView":0,"byteOffset":376,"componentType":5120,"count":32,"type":"VEC4","name":"part001_vertices#0_NORMAL"},{"bufferView":0,"byteOffset":380,"componentType":5122,"count":32,"type":"VEC2","name":"part001_vertices#0_TEXCOORD_0"},{"bufferView":0,"byteOffset":384,"componentType":5122,"count":32,"type":"VEC2","name":"part001_vertices#0_TEXCOORD_1"},{"bufferView":0,"byteOffset":388,"componentType":5123,"count":32,"type":"VEC4","name":"part001_vertices#0_COLOR_0"},{"bufferView":1,"byteOffset":36,"componentType":5123,"count":48,"type":"SCALAR","name":"part001_indices#0"},{"bufferView":0,"byteOffset":1512,"componentType":5126,"count":10,"min":[0.0,0.0,-29.999990463256837],"max":[45.0000114440918,7.5,0.0],"type":"VEC3","name":"part002_vertices#0_POSITION"},{"bufferView":0,"byteOffset":1524,"componentType":5120,"count":10,"type":"VEC4","name":"part002_vertices#0_TANGENT"},{"bufferView":0,"byteOffset":1528,"componentType":5120,"count":10,"type":"VEC4","name":"part002_vertices#0_NORMAL"},{"bufferView":0,"byteOffset":1532,"componentType":5122,"count":10,"type":"VEC2","name":"part002_vertices#0_TEXCOORD_0"},{"bufferView":0,"byteOffset":1536,"componentType":5122,"count":10,"type":"VEC2","name":"part002_vertices#0_TEXCOORD_1"},{"bufferView":0,"byteOffset":1540,"componentType":5123,"count":10,"type":"VEC4","name":"part002_vertices#0_COLOR_0"},{"bufferView":1,"byteOffset":132,"componentType":5123,"count":18,"type":"SCALAR","name":"part002_indices#0"},{"bufferView":0,"byteOffset":1872,"componentType":5126,"count":16,"min":[0.0,0.0,-29.999990463256837],"max":[45.0000114440918,7.5,0.0],"type":"VEC3","name":"part003_vertices#0_POSITION"},{"bufferView":0,"byteOffset":1884,"componentType":5120,"count":16,"type":"VEC4","name":"part003_vertices#0_TANGENT"},{"bufferView":0,"byteOffset":1888,"componentType":5120,"count":16,"type":"VEC4","name":"part003_vertices#0_NORMAL"},{"bufferView":0,"byteOffset":1892,"componentType":5122,"count":16,"type":"VEC2","name":"part003_vertices#0_TEXCOORD_0"},{"bufferView":0,"byteOffset":1896,"componentType":5122,"count":16,"type":"VEC2","name":"part003_vertices#0_TEXCOORD_1"},{"bufferView":0,"byteOffset":1900,"componentType":5123,"count":16,"type":"VEC4","name":"part003_vertices#0_COLOR_0"},{"bufferView":1,"byteOffset":168,"componentType":5123,"count":48,"type":"SCALAR","name":"part003_indices#0"},{"bufferView":0,"byteOffset":2448,"componentType":5126,"count":8,"min":[3.6454100608825685,1.6220200061798096,-30.499990463256837],"max":[41.43994903564453,2.346479892730713,0.5],"type":"VEC3","name":"part004_vertices#0_POSITION"},{"bufferView":0,"byteOffset":2460,"componentType":5120,"count":8,"type":"VEC4","name":"part004_vertices#0_TANGENT"},{"bufferView":0,"byteOffset":2464,"componentType":5120,"count":8,"type":"VEC4","name":"part004_vertices#0_NORMAL"},{"bufferView":0,"byteOffset":2468,"componentType":5122,"count":8,"type":"VEC2","name":"part004_vertices#0_TEXCOORD_0"},{"bufferView":0,"byteOffset":2472,"componentType":5122,"count":8,"type":"VEC2","name":"part004_vertices#0_TEXCOORD_1"},{"bufferView":0,"byteOffset":2476,"componentType":5123,"count":8,"type":"VEC4","name":"part004_vertices#0_COLOR_0"},{"bufferView":1,"byteOffset":264,"componentType":5123,"count":12,"type":"SCALAR","name":"part004_indices#0"},{"bufferView":0,"byteOffset":2736,"componentType":5126,"count":16,"min":[0.0,7.5,-29.999990463256837],"max":[45.0000114440918,9.5,0.0],"type":"VEC3","name":"part005_vertices#0_POSITION"},{"bufferView":0,"byteOffset":2748,"componentType":5120,"count":16,"type":"VEC4","name":"part005_vertices#0_TANGENT"},{"bufferView":0,"byteOffset":2752,"componentType":5120,"count":16,"type":"VEC4","name":"part005_vertices#0_NORMAL"},{"bufferView":0,"byteOffset":2756,"componentType":5122,"count":16,"type":"VEC2","name":"part005_vertices#0_TEXCOORD_0"},{"bufferView":0,"byteOffset":2760,"componentType":5122,"count":16,"type":"VEC2","name":"part005_vertices#0_TEXCOORD_1"},{"bufferView":0,"byteOffset":2764,"componentType":5123,"count":16,"type":"VEC4","name":"part005_vertices#0_COLOR_0"},{"bufferView":1,"byteOffset":288,"componentType":5123,"count":24,"type":"SCALAR","name":"part005_indices#0"}],"asset":{"generator":"ModelConverterX","version":"2.0","extensions":{"ASOBO_asset_optimized":{"BoundingBoxMax":[45.0000114440918,9.5,0.5],"BoundingBoxMin":[0.0,0.0,-30.499990463256837],"MajorVersion":4,"MinorVersion":4,"UseCheckerboardMaterialForMissingTextures":true,"UseOnlyFilenameForImageURI":true}}},"bufferViews":[{"buffer":0,"byteLength":3312,"byteStride":36,"target":34962,"name":"BufferViewVertexND"},{"buffer":0,"byteLength":336,"byteOffset":3312,"target":34963,"name":"BufferViewIndex"}],"extensionsRequired":["MSFT_texture_dds"],"materials":[{"name":"glTF_Material","pbrMetallicRoughness":{"metallicFactor":0.0,"baseColorTexture":{"index":0}}},{"name":"glTF_Materialx","pbrMetallicRoughness":{"metallicFactor":0.0}},{"name":"glTF_Materialxx","pbrMetallicRoughness":{"metallicFactor":0.0,"baseColorTexture":{"index":1}}},{"name":"glTF_Materialxxx","pbrMetallicRoughness":{"metallicFactor":0.0,"baseColorTexture":{"index":2}}},{"name":"glTF_Materialxxxx","pbrMetallicRoughness":{"metallicFactor":0.0,"baseColorTexture":{"index":3}}},{"name":"glTF_Materialxxxxx","pbrMetallicRoughness":{"metallicFactor":0.0,"baseColorTexture":{"index":4}}}],"meshes":[{"primitives":[{"attributes":{"COLOR_0":5,"NORMAL":2,"POSITION":0,"TANGENT":1,"TEXCOORD_0":3,"TEXCOORD_1":4},"indices":6,"material":1,"mode":4,"extras":{"ASOBO_primitive":{"PrimitiveCount":6,"VertexType":"VTX","VertexVersion":2}}}],"name":"part000"},{"primitives":[{"attributes":{"COLOR_0":12,"NORMAL":9,"POSITION":7,"TANGENT":8,"TEXCOORD_0":10,"TEXCOORD_1":11},"indices":13,"material":5,"mode":4,"extras":{"ASOBO_primitive":{"PrimitiveCount":16,"VertexType":"VTX","VertexVersion":2}}}],"name":"part001"},{"primitives":[{"attributes":{"COLOR_0":19,"NORMAL":16,"POSITION":14,"TANGENT":15,"TEXCOORD_0":17,"TEXCOORD_1":18},"indices":20,"material":4,"mode":4,"extras":{"ASOBO_primitive":{"PrimitiveCount":6,"VertexType":"VTX","VertexVersion":2}}}],"name":"part002"},{"primitives":[{"attributes":{"COLOR_0":26,"NORMAL":23,"POSITION":21,"TANGENT":22,"TEXCOORD_0":24,"TEXCOORD_1":25},"indices":27,"material":3,"mode":4,"extras":{"ASOBO_primitive":{"PrimitiveCount":16,"VertexType":"VTX","VertexVersion":2}}}],"name":"part003"},{"primitives":[{"attributes":{"COLOR_0":33,"NORMAL":30,"POSITION":28,"TANGENT":29,"TEXCOORD_0":31,"TEXCOORD_1":32},"indices":34,"material":0,"mode":4,"extras":{"ASOBO_primitive":{"PrimitiveCount":4,"VertexType":"VTX","VertexVersion":2}}}],"name":"part004"},{"primitives":[{"attributes":{"COLOR_0":40,"NORMAL":37,"POSITION":35,"TANGENT":36,"TEXCOORD_0":38,"TEXCOORD_1":39},"indices":41,"material":2,"mode":4,"extras":{"ASOBO_primitive":{"PrimitiveCount":8,"VertexType":"VTX","VertexVersion":2}}}],"name":"part005"}],"nodes":[{"name":"node0","children":[1,2,3,4,5,6]},{"mesh":0,"name":"node1"},{"mesh":1,"name":"node2"},{"mesh":2,"name":"node3"},{"mesh":3,"name":"node4"},{"mesh":4,"name":"node5"},{"mesh":5,"name":"node6"}],"scene":0,"scenes":[{"nodes":[0]}],"textures":[{"extensions":{"MSFT_texture_dds":{"source":0}}},{"extensions":{"MSFT_texture_dds":{"source":1}}},{"extensions":{"MSFT_texture_dds":{"source":2}}},{"extensions":{"MSFT_texture_dds":{"source":3}}},{"extensions":{"MSFT_texture_dds":{"source":4}}}],"extensionsUsed":["MSFT_texture_dds","ASOBO_asset_optimized"],"buffers":[{"byteLength":3648,"uri":"GYM.bin"}],"images":[{"uri":"AC.PNG.DDS","extras":"ASOBO_image_converted_meta"},{"uri":"GYMROOF.PNG.DDS","extras":"ASOBO_image_converted_meta"},{"uri":"GYMWALL.PNG.DDS","extras":"ASOBO_image_converted_meta"},{"uri":"GYMWALL2.PNG.DDS","extras":"ASOBO_image_converted_meta"},{"uri":"MATERIAL_1.PNG.DDS","extras":"ASOBO_image_converted_meta"}]}
