{"accessors":[{"bufferView":0,"componentType":5126,"count":1046,"min":[13.720040321350098,-0.0016499999910593033,1.6380399465560914],"max":[23.614830017089845,1.7999999523162842,5.383820056915283],"type":"VEC3","name":"part000_vertices#0_POSITION"},{"bufferView":0,"byteOffset":12,"componentType":5120,"count":1046,"type":"VEC4","name":"part000_vertices#0_TANGENT"},{"bufferView":0,"byteOffset":16,"componentType":5120,"count":1046,"type":"VEC4","name":"part000_vertices#0_NORMAL"},{"bufferView":0,"byteOffset":20,"componentType":5122,"count":1046,"type":"VEC2","name":"part000_vertices#0_TEXCOORD_0"},{"bufferView":0,"byteOffset":24,"componentType":5122,"count":1046,"type":"VEC2","name":"part000_vertices#0_TEXCOORD_1"},{"bufferView":0,"byteOffset":28,"componentType":5123,"count":1046,"type":"VEC4","name":"part000_vertices#0_COLOR_0"},{"bufferView":1,"componentType":5123,"count":2451,"type":"SCALAR","name":"part000_indices#0"},{"bufferView":0,"byteOffset":37656,"componentType":5126,"count":88,"min":[14.11520004272461,0.14656999707221986,2.4068500995635988],"max":[23.38616943359375,1.6699999570846558,4.818009853363037],"type":"VEC3","name":"part001_vertices#0_POSITION"},{"bufferView":0,"byteOffset":37668,"componentType":5120,"count":88,"type":"VEC4","name":"part001_vertices#0_TANGENT"},{"bufferView":0,"byteOffset":37672,"componentType":5120,"count":88,"type":"VEC4","name":"part001_vertices#0_NORMAL"},{"bufferView":0,"byteOffset":37676,"componentType":5122,"count":88,"type":"VEC2","name":"part001_vertices#0_TEXCOORD_0"},{"bufferView":0,"byteOffset":37680,"componentType":5122,"count":88,"type":"VEC2","name":"part001_vertices#0_TEXCOORD_1"},{"bufferView":0,"byteOffset":37684,"componentType":5123,"count":88,"type":"VEC4","name":"part001_vertices#0_COLOR_0"},{"bufferView":1,"byteOffset":4902,"componentType":5123,"count":252,"type":"SCALAR","name":"part001_indices#0"}],"asset":{"generator":"ModelConverterX","version":"2.0","extensions":{"ASOBO_asset_optimized":{"BoundingBoxMax":[23.614830017089845,1.7999999523162842,5.383820056915283],"BoundingBoxMin":[13.720040321350098,-0.0016499999910593033,1.6380399465560914],"MajorVersion":4,"MinorVersion":4,"UseCheckerboardMaterialForMissingTextures":true,"UseOnlyFilenameForImageURI":true}}},"bufferViews":[{"buffer":0,"byteLength":40824,"byteStride":36,"target":34962,"name":"BufferViewVertexND"},{"buffer":0,"byteLength":5406,"byteOffset":40824,"target":34963,"name":"BufferViewIndex"}],"extensionsRequired":["MSFT_texture_dds"],"materials":[{"name":"glTF_Material","pbrMetallicRoughness":{"metallicFactor":0.0}},{"name":"glTF_Materialx","pbrMetallicRoughness":{"metallicFactor":0.0,"baseColorTexture":{"index":0}}}],"meshes":[{"primitives":[{"attributes":{"COLOR_0":5,"NORMAL":2,"POSITION":0,"TANGENT":1,"TEXCOORD_0":3,"TEXCOORD_1":4},"indices":6,"material":1,"mode":4,"extras":{"ASOBO_primitive":{"PrimitiveCount":817,"VertexType":"VTX","VertexVersion":2}}}],"name":"part000"},{"primitives":[{"attributes":{"COLOR_0":12,"NORMAL":9,"POSITION":7,"TANGENT":8,"TEXCOORD_0":10,"TEXCOORD_1":11},"indices":13,"material":0,"mode":4,"extras":{"ASOBO_primitive":{"PrimitiveCount":84,"VertexType":"VTX","VertexVersion":2}}}],"name":"part001"}],"nodes":[{"name":"node0","children":[1,2]},{"mesh":0,"name":"node1"},{"mesh":1,"name":"node2"}],"scene":0,"scenes":[{"nodes":[0]}],"textures":[{"extensions":{"MSFT_texture_dds":{"source":0}}}],"extensionsUsed":["MSFT_texture_dds","ASOBO_asset_optimized"],"buffers":[{"byteLength":46230,"uri":"llmg_fuel.bin"}],"images":[{"uri":"LLMG_FUEL.PNG.DDS","extras":"ASOBO_image_converted_meta"}]}
