{"accessors":[{"bufferView":0,"componentType":5126,"count":7366,"min":[0.4857200086116791,-0.4525200128555298,-5.788000106811523],"max":[3.5923500061035158,3.331470012664795,3.7884700298309328],"type":"VEC3","name":"part000_vertices#0_POSITION"},{"bufferView":0,"byteOffset":12,"componentType":5120,"count":7366,"type":"VEC4","name":"part000_vertices#0_TANGENT"},{"bufferView":0,"byteOffset":16,"componentType":5120,"count":7366,"type":"VEC4","name":"part000_vertices#0_NORMAL"},{"bufferView":0,"byteOffset":20,"componentType":5122,"count":7366,"type":"VEC2","name":"part000_vertices#0_TEXCOORD_0"},{"bufferView":0,"byteOffset":24,"componentType":5122,"count":7366,"type":"VEC2","name":"part000_vertices#0_TEXCOORD_1"},{"bufferView":0,"byteOffset":28,"componentType":5123,"count":7366,"type":"VEC4","name":"part000_vertices#0_COLOR_0"},{"bufferView":1,"componentType":5123,"count":8178,"type":"SCALAR","name":"part000_indices#0"},{"bufferView":0,"byteOffset":265176,"componentType":5126,"count":109,"min":[1.9977200031280518,3.259469985961914,-4.690000057220459],"max":[2.0297200679779054,3.2954699993133547,-4.659999847412109],"type":"VEC3","name":"part001_vertices#0_POSITION"},{"bufferView":0,"byteOffset":265188,"componentType":5120,"count":109,"type":"VEC4","name":"part001_vertices#0_TANGENT"},{"bufferView":0,"byteOffset":265192,"componentType":5120,"count":109,"type":"VEC4","name":"part001_vertices#0_NORMAL"},{"bufferView":0,"byteOffset":265196,"componentType":5122,"count":109,"type":"VEC2","name":"part001_vertices#0_TEXCOORD_0"},{"bufferView":0,"byteOffset":265200,"componentType":5122,"count":109,"type":"VEC2","name":"part001_vertices#0_TEXCOORD_1"},{"bufferView":0,"byteOffset":265204,"componentType":5123,"count":109,"type":"VEC4","name":"part001_vertices#0_COLOR_0"},{"bufferView":1,"byteOffset":16356,"componentType":5123,"count":117,"type":"SCALAR","name":"part001_indices#0"},{"bufferView":0,"byteOffset":269100,"componentType":5126,"count":96,"min":[1.7973699569702149,1.9881999492645264,-0.16697999835014344],"max":[1.909060001373291,2.0030899047851564,-0.1466899961233139],"type":"VEC3","name":"part002_vertices#0_POSITION"},{"bufferView":0,"byteOffset":269112,"componentType":5120,"count":96,"type":"VEC4","name":"part002_vertices#0_TANGENT"},{"bufferView":0,"byteOffset":269116,"componentType":5120,"count":96,"type":"VEC4","name":"part002_vertices#0_NORMAL"},{"bufferView":0,"byteOffset":269120,"componentType":5122,"count":96,"type":"VEC2","name":"part002_vertices#0_TEXCOORD_0"},{"bufferView":0,"byteOffset":269124,"componentType":5122,"count":96,"type":"VEC2","name":"part002_vertices#0_TEXCOORD_1"},{"bufferView":0,"byteOffset":269128,"componentType":5123,"count":96,"type":"VEC4","name":"part002_vertices#0_COLOR_0"},{"bufferView":1,"byteOffset":16590,"componentType":5123,"count":96,"type":"SCALAR","name":"part002_indices#0"},{"bufferView":0,"byteOffset":272556,"componentType":5126,"count":3914,"min":[-5.218279838562012,0.6674799919128418,-5.480199813842773],"max":[9.245719909667969,1.9754799604415894,0.7319999933242798],"type":"VEC3","name":"part003_vertices#0_POSITION"},{"bufferView":0,"byteOffset":272568,"componentType":5120,"count":3914,"type":"VEC4","name":"part003_vertices#0_TANGENT"},{"bufferView":0,"byteOffset":272572,"componentType":5120,"count":3914,"type":"VEC4","name":"part003_vertices#0_NORMAL"},{"bufferView":0,"byteOffset":272576,"componentType":5122,"count":3914,"type":"VEC2","name":"part003_vertices#0_TEXCOORD_0"},{"bufferView":0,"byteOffset":272580,"componentType":5122,"count":3914,"type":"VEC2","name":"part003_vertices#0_TEXCOORD_1"},{"bufferView":0,"byteOffset":272584,"componentType":5123,"count":3914,"type":"VEC4","name":"part003_vertices#0_COLOR_0"},{"bufferView":1,"byteOffset":16782,"componentType":5123,"count":5022,"type":"SCALAR","name":"part003_indices#0"},{"bufferView":0,"byteOffset":413460,"componentType":5126,"count":618,"min":[1.4457199573516846,1.3994799852371216,-2.7079999446868898],"max":[2.6217200756073,2.8634800910949709,-0.18799999356269837],"type":"VEC3","name":"part004_vertices#0_POSITION"},{"bufferView":0,"byteOffset":413472,"componentType":5120,"count":618,"type":"VEC4","name":"part004_vertices#0_TANGENT"},{"bufferView":0,"byteOffset":413476,"componentType":5120,"count":618,"type":"VEC4","name":"part004_vertices#0_NORMAL"},{"bufferView":0,"byteOffset":413480,"componentType":5122,"count":618,"type":"VEC2","name":"part004_vertices#0_TEXCOORD_0"},{"bufferView":0,"byteOffset":413484,"componentType":5122,"count":618,"type":"VEC2","name":"part004_vertices#0_TEXCOORD_1"},{"bufferView":0,"byteOffset":413488,"componentType":5123,"count":618,"type":"VEC4","name":"part004_vertices#0_COLOR_0"},{"bufferView":1,"byteOffset":26826,"componentType":5123,"count":618,"type":"SCALAR","name":"part004_indices#0"},{"bufferView":0,"byteOffset":435708,"componentType":5126,"count":140,"min":[-5.234280109405518,1.439479947090149,0.10000000149011612],"max":[-5.18228006362915,1.4994800090789796,0.15600000321865083],"type":"VEC3","name":"part005_vertices#0_POSITION"},{"bufferView":0,"byteOffset":435720,"componentType":5120,"count":140,"type":"VEC4","name":"part005_vertices#0_TANGENT"},{"bufferView":0,"byteOffset":435724,"componentType":5120,"count":140,"type":"VEC4","name":"part005_vertices#0_NORMAL"},{"bufferView":0,"byteOffset":435728,"componentType":5122,"count":140,"type":"VEC2","name":"part005_vertices#0_TEXCOORD_0"},{"bufferView":0,"byteOffset":435732,"componentType":5122,"count":140,"type":"VEC2","name":"part005_vertices#0_TEXCOORD_1"},{"bufferView":0,"byteOffset":435736,"componentType":5123,"count":140,"type":"VEC4","name":"part005_vertices#0_COLOR_0"},{"bufferView":1,"byteOffset":28062,"componentType":5123,"count":156,"type":"SCALAR","name":"part005_indices#0"},{"bufferView":0,"byteOffset":440748,"componentType":5126,"count":142,"min":[9.20971965789795,1.439479947090149,0.10000000149011612],"max":[9.26572036743164,1.4994800090789796,0.15600000321865083],"type":"VEC3","name":"part006_vertices#0_POSITION"},{"bufferView":0,"byteOffset":440760,"componentType":5120,"count":142,"type":"VEC4","name":"part006_vertices#0_TANGENT"},{"bufferView":0,"byteOffset":440764,"componentType":5120,"count":142,"type":"VEC4","name":"part006_vertices#0_NORMAL"},{"bufferView":0,"byteOffset":440768,"componentType":5122,"count":142,"type":"VEC2","name":"part006_vertices#0_TEXCOORD_0"},{"bufferView":0,"byteOffset":440772,"componentType":5122,"count":142,"type":"VEC2","name":"part006_vertices#0_TEXCOORD_1"},{"bufferView":0,"byteOffset":440776,"componentType":5123,"count":142,"type":"VEC4","name":"part006_vertices#0_COLOR_0"},{"bufferView":1,"byteOffset":28374,"componentType":5123,"count":162,"type":"SCALAR","name":"part006_indices#0"}],"asset":{"generator":"ModelConverterX","version":"2.0","extensions":{"ASOBO_asset_optimized":{"BoundingBoxMax":[9.26572036743164,3.331470012664795,3.7884700298309328],"BoundingBoxMin":[-5.234280109405518,-0.4525200128555298,-5.788000106811523],"MajorVersion":4,"MinorVersion":4,"UseCheckerboardMaterialForMissingTextures":true,"UseOnlyFilenameForImageURI":true}}},"bufferViews":[{"buffer":0,"byteLength":445860,"byteStride":36,"target":34962,"name":"BufferViewVertexND"},{"buffer":0,"byteLength":28698,"byteOffset":445860,"target":34963,"name":"BufferViewIndex"}],"extensionsRequired":["MSFT_texture_dds"],"materials":[{"name":"material00","pbrMetallicRoughness":{"baseColorFactor":[0.6039215922355652,0.0,0.0,1.0],"metallicFactor":0.0},"extensions":{"ASOBO_material_day_night_switch":{}}},{"name":"material01","pbrMetallicRoughness":{"baseColorFactor":[0.0117647098377347,0.46666669845581057,0.0,1.0],"metallicFactor":0.0},"extensions":{"ASOBO_material_day_night_switch":{}}},{"name":"material02","pbrMetallicRoughness":{"metallicFactor":0.0},"extensions":{"ASOBO_material_day_night_switch":{}}},{"name":"material03","pbrMetallicRoughness":{"metallicFactor":0.0,"roughnessFactor":0.0,"baseColorTexture":{"index":0}},"extensions":{"ASOBO_material_day_night_switch":{}}},{"name":"material04","pbrMetallicRoughness":{"metallicFactor":0.0,"baseColorTexture":{"index":1}},"extensions":{"ASOBO_material_day_night_switch":{}}},{"name":"material05","pbrMetallicRoughness":{"metallicFactor":0.0,"baseColorTexture":{"index":2}},"extensions":{"ASOBO_material_day_night_switch":{}}},{"name":"material06","pbrMetallicRoughness":{"metallicFactor":0.0,"baseColorTexture":{"index":3}},"extensions":{"ASOBO_material_day_night_switch":{}}}],"meshes":[{"primitives":[{"attributes":{"COLOR_0":5,"NORMAL":2,"POSITION":0,"TANGENT":1,"TEXCOORD_0":3,"TEXCOORD_1":4},"indices":6,"material":3,"mode":4,"extras":{"ASOBO_primitive":{"PrimitiveCount":2726,"VertexType":"VTX","VertexVersion":2}}}],"name":"part000"},{"primitives":[{"attributes":{"COLOR_0":12,"NORMAL":9,"POSITION":7,"TANGENT":8,"TEXCOORD_0":10,"TEXCOORD_1":11},"indices":13,"material":2,"mode":4,"extras":{"ASOBO_primitive":{"PrimitiveCount":39,"VertexType":"VTX","VertexVersion":2}}}],"name":"part001"},{"primitives":[{"attributes":{"COLOR_0":19,"NORMAL":16,"POSITION":14,"TANGENT":15,"TEXCOORD_0":17,"TEXCOORD_1":18},"indices":20,"material":4,"mode":4,"extras":{"ASOBO_primitive":{"PrimitiveCount":32,"VertexType":"VTX","VertexVersion":2}}}],"name":"part002"},{"primitives":[{"attributes":{"COLOR_0":26,"NORMAL":23,"POSITION":21,"TANGENT":22,"TEXCOORD_0":24,"TEXCOORD_1":25},"indices":27,"material":6,"mode":4,"extras":{"ASOBO_primitive":{"PrimitiveCount":1674,"VertexType":"VTX","VertexVersion":2}}}],"name":"part003"},{"primitives":[{"attributes":{"COLOR_0":33,"NORMAL":30,"POSITION":28,"TANGENT":29,"TEXCOORD_0":31,"TEXCOORD_1":32},"indices":34,"material":5,"mode":4,"extras":{"ASOBO_primitive":{"PrimitiveCount":206,"VertexType":"VTX","VertexVersion":2}}}],"name":"part004"},{"primitives":[{"attributes":{"COLOR_0":40,"NORMAL":37,"POSITION":35,"TANGENT":36,"TEXCOORD_0":38,"TEXCOORD_1":39},"indices":41,"material":1,"mode":4,"extras":{"ASOBO_primitive":{"PrimitiveCount":52,"VertexType":"VTX","VertexVersion":2}}}],"name":"part005"},{"primitives":[{"attributes":{"COLOR_0":47,"NORMAL":44,"POSITION":42,"TANGENT":43,"TEXCOORD_0":45,"TEXCOORD_1":46},"indices":48,"material":0,"mode":4,"extras":{"ASOBO_primitive":{"PrimitiveCount":54,"VertexType":"VTX","VertexVersion":2}}}],"name":"part006"}],"nodes":[{"name":"node0","children":[1,2,3,4,5,6,7]},{"mesh":0,"name":"node8"},{"mesh":1,"name":"node9"},{"mesh":2,"name":"node10"},{"mesh":3,"name":"node11"},{"mesh":4,"name":"node12"},{"mesh":5,"name":"node13"},{"mesh":6,"name":"node14"}],"scene":0,"scenes":[{"nodes":[0]}],"textures":[{"extensions":{"MSFT_texture_dds":{"source":0}}},{"extensions":{"MSFT_texture_dds":{"source":1}}},{"extensions":{"MSFT_texture_dds":{"source":2}}},{"extensions":{"MSFT_texture_dds":{"source":3}}}],"extensionsUsed":["ASOBO_material_day_night_switch","MSFT_texture_dds","ASOBO_asset_optimized"],"buffers":[{"byteLength":474558,"uri":"ChimNirThrush_LOD1.bin"}],"images":[{"uri":"FUSELAGE_T_CHIMNIR.PNG.DDS","extras":"ASOBO_image_converted_meta"},{"uri":"PANELS_CHIMNIR.PNG.DDS","extras":"ASOBO_image_converted_meta"},{"uri":"VC_CHIMNIR.PNG.DDS","extras":"ASOBO_image_converted_meta"},{"uri":"WINGS_T_CHIMNIR.PNG.DDS","extras":"ASOBO_image_converted_meta"}]}
