{"accessors":[{"bufferView":0,"componentType":5126,"count":20,"min":[0.0,0.0,-35.326698303222659],"max":[53.50374984741211,0.0,0.0],"type":"VEC3","name":"part000_vertices#0_POSITION"},{"bufferView":0,"byteOffset":12,"componentType":5120,"count":20,"type":"VEC4","name":"part000_vertices#0_TANGENT"},{"bufferView":0,"byteOffset":16,"componentType":5120,"count":20,"type":"VEC4","name":"part000_vertices#0_NORMAL"},{"bufferView":0,"byteOffset":20,"componentType":5122,"count":20,"type":"VEC2","name":"part000_vertices#0_TEXCOORD_0"},{"bufferView":0,"byteOffset":24,"componentType":5122,"count":20,"type":"VEC2","name":"part000_vertices#0_TEXCOORD_1"},{"bufferView":0,"byteOffset":28,"componentType":5123,"count":20,"type":"VEC4","name":"part000_vertices#0_COLOR_0"},{"bufferView":1,"componentType":5123,"count":54,"type":"SCALAR","name":"part000_indices#0"},{"bufferView":0,"byteOffset":720,"componentType":5126,"count":47,"min":[0.0,0.0,-35.326698303222659],"max":[53.50374984741211,21.5,-9.84535026550293],"type":"VEC3","name":"part001_vertices#0_POSITION"},{"bufferView":0,"byteOffset":732,"componentType":5120,"count":47,"type":"VEC4","name":"part001_vertices#0_TANGENT"},{"bufferView":0,"byteOffset":736,"componentType":5120,"count":47,"type":"VEC4","name":"part001_vertices#0_NORMAL"},{"bufferView":0,"byteOffset":740,"componentType":5122,"count":47,"type":"VEC2","name":"part001_vertices#0_TEXCOORD_0"},{"bufferView":0,"byteOffset":744,"componentType":5122,"count":47,"type":"VEC2","name":"part001_vertices#0_TEXCOORD_1"},{"bufferView":0,"byteOffset":748,"componentType":5123,"count":47,"type":"VEC4","name":"part001_vertices#0_COLOR_0"},{"bufferView":1,"byteOffset":108,"componentType":5123,"count":111,"type":"SCALAR","name":"part001_indices#0"},{"bufferView":0,"byteOffset":2412,"componentType":5126,"count":192,"min":[0.0,0.0,-35.326698303222659],"max":[53.50374984741211,22.5,0.0],"type":"VEC3","name":"part002_vertices#0_POSITION"},{"bufferView":0,"byteOffset":2424,"componentType":5120,"count":192,"type":"VEC4","name":"part002_vertices#0_TANGENT"},{"bufferView":0,"byteOffset":2428,"componentType":5120,"count":192,"type":"VEC4","name":"part002_vertices#0_NORMAL"},{"bufferView":0,"byteOffset":2432,"componentType":5122,"count":192,"type":"VEC2","name":"part002_vertices#0_TEXCOORD_0"},{"bufferView":0,"byteOffset":2436,"componentType":5122,"count":192,"type":"VEC2","name":"part002_vertices#0_TEXCOORD_1"},{"bufferView":0,"byteOffset":2440,"componentType":5123,"count":192,"type":"VEC4","name":"part002_vertices#0_COLOR_0"},{"bufferView":1,"byteOffset":330,"componentType":5123,"count":396,"type":"SCALAR","name":"part002_indices#0"},{"bufferView":0,"byteOffset":9324,"componentType":5126,"count":13,"min":[2.0,0.0,-12.5],"max":[51.751861572265628,21.5,0.0],"type":"VEC3","name":"part003_vertices#0_POSITION"},{"bufferView":0,"byteOffset":9336,"componentType":5120,"count":13,"type":"VEC4","name":"part003_vertices#0_TANGENT"},{"bufferView":0,"byteOffset":9340,"componentType":5120,"count":13,"type":"VEC4","name":"part003_vertices#0_NORMAL"},{"bufferView":0,"byteOffset":9344,"componentType":5122,"count":13,"type":"VEC2","name":"part003_vertices#0_TEXCOORD_0"},{"bufferView":0,"byteOffset":9348,"componentType":5122,"count":13,"type":"VEC2","name":"part003_vertices#0_TEXCOORD_1"},{"bufferView":0,"byteOffset":9352,"componentType":5123,"count":13,"type":"VEC4","name":"part003_vertices#0_COLOR_0"},{"bufferView":1,"byteOffset":1122,"componentType":5123,"count":21,"type":"SCALAR","name":"part003_indices#0"},{"bufferView":0,"byteOffset":9792,"componentType":5126,"count":4,"min":[0.0,17.95808982849121,-27.91172981262207],"max":[3.3035900592803957,19.97838020324707,-25.0],"type":"VEC3","name":"part004_vertices#0_POSITION"},{"bufferView":0,"byteOffset":9804,"componentType":5120,"count":4,"type":"VEC4","name":"part004_vertices#0_TANGENT"},{"bufferView":0,"byteOffset":9808,"componentType":5120,"count":4,"type":"VEC4","name":"part004_vertices#0_NORMAL"},{"bufferView":0,"byteOffset":9812,"componentType":5122,"count":4,"type":"VEC2","name":"part004_vertices#0_TEXCOORD_0"},{"bufferView":0,"byteOffset":9816,"componentType":5122,"count":4,"type":"VEC2","name":"part004_vertices#0_TEXCOORD_1"},{"bufferView":0,"byteOffset":9820,"componentType":5123,"count":4,"type":"VEC4","name":"part004_vertices#0_COLOR_0"},{"bufferView":1,"byteOffset":1164,"componentType":5123,"count":6,"type":"SCALAR","name":"part004_indices#0"}],"asset":{"generator":"ModelConverterX","version":"2.0","extensions":{"ASOBO_asset_optimized":{"BoundingBoxMax":[53.50374984741211,22.5,0.0],"BoundingBoxMin":[0.0,0.0,-35.326698303222659],"MajorVersion":4,"MinorVersion":4,"UseCheckerboardMaterialForMissingTextures":true,"UseOnlyFilenameForImageURI":true}}},"bufferViews":[{"buffer":0,"byteLength":9936,"byteStride":36,"target":34962,"name":"BufferViewVertexND"},{"buffer":0,"byteLength":1176,"byteOffset":9936,"target":34963,"name":"BufferViewIndex"}],"extensionsRequired":["MSFT_texture_dds"],"materials":[{"name":"glTF_Material","pbrMetallicRoughness":{"metallicFactor":0.0}},{"name":"glTF_Materialx","pbrMetallicRoughness":{"metallicFactor":0.0,"baseColorTexture":{"index":0}}},{"name":"glTF_Materialxx","pbrMetallicRoughness":{"metallicFactor":0.0,"baseColorTexture":{"index":1}}},{"name":"glTF_Materialxxx","pbrMetallicRoughness":{"metallicFactor":0.0,"baseColorTexture":{"index":2}}},{"name":"glTF_Materialxxxx","pbrMetallicRoughness":{"metallicFactor":0.0,"baseColorTexture":{"index":3}}}],"meshes":[{"primitives":[{"attributes":{"COLOR_0":5,"NORMAL":2,"POSITION":0,"TANGENT":1,"TEXCOORD_0":3,"TEXCOORD_1":4},"indices":6,"material":0,"mode":4,"extras":{"ASOBO_primitive":{"PrimitiveCount":18,"VertexType":"VTX","VertexVersion":2}}}],"name":"part000"},{"primitives":[{"attributes":{"COLOR_0":12,"NORMAL":9,"POSITION":7,"TANGENT":8,"TEXCOORD_0":10,"TEXCOORD_1":11},"indices":13,"material":3,"mode":4,"extras":{"ASOBO_primitive":{"PrimitiveCount":37,"VertexType":"VTX","VertexVersion":2}}}],"name":"part001"},{"primitives":[{"attributes":{"COLOR_0":19,"NORMAL":16,"POSITION":14,"TANGENT":15,"TEXCOORD_0":17,"TEXCOORD_1":18},"indices":20,"material":2,"mode":4,"extras":{"ASOBO_primitive":{"PrimitiveCount":132,"VertexType":"VTX","VertexVersion":2}}}],"name":"part002"},{"primitives":[{"attributes":{"COLOR_0":26,"NORMAL":23,"POSITION":21,"TANGENT":22,"TEXCOORD_0":24,"TEXCOORD_1":25},"indices":27,"material":4,"mode":4,"extras":{"ASOBO_primitive":{"PrimitiveCount":7,"VertexType":"VTX","VertexVersion":2}}}],"name":"part003"},{"primitives":[{"attributes":{"COLOR_0":33,"NORMAL":30,"POSITION":28,"TANGENT":29,"TEXCOORD_0":31,"TEXCOORD_1":32},"indices":34,"material":1,"mode":4,"extras":{"ASOBO_primitive":{"PrimitiveCount":2,"VertexType":"VTX","VertexVersion":2}}}],"name":"part004"}],"nodes":[{"name":"node0","children":[1,2,3,4,5]},{"mesh":0,"name":"node1"},{"mesh":1,"name":"node2"},{"mesh":2,"name":"node3"},{"mesh":3,"name":"node4"},{"mesh":4,"name":"node5"}],"scene":0,"scenes":[{"nodes":[0]}],"textures":[{"extensions":{"MSFT_texture_dds":{"source":0}}},{"extensions":{"MSFT_texture_dds":{"source":1}}},{"extensions":{"MSFT_texture_dds":{"source":2}}},{"extensions":{"MSFT_texture_dds":{"source":3}}}],"extensionsUsed":["MSFT_texture_dds","ASOBO_asset_optimized"],"buffers":[{"byteLength":11112,"uri":"BUILDINGOFFICE1.bin"}],"images":[{"uri":"LOGO.PNG.DDS","extras":"ASOBO_image_converted_meta"},{"uri":"OFFICEROOF.PNG.DDS","extras":"ASOBO_image_converted_meta"},{"uri":"OFFICEWALL.PNG.DDS","extras":"ASOBO_image_converted_meta"},{"uri":"OFFICEWALL2.PNG.DDS","extras":"ASOBO_image_converted_meta"}]}
