{"accessors":[{"bufferView":0,"componentType":5126,"count":188,"min":[-28.07472038269043,0.0,-2.450367425310099e-15],"max":[-2.4468283098982338e-15,6.604401588439941,20.02627944946289],"type":"VEC3","name":"part000_vertices#0_POSITION"},{"bufferView":0,"byteOffset":12,"componentType":5120,"count":188,"type":"VEC4","name":"part000_vertices#0_TANGENT"},{"bufferView":0,"byteOffset":16,"componentType":5120,"count":188,"type":"VEC4","name":"part000_vertices#0_NORMAL"},{"bufferView":0,"byteOffset":20,"componentType":5122,"count":188,"type":"VEC2","name":"part000_vertices#0_TEXCOORD_0"},{"bufferView":0,"byteOffset":24,"componentType":5122,"count":188,"type":"VEC2","name":"part000_vertices#0_TEXCOORD_1"},{"bufferView":0,"byteOffset":28,"componentType":5123,"count":188,"type":"VEC4","name":"part000_vertices#0_COLOR_0"},{"bufferView":1,"componentType":5123,"count":336,"type":"SCALAR","name":"part000_indices#0"},{"bufferView":0,"byteOffset":6768,"componentType":5126,"count":8,"min":[-28.07472038269043,3.9683890342712404,0.026280108839273454],"max":[-0.027287980541586877,6.604401588439941,20.02627944946289],"type":"VEC3","name":"part001_vertices#0_POSITION"},{"bufferView":0,"byteOffset":6780,"componentType":5120,"count":8,"type":"VEC4","name":"part001_vertices#0_TANGENT"},{"bufferView":0,"byteOffset":6784,"componentType":5120,"count":8,"type":"VEC4","name":"part001_vertices#0_NORMAL"},{"bufferView":0,"byteOffset":6788,"componentType":5122,"count":8,"type":"VEC2","name":"part001_vertices#0_TEXCOORD_0"},{"bufferView":0,"byteOffset":6792,"componentType":5122,"count":8,"type":"VEC2","name":"part001_vertices#0_TEXCOORD_1"},{"bufferView":0,"byteOffset":6796,"componentType":5123,"count":8,"type":"VEC4","name":"part001_vertices#0_COLOR_0"},{"bufferView":1,"byteOffset":672,"componentType":5123,"count":12,"type":"SCALAR","name":"part001_indices#0"}],"asset":{"generator":"ModelConverterX","version":"2.0","extensions":{"ASOBO_asset_optimized":{"BoundingBoxMax":[-2.4468283098982338e-15,6.604401588439941,20.02627944946289],"BoundingBoxMin":[-28.07472038269043,0.0,-2.450367425310099e-15],"MajorVersion":4,"MinorVersion":4,"UseCheckerboardMaterialForMissingTextures":true,"UseOnlyFilenameForImageURI":true}}},"bufferViews":[{"buffer":0,"byteLength":7056,"byteStride":36,"target":34962,"name":"BufferViewVertexND"},{"buffer":0,"byteLength":696,"byteOffset":7056,"target":34963,"name":"BufferViewIndex"}],"extensionsRequired":["MSFT_texture_dds"],"materials":[{"name":"__","pbrMetallicRoughness":{"baseColorTexture":{"index":0}},"extensions":{"ASOBO_material_day_night_switch":{}}},{"name":"__auto_2","pbrMetallicRoughness":{"baseColorTexture":{"index":1}},"extensions":{"ASOBO_material_day_night_switch":{}}}],"meshes":[{"primitives":[{"attributes":{"COLOR_0":5,"NORMAL":2,"POSITION":0,"TANGENT":1,"TEXCOORD_0":3,"TEXCOORD_1":4},"indices":6,"material":1,"mode":4,"extras":{"ASOBO_primitive":{"PrimitiveCount":112,"VertexType":"VTX","VertexVersion":2}}}],"name":"part000"},{"primitives":[{"attributes":{"COLOR_0":12,"NORMAL":9,"POSITION":7,"TANGENT":8,"TEXCOORD_0":10,"TEXCOORD_1":11},"indices":13,"material":0,"mode":4,"extras":{"ASOBO_primitive":{"PrimitiveCount":4,"VertexType":"VTX","VertexVersion":2}}}],"name":"part001"}],"nodes":[{"name":"node0","children":[1,2]},{"mesh":0,"name":"node1"},{"mesh":1,"name":"node2"}],"scene":0,"scenes":[{"nodes":[0]}],"textures":[{"extensions":{"MSFT_texture_dds":{"source":0}}},{"extensions":{"MSFT_texture_dds":{"source":1}}}],"extensionsUsed":["ASOBO_material_day_night_switch","MSFT_texture_dds","ASOBO_asset_optimized"],"buffers":[{"byteLength":7752,"uri":"fna2.bin"}],"images":[{"uri":"VERTICAL_SQUARE_IRON.PNG.DDS","extras":"ASOBO_image_converted_meta"},{"uri":"FNA2.PNG.DDS","extras":"ASOBO_image_converted_meta"}]}
