{"accessors":[{"bufferView":0,"componentType":5126,"count":4,"min":[-0.10000000149011612,5.0,-45.10000991821289],"max":[20.100000381469728,5.0,0.10000000149011612],"type":"VEC3","name":"part000_vertices#0_POSITION"},{"bufferView":0,"byteOffset":12,"componentType":5120,"count":4,"type":"VEC4","name":"part000_vertices#0_TANGENT"},{"bufferView":0,"byteOffset":16,"componentType":5120,"count":4,"type":"VEC4","name":"part000_vertices#0_NORMAL"},{"bufferView":0,"byteOffset":20,"componentType":5122,"count":4,"type":"VEC2","name":"part000_vertices#0_TEXCOORD_0"},{"bufferView":0,"byteOffset":24,"componentType":5122,"count":4,"type":"VEC2","name":"part000_vertices#0_TEXCOORD_1"},{"bufferView":0,"byteOffset":28,"componentType":5123,"count":4,"type":"VEC4","name":"part000_vertices#0_COLOR_0"},{"bufferView":1,"componentType":5123,"count":6,"type":"SCALAR","name":"part000_indices#0"},{"bufferView":0,"byteOffset":144,"componentType":5126,"count":103,"min":[-0.10000000149011612,0.0,-45.10000991821289],"max":[20.100000381469728,5.0,0.10000000149011612],"type":"VEC3","name":"part001_vertices#0_POSITION"},{"bufferView":0,"byteOffset":156,"componentType":5120,"count":103,"type":"VEC4","name":"part001_vertices#0_TANGENT"},{"bufferView":0,"byteOffset":160,"componentType":5120,"count":103,"type":"VEC4","name":"part001_vertices#0_NORMAL"},{"bufferView":0,"byteOffset":164,"componentType":5122,"count":103,"type":"VEC2","name":"part001_vertices#0_TEXCOORD_0"},{"bufferView":0,"byteOffset":168,"componentType":5122,"count":103,"type":"VEC2","name":"part001_vertices#0_TEXCOORD_1"},{"bufferView":0,"byteOffset":172,"componentType":5123,"count":103,"type":"VEC4","name":"part001_vertices#0_COLOR_0"},{"bufferView":1,"byteOffset":12,"componentType":5123,"count":198,"type":"SCALAR","name":"part001_indices#0"},{"bufferView":0,"byteOffset":3852,"componentType":5126,"count":39,"min":[-0.10000000149011612,0.0,-45.10000991821289],"max":[20.100000381469728,5.0,0.10000000149011612],"type":"VEC3","name":"part002_vertices#0_POSITION"},{"bufferView":0,"byteOffset":3864,"componentType":5120,"count":39,"type":"VEC4","name":"part002_vertices#0_TANGENT"},{"bufferView":0,"byteOffset":3868,"componentType":5120,"count":39,"type":"VEC4","name":"part002_vertices#0_NORMAL"},{"bufferView":0,"byteOffset":3872,"componentType":5122,"count":39,"type":"VEC2","name":"part002_vertices#0_TEXCOORD_0"},{"bufferView":0,"byteOffset":3876,"componentType":5122,"count":39,"type":"VEC2","name":"part002_vertices#0_TEXCOORD_1"},{"bufferView":0,"byteOffset":3880,"componentType":5123,"count":39,"type":"VEC4","name":"part002_vertices#0_COLOR_0"},{"bufferView":1,"byteOffset":408,"componentType":5123,"count":75,"type":"SCALAR","name":"part002_indices#0"},{"bufferView":0,"byteOffset":5256,"componentType":5126,"count":82,"min":[-0.10000000149011612,0.0,-45.10000991821289],"max":[0.47172999382019045,5.0,0.10000000149011612],"type":"VEC3","name":"part003_vertices#0_POSITION"},{"bufferView":0,"byteOffset":5268,"componentType":5120,"count":82,"type":"VEC4","name":"part003_vertices#0_TANGENT"},{"bufferView":0,"byteOffset":5272,"componentType":5120,"count":82,"type":"VEC4","name":"part003_vertices#0_NORMAL"},{"bufferView":0,"byteOffset":5276,"componentType":5122,"count":82,"type":"VEC2","name":"part003_vertices#0_TEXCOORD_0"},{"bufferView":0,"byteOffset":5280,"componentType":5122,"count":82,"type":"VEC2","name":"part003_vertices#0_TEXCOORD_1"},{"bufferView":0,"byteOffset":5284,"componentType":5123,"count":82,"type":"VEC4","name":"part003_vertices#0_COLOR_0"},{"bufferView":1,"byteOffset":558,"componentType":5123,"count":159,"type":"SCALAR","name":"part003_indices#0"}],"asset":{"generator":"ModelConverterX","version":"2.0","extensions":{"ASOBO_asset_optimized":{"BoundingBoxMax":[20.100000381469728,5.0,0.10000000149011612],"BoundingBoxMin":[-0.10000000149011612,0.0,-45.10000991821289],"MajorVersion":4,"MinorVersion":4,"UseCheckerboardMaterialForMissingTextures":true,"UseOnlyFilenameForImageURI":true}}},"bufferViews":[{"buffer":0,"byteLength":8208,"byteStride":36,"target":34962,"name":"BufferViewVertexND"},{"buffer":0,"byteLength":876,"byteOffset":8208,"target":34963,"name":"BufferViewIndex"}],"extensionsRequired":["MSFT_texture_dds"],"materials":[{"name":"material00","pbrMetallicRoughness":{"metallicFactor":0.0,"baseColorTexture":{"index":0}},"extensions":{"ASOBO_material_day_night_switch":{}}},{"name":"material01","pbrMetallicRoughness":{"metallicFactor":0.0,"baseColorTexture":{"index":1}},"extensions":{"ASOBO_material_day_night_switch":{}}},{"name":"material02","pbrMetallicRoughness":{"metallicFactor":0.0,"baseColorTexture":{"index":2}},"extensions":{"ASOBO_material_day_night_switch":{}}},{"name":"material03","pbrMetallicRoughness":{"metallicFactor":0.0,"baseColorTexture":{"index":3}},"extensions":{"ASOBO_material_day_night_switch":{}}}],"meshes":[{"primitives":[{"attributes":{"COLOR_0":5,"NORMAL":2,"POSITION":0,"TANGENT":1,"TEXCOORD_0":3,"TEXCOORD_1":4},"indices":6,"material":0,"mode":4,"extras":{"ASOBO_primitive":{"PrimitiveCount":2,"VertexType":"VTX","VertexVersion":2}}}],"name":"part000"},{"primitives":[{"attributes":{"COLOR_0":12,"NORMAL":9,"POSITION":7,"TANGENT":8,"TEXCOORD_0":10,"TEXCOORD_1":11},"indices":13,"material":3,"mode":4,"extras":{"ASOBO_primitive":{"PrimitiveCount":66,"VertexType":"VTX","VertexVersion":2}}}],"name":"part001"},{"primitives":[{"attributes":{"COLOR_0":19,"NORMAL":16,"POSITION":14,"TANGENT":15,"TEXCOORD_0":17,"TEXCOORD_1":18},"indices":20,"material":2,"mode":4,"extras":{"ASOBO_primitive":{"PrimitiveCount":25,"VertexType":"VTX","VertexVersion":2}}}],"name":"part002"},{"primitives":[{"attributes":{"COLOR_0":26,"NORMAL":23,"POSITION":21,"TANGENT":22,"TEXCOORD_0":24,"TEXCOORD_1":25},"indices":27,"material":1,"mode":4,"extras":{"ASOBO_primitive":{"PrimitiveCount":53,"VertexType":"VTX","VertexVersion":2}}}],"name":"part003"}],"nodes":[{"name":"node0","children":[1,2,3,4]},{"mesh":0,"name":"node1"},{"mesh":1,"name":"node2"},{"mesh":2,"name":"node3"},{"mesh":3,"name":"node4"}],"scene":0,"scenes":[{"nodes":[0]}],"textures":[{"extensions":{"MSFT_texture_dds":{"source":0}}},{"extensions":{"MSFT_texture_dds":{"source":1}}},{"extensions":{"MSFT_texture_dds":{"source":2}}},{"extensions":{"MSFT_texture_dds":{"source":3}}}],"extensionsUsed":["ASOBO_material_day_night_switch","MSFT_texture_dds","ASOBO_asset_optimized"],"buffers":[{"byteLength":9084,"uri":"HERZELIAHANGAR1.bin"}],"images":[{"uri":"HANGAR1ROOF.PNG.DDS","extras":"ASOBO_image_converted_meta"},{"uri":"HANGAR1WALL1.PNG.DDS","extras":"ASOBO_image_converted_meta"},{"uri":"HANGAR1WALL2.PNG.DDS","extras":"ASOBO_image_converted_meta"},{"uri":"HANGAR1WALL3.PNG.DDS","extras":"ASOBO_image_converted_meta"}]}
