{"accessors":[{"bufferView":0,"componentType":5126,"count":8576,"min":[0.4857200086116791,-0.4525200128555298,-5.791999816894531],"max":[3.5923500061035158,3.331470012664795,3.7884700298309328],"type":"VEC3","name":"part000_vertices#0_POSITION"},{"bufferView":0,"byteOffset":12,"componentType":5120,"count":8576,"type":"VEC4","name":"part000_vertices#0_TANGENT"},{"bufferView":0,"byteOffset":16,"componentType":5120,"count":8576,"type":"VEC4","name":"part000_vertices#0_NORMAL"},{"bufferView":0,"byteOffset":20,"componentType":5122,"count":8576,"type":"VEC2","name":"part000_vertices#0_TEXCOORD_0"},{"bufferView":0,"byteOffset":24,"componentType":5122,"count":8576,"type":"VEC2","name":"part000_vertices#0_TEXCOORD_1"},{"bufferView":0,"byteOffset":28,"componentType":5123,"count":8576,"type":"VEC4","name":"part000_vertices#0_COLOR_0"},{"bufferView":1,"componentType":5123,"count":9918,"type":"SCALAR","name":"part000_indices#0"},{"bufferView":0,"byteOffset":308736,"componentType":5126,"count":209,"min":[1.9977200031280518,3.259469985961914,-4.691999912261963],"max":[2.0297200679779054,3.2954699993133547,-4.659999847412109],"type":"VEC3","name":"part001_vertices#0_POSITION"},{"bufferView":0,"byteOffset":308748,"componentType":5120,"count":209,"type":"VEC4","name":"part001_vertices#0_TANGENT"},{"bufferView":0,"byteOffset":308752,"componentType":5120,"count":209,"type":"VEC4","name":"part001_vertices#0_NORMAL"},{"bufferView":0,"byteOffset":308756,"componentType":5122,"count":209,"type":"VEC2","name":"part001_vertices#0_TEXCOORD_0"},{"bufferView":0,"byteOffset":308760,"componentType":5122,"count":209,"type":"VEC2","name":"part001_vertices#0_TEXCOORD_1"},{"bufferView":0,"byteOffset":308764,"componentType":5123,"count":209,"type":"VEC4","name":"part001_vertices#0_COLOR_0"},{"bufferView":1,"byteOffset":19836,"componentType":5123,"count":237,"type":"SCALAR","name":"part001_indices#0"},{"bufferView":0,"byteOffset":316260,"componentType":5126,"count":159,"min":[1.4737199544906617,1.9881999492645264,-0.9079999923706055],"max":[2.281719923019409,2.351480007171631,-0.1466899961233139],"type":"VEC3","name":"part002_vertices#0_POSITION"},{"bufferView":0,"byteOffset":316272,"componentType":5120,"count":159,"type":"VEC4","name":"part002_vertices#0_TANGENT"},{"bufferView":0,"byteOffset":316276,"componentType":5120,"count":159,"type":"VEC4","name":"part002_vertices#0_NORMAL"},{"bufferView":0,"byteOffset":316280,"componentType":5122,"count":159,"type":"VEC2","name":"part002_vertices#0_TEXCOORD_0"},{"bufferView":0,"byteOffset":316284,"componentType":5122,"count":159,"type":"VEC2","name":"part002_vertices#0_TEXCOORD_1"},{"bufferView":0,"byteOffset":316288,"componentType":5123,"count":159,"type":"VEC4","name":"part002_vertices#0_COLOR_0"},{"bufferView":1,"byteOffset":20310,"componentType":5123,"count":183,"type":"SCALAR","name":"part002_indices#0"},{"bufferView":0,"byteOffset":321984,"componentType":5126,"count":4557,"min":[-5.218279838562012,0.6674799919128418,-5.480199813842773],"max":[9.245719909667969,1.9754799604415894,0.7319999933242798],"type":"VEC3","name":"part003_vertices#0_POSITION"},{"bufferView":0,"byteOffset":321996,"componentType":5120,"count":4557,"type":"VEC4","name":"part003_vertices#0_TANGENT"},{"bufferView":0,"byteOffset":322000,"componentType":5120,"count":4557,"type":"VEC4","name":"part003_vertices#0_NORMAL"},{"bufferView":0,"byteOffset":322004,"componentType":5122,"count":4557,"type":"VEC2","name":"part003_vertices#0_TEXCOORD_0"},{"bufferView":0,"byteOffset":322008,"componentType":5122,"count":4557,"type":"VEC2","name":"part003_vertices#0_TEXCOORD_1"},{"bufferView":0,"byteOffset":322012,"componentType":5123,"count":4557,"type":"VEC4","name":"part003_vertices#0_COLOR_0"},{"bufferView":1,"byteOffset":20676,"componentType":5123,"count":6261,"type":"SCALAR","name":"part003_indices#0"},{"bufferView":0,"byteOffset":486036,"componentType":5126,"count":820,"min":[1.4457199573516846,1.3994799852371216,-2.7079999446868898],"max":[2.6217200756073,2.8634800910949709,-0.18799999356269837],"type":"VEC3","name":"part004_vertices#0_POSITION"},{"bufferView":0,"byteOffset":486048,"componentType":5120,"count":820,"type":"VEC4","name":"part004_vertices#0_TANGENT"},{"bufferView":0,"byteOffset":486052,"componentType":5120,"count":820,"type":"VEC4","name":"part004_vertices#0_NORMAL"},{"bufferView":0,"byteOffset":486056,"componentType":5122,"count":820,"type":"VEC2","name":"part004_vertices#0_TEXCOORD_0"},{"bufferView":0,"byteOffset":486060,"componentType":5122,"count":820,"type":"VEC2","name":"part004_vertices#0_TEXCOORD_1"},{"bufferView":0,"byteOffset":486064,"componentType":5123,"count":820,"type":"VEC4","name":"part004_vertices#0_COLOR_0"},{"bufferView":1,"byteOffset":33198,"componentType":5123,"count":858,"type":"SCALAR","name":"part004_indices#0"},{"bufferView":0,"byteOffset":515556,"componentType":5126,"count":208,"min":[-5.234280109405518,1.439479947090149,0.10000000149011612],"max":[-5.18228006362915,1.4994800090789796,0.15600000321865083],"type":"VEC3","name":"part005_vertices#0_POSITION"},{"bufferView":0,"byteOffset":515568,"componentType":5120,"count":208,"type":"VEC4","name":"part005_vertices#0_TANGENT"},{"bufferView":0,"byteOffset":515572,"componentType":5120,"count":208,"type":"VEC4","name":"part005_vertices#0_NORMAL"},{"bufferView":0,"byteOffset":515576,"componentType":5122,"count":208,"type":"VEC2","name":"part005_vertices#0_TEXCOORD_0"},{"bufferView":0,"byteOffset":515580,"componentType":5122,"count":208,"type":"VEC2","name":"part005_vertices#0_TEXCOORD_1"},{"bufferView":0,"byteOffset":515584,"componentType":5123,"count":208,"type":"VEC4","name":"part005_vertices#0_COLOR_0"},{"bufferView":1,"byteOffset":34914,"componentType":5123,"count":240,"type":"SCALAR","name":"part005_indices#0"},{"bufferView":0,"byteOffset":523044,"componentType":5126,"count":204,"min":[9.20971965789795,1.439479947090149,0.10000000149011612],"max":[9.26572036743164,1.4994800090789796,0.15600000321865083],"type":"VEC3","name":"part006_vertices#0_POSITION"},{"bufferView":0,"byteOffset":523056,"componentType":5120,"count":204,"type":"VEC4","name":"part006_vertices#0_TANGENT"},{"bufferView":0,"byteOffset":523060,"componentType":5120,"count":204,"type":"VEC4","name":"part006_vertices#0_NORMAL"},{"bufferView":0,"byteOffset":523064,"componentType":5122,"count":204,"type":"VEC2","name":"part006_vertices#0_TEXCOORD_0"},{"bufferView":0,"byteOffset":523068,"componentType":5122,"count":204,"type":"VEC2","name":"part006_vertices#0_TEXCOORD_1"},{"bufferView":0,"byteOffset":523072,"componentType":5123,"count":204,"type":"VEC4","name":"part006_vertices#0_COLOR_0"},{"bufferView":1,"byteOffset":35394,"componentType":5123,"count":240,"type":"SCALAR","name":"part006_indices#0"}],"asset":{"generator":"ModelConverterX","version":"2.0","extensions":{"ASOBO_asset_optimized":{"BoundingBoxMax":[9.26572036743164,3.331470012664795,3.7884700298309328],"BoundingBoxMin":[-5.234280109405518,-0.4525200128555298,-5.791999816894531],"MajorVersion":4,"MinorVersion":4,"UseCheckerboardMaterialForMissingTextures":true,"UseOnlyFilenameForImageURI":true}}},"bufferViews":[{"buffer":0,"byteLength":530388,"byteStride":36,"target":34962,"name":"BufferViewVertexND"},{"buffer":0,"byteLength":35874,"byteOffset":530388,"target":34963,"name":"BufferViewIndex"}],"extensionsRequired":["MSFT_texture_dds"],"materials":[{"name":"material00","pbrMetallicRoughness":{"baseColorFactor":[0.6039215922355652,0.0,0.0,1.0],"metallicFactor":0.0},"extensions":{"ASOBO_material_day_night_switch":{}}},{"name":"material01","pbrMetallicRoughness":{"baseColorFactor":[0.0117647098377347,0.46666669845581057,0.0,1.0],"metallicFactor":0.0},"extensions":{"ASOBO_material_day_night_switch":{}}},{"name":"material02","pbrMetallicRoughness":{"metallicFactor":0.0},"extensions":{"ASOBO_material_day_night_switch":{}}},{"name":"material03","pbrMetallicRoughness":{"metallicFactor":0.0,"roughnessFactor":0.0,"baseColorTexture":{"index":0}},"extensions":{"ASOBO_material_day_night_switch":{}}},{"name":"material04","pbrMetallicRoughness":{"metallicFactor":0.0,"baseColorTexture":{"index":1}},"extensions":{"ASOBO_material_day_night_switch":{}}},{"name":"material05","pbrMetallicRoughness":{"metallicFactor":0.0,"baseColorTexture":{"index":2}},"extensions":{"ASOBO_material_day_night_switch":{}}},{"name":"material06","pbrMetallicRoughness":{"metallicFactor":0.0,"baseColorTexture":{"index":3}},"extensions":{"ASOBO_material_day_night_switch":{}}}],"meshes":[{"primitives":[{"attributes":{"COLOR_0":5,"NORMAL":2,"POSITION":0,"TANGENT":1,"TEXCOORD_0":3,"TEXCOORD_1":4},"indices":6,"material":3,"mode":4,"extras":{"ASOBO_primitive":{"PrimitiveCount":3306,"VertexType":"VTX","VertexVersion":2}}}],"name":"part000"},{"primitives":[{"attributes":{"COLOR_0":12,"NORMAL":9,"POSITION":7,"TANGENT":8,"TEXCOORD_0":10,"TEXCOORD_1":11},"indices":13,"material":2,"mode":4,"extras":{"ASOBO_primitive":{"PrimitiveCount":79,"VertexType":"VTX","VertexVersion":2}}}],"name":"part001"},{"primitives":[{"attributes":{"COLOR_0":19,"NORMAL":16,"POSITION":14,"TANGENT":15,"TEXCOORD_0":17,"TEXCOORD_1":18},"indices":20,"material":4,"mode":4,"extras":{"ASOBO_primitive":{"PrimitiveCount":61,"VertexType":"VTX","VertexVersion":2}}}],"name":"part002"},{"primitives":[{"attributes":{"COLOR_0":26,"NORMAL":23,"POSITION":21,"TANGENT":22,"TEXCOORD_0":24,"TEXCOORD_1":25},"indices":27,"material":6,"mode":4,"extras":{"ASOBO_primitive":{"PrimitiveCount":2087,"VertexType":"VTX","VertexVersion":2}}}],"name":"part003"},{"primitives":[{"attributes":{"COLOR_0":33,"NORMAL":30,"POSITION":28,"TANGENT":29,"TEXCOORD_0":31,"TEXCOORD_1":32},"indices":34,"material":5,"mode":4,"extras":{"ASOBO_primitive":{"PrimitiveCount":286,"VertexType":"VTX","VertexVersion":2}}}],"name":"part004"},{"primitives":[{"attributes":{"COLOR_0":40,"NORMAL":37,"POSITION":35,"TANGENT":36,"TEXCOORD_0":38,"TEXCOORD_1":39},"indices":41,"material":1,"mode":4,"extras":{"ASOBO_primitive":{"PrimitiveCount":80,"VertexType":"VTX","VertexVersion":2}}}],"name":"part005"},{"primitives":[{"attributes":{"COLOR_0":47,"NORMAL":44,"POSITION":42,"TANGENT":43,"TEXCOORD_0":45,"TEXCOORD_1":46},"indices":48,"material":0,"mode":4,"extras":{"ASOBO_primitive":{"PrimitiveCount":80,"VertexType":"VTX","VertexVersion":2}}}],"name":"part006"}],"nodes":[{"name":"node0","children":[1,2,3,4,5,6,7]},{"mesh":0,"name":"node1"},{"mesh":1,"name":"node2"},{"mesh":2,"name":"node3"},{"mesh":3,"name":"node4"},{"mesh":4,"name":"node5"},{"mesh":5,"name":"node6"},{"mesh":6,"name":"node7"}],"scene":0,"scenes":[{"nodes":[0]}],"textures":[{"extensions":{"MSFT_texture_dds":{"source":0}}},{"extensions":{"MSFT_texture_dds":{"source":1}}},{"extensions":{"MSFT_texture_dds":{"source":2}}},{"extensions":{"MSFT_texture_dds":{"source":3}}}],"extensionsUsed":["ASOBO_material_day_night_switch","MSFT_texture_dds","ASOBO_asset_optimized"],"buffers":[{"byteLength":566262,"uri":"ChimNirThrush_LOD0.bin"}],"images":[{"uri":"FUSELAGE_T_CHIMNIR.PNG.DDS","extras":"ASOBO_image_converted_meta"},{"uri":"PANELS_CHIMNIR.PNG.DDS","extras":"ASOBO_image_converted_meta"},{"uri":"VC_CHIMNIR.PNG.DDS","extras":"ASOBO_image_converted_meta"},{"uri":"WINGS_T_CHIMNIR.PNG.DDS","extras":"ASOBO_image_converted_meta"}]}
