{"accessors":[{"bufferView":0,"componentType":5126,"count":4519,"min":[0.4857200086116791,-0.4525200128555298,-5.788000106811523],"max":[3.592210054397583,3.3268399238586427,3.7834699153900148],"type":"VEC3","name":"part000_vertices#0_POSITION"},{"bufferView":0,"byteOffset":12,"componentType":5120,"count":4519,"type":"VEC4","name":"part000_vertices#0_TANGENT"},{"bufferView":0,"byteOffset":16,"componentType":5120,"count":4519,"type":"VEC4","name":"part000_vertices#0_NORMAL"},{"bufferView":0,"byteOffset":20,"componentType":5122,"count":4519,"type":"VEC2","name":"part000_vertices#0_TEXCOORD_0"},{"bufferView":0,"byteOffset":24,"componentType":5122,"count":4519,"type":"VEC2","name":"part000_vertices#0_TEXCOORD_1"},{"bufferView":0,"byteOffset":28,"componentType":5123,"count":4519,"type":"VEC4","name":"part000_vertices#0_COLOR_0"},{"bufferView":1,"componentType":5123,"count":4893,"type":"SCALAR","name":"part000_indices#0"},{"bufferView":0,"byteOffset":162684,"componentType":5126,"count":36,"min":[1.9977200031280518,3.2622199058532717,-4.6867499351501469],"max":[2.0297200679779054,3.2914700508117677,-4.662439823150635],"type":"VEC3","name":"part001_vertices#0_POSITION"},{"bufferView":0,"byteOffset":162696,"componentType":5120,"count":36,"type":"VEC4","name":"part001_vertices#0_TANGENT"},{"bufferView":0,"byteOffset":162700,"componentType":5120,"count":36,"type":"VEC4","name":"part001_vertices#0_NORMAL"},{"bufferView":0,"byteOffset":162704,"componentType":5122,"count":36,"type":"VEC2","name":"part001_vertices#0_TEXCOORD_0"},{"bufferView":0,"byteOffset":162708,"componentType":5122,"count":36,"type":"VEC2","name":"part001_vertices#0_TEXCOORD_1"},{"bufferView":0,"byteOffset":162712,"componentType":5123,"count":36,"type":"VEC4","name":"part001_vertices#0_COLOR_0"},{"bufferView":1,"byteOffset":9786,"componentType":5123,"count":36,"type":"SCALAR","name":"part001_indices#0"},{"bufferView":0,"byteOffset":163980,"componentType":5126,"count":24,"min":[1.8014800548553467,1.9921300411224366,-0.16685999929904939],"max":[1.9025700092315674,1.9986399412155152,-0.14938999712467194],"type":"VEC3","name":"part002_vertices#0_POSITION"},{"bufferView":0,"byteOffset":163992,"componentType":5120,"count":24,"type":"VEC4","name":"part002_vertices#0_TANGENT"},{"bufferView":0,"byteOffset":163996,"componentType":5120,"count":24,"type":"VEC4","name":"part002_vertices#0_NORMAL"},{"bufferView":0,"byteOffset":164000,"componentType":5122,"count":24,"type":"VEC2","name":"part002_vertices#0_TEXCOORD_0"},{"bufferView":0,"byteOffset":164004,"componentType":5122,"count":24,"type":"VEC2","name":"part002_vertices#0_TEXCOORD_1"},{"bufferView":0,"byteOffset":164008,"componentType":5123,"count":24,"type":"VEC4","name":"part002_vertices#0_COLOR_0"},{"bufferView":1,"byteOffset":9858,"componentType":5123,"count":24,"type":"SCALAR","name":"part002_indices#0"},{"bufferView":0,"byteOffset":164844,"componentType":5126,"count":1593,"min":[-5.218279838562012,0.6714800000190735,-5.476200103759766],"max":[9.245719909667969,1.9754799604415894,0.7239999771118164],"type":"VEC3","name":"part003_vertices#0_POSITION"},{"bufferView":0,"byteOffset":164856,"componentType":5120,"count":1593,"type":"VEC4","name":"part003_vertices#0_TANGENT"},{"bufferView":0,"byteOffset":164860,"componentType":5120,"count":1593,"type":"VEC4","name":"part003_vertices#0_NORMAL"},{"bufferView":0,"byteOffset":164864,"componentType":5122,"count":1593,"type":"VEC2","name":"part003_vertices#0_TEXCOORD_0"},{"bufferView":0,"byteOffset":164868,"componentType":5122,"count":1593,"type":"VEC2","name":"part003_vertices#0_TEXCOORD_1"},{"bufferView":0,"byteOffset":164872,"componentType":5123,"count":1593,"type":"VEC4","name":"part003_vertices#0_COLOR_0"},{"bufferView":1,"byteOffset":9906,"componentType":5123,"count":1857,"type":"SCALAR","name":"part003_indices#0"},{"bufferView":0,"byteOffset":222192,"componentType":5126,"count":246,"min":[1.4637199640274048,1.403480052947998,-2.7079999446868898],"max":[2.5927200317382814,2.8634800910949709,-0.23199999332427979],"type":"VEC3","name":"part004_vertices#0_POSITION"},{"bufferView":0,"byteOffset":222204,"componentType":5120,"count":246,"type":"VEC4","name":"part004_vertices#0_TANGENT"},{"bufferView":0,"byteOffset":222208,"componentType":5120,"count":246,"type":"VEC4","name":"part004_vertices#0_NORMAL"},{"bufferView":0,"byteOffset":222212,"componentType":5122,"count":246,"type":"VEC2","name":"part004_vertices#0_TEXCOORD_0"},{"bufferView":0,"byteOffset":222216,"componentType":5122,"count":246,"type":"VEC2","name":"part004_vertices#0_TEXCOORD_1"},{"bufferView":0,"byteOffset":222220,"componentType":5123,"count":246,"type":"VEC4","name":"part004_vertices#0_COLOR_0"},{"bufferView":1,"byteOffset":13620,"componentType":5123,"count":246,"type":"SCALAR","name":"part004_indices#0"},{"bufferView":0,"byteOffset":231048,"componentType":5126,"count":54,"min":[-5.2287797927856449,1.4424799680709839,0.10899999737739563],"max":[-5.186279773712158,1.4960999488830567,0.15600000321865083],"type":"VEC3","name":"part005_vertices#0_POSITION"},{"bufferView":0,"byteOffset":231060,"componentType":5120,"count":54,"type":"VEC4","name":"part005_vertices#0_TANGENT"},{"bufferView":0,"byteOffset":231064,"componentType":5120,"count":54,"type":"VEC4","name":"part005_vertices#0_NORMAL"},{"bufferView":0,"byteOffset":231068,"componentType":5122,"count":54,"type":"VEC2","name":"part005_vertices#0_TEXCOORD_0"},{"bufferView":0,"byteOffset":231072,"componentType":5122,"count":54,"type":"VEC2","name":"part005_vertices#0_TEXCOORD_1"},{"bufferView":0,"byteOffset":231076,"componentType":5123,"count":54,"type":"VEC4","name":"part005_vertices#0_COLOR_0"},{"bufferView":1,"byteOffset":14112,"componentType":5123,"count":54,"type":"SCALAR","name":"part005_indices#0"},{"bufferView":0,"byteOffset":232992,"componentType":5126,"count":60,"min":[9.212719917297364,1.4424799680709839,0.10249999910593033],"max":[9.26572036743164,1.4963500499725342,0.15600000321865083],"type":"VEC3","name":"part006_vertices#0_POSITION"},{"bufferView":0,"byteOffset":233004,"componentType":5120,"count":60,"type":"VEC4","name":"part006_vertices#0_TANGENT"},{"bufferView":0,"byteOffset":233008,"componentType":5120,"count":60,"type":"VEC4","name":"part006_vertices#0_NORMAL"},{"bufferView":0,"byteOffset":233012,"componentType":5122,"count":60,"type":"VEC2","name":"part006_vertices#0_TEXCOORD_0"},{"bufferView":0,"byteOffset":233016,"componentType":5122,"count":60,"type":"VEC2","name":"part006_vertices#0_TEXCOORD_1"},{"bufferView":0,"byteOffset":233020,"componentType":5123,"count":60,"type":"VEC4","name":"part006_vertices#0_COLOR_0"},{"bufferView":1,"byteOffset":14220,"componentType":5123,"count":60,"type":"SCALAR","name":"part006_indices#0"}],"asset":{"generator":"ModelConverterX","version":"2.0","extensions":{"ASOBO_asset_optimized":{"BoundingBoxMax":[9.26572036743164,3.3268399238586427,3.7834699153900148],"BoundingBoxMin":[-5.2287797927856449,-0.4525200128555298,-5.788000106811523],"MajorVersion":4,"MinorVersion":4,"UseCheckerboardMaterialForMissingTextures":true,"UseOnlyFilenameForImageURI":true}}},"bufferViews":[{"buffer":0,"byteLength":235152,"byteStride":36,"target":34962,"name":"BufferViewVertexND"},{"buffer":0,"byteLength":14340,"byteOffset":235152,"target":34963,"name":"BufferViewIndex"}],"extensionsRequired":["MSFT_texture_dds"],"materials":[{"name":"material00","pbrMetallicRoughness":{"baseColorFactor":[0.6039215922355652,0.0,0.0,1.0],"metallicFactor":0.0},"extensions":{"ASOBO_material_day_night_switch":{}}},{"name":"material01","pbrMetallicRoughness":{"baseColorFactor":[0.0117647098377347,0.46666669845581057,0.0,1.0],"metallicFactor":0.0},"extensions":{"ASOBO_material_day_night_switch":{}}},{"name":"material02","pbrMetallicRoughness":{"metallicFactor":0.0},"extensions":{"ASOBO_material_day_night_switch":{}}},{"name":"material03","pbrMetallicRoughness":{"metallicFactor":0.0,"roughnessFactor":0.0,"baseColorTexture":{"index":0}},"extensions":{"ASOBO_material_day_night_switch":{}}},{"name":"material04","pbrMetallicRoughness":{"metallicFactor":0.0,"baseColorTexture":{"index":1}},"extensions":{"ASOBO_material_day_night_switch":{}}},{"name":"material05","pbrMetallicRoughness":{"metallicFactor":0.0,"baseColorTexture":{"index":2}},"extensions":{"ASOBO_material_day_night_switch":{}}},{"name":"material06","pbrMetallicRoughness":{"metallicFactor":0.0,"baseColorTexture":{"index":3}},"extensions":{"ASOBO_material_day_night_switch":{}}}],"meshes":[{"primitives":[{"attributes":{"COLOR_0":5,"NORMAL":2,"POSITION":0,"TANGENT":1,"TEXCOORD_0":3,"TEXCOORD_1":4},"indices":6,"material":3,"mode":4,"extras":{"ASOBO_primitive":{"PrimitiveCount":1631,"VertexType":"VTX","VertexVersion":2}}}],"name":"part000"},{"primitives":[{"attributes":{"COLOR_0":12,"NORMAL":9,"POSITION":7,"TANGENT":8,"TEXCOORD_0":10,"TEXCOORD_1":11},"indices":13,"material":2,"mode":4,"extras":{"ASOBO_primitive":{"PrimitiveCount":12,"VertexType":"VTX","VertexVersion":2}}}],"name":"part001"},{"primitives":[{"attributes":{"COLOR_0":19,"NORMAL":16,"POSITION":14,"TANGENT":15,"TEXCOORD_0":17,"TEXCOORD_1":18},"indices":20,"material":4,"mode":4,"extras":{"ASOBO_primitive":{"PrimitiveCount":8,"VertexType":"VTX","VertexVersion":2}}}],"name":"part002"},{"primitives":[{"attributes":{"COLOR_0":26,"NORMAL":23,"POSITION":21,"TANGENT":22,"TEXCOORD_0":24,"TEXCOORD_1":25},"indices":27,"material":6,"mode":4,"extras":{"ASOBO_primitive":{"PrimitiveCount":619,"VertexType":"VTX","VertexVersion":2}}}],"name":"part003"},{"primitives":[{"attributes":{"COLOR_0":33,"NORMAL":30,"POSITION":28,"TANGENT":29,"TEXCOORD_0":31,"TEXCOORD_1":32},"indices":34,"material":5,"mode":4,"extras":{"ASOBO_primitive":{"PrimitiveCount":82,"VertexType":"VTX","VertexVersion":2}}}],"name":"part004"},{"primitives":[{"attributes":{"COLOR_0":40,"NORMAL":37,"POSITION":35,"TANGENT":36,"TEXCOORD_0":38,"TEXCOORD_1":39},"indices":41,"material":1,"mode":4,"extras":{"ASOBO_primitive":{"PrimitiveCount":18,"VertexType":"VTX","VertexVersion":2}}}],"name":"part005"},{"primitives":[{"attributes":{"COLOR_0":47,"NORMAL":44,"POSITION":42,"TANGENT":43,"TEXCOORD_0":45,"TEXCOORD_1":46},"indices":48,"material":0,"mode":4,"extras":{"ASOBO_primitive":{"PrimitiveCount":20,"VertexType":"VTX","VertexVersion":2}}}],"name":"part006"}],"nodes":[{"name":"node0","children":[1,2,3,4,5,6,7]},{"mesh":0,"name":"node15"},{"mesh":1,"name":"node16"},{"mesh":2,"name":"node17"},{"mesh":3,"name":"node18"},{"mesh":4,"name":"node19"},{"mesh":5,"name":"node20"},{"mesh":6,"name":"node21"}],"scene":0,"scenes":[{"nodes":[0]}],"textures":[{"extensions":{"MSFT_texture_dds":{"source":0}}},{"extensions":{"MSFT_texture_dds":{"source":1}}},{"extensions":{"MSFT_texture_dds":{"source":2}}},{"extensions":{"MSFT_texture_dds":{"source":3}}}],"extensionsUsed":["ASOBO_material_day_night_switch","MSFT_texture_dds","ASOBO_asset_optimized"],"buffers":[{"byteLength":249492,"uri":"ChimNirThrush_LOD2.bin"}],"images":[{"uri":"FUSELAGE_T_CHIMNIR.PNG.DDS","extras":"ASOBO_image_converted_meta"},{"uri":"PANELS_CHIMNIR.PNG.DDS","extras":"ASOBO_image_converted_meta"},{"uri":"VC_CHIMNIR.PNG.DDS","extras":"ASOBO_image_converted_meta"},{"uri":"WINGS_T_CHIMNIR.PNG.DDS","extras":"ASOBO_image_converted_meta"}]}
